<svg width="24" height="24" viewBox="0 0 24 24" fill="none" xmlns="http://www.w3.org/2000/svg">
<path d="M10.0773 7.00216C9.31657 7.63505 8.56381 8.26184 7.81104 8.88796C6.81289 9.71871 5.81739 10.5522 4.81525 11.3768C4.67361 11.4934 4.61376 11.6106 4.61509 11.8017C4.62307 13.657 4.61975 15.5123 4.61975 17.3676C4.61975 17.4435 4.62373 17.5207 4.61642 17.5959C4.59448 17.827 4.4249 17.993 4.20945 17.9998C3.99665 18.0066 3.81045 17.8473 3.77787 17.6217C3.7659 17.5383 3.77122 17.4523 3.77122 17.3683C3.77122 15.7759 3.77122 14.1828 3.77122 12.5904C3.77122 12.4983 3.77122 12.4068 3.77122 12.2537C3.44138 12.5274 3.14879 12.7693 2.85686 13.0126C2.53035 13.2857 2.27964 13.3114 2.0981 13.0878C1.91523 12.8628 1.98771 12.6209 2.31821 12.3451C4.77735 10.2981 7.23582 8.25032 9.69495 6.20326C10.0201 5.93222 10.1511 5.93357 10.4783 6.208C11.0356 6.67556 11.5942 7.14243 12.1661 7.6215C12.6296 7.16208 13.0811 6.71486 13.5339 6.26763C13.8884 5.91731 14.0161 5.9146 14.4024 6.23782C16.8163 8.26117 19.2303 10.2845 21.6435 12.3079C21.7014 12.356 21.7599 12.4041 21.8151 12.4549C22.0226 12.6453 22.0585 12.8933 21.9075 13.083C21.7492 13.2816 21.4952 13.2965 21.2658 13.1108C21.0005 12.8953 20.7411 12.6724 20.4452 12.4244C20.4399 12.5498 20.4326 12.6372 20.4326 12.7246C20.4319 14.2831 20.4319 15.8423 20.4319 17.4008C20.4319 17.4855 20.4359 17.5722 20.4199 17.6535C20.3787 17.8643 20.1912 18.0086 19.9877 17.9991C19.7822 17.9889 19.6146 17.8311 19.5894 17.6142C19.5794 17.5309 19.5847 17.4448 19.5847 17.3601C19.5847 15.5475 19.5874 13.7342 19.578 11.9216C19.5774 11.8064 19.5162 11.6546 19.4311 11.5828C17.6589 10.0846 15.8794 8.59523 14.1012 7.10448C14.0699 7.07874 14.0367 7.0557 13.9835 7.01572C13.6211 7.41957 13.2633 7.81801 12.8936 8.23C13.3039 8.5749 13.7694 8.96724 14.2362 9.3589C15.4112 10.3435 16.5863 11.328 17.7613 12.3126C17.8318 12.3716 17.9049 12.4292 17.9694 12.4942C18.141 12.6663 18.1576 12.915 18.0133 13.0898C17.8677 13.266 17.6243 13.3026 17.4315 13.1488C17.0777 12.8676 16.7359 12.5708 16.3881 12.2814C16.3189 12.2238 16.2478 12.1696 16.1454 12.0883C16.1394 12.2096 16.1321 12.2977 16.1321 12.3858C16.1314 14.0459 16.1321 15.7068 16.1301 17.3669C16.1301 17.476 16.1287 17.5898 16.0988 17.6928C16.037 17.9063 15.88 18.0147 15.6646 17.993C15.4511 17.972 15.3161 17.8419 15.2895 17.6176C15.2789 17.5255 15.2829 17.4313 15.2829 17.3384C15.2829 15.4154 15.2855 13.4923 15.2762 11.5693C15.2756 11.4547 15.2124 11.3036 15.1273 11.2318C13.5093 9.86304 11.8834 8.50307 10.2589 7.14175C10.2043 7.09703 10.1445 7.05366 10.0773 7.00216Z" fill="#1B3D13"/>
<path d="M11.956 12.6043C11.956 13.0698 11.958 13.5347 11.9554 14.0002C11.9534 14.36 11.8104 14.5111 11.4566 14.5131C10.5436 14.5172 9.6299 14.5172 8.71687 14.5131C8.36243 14.5118 8.2128 14.3586 8.21147 14.0056C8.20881 13.0752 8.20948 12.1449 8.21147 11.2138C8.21214 10.8595 8.36309 10.6975 8.71155 10.6955C9.62458 10.6901 10.5383 10.6901 11.4513 10.6955C11.8031 10.6975 11.9527 10.8554 11.9554 11.2091C11.958 11.6733 11.956 12.1388 11.956 12.6043ZM9.07729 11.5689C9.07729 11.781 9.07729 11.9694 9.07729 12.1578C9.27479 12.1578 9.45368 12.1578 9.64386 12.1578C9.64386 11.9565 9.64386 11.7688 9.64386 11.5689C9.45035 11.5689 9.27213 11.5689 9.07729 11.5689ZM10.5256 11.5696C10.5256 11.7803 10.5256 11.968 10.5256 12.1584C10.7231 12.1584 10.9014 12.1584 11.0935 12.1584C11.0935 11.9579 11.0935 11.7708 11.0935 11.5696C10.9007 11.5696 10.7225 11.5696 10.5256 11.5696ZM9.64785 13.0508C9.45235 13.0508 9.26748 13.0508 9.0733 13.0508C9.0733 13.2521 9.0733 13.4405 9.0733 13.6316C9.2728 13.6316 9.457 13.6316 9.64785 13.6316C9.64785 13.4296 9.64785 13.248 9.64785 13.0508ZM11.0869 13.639C11.0869 13.4249 11.0869 13.2385 11.0869 13.0495C10.8881 13.0495 10.7098 13.0495 10.5217 13.0495C10.5217 13.2521 10.5217 13.4398 10.5217 13.639C10.7158 13.639 10.8947 13.639 11.0869 13.639Z" fill="#1B3D13"/>
<path d="M9.07715 11.5742C9.27266 11.5742 9.45021 11.5742 9.64372 11.5742C9.64372 11.7741 9.64372 11.9618 9.64372 12.1631C9.45353 12.1631 9.27465 12.1631 9.07715 12.1631C9.07715 11.9747 9.07715 11.7863 9.07715 11.5742Z" fill="white"/>
<path d="M10.5254 11.5742C10.7229 11.5742 10.9004 11.5742 11.0933 11.5742C11.0933 11.7748 11.0933 11.9625 11.0933 12.1631C10.9018 12.1631 10.7229 12.1631 10.5254 12.1631C10.5254 11.9727 10.5254 11.785 10.5254 11.5742Z" fill="white"/>
<path d="M9.6478 13.0547C9.6478 13.2525 9.6478 13.4342 9.6478 13.6354C9.45628 13.6354 9.27207 13.6354 9.07324 13.6354C9.07324 13.4443 9.07324 13.2566 9.07324 13.0547C9.26808 13.0547 9.45229 13.0547 9.6478 13.0547Z" fill="white"/>
<path d="M11.0867 13.6403C10.8945 13.6403 10.7157 13.6403 10.5215 13.6403C10.5215 13.4411 10.5215 13.2534 10.5215 13.0508C10.7097 13.0508 10.8879 13.0508 11.0867 13.0508C11.0867 13.2392 11.0867 13.4262 11.0867 13.6403Z" fill="white"/>
</svg>
