<svg width="24" height="24" viewBox="0 0 24 24" fill="none" xmlns="http://www.w3.org/2000/svg">
<path d="M2.00051 19.0143C2.06999 18.6003 2.11393 18.1794 2.21406 17.7732C2.58957 16.2501 3.39728 15.0027 4.56007 13.9968C5.41785 13.255 6.38906 12.7278 7.46703 12.4095C7.52221 12.3932 7.57534 12.3706 7.65759 12.3406C6.19185 11.3478 5.40048 9.9936 5.49602 8.17903C5.56295 6.91215 6.09836 5.86045 7.03788 5.04339C8.8071 3.50504 11.501 3.65866 13.1364 5.56477C14.4933 7.14627 14.8397 10.5323 12.0088 12.3364C12.3373 12.4569 12.6653 12.5595 12.98 12.6957C15.1534 13.6406 16.6758 15.2163 17.3865 17.5644C17.5796 18.2015 17.6409 18.8623 17.6521 19.5273C17.6578 19.8556 17.6598 20.1844 17.6501 20.5122C17.6424 20.7758 17.5101 20.9447 17.3068 20.9846C17.105 21.0241 16.9093 20.9404 16.8373 20.7516C16.7938 20.6374 16.7826 20.5048 16.7811 20.3801C16.7719 19.6772 16.8005 18.9738 16.66 18.2778C16.4715 17.3439 16.0975 16.4979 15.5299 15.7472C14.4259 14.2872 12.9663 13.4028 11.2124 13.0861C8.86432 12.662 6.73595 13.2108 4.92893 14.848C3.77943 15.8898 3.08768 17.215 2.91296 18.7918C2.84961 19.3616 2.88077 19.9429 2.86442 20.5185C2.85472 20.8605 2.59365 21.0857 2.3096 20.9689C2.18647 20.9183 2.10218 20.7684 2 20.6637C2.00051 20.1134 2.00051 19.5636 2.00051 19.0143ZM6.34614 8.46945C6.34512 10.4334 7.91713 12.0523 9.8253 12.0523C11.7365 12.0523 13.2994 10.4408 13.2994 8.46945C13.2994 6.49336 11.7437 4.89187 9.8253 4.8924C7.90895 4.89293 6.34716 6.49862 6.34614 8.46945Z" fill="#1B3D13"/>
<path d="M17.8309 12.3572C18.6738 12.6392 19.408 13.0464 20.0456 13.6262C21.2794 14.7473 21.9497 16.1468 21.9946 17.8503C22.0023 18.1381 22.0007 18.427 21.9956 18.7147C21.99 19.012 21.8138 19.2098 21.5644 19.2119C21.3156 19.214 21.145 19.0157 21.1307 18.719C21.1036 18.1581 21.1307 17.5857 21.0311 17.0385C20.7675 15.5859 19.9521 14.5106 18.7382 13.7482C17.9208 13.2353 17.0242 12.9896 16.0703 12.9517C16.0443 12.9506 16.0182 12.9496 15.9922 12.948C15.6662 12.9301 15.4736 12.7597 15.4782 12.4935C15.4828 12.2314 15.6667 12.0684 15.9845 12.052C16.5531 12.0236 17.0645 11.8384 17.5167 11.4781C18.3499 10.8146 18.706 9.67927 18.4107 8.61547C18.121 7.57271 17.226 6.80248 16.1827 6.69884C16.0857 6.68937 15.9881 6.68358 15.891 6.67148C15.6432 6.64096 15.4716 6.45262 15.4782 6.22165C15.4854 5.98174 15.6739 5.7834 15.9288 5.78919C16.1684 5.79445 16.4137 5.8097 16.6446 5.86968C18.0659 6.23954 18.9977 7.15077 19.2997 8.63178C19.5939 10.077 19.1249 11.2813 18.0041 12.2099C17.9555 12.2514 17.907 12.293 17.8309 12.3572Z" fill="#1B3D13"/>
</svg>
