<svg width="24" height="24" viewBox="0 0 24 24" fill="none" xmlns="http://www.w3.org/2000/svg">
<path d="M22 5.79675C22 9.59935 22 13.4014 22 17.204C21.9917 17.2134 21.9781 17.2217 21.9755 17.2327C21.6766 18.4348 20.9521 19.0009 19.7109 19.0009C15.4031 19.0009 11.0953 19.0009 6.78802 19.0009C5.87708 19.0009 4.96615 19.0077 4.05521 18.9978C3.15677 18.9884 2.38125 18.4072 2.1026 17.554C2.0651 17.4384 2.03438 17.3207 2 17.204C2 13.4014 2 9.59935 2 5.79675C2.03385 5.68008 2.06458 5.56185 2.10208 5.44675C2.39427 4.553 3.18281 4.00039 4.17188 4.00039C9.39063 3.99987 14.6094 3.99987 19.8286 4.00039C19.887 4.00039 19.9458 4.00091 20.0042 4.003C20.8906 4.03425 21.6885 4.66654 21.9208 5.52175C21.9458 5.61341 21.9734 5.70456 22 5.79675ZM12.0089 4.82956C9.40469 4.82956 6.80104 4.82904 4.19687 4.83008C3.35365 4.8306 2.83021 5.35195 2.83021 6.1931C2.82917 9.73477 2.82917 13.2764 2.83021 16.8181C2.83073 17.6457 3.35729 18.1702 4.18854 18.1702C9.39635 18.1712 14.6042 18.1712 19.8125 18.1702C20.6422 18.1702 21.1693 17.6447 21.1698 16.8165C21.1714 13.2749 21.1708 9.7332 21.1682 6.19154C21.1682 6.04362 21.1542 5.8905 21.1156 5.74779C20.9604 5.17331 20.4724 4.83008 19.8214 4.82956C17.2172 4.82904 14.613 4.82956 12.0089 4.82956Z" fill="#1B3D13"/>
<path d="M8.24003 13.1719C7.70618 13.1719 7.17285 13.1688 6.63899 13.1725C5.85618 13.1777 5.33691 13.7011 5.33014 14.4881C5.32805 14.7355 5.33378 14.9829 5.32753 15.2298C5.32128 15.4923 5.14056 15.6756 4.90514 15.6683C4.67441 15.6615 4.49785 15.4824 4.50253 15.2287C4.51087 14.8006 4.4817 14.3615 4.5666 13.9469C4.76191 12.9891 5.58951 12.348 6.59993 12.3355C7.69941 12.3214 8.79941 12.3193 9.89889 12.336C11.1213 12.3542 11.9947 13.2615 11.9994 14.4865C12.0005 14.7272 12.002 14.9683 11.9989 15.2089C11.9947 15.486 11.8187 15.674 11.5744 15.6678C11.3374 15.6621 11.1749 15.4813 11.1708 15.2105C11.1666 14.9568 11.1739 14.7027 11.1687 14.449C11.1525 13.698 10.6312 13.1798 9.87962 13.1725C9.33326 13.1678 8.78691 13.1719 8.24003 13.1719Z" fill="#1B3D13"/>
<path d="M6.17139 9.41799C6.17139 8.26746 7.10993 7.32736 8.25368 7.33205C9.40368 7.33622 10.3334 8.27528 10.3282 9.4258C10.3229 10.5706 9.39691 11.4972 8.25576 11.4998C7.1068 11.5029 6.17191 10.569 6.17139 9.41799ZM8.24795 8.17163C7.5542 8.17267 6.99743 8.73153 7.00055 9.42371C7.00368 10.1024 7.56201 10.6628 8.24222 10.669C8.92607 10.6753 9.49847 10.107 9.50003 9.42007C9.50107 8.7284 8.94222 8.17059 8.24795 8.17163Z" fill="#1B3D13"/>
<path d="M16.5697 15.672C15.7895 15.672 15.0088 15.6725 14.2286 15.6714C14.151 15.6714 14.0718 15.6699 13.9963 15.6532C13.7947 15.6095 13.6713 15.4501 13.6729 15.248C13.6744 15.0464 13.8005 14.8897 14.0041 14.8485C14.0796 14.8334 14.1593 14.8329 14.2369 14.8329C15.7979 14.8319 17.3588 14.8324 18.9197 14.8324C18.9588 14.8324 18.9979 14.8313 19.0369 14.8329C19.3187 14.8438 19.5015 15.0121 19.4989 15.2563C19.4963 15.5006 19.314 15.6694 19.0291 15.6704C18.2088 15.6746 17.3895 15.672 16.5697 15.672Z" fill="#1B3D13"/>
<path d="M16.5892 8.16992C17.3632 8.16992 18.1371 8.16992 18.9106 8.16992C18.9757 8.16992 19.0408 8.16836 19.1054 8.17305C19.3314 8.19075 19.4965 8.36211 19.4981 8.57878C19.5002 8.79388 19.3366 8.97774 19.1137 8.99492C18.9715 9.00586 18.8278 8.99909 18.6845 8.99909C17.2017 8.99909 15.7194 8.99909 14.2366 8.99909C14.1715 8.99909 14.1059 9.00274 14.0418 8.99492C13.8189 8.96836 13.6663 8.78971 13.6725 8.56732C13.6788 8.35169 13.8304 8.1845 14.0528 8.17513C14.3189 8.16367 14.5856 8.1694 14.8522 8.1694C15.4319 8.1694 16.0106 8.16992 16.5892 8.16992Z" fill="#1B3D13"/>
<path d="M16.5755 12.3316C15.7823 12.3316 14.9891 12.3326 14.1953 12.33C14.1058 12.33 14.0104 12.3269 13.9271 12.2983C13.75 12.2378 13.6532 12.0566 13.6756 11.8613C13.6964 11.6785 13.8443 11.5259 14.0354 11.5071C14.1578 11.4951 14.2823 11.5019 14.4058 11.5019C15.9146 11.5019 17.4229 11.5019 18.9318 11.5019C18.9969 11.5019 19.0625 11.4983 19.1266 11.5061C19.3469 11.5332 19.5068 11.7212 19.4974 11.9352C19.488 12.1457 19.3292 12.3102 19.111 12.3274C19.0141 12.3352 18.9162 12.3316 18.8183 12.3316C18.0714 12.3316 17.3235 12.3316 16.5755 12.3316Z" fill="#1B3D13"/>
</svg>
