<svg width="24" height="24" viewBox="0 0 24 24" fill="none" xmlns="http://www.w3.org/2000/svg">
<path d="M0.199979 16.4079L0.199968 16.4079C0.0222311 17.187 0.327038 18.0042 0.981099 18.4739C1.2517 18.668 1.56371 18.761 1.90703 18.85H1.92396H1.94196H1.95996H1.97797H1.99597H2.01397H2.03197H2.04998H2.06798H2.08598H2.10398H2.12199H2.13999H2.15799H2.17599H2.194H2.212H2.23H2.248H2.26601H2.28401H2.30201H2.32002H2.33802H2.35602H2.37402H2.39203H2.41003H2.42803H2.44603H2.46404H2.48204H2.50004H2.51805H2.53605H2.55405H2.57205H2.59006H2.60806H2.62606H2.64407H2.66207H2.68007H2.69807H2.71608H2.73408H2.75208H2.77009H2.78809H2.80609H2.82409H2.8421H2.8601H2.8781H2.89611H2.91411H2.93211H2.95011H2.96812H2.98612H3.00412H3.02213H3.04013H3.05813H3.07614H3.09414H3.11214H3.13015H3.14815H3.16615H3.18416H3.20216H3.22016H3.23816H3.25617H3.27417H3.29217H3.31018H3.32818H3.34618H3.36419H3.38219H3.40019H3.4182H3.4362H3.4542H3.47221H3.49021H3.50821H3.52622H3.54422H3.56222H3.58023H3.59823H3.61623H3.63424H3.65224H3.67024H3.68825H3.70625H3.72425H3.74226H3.76026H3.77826H3.79627H3.81427H3.83228H3.85028H3.86828H3.88629H3.90429H3.92229H3.9403H3.9583H3.9763H3.99431H4.01231H4.03031H4.04832H4.06632H4.08433H4.10233H4.12033H4.13834H4.15634H4.17434H4.19235H4.21035H4.22836H4.24636H4.26436H4.28237H4.30037H4.31837H4.33638H4.35438H4.37239H4.39039H4.40839H4.4264H4.4444H4.46241H4.48041H4.49841H4.51642H4.53442H4.55242H4.57043H4.58843H4.60644H4.62444H4.64244H4.66045H4.67845H4.69646H4.71446H4.73246H4.75047H4.76847H4.78648H4.80448H4.82248H4.84049H4.85849H4.8765H4.8945H4.91251H4.93051H4.94851H4.96652H4.98452H5.00253H5.02053H5.03853H5.05654H5.07454H5.09255H5.11055H5.12856H5.14656H5.16456H5.18257H5.20057H5.21858H5.23658H5.25459H5.27259H5.2906H5.3086H5.3266H5.34461H5.36261H5.38062H5.39862H5.41663H5.43463H5.45263H5.47064H5.48864H5.50665H5.52465H5.54266H5.56066H5.57867H5.59667H5.61468H5.63268H5.65068H5.66869H5.68669H5.7047H5.7227H5.74071H5.75871H5.77672H5.79472H5.81273H5.83073H5.84873H5.86674H5.88474H5.90275H5.92075H5.93876H5.95676H5.97477H5.99277H6.01078H6.02878H6.04679H6.06479H6.0828H6.1008H6.11881H6.13681H6.15482H6.17282H6.19083H6.20883H6.22684H6.24484H6.26285H6.28085H6.29885H6.31686H6.33486H6.35287H6.37087H6.38888H6.40688H6.42489H6.44289H6.4609H6.4789H6.49691H6.51491H6.53292H6.55092H6.56893H6.58694H6.60494H6.62295H6.64095H6.65896H6.67696H6.69497H6.71297H6.73098H6.74898H6.76699H6.78499H6.803H6.821H6.83901H6.85701H6.87502H6.89302H6.91103H6.92903H6.94704H6.96504H6.98305H7.00105H7.01906H7.03707H7.05507H7.07308H7.09108H7.10909H7.12709H7.1451H7.1631H7.18111H7.19911H7.21712H7.23513H7.25313H7.27114H7.28914H7.30715H7.32515H7.34316H7.36116H7.37917H7.39717H7.41518H7.43319H7.45119H7.4692H7.4872H7.50521H7.52321H7.54122H7.55923H7.57723H7.59524H7.61324H7.63125H7.64925H7.66726H7.68527H7.70327H7.72128H7.73928H7.75729H7.77529H7.7933H7.81131H7.82931H7.84732H7.86532H7.88333H7.90133H7.91934H7.93735H7.95535H7.97336H7.99136H8.00937H8.02738H8.04538H8.06339H8.08139H8.0994H8.1174H8.13541H8.15342H8.17142H8.18943H8.20743H8.22544H8.24345H8.26145H8.27946H8.29747H8.31547H8.33348H8.35148H8.36949H8.3875H8.4055H8.42351H8.44151H8.45952H8.47753H8.49553H8.51354H8.53154H8.54955H8.56756H8.58556H8.60357H8.62158H8.63958H8.65759H8.6756H8.6936H8.71161H8.72961H8.74762H8.76563H8.78363H8.80164H8.81965H8.83765H8.85566H8.87366H8.89167H8.90968H8.92768H8.94569H8.9637H8.9817H8.99971H9.01772H9.03572H9.05373H9.07174H9.08974H9.10775H9.12576H9.14376H9.16177H9.17978H9.19778H9.21579H9.2338H9.2518H9.26981H9.28781H9.30582H9.32383H9.34184H9.35984H9.37785H9.39585H9.41386H9.43187H9.44987H9.46788H9.48589H9.50389H9.5219H9.53991H9.55792H9.57592H9.59393H9.61194H9.62994H9.64795H9.66596H9.68396H9.70197H9.71998H9.73798H9.75599H9.774H9.792H9.81001H9.82802H9.84603H9.86403H9.88204H9.90005H9.91805H9.93606H9.95407H9.97207H9.99008H10.0081H10.0261H10.0441H10.0621H10.0801H10.0981H10.1161H10.1341H10.1521H10.1702H10.1882H10.2062H10.2242H10.2422H10.2602H10.2782H10.2962H10.3142H10.3322H10.3502H10.3682H10.3862H10.4042H10.4223H10.4403H10.4583H10.4763H10.4943H10.5123H10.5303H10.5483H10.5663H10.5843H10.6023H10.6203H10.6383H10.6563H10.6744H10.6924H10.7104H10.7284H10.7464H10.7644H10.7824H10.8004H10.8184H10.8364H10.8544H10.8724H10.8904H10.9085H10.9265H10.9445H10.9625H10.9805H10.9985H11.0165H11.0345H11.0525H11.0705H11.0756C11.0858 18.8457 11.0956 18.8415 11.1052 18.8374C11.1396 18.8229 11.1713 18.8094 11.2042 18.7941C11.4139 18.6958 11.5401 18.4879 11.5248 18.274L11.5248 18.2739C11.5159 18.1494 11.4802 18.0495 11.4236 17.9717C11.3673 17.8944 11.2844 17.8309 11.1679 17.788L11.1678 17.7879C11.0763 17.7542 10.9613 17.7457 10.8349 17.7457H10.8348C8.942 17.7439 7.04927 17.7437 5.15647 17.7435C4.20958 17.7434 3.26268 17.7433 2.31575 17.7431L0.199979 16.4079ZM0.199979 16.4079C0.597254 14.6638 1.43324 13.1596 2.71749 11.8993C3.6719 10.9627 4.79082 10.2749 6.06223 9.82701L6.06232 9.82698M0.199979 16.4079L6.06232 9.82698M6.06232 9.82698C6.10419 9.8122 6.14676 9.79663 6.19373 9.77945C6.22029 9.76973 6.24827 9.7595 6.27832 9.74861L6.53139 9.65686M6.06232 9.82698L6.53139 9.65686M6.53139 9.65686L6.32022 9.48992C5.08969 8.51714 4.44085 7.28793 4.43825 5.76388C4.43608 4.49944 4.90626 3.40587 5.81703 2.50747C7.64705 0.702316 10.5814 0.696675 12.4533 2.49562M6.53139 9.65686L12.4533 2.49562M12.4533 2.49562C13.1074 3.12437 13.5316 3.88818 13.7329 4.76846L13.7329 4.76848C13.9357 5.65454 13.8739 6.5283 13.5565 7.37842L13.5565 7.3785C13.2421 8.2217 12.7109 8.91779 11.9697 9.47301L11.7577 9.63185L12.003 9.73194C12.1134 9.77697 12.2213 9.82036 12.3274 9.86304C12.5647 9.95846 12.7931 10.0503 13.0199 10.1489L12.4533 2.49562ZM13.375 10.7607C13.4239 10.519 13.2976 10.2701 13.0199 10.1489L13.375 10.7607ZM13.375 10.7607C13.3042 11.111 12.9566 11.3016 12.587 11.1673C12.4614 11.1216 12.3344 11.0729 12.2059 11.0238C11.8511 10.8879 11.4857 10.7481 11.1122 10.6554C9.16648 10.1715 7.28576 10.3868 5.49857 11.2829C3.94875 12.0601 2.78242 13.2284 1.9856 14.746L1.98559 14.746C1.6636 15.3595 1.43859 16.0094 1.29639 16.6836C1.19024 17.1858 1.51999 17.6438 2.02492 17.7261L2.02513 17.7262C2.12578 17.7424 2.2274 17.7431 2.3157 17.7431L13.375 10.7607ZM9.16738 2.25509L9.16735 2.25509L5.71169 5.75973L5.5617 5.75833C5.5617 5.75834 5.5617 5.75835 5.5617 5.75837C5.54394 7.6565 7.13968 9.28565 9.03424 9.30269C11.0715 9.32101 12.6968 7.79012 12.7202 5.81083L12.7202 5.81076C12.7422 3.87219 11.1409 2.27574 9.16738 2.25509Z" fill="#1B3D13" stroke="white" stroke-width="0.3"/>
<path d="M19.875 14.5345C19.8479 14.6876 19.8288 14.8429 19.792 14.9938C19.6948 15.3926 19.4996 15.7451 19.2559 16.0717C18.8797 16.5754 18.4223 17.0012 17.9502 17.4116C17.3936 17.8955 16.8342 18.376 16.2749 18.8568C16.0602 19.0413 15.8294 19.0494 15.6224 18.8699C14.8949 18.2394 14.1655 17.6108 13.4466 16.9702C13.0771 16.641 12.7451 16.2741 12.4746 15.8561C11.9894 15.1071 11.8579 14.3047 12.1654 13.4612C12.4434 12.6983 12.9832 12.1993 13.7937 12.0431C14.6337 11.8813 15.3102 12.182 15.8473 12.8285C15.8766 12.8637 15.9037 12.9009 15.9395 12.9469C15.9724 12.9049 16.0011 12.8672 16.031 12.8306C16.3425 12.4497 16.7221 12.1707 17.2078 12.0558C18.0547 11.8553 18.9536 12.2088 19.4428 12.9276C19.6842 13.2826 19.818 13.6744 19.8611 14.0994C19.8638 14.1269 19.8704 14.1539 19.875 14.1812C19.875 14.2988 19.875 14.4167 19.875 14.5345ZM15.9372 18.5343C15.957 18.5189 15.9734 18.5072 15.9884 18.4941C16.6122 17.9552 17.24 17.4205 17.8584 16.8752C18.2871 16.4973 18.6945 16.0967 19.0125 15.616C19.3165 15.1565 19.4667 14.6565 19.3972 14.1029C19.3221 13.5054 19.0664 13.0094 18.5355 12.6971C18.0407 12.406 17.5188 12.3704 16.9932 12.6221C16.6825 12.7708 16.453 13.014 16.261 13.2949C16.2408 13.3246 16.2223 13.3552 16.2025 13.385C16.0583 13.6016 15.8257 13.5999 15.6767 13.3877C15.577 13.2457 15.4767 13.1014 15.3577 12.9761C14.945 12.5416 14.4367 12.3721 13.8499 12.4987C13.2169 12.6354 12.8011 13.036 12.5903 13.639C12.3454 14.3399 12.4617 14.9993 12.8658 15.6141C13.1164 15.9955 13.4233 16.3297 13.7608 16.6329C14.3185 17.1345 14.8876 17.6237 15.4525 18.1172C15.612 18.2573 15.774 18.3943 15.9372 18.5343Z" fill="#1B3D13"/>
</svg>
