<svg width="24" height="24" viewBox="0 0 24 24" fill="none" xmlns="http://www.w3.org/2000/svg">
<path d="M11.9989 14.0714C9.92397 14.0714 8.22891 12.386 8.22891 10.3014C8.22891 8.21714 9.92363 6.54141 11.9989 6.54141C14.0738 6.54141 15.7689 8.2268 15.7689 10.3114C15.7689 12.3957 14.0742 14.0714 11.9989 14.0714ZM11.9989 7.84141C10.6439 7.84141 9.52891 8.9459 9.52891 10.3114C9.52891 11.6766 10.6337 12.7814 11.9989 12.7814C13.3641 12.7814 14.4689 11.6766 14.4689 10.3114C14.4689 8.9459 13.3539 7.84141 11.9989 7.84141Z" fill="#1B3D13" stroke="white" stroke-width="0.2"/>
<path d="M2.98913 8.35225L2.98916 8.35214C4.08637 3.51849 8.30627 1.35 12.0016 1.35H12.0016H12.0016H12.0016H12.0016H12.0016H12.0016H12.0017H12.0017H12.0017H12.0017H12.0017H12.0017H12.0017H12.0017H12.0017H12.0017H12.0017H12.0018H12.0018H12.0018H12.0018H12.0018H12.0018H12.0018H12.0018H12.0018H12.0018H12.0018H12.0019H12.0019H12.0019H12.0019H12.0019H12.0019H12.0019H12.0019H12.0019H12.002H12.002H12.002H12.002H12.002H12.002H12.002H12.002H12.0021H12.0021H12.0021H12.0021H12.0021H12.0021H12.0021H12.0021H12.0021H12.0021H12.0021H12.0021H12.0022H12.0022H12.0022H12.0022H12.0022H12.0022H12.0022H12.0022H12.0022H12.0022H12.0022H12.0023H12.0023H12.0023H12.0023H12.0023H12.0023H12.0023H12.0023H12.0023H12.0023H12.0024H12.0024H12.0024H12.0024H12.0024H12.0024H12.0024H12.0024H12.0024H12.0024H12.0025H12.0025H12.0025H12.0025H12.0025H12.0025H12.0025H12.0025H12.0026H12.0026H12.0026H12.0026H12.0026H12.0026H12.0026H12.0026H12.0027H12.0027H12.0027H12.0027H12.0027H12.0027H12.0027H12.0028H12.0028H12.0028H12.0028H12.0028H12.0028H12.0028H12.0029H12.0029H12.0029H12.0029H12.0029H12.0029H12.0029H12.003H12.003H12.003H12.003H12.003H12.003H12.0031H12.0031H12.0031H12.0031H12.0031H12.0031H12.0031H12.0032H12.0032H12.0032H12.0032H12.0032H12.0033H12.0033H12.0033H12.0033H12.0033H12.0033H12.0034H12.0034H12.0034H12.0034H12.0034H12.0035H12.0035H12.0035H12.0035H12.0035H12.0036H12.0036H12.0036H12.0036H12.0036H12.0037H12.0037H12.0037H12.0037H12.0037H12.0038H12.0038H12.0038H12.0038H12.0038H12.0039H12.0039H12.0039H12.0039H12.004H12.004H12.004H12.004H12.004H12.0041H12.0041H12.0041H12.0041H12.0042H12.0042H12.0042H12.0042H12.0043H12.0043H12.0043H12.0043H12.0044H12.0044H12.0044H12.0044H12.0045H12.0045H12.0045H12.0045H12.0046H12.0046H12.0046H12.0046H12.0047H12.0047H12.0047H12.0047H12.0048H12.0048H12.0048H12.0049H12.0049H12.0049H12.0049H12.005H12.005H12.005H12.005H12.0051H12.0051H12.0051H12.0052H12.0052H12.0052H12.0053H12.0053H12.0053H12.0053H12.0054H12.0054H12.0054H12.0055H12.0055H12.0055H12.0056H12.0056H12.0056H12.0057H12.0057H12.0057H12.0058H12.0058H12.0058H12.0059H12.0059H12.0059H12.006H12.006H12.006H12.0061H12.0061H12.0061H12.0062H12.0062H12.0062H12.0063H12.0063H12.0063H12.0064H12.0064H12.0064H12.0065H12.0065H12.0065H12.0066H12.0066H12.0067H12.0067H12.0067H12.0068H12.0068H12.0068H12.0069H12.0069H12.007H12.007H12.007H12.0071H12.0071H12.0072H12.0072H12.0072H12.0073H12.0073H12.0074H12.0074H12.0074H12.0075H12.0075H12.0076H12.0076H12.0076H12.0077H12.0077H12.0078H12.0078H12.0079H12.0079H12.0079H12.008H12.008H12.0081H12.0081H12.0082H12.0082H12.0083H12.0083H12.0083H12.0084H12.0084H12.0085H12.0085H12.0086H12.0086H12.0087H12.0087H12.0088H12.0088H12.0089H12.0089H12.0089H12.009H12.009H12.0091H12.0091H12.0092H12.0092H12.0093H12.0093H12.0094H12.0094H12.0095H12.0095H12.0096H12.0096H12.0097H12.0097H12.0098H12.0098H12.0099H12.0099H12.01H12.01H12.0101H12.0102H12.0102H12.0103H12.0103H12.0104H12.0104H12.0105H12.0105H12.0106H12.0106H12.0107H12.0107H12.0108H12.0109H12.0109H12.011H12.011H12.0111H12.0111H12.0112H12.0113H12.0113H12.0114H12.0114H12.0115H12.0115H12.0116C15.7069 1.35 19.9268 3.51842 21.0241 8.36209C22.2318 13.698 19.0065 18.1835 16.0624 21.0178C14.9214 22.1096 13.4564 22.66 12.0016 22.66C10.5468 22.66 9.08182 22.1096 7.94085 21.0178C4.99682 18.1835 1.77149 13.6881 2.98913 8.35225ZM19.7592 8.63804L19.7591 8.63764C18.7453 4.21759 14.9413 2.65 12.0016 2.65C9.06182 2.65 5.26782 4.21768 4.26414 8.6378C3.17163 13.4027 6.16754 17.4974 8.85219 20.0719C10.6209 21.7794 13.3923 21.7794 15.1611 20.0719C17.8357 17.4974 20.8315 13.4028 19.7592 8.63804Z" fill="#1B3D13" stroke="white" stroke-width="0.2"/>
</svg>
