<svg width="13" height="18" viewBox="0 0 13 18" fill="none" xmlns="http://www.w3.org/2000/svg">
<path d="M6.3623 18C6.21161 17.8758 6.03939 17.7701 5.91418 17.6239C4.41473 15.875 3.0383 14.0344 1.88944 12.0323C1.2221 10.8687 0.637345 9.66501 0.275335 8.36444C-0.267681 6.41293 -0.0168237 4.5702 1.11094 2.88999C2.18204 1.29389 3.69379 0.336857 5.60401 0.0695204C7.47205 -0.192091 9.1569 0.286208 10.615 1.47799C11.901 2.52884 12.6667 3.89679 12.9277 5.54838C13.1307 6.83265 12.8864 8.05394 12.4436 9.24881C11.8505 10.8502 11.0017 12.3168 10.0606 13.7323C9.15558 15.0941 8.15785 16.3863 7.09071 17.6239C6.96506 17.7697 6.79284 17.8754 6.64259 18C6.54901 18 6.45544 18 6.3623 18ZM6.50332 9.79845C8.30151 9.79713 9.76757 8.32612 9.77064 6.51951C9.77416 4.71554 8.3125 3.24232 6.51035 3.23396C4.7104 3.22515 3.22941 4.71113 3.23424 6.52127C3.23908 8.32876 4.70645 9.79978 6.50332 9.79845Z" fill="#FFC107"/>
</svg>
