<svg width="24" height="24" viewBox="0 0 24 24" fill="none" xmlns="http://www.w3.org/2000/svg">
<path d="M12.0084 22C6.48605 22.0084 2.00282 17.5327 2 12.0099C1.99719 6.48135 6.46352 2.00564 11.9915 2.00001C17.5167 1.99438 21.9972 6.46446 22 11.9901C22.0056 17.5158 17.5365 21.9915 12.0084 22ZM10.1273 13.9156C10.0372 13.817 9.97239 13.7382 9.89918 13.665C9.10503 12.8684 8.31372 12.0718 7.51394 11.2808C7.00141 10.7741 6.22698 10.791 5.75388 11.3061C5.31175 11.7903 5.3399 12.5109 5.83554 13.0063C6.9479 14.1238 8.06589 15.2357 9.18107 16.3504C9.80062 16.9697 10.4793 16.9669 11.1045 16.3448C12.7716 14.6784 14.4387 13.0091 16.1059 11.3427C16.8099 10.639 17.5139 9.94089 18.2123 9.23153C18.5503 8.88811 18.6404 8.46868 18.4939 8.01548C18.3475 7.55947 18.0152 7.28642 17.5449 7.20478C17.1056 7.12878 16.7451 7.29486 16.4325 7.60732C14.8555 9.1893 13.2729 10.7685 11.693 12.3505C11.1777 12.8628 10.6652 13.3779 10.1273 13.9156Z" fill="#006FFF"/>
<path d="M10.1272 13.9117C10.6651 13.374 11.1776 12.8589 11.6901 12.3466C13.27 10.7674 14.8526 9.18825 16.4297 7.60345C16.7394 7.291 17.0999 7.12773 17.542 7.20092C18.0123 7.27974 18.3446 7.5556 18.4911 8.01162C18.6375 8.46482 18.5474 8.88425 18.2094 9.22767C17.511 9.93702 16.807 10.6351 16.103 11.3389C14.4359 13.0053 12.7687 14.6745 11.1016 16.341C10.4764 16.9659 9.79773 16.9687 9.17818 16.3466C8.06301 15.2319 6.94783 14.1172 5.83265 13.0025C5.33983 12.507 5.30886 11.7836 5.75099 11.3023C6.22409 10.7871 6.99852 10.7702 7.51105 11.2769C8.31083 12.0679 9.10215 12.8645 9.89629 13.6612C9.97232 13.7343 10.0399 13.8132 10.1272 13.9117Z" fill="white"/>
</svg>
