<svg width="24" height="24" viewBox="0 0 24 24" fill="none" xmlns="http://www.w3.org/2000/svg">
<path d="M10.2804 22.6618L10.2802 22.6618C8.02088 22.2846 6.0564 21.314 4.43914 19.6991C2.00864 17.2715 0.941939 14.3282 1.25255 10.9117C1.46066 8.62259 2.35606 6.6003 3.88892 4.87903C5.92594 2.59188 8.48441 1.36251 11.5431 1.21341C13.6745 1.10985 15.6754 1.60549 17.4982 2.71726L17.6023 2.54651L17.4982 2.71727C20.3059 4.4296 22.0258 6.90289 22.6317 10.1427L22.6317 10.1429C22.6839 10.4201 22.7173 10.6968 22.7516 10.9809C22.767 11.1083 22.7825 11.2371 22.8 11.3681V11.3698V11.3724V11.3749V11.3774V11.3799V11.3824V11.3849V11.3875V11.39V11.3925V11.395V11.3975V11.4001V11.4026V11.4051V11.4076V11.4101V11.4127V11.4152V11.4177V11.4202V11.4227V11.4252V11.4278V11.4303V11.4328V11.4353V11.4378V11.4404V11.4429V11.4454V11.4479V11.4504V11.453V11.4555V11.458V11.4605V11.463V11.4655V11.4681V11.4706V11.4731V11.4756V11.4781V11.4807V11.4832V11.4857V11.4882V11.4907V11.4932V11.4958V11.4983V11.5008V11.5033V11.5058V11.5084V11.5109V11.5134V11.5159V11.5184V11.5209V11.5235V11.526V11.5285V11.531V11.5335V11.5361V11.5386V11.5411V11.5436V11.5461V11.5486V11.5512V11.5537V11.5562V11.5587V11.5612V11.5638V11.5663V11.5688V11.5713V11.5738V11.5763V11.5789V11.5814V11.5839V11.5864V11.5889V11.5915V11.594V11.5965V11.599V11.6015V11.604V11.6066V11.6091V11.6116V11.6141V11.6166V11.6191V11.6217V11.6242V11.6267V11.6292V11.6317V11.6343V11.6368V11.6393V11.6418V11.6443V11.6468V11.6494V11.6519V11.6544V11.6569V11.6594V11.662V11.6645V11.667V11.6695V11.672V11.6745V11.6771V11.6796V11.6821V11.6846V11.6871V11.6896V11.6922V11.6947V11.6972V11.6997V11.7022V11.7048V11.7073V11.7098V11.7123V11.7148V11.7173V11.7199V11.7224V11.7249V11.7274V11.7299V11.7324V11.735V11.7375V11.74V11.7425V11.745V11.7476V11.7501V11.7526V11.7551V11.7576V11.7601V11.7627V11.7652V11.7677V11.7702V11.7727V11.7752V11.7778V11.7803V11.7828V11.7853V11.7878V11.7903V11.7929V11.7954V11.7979V11.8004V11.8029V11.8055V11.808V11.8105V11.813V11.8155V11.818V11.8206V11.8231V11.8256V11.8281V11.8306V11.8331V11.8357V11.8382V11.8407V11.8432V11.8457V11.8483V11.8508V11.8533V11.8558V11.8583V11.8608V11.8634V11.8659V11.8684V11.8709V11.8734V11.8759V11.8785V11.881V11.8835V11.886V11.8885V11.891V11.8936V11.8961V11.8986V11.9011V11.9036V11.9062V11.9087V11.9112V11.9137V11.9162V11.9187V11.9213V11.9238V11.9263V11.9288V11.9313V11.9338V11.9364V11.9389V11.9414V11.9439V11.9464V11.9489V11.9515V11.954V11.9565V11.959V11.9615V11.964V11.9666V11.9691V11.9716V11.9741V11.9766V11.9792V11.9817V11.9842V11.9867V11.9892V11.9917V11.9943V11.9968V11.9993V12.0018V12.0043V12.0068V12.0094V12.0119V12.0144V12.0169V12.0194V12.0219V12.0245V12.027V12.0295V12.032V12.0345V12.0371V12.0396V12.0421V12.0446V12.0471V12.0496V12.0522V12.0547V12.0572V12.0597V12.0622V12.0647V12.0673V12.0698V12.0723V12.0748V12.0773V12.0798V12.0824V12.0849V12.0874V12.0899V12.0924V12.095V12.0975V12.1V12.1025V12.105V12.1075V12.1101V12.1126V12.1151V12.1176V12.1201V12.1226V12.1252V12.1277V12.1302V12.1327V12.1352V12.1377V12.1403V12.1428V12.1453V12.1478V12.1503V12.1529V12.1554V12.1579V12.1604V12.1629V12.1654V12.168V12.1705V12.173V12.1755V12.178V12.1805V12.1831V12.1856V12.1881V12.1906V12.1931V12.1956V12.1982V12.2007V12.2032V12.2057V12.2082V12.2108V12.2133V12.2158V12.2183V12.2208V12.2233V12.2259V12.2284V12.2309V12.2334V12.2359V12.2384V12.241V12.2435V12.246V12.2485V12.251V12.2535V12.2561V12.2586V12.2611V12.2636V12.2661V12.2687V12.2712V12.2737V12.2762V12.2787V12.2812V12.2838V12.2863V12.2888V12.2913V12.2938V12.2963V12.2989V12.3014V12.3039V12.3064V12.3089V12.3115V12.314V12.3165V12.319V12.3215V12.324V12.3266V12.3291V12.3316V12.3341V12.3366V12.3392V12.3417V12.3442V12.3467V12.3492V12.3517V12.3543V12.3568V12.3593V12.3618V12.3643V12.3668V12.3694V12.3719V12.3744V12.3769V12.3794V12.382V12.3845V12.387V12.3895V12.392V12.3945V12.3971V12.3996V12.4021V12.4046V12.4071V12.4096V12.4122V12.4147V12.4172V12.4197V12.4222V12.4248V12.4273V12.4298V12.4323V12.4348V12.4373V12.4399V12.4424V12.4449V12.4474V12.4499V12.4525V12.455V12.4575V12.46V12.4625V12.465V12.4676V12.4701V12.4726V12.4751V12.4776V12.4802V12.4827V12.4852V12.4877V12.4902V12.4927V12.4953V12.4978V12.5003V12.5028V12.5053V12.5079V12.5104V12.5129V12.5154V12.5179V12.5204V12.523V12.5255V12.528V12.5305V12.533V12.5356V12.5381V12.5406V12.5431V12.5456V12.5482V12.5507V12.5532V12.5557V12.5582V12.5607V12.5633V12.5658V12.5683V12.5708V12.5733V12.5759V12.5784V12.5809V12.5834V12.5859V12.5884V12.591V12.5935V12.596V12.5985V12.601V12.6036V12.6061V12.6086V12.6111V12.6136V12.6162V12.6187V12.6212V12.6237V12.6262V12.6287V12.6313V12.6324L22.7963 12.6648C22.7802 12.8051 22.7641 12.9454 22.7485 13.0861C22.4897 15.4132 21.6018 17.4617 20.035 19.1999C18.3699 21.0465 16.3103 22.1975 13.8568 22.632C13.576 22.6816 13.296 22.7162 13.01 22.7515C12.884 22.7671 12.7568 22.7828 12.6279 22.8H12.6261H12.6235H12.621H12.6185H12.616H12.6135H12.6109H12.6084H12.6059H12.6034H12.6009H12.5983H12.5958H12.5933H12.5908H12.5883H12.5857H12.5832H12.5807H12.5782H12.5757H12.5731H12.5706H12.5681H12.5656H12.5631H12.5605H12.558H12.5555H12.553H12.5505H12.5479H12.5454H12.5429H12.5404H12.5379H12.5353H12.5328H12.5303H12.5278H12.5253H12.5227H12.5202H12.5177H12.5152H12.5127H12.5101H12.5076H12.5051H12.5026H12.5001H12.4975H12.495H12.4925H12.49H12.4875H12.4849H12.4824H12.4799H12.4774H12.4749H12.4723H12.4698H12.4673H12.4648H12.4623H12.4597H12.4572H12.4547H12.4522H12.4497H12.4472H12.4446H12.4421H12.4396H12.4371H12.4346H12.432H12.4295H12.427H12.4245H12.422H12.4194H12.4169H12.4144H12.4119H12.4094H12.4068H12.4043H12.4018H12.3993H12.3968H12.3942H12.3917H12.3892H12.3867H12.3842H12.3816H12.3791H12.3766H12.3741H12.3716H12.3691H12.3665H12.364H12.3615H12.359H12.3565H12.3539H12.3514H12.3489H12.3464H12.3439H12.3413H12.3388H12.3363H12.3338H12.3313H12.3287H12.3262H12.3237H12.3212H12.3187H12.3162H12.3136H12.3111H12.3086H12.3061H12.3036H12.301H12.2985H12.296H12.2935H12.291H12.2884H12.2859H12.2834H12.2809H12.2784H12.2759H12.2733H12.2708H12.2683H12.2658H12.2633H12.2607H12.2582H12.2557H12.2532H12.2507H12.2481H12.2456H12.2431H12.2406H12.2381H12.2355H12.233H12.2305H12.228H12.2255H12.223H12.2204H12.2179H12.2154H12.2129H12.2104H12.2078H12.2053H12.2028H12.2003H12.1978H12.1952H12.1927H12.1902H12.1877H12.1852H12.1827H12.1801H12.1776H12.1751H12.1726H12.1701H12.1675H12.165H12.1625H12.16H12.1575H12.1549H12.1524H12.1499H12.1474H12.1449H12.1424H12.1398H12.1373H12.1348H12.1323H12.1298H12.1272H12.1247H12.1222H12.1197H12.1172H12.1146H12.1121H12.1096H12.1071H12.1046H12.1021H12.0995H12.097H12.0945H12.092H12.0895H12.0869H12.0844H12.0819H12.0794H12.0769H12.0743H12.0718H12.0693H12.0668H12.0643H12.0618H12.0592H12.0567H12.0542H12.0517H12.0492H12.0466H12.0441H12.0416H12.0391H12.0366H12.0341H12.0315H12.029H12.0265H12.024H12.0215H12.0189H12.0164H12.0139H12.0114H12.0089H12.0063H12.0038H12.0013H11.9988H11.9963H11.9938H11.9912H11.9887H11.9862H11.9837H11.9812H11.9786H11.9761H11.9736H11.9711H11.9686H11.966H11.9635H11.961H11.9585H11.956H11.9535H11.9509H11.9484H11.9459H11.9434H11.9409H11.9383H11.9358H11.9333H11.9308H11.9283H11.9258H11.9232H11.9207H11.9182H11.9157H11.9132H11.9106H11.9081H11.9056H11.9031H11.9006H11.898H11.8955H11.893H11.8905H11.888H11.8855H11.8829H11.8804H11.8779H11.8754H11.8729H11.8703H11.8678H11.8653H11.8628H11.8603H11.8577H11.8552H11.8527H11.8502H11.8477H11.8452H11.8426H11.8401H11.8376H11.8351H11.8326H11.83H11.8275H11.825H11.8225H11.82H11.8174H11.8149H11.8124H11.8099H11.8074H11.8049H11.8023H11.7998H11.7973H11.7948H11.7923H11.7897H11.7872H11.7847H11.7822H11.7797H11.7771H11.7746H11.7721H11.7696H11.7671H11.7646H11.762H11.7595H11.757H11.7545H11.752H11.7494H11.7469H11.7444H11.7419H11.7394H11.7368H11.7343H11.7318H11.7293H11.7268H11.7243H11.7217H11.7192H11.7167H11.7142H11.7117H11.7091H11.7066H11.7041H11.7016H11.6991H11.6965H11.694H11.6915H11.689H11.6865H11.6839H11.6814H11.6789H11.6764H11.6739H11.6714H11.6688H11.6663H11.6638H11.6613H11.6588H11.6562H11.6537H11.6512H11.6487H11.6462H11.6436H11.6411H11.6386H11.6361H11.6336H11.631H11.6285H11.626H11.6235H11.621H11.6185H11.6159H11.6134H11.6109H11.6084H11.6059H11.6033H11.6008H11.5983H11.5958H11.5933H11.5907H11.5882H11.5857H11.5832H11.5807H11.5781H11.5756H11.5731H11.5706H11.5681H11.5655H11.563H11.5605H11.558H11.5555H11.553H11.5504H11.5479H11.5454H11.5429H11.5404H11.5378H11.5353H11.5328H11.5303H11.5278H11.5252H11.5227H11.5202H11.5177H11.5152H11.5126H11.5101H11.5076H11.5051H11.5026H11.5H11.4975H11.495H11.4925H11.49H11.4874H11.4849H11.4824H11.4799H11.4774H11.4748H11.4723H11.4698H11.4673H11.4648H11.4622H11.4597H11.4572H11.4547H11.4522H11.4496H11.4471H11.4446H11.4421H11.4396H11.437H11.4345H11.432H11.4295H11.427H11.4245H11.4219H11.4194H11.4169H11.4144H11.4119H11.4093H11.4068H11.4043H11.4018H11.3993H11.3967H11.3942H11.3917H11.3892H11.3867H11.3841H11.3816H11.3791H11.3766H11.3741H11.3715H11.369H11.3665H11.364H11.3638C11.2471 22.7854 11.1322 22.7723 11.0186 22.7593C10.769 22.7308 10.5253 22.7029 10.2804 22.6618ZM12.0105 2.50739L12.0104 2.50739C6.78736 2.4887 2.52701 6.73389 2.50062 11.9789L2.50062 11.9789C2.47477 17.205 6.74887 21.4868 11.9924 21.4907C17.2277 21.4951 21.4793 17.2502 21.4908 12.0083C21.5024 6.78109 17.2556 2.52662 12.0105 2.50739Z" fill="#1B3D13" stroke="white" stroke-width="0.4"/>
<path d="M11.1405 9.49248C11.1405 8.66175 11.1341 7.83102 11.1427 7.00083C11.1491 6.3525 11.7294 5.94036 12.3043 6.16203C12.6537 6.29654 12.8507 6.61183 12.8513 7.05141C12.8529 8.27598 12.8507 9.50001 12.8529 10.7246C12.8534 11.0313 12.7721 11.3826 12.8949 11.6317C13.0139 11.8733 13.3449 12.011 13.585 12.1918C14.3516 12.7686 15.1219 13.34 15.8852 13.9216C16.2997 14.2374 16.3762 14.7486 16.0839 15.1338C15.7916 15.5185 15.2785 15.5858 14.863 15.2785C14.1319 14.7383 13.4068 14.1895 12.6796 13.644C12.307 13.3647 11.9383 13.0812 11.5615 12.8084C11.2702 12.5975 11.1384 12.3188 11.14 11.9631C11.1427 11.1394 11.1405 10.3162 11.1405 9.49248Z" fill="#1B3D13"/>
</svg>
