<svg width="24" height="24" viewBox="0 0 24 24" fill="none" xmlns="http://www.w3.org/2000/svg">
<path d="M9.58286 21.9987C9.38529 21.9048 9.33786 21.7425 9.33835 21.5346C9.34324 19.778 9.34128 18.0219 9.34128 16.2652C9.34128 16.1875 9.34128 16.1102 9.34128 15.9992C9.25423 15.9992 9.17892 15.9992 9.10361 15.9992C8.11478 15.9992 7.12594 15.9909 6.13711 16.0017C5.29059 16.0109 4.59713 15.6769 4.01322 15.0911C3.17599 14.2509 2.70162 13.2083 2.40918 12.0815C1.80962 9.77133 1.85559 7.47383 2.63561 5.20763C2.92805 4.35769 3.354 3.57865 3.99513 2.9341C4.59371 2.33161 5.3033 2.002 6.17085 2.00346C10.0284 2.01129 13.8864 2.01764 17.7439 2.00004C18.8252 1.99515 19.6458 2.44751 20.303 3.25589C21.1016 4.23885 21.5232 5.39298 21.7599 6.61899C21.8557 7.11537 21.8973 7.6225 21.9643 8.12425C21.9736 8.19418 21.9878 8.26314 22 8.33258C22 12.888 22 17.4433 22 21.9987C17.8608 21.9987 13.7216 21.9987 9.58286 21.9987ZM21.3344 11.6683C21.3344 11.594 21.3344 11.5495 21.3344 11.505C21.3344 10.6589 21.3388 9.81289 21.3325 8.96686C21.3256 8.03965 21.2219 7.12368 20.9794 6.22727C20.7104 5.23306 20.3265 4.29264 19.6262 3.5141C19.1651 3.0011 18.6124 2.67002 17.895 2.67051C14.5764 2.67295 11.2573 2.67149 7.93872 2.67198C7.88444 2.67198 7.83064 2.67931 7.8145 2.68078C8.11086 3.05734 8.44634 3.4158 8.70406 3.82366C9.52956 5.13134 9.88264 6.59405 9.96333 8.11789C10.022 9.22116 9.9961 10.3293 10.0078 11.435C10.0088 11.5094 10.0078 11.5837 10.0078 11.6683C10.3996 11.6683 10.757 11.6683 11.115 11.6683C11.5053 11.6683 11.6652 11.7676 11.6618 12.0072C11.6588 12.2395 11.5009 12.3363 11.1248 12.3363C10.9038 12.3363 10.6822 12.3363 10.4612 12.3363C10.3145 12.3363 10.1678 12.3363 10.0206 12.3363C10.0206 15.3507 10.0206 18.3339 10.0206 21.319C13.7964 21.319 17.5595 21.319 21.3222 21.319C21.3222 18.3207 21.3222 15.3371 21.3222 12.3363C21.0307 12.3363 20.752 12.3383 20.4732 12.3353C20.2913 12.3334 20.1079 12.3378 19.9284 12.3143C19.7553 12.2918 19.6727 12.1578 19.6756 11.994C19.6785 11.839 19.7622 11.7206 19.9255 11.6884C20.0077 11.6717 20.0932 11.6693 20.1774 11.6688C20.5539 11.6673 20.931 11.6683 21.3344 11.6683ZM2.67326 8.90035C2.67277 10.1816 2.84344 11.3133 3.22685 12.4302C3.52956 13.3115 3.94818 14.1282 4.65582 14.7663C5.48669 15.5151 6.53959 15.5112 7.36508 14.758C8.07369 14.1115 8.50356 13.2919 8.79405 12.3994C9.52858 10.1415 9.52956 7.87337 8.796 5.61451C8.506 4.72153 8.07663 3.9019 7.37095 3.25344C6.60707 2.55167 5.68573 2.48761 4.84752 3.09304C4.29002 3.49551 3.91492 4.04959 3.61466 4.65453C2.9344 6.02286 2.69429 7.4885 2.67326 8.90035ZM9.32563 15.3253C9.32563 14.5487 9.32563 13.7922 9.32563 13.0356C8.97597 13.911 8.45368 14.6617 7.74164 15.3253C8.29718 15.3253 8.80236 15.3253 9.32563 15.3253Z" fill="#1B3D13"/>
<path d="M13.8428 12.3379C13.5831 12.3379 13.3234 12.3428 13.0638 12.3364C12.8168 12.3301 12.6667 12.1936 12.6725 11.9961C12.6784 11.8039 12.8217 11.6748 13.0608 11.6723C13.5802 11.6664 14.0995 11.6664 14.6184 11.6728C14.8546 11.6757 14.9989 11.8112 14.9999 12.0029C15.0008 12.1946 14.8566 12.3291 14.6213 12.3359C14.3622 12.3438 14.1025 12.3374 13.8428 12.3379Z" fill="#1B3D13"/>
<path d="M17.5087 12.3381C17.2491 12.3381 16.9894 12.343 16.7302 12.3367C16.4813 12.3303 16.3351 12.1978 16.3395 11.9973C16.3439 11.8041 16.4847 11.675 16.7243 11.6726C17.2432 11.6667 17.7625 11.6662 18.2814 11.6726C18.5181 11.6755 18.6599 11.8085 18.6619 12.0012C18.6638 12.1944 18.522 12.3284 18.2873 12.3357C18.0281 12.344 17.7684 12.3381 17.5087 12.3381Z" fill="#1B3D13"/>
<path d="M4.57764 9.0135C4.58742 8.37433 4.69941 7.78015 5.05738 7.25688C5.61929 6.43578 6.53721 6.46708 7.03456 7.38989C7.60576 8.44964 7.58717 9.54948 7.03456 10.621C6.92893 10.8264 6.74505 11.0088 6.55873 11.1516C6.12006 11.4875 5.53028 11.3609 5.15079 10.8787C4.71506 10.3251 4.5884 9.6781 4.57764 9.0135ZM5.24419 8.91667C5.24371 9.50547 5.3513 9.96614 5.54544 10.2958C5.833 10.7828 6.18755 10.7902 6.46043 10.2982C6.82281 9.64533 6.85411 8.94356 6.6668 8.23886C6.59736 7.97772 6.45652 7.72244 6.29758 7.5014C6.13816 7.27937 5.90488 7.29649 5.71171 7.49406C5.65352 7.55372 5.60168 7.62268 5.55864 7.69456C5.31902 8.09753 5.24908 8.54255 5.24419 8.91667Z" fill="#1B3D13"/>
</svg>
