<svg width="18" height="18" viewBox="0 0 18 18" fill="none" xmlns="http://www.w3.org/2000/svg">
<path d="M8.99652 4.141e-07C13.9578 -0.0014934 17.9995 4.03878 18 9.00075C18.0005 13.9602 13.9539 18.004 8.99403 18C4.03419 17.9965 -0.00298589 13.9513 1.65704e-06 8.9888C0.00348713 4.03978 4.04415 0.00199217 8.99652 4.141e-07ZM9.50888 6.16349C9.50888 5.2677 9.50938 4.37141 9.50788 3.47561C9.50788 3.38897 9.5054 3.30034 9.48946 3.21569C9.43718 2.94332 9.17527 2.77252 8.9039 2.8268C8.62556 2.88257 8.49062 3.08224 8.49062 3.44524C8.49013 5.16263 8.48863 6.88002 8.49311 8.59741C8.49361 8.73285 8.45527 8.82796 8.35668 8.92207C7.71436 9.53802 7.07801 10.1599 6.44017 10.7799C6.12797 11.0831 5.81178 11.3834 5.50456 11.6921C5.33427 11.8634 5.31486 12.1119 5.43685 12.31C5.55635 12.5042 5.79038 12.6033 6.001 12.5242C6.10706 12.4843 6.20863 12.4116 6.29129 12.332C7.27668 11.3819 8.25461 10.4244 9.24299 9.47727C9.43419 9.29403 9.51386 9.09436 9.51137 8.83344C9.5039 7.94313 9.50888 7.05331 9.50888 6.16349Z" fill="#FFC107"/>
</svg>
