<svg width="24" height="24" viewBox="0 0 24 24" fill="none" xmlns="http://www.w3.org/2000/svg">
<path d="M24 11.2961C24 11.765 24 12.2334 24 12.7024C23.9806 12.8714 23.9612 13.0399 23.9424 13.2089C23.6553 15.7909 22.6687 18.0689 20.9275 20.0005C19.0788 22.0507 16.7885 23.3309 14.0637 23.8134C13.6121 23.8932 13.1546 23.939 12.6995 24C12.2302 24 11.7616 24 11.2924 24C10.8907 23.9495 10.4867 23.9131 10.0879 23.8462C7.58095 23.4277 5.39578 22.3489 3.5976 20.5534C0.900345 17.8593 -0.286497 14.5847 0.0582212 10.793C0.289599 8.24803 1.28617 5.99825 2.98862 4.08656C5.24955 1.548 8.09539 0.180407 11.4909 0.0148877C13.8587 -0.100154 16.085 0.450991 18.1116 1.68711C21.227 3.58706 23.1403 6.3381 23.8127 9.93375C23.8972 10.3834 23.9389 10.8418 24 11.2961ZM22.1355 12.0086C22.1478 6.42731 17.613 1.88315 12.0106 1.86261C6.43404 1.84265 1.88341 6.37566 1.85522 11.9781C1.82762 17.5576 6.39176 22.1312 11.9918 22.1353C17.5825 22.14 22.1231 17.6069 22.1355 12.0086Z" fill="#FFE4BB"/>
<path d="M11.0621 9.26559C11.0621 8.35934 11.0551 7.45309 11.0645 6.54743C11.0715 5.84015 11.7046 5.39055 12.3317 5.63237C12.7129 5.77911 12.9278 6.12306 12.9284 6.6026C12.9302 7.9385 12.9278 9.27381 12.9302 10.6097C12.9307 10.9443 12.8421 11.3275 12.976 11.5993C13.1058 11.8628 13.4669 12.0131 13.7288 12.2103C14.5651 12.8395 15.4054 13.4629 16.2382 14.0974C16.6904 14.4419 16.7737 14.9995 16.4549 15.4198C16.136 15.8394 15.5763 15.9128 15.123 15.5776C14.3255 14.9884 13.5344 14.3897 12.7411 13.7945C12.3347 13.4899 11.9324 13.1805 11.5213 12.883C11.2036 12.6529 11.0598 12.3488 11.0615 11.9609C11.0645 11.0622 11.0621 10.1642 11.0621 9.26559Z" fill="#F8C206"/>
</svg>
