<svg width="20" height="24" viewBox="0 0 20 24" fill="none" xmlns="http://www.w3.org/2000/svg">
<path d="M13.6668 0.3125C13.8191 0.342738 13.9661 0.378016 14.1184 0.403214C16.045 0.730791 17.6721 2.3082 17.9225 4.1124C17.9551 4.35934 17.9823 4.61636 17.9823 4.86331C17.9878 7.88206 17.9878 10.9008 17.9823 13.9196C17.9823 14.8519 17.5307 15.5222 16.6055 15.9102C16.4749 15.9657 16.3279 15.9959 16.1647 16.0463C16.2191 16.142 16.2626 16.2176 16.3116 16.2983C17.4653 18.2436 18.6245 20.1889 19.7728 22.1392C19.8762 22.3156 19.9633 22.5172 19.9905 22.7137C20.0558 23.1522 19.7782 23.5654 19.3646 23.7066C18.8422 23.888 18.3742 23.767 18.064 23.379C18.0313 23.3336 17.9878 23.2933 17.966 23.2479C17.8028 22.8347 17.4871 22.7591 17.03 22.7591C12.2953 22.7793 7.55526 22.7742 2.82063 22.7641C2.46689 22.7641 2.23832 22.8397 2.09139 23.1472C1.93901 23.4596 1.68867 23.6814 1.31316 23.762C0.496848 23.9333 -0.172532 23.2983 0.0397102 22.5474C0.0832471 22.4013 0.153995 22.2602 0.230184 22.1291C1.36214 20.1889 2.4941 18.2486 3.62606 16.3083C3.6696 16.2277 3.71858 16.1521 3.76211 16.0765C3.49001 15.9707 3.2179 15.8951 2.98933 15.7641C2.29274 15.3659 1.96078 14.7662 1.96078 14.0203C1.96078 10.8806 1.94445 7.74094 1.98254 4.60124C2.00431 2.87264 3.3213 1.23476 5.0791 0.645117C5.48726 0.509047 5.91719 0.433452 6.33623 0.327619C8.78518 0.3125 11.2232 0.3125 13.6668 0.3125ZM10.0042 8.83959C11.6205 8.83959 13.2368 8.83959 14.8531 8.83959C15.6967 8.83959 16.0994 8.46665 16.1048 7.69559C16.1048 7.03035 16.1048 6.36512 16.1048 5.69989C16.1048 5.4731 16.1157 5.23624 16.0776 5.01449C15.8164 3.52276 14.5375 2.52491 12.9103 2.51987C10.9566 2.51483 9.00286 2.51483 7.04371 2.51987C6.80425 2.51987 6.5648 2.54003 6.33079 2.58538C4.87775 2.88776 3.90361 4.04184 3.91449 5.44286C3.91993 6.20889 3.94715 6.96988 3.96347 7.73591C3.9798 8.46665 4.38796 8.83959 5.1825 8.83959C6.78793 8.83959 8.39335 8.83959 10.0042 8.83959ZM16.7361 21.2069C16.7252 21.1666 16.7252 21.1464 16.7143 21.1263C16.3497 20.5265 15.9905 19.9268 15.615 19.3321C15.5715 19.2666 15.4463 19.2162 15.3593 19.2112C11.7838 19.2062 8.21376 19.2062 4.63829 19.2011C4.49136 19.2011 4.42061 19.2565 4.3553 19.3674C4.18116 19.6648 4.00157 19.952 3.82198 20.2443C3.6315 20.5568 3.44647 20.8642 3.24511 21.2019C7.76206 21.2069 12.2355 21.2069 16.7361 21.2069ZM14.6627 17.6741C14.347 17.1399 14.0531 16.6359 13.7484 16.142C13.7212 16.0967 13.6069 16.0866 13.5307 16.0866C11.1797 16.0816 8.82872 16.0866 6.47773 16.0816C6.33623 16.0816 6.2546 16.1219 6.18929 16.2378C5.94984 16.6561 5.6995 17.0693 5.45461 17.4826C5.42196 17.538 5.40019 17.5985 5.36754 17.6741C8.46954 17.6741 11.5334 17.6741 14.6627 17.6741ZM5.50903 14.1766C6.39065 14.1766 7.1199 13.5013 7.1199 12.6899C7.1199 11.8785 6.39065 11.2032 5.50903 11.2082C4.62197 11.2082 3.90905 11.8735 3.90905 12.6949C3.90905 13.5113 4.62741 14.1766 5.50903 14.1766ZM14.4885 11.2586C13.6069 11.2637 12.8831 11.939 12.8885 12.7453C12.894 13.5567 13.6341 14.2371 14.4994 14.227C15.3647 14.2219 16.1048 13.5265 16.0994 12.7302C16.0939 11.9138 15.3756 11.2536 14.4885 11.2586Z" fill="#F1BA06"/>
</svg>
