<svg width="24" height="24" viewBox="0 0 24 24" fill="none" xmlns="http://www.w3.org/2000/svg">
<path d="M13.7344 0.00976562C17.1562 0.00976562 20.5781 0.00976562 24 0.00976562C24 8.00822 24 16.002 24 24.0004C15.9984 24.0004 8.00156 24.0004 0 24.0004C0 16.002 0 8.00822 0 0.00976562C3.45469 0.00976562 6.90469 0.00976562 10.3594 0.00976562C10.3078 0.0238227 10.2563 0.0425655 10.2047 0.0472512C8.49375 0.197193 6.82969 0.567362 5.20781 1.12964C4.13438 1.49981 3.60938 2.22141 3.60938 3.36002C3.60938 6.70091 3.60938 10.0418 3.60938 13.3874C3.60938 14.7696 3.60469 16.1519 3.60938 17.5342C3.61406 18.5978 4.21875 19.4178 5.24063 19.6521C5.65781 19.7458 6.10781 19.7084 6.54375 19.7271C6.6375 19.7318 6.73594 19.7271 6.88594 19.7271C5.82656 20.847 4.81406 21.9153 3.79688 22.9883C4.14844 23.321 4.47187 23.6303 4.81406 23.9536C5.2125 23.5366 5.60156 23.1336 5.98125 22.7212C6.10313 22.59 6.225 22.5385 6.40313 22.5385C9.95625 22.5432 13.5094 22.5572 17.0672 22.5291C17.6812 22.5244 18.1406 22.651 18.5016 23.157C18.7125 23.4475 18.9937 23.6912 19.2562 23.9629C19.6078 23.6303 19.9312 23.321 20.2734 22.9977C19.2516 21.9153 18.2391 20.847 17.1891 19.7365C17.5828 19.7365 17.9156 19.7412 18.2531 19.7365C18.7547 19.7318 19.2234 19.6146 19.6312 19.3007C20.2172 18.8462 20.4703 18.2324 20.475 17.5061C20.475 16.2082 20.475 14.9149 20.475 13.617C20.475 10.1871 20.475 6.76183 20.475 3.33191C20.475 2.31043 19.9641 1.53261 19.0594 1.20461C17.7703 0.740731 16.4531 0.398677 15.0984 0.206565C14.6438 0.131594 14.1891 0.0706794 13.7344 0.00976562Z" fill="white"/>
<path d="M13.7344 0.00937121C14.1891 0.070285 14.6438 0.131199 15.0984 0.196798C16.4531 0.388911 17.775 0.730966 19.0594 1.19485C19.9688 1.52285 20.475 2.30067 20.475 3.32215C20.475 6.75206 20.475 10.1773 20.475 13.6072C20.475 14.9051 20.475 16.1984 20.475 17.4963C20.475 18.2226 20.2219 18.8364 19.6313 19.2909C19.2234 19.6049 18.7547 19.722 18.2531 19.7267C17.9203 19.7314 17.5875 19.7267 17.1891 19.7267C18.2391 20.8372 19.2516 21.9055 20.2734 22.9879C19.9313 23.3112 19.6078 23.6205 19.2563 23.9532C18.9984 23.6814 18.7125 23.4424 18.5016 23.1472C18.1359 22.6412 17.6813 22.5147 17.0672 22.5194C13.5141 22.5522 9.96095 22.5381 6.40313 22.5287C6.22501 22.5287 6.09845 22.5803 5.98126 22.7115C5.60157 23.1238 5.21251 23.5268 4.81407 23.9438C4.47188 23.6205 4.14376 23.3112 3.79688 22.9786C4.81407 21.9055 5.82657 20.8372 6.88594 19.7173C6.73126 19.7173 6.63751 19.722 6.54376 19.7173C6.10782 19.6986 5.65782 19.7361 5.24063 19.6424C4.21876 19.4081 3.61407 18.5881 3.60938 17.5244C3.6047 16.1422 3.60938 14.7599 3.60938 13.3776C3.60938 10.0367 3.60938 6.69583 3.60938 3.35026C3.60938 2.21164 4.13438 1.49005 5.20782 1.11988C6.8297 0.557596 8.49376 0.192113 10.2047 0.0374856C10.2563 0.0327999 10.3078 0.014057 10.3594 0C11.4844 0.00937135 12.6094 0.00937121 13.7344 0.00937121ZM19.0547 12.6888C19.0547 10.7864 19.0547 8.89342 19.0547 7.0004C14.3719 7.0004 9.70313 7.0004 5.0297 7.0004C5.0297 8.90279 5.0297 10.7958 5.0297 12.6888C9.71251 12.6888 14.3813 12.6888 19.0547 12.6888ZM5.01563 14.1226C5.01563 14.221 5.01563 14.296 5.01563 14.371C5.01563 15.4018 5.01563 16.4327 5.01563 17.4635C5.01563 18.0586 5.27813 18.321 5.87345 18.321C9.98907 18.321 14.1094 18.321 18.225 18.321C18.8063 18.321 19.0734 18.0539 19.0734 17.4776C19.0734 16.4374 19.0734 15.4018 19.0734 14.3616C19.0734 14.2866 19.0734 14.2117 19.0734 14.1179C14.3813 14.1226 9.71251 14.1226 5.01563 14.1226ZM19.0734 5.57127C19.0734 4.81688 19.0734 4.0906 19.0734 3.36432C19.0734 2.83015 18.9234 2.62866 18.4172 2.45061C17.0484 1.97736 15.6469 1.65404 14.2078 1.49005C11.2453 1.15736 8.3672 1.49942 5.56407 2.49278C5.18438 2.62866 5.02501 2.85826 5.02032 3.27529C5.01563 3.98751 5.02032 4.69505 5.02032 5.40727C5.02032 5.45881 5.0297 5.51036 5.0297 5.57127C9.70782 5.57127 14.3766 5.57127 19.0734 5.57127ZM7.51407 21.1137C10.5609 21.1137 13.5422 21.1137 16.575 21.1137C16.1297 20.6451 15.7219 20.2093 15.3047 19.7829C15.2625 19.7408 15.1781 19.7314 15.1125 19.7314C13.0688 19.7267 11.0203 19.7267 8.97657 19.7314C8.91094 19.7314 8.82657 19.7454 8.78438 19.7829C8.36719 20.2093 7.9547 20.6451 7.51407 21.1137Z" fill="#264B1D"/>
<path d="M19.0548 12.6884C14.3767 12.6884 9.7126 12.6884 5.02979 12.6884C5.02979 10.7907 5.02979 8.90238 5.02979 7C9.70322 7 14.372 7 19.0548 7C19.0548 8.89301 19.0548 10.786 19.0548 12.6884Z" fill="white"/>
<path d="M5.01562 14.123C9.7125 14.123 14.3812 14.123 19.0734 14.123C19.0734 14.2121 19.0734 14.287 19.0734 14.3667C19.0734 15.4069 19.0734 16.4425 19.0734 17.4827C19.0734 18.059 18.8016 18.3261 18.225 18.3261C14.1094 18.3261 9.98906 18.3261 5.87344 18.3261C5.27813 18.3261 5.02031 18.0637 5.01562 17.4686C5.01562 16.4378 5.01562 15.4069 5.01562 14.3761C5.01563 14.2917 5.01562 14.2168 5.01562 14.123ZM9.225 15.5287C8.28281 15.5287 7.35938 15.5287 6.43594 15.5287C6.43594 15.9973 6.43594 16.4425 6.43594 16.897C7.37344 16.897 8.29688 16.897 9.225 16.897C9.225 16.4378 9.225 15.9926 9.225 15.5287ZM14.8688 15.5241C14.8688 15.9973 14.8688 16.4425 14.8688 16.897C15.8063 16.897 16.7297 16.897 17.6531 16.897C17.6531 16.4284 17.6531 15.9833 17.6531 15.5241C16.7203 15.5241 15.8063 15.5241 14.8688 15.5241Z" fill="white"/>
<path d="M19.0734 5.57114C14.3765 5.57114 9.71245 5.57114 5.02964 5.57114C5.02495 5.51023 5.02026 5.45869 5.02026 5.40714C5.02026 4.69492 5.02026 3.98738 5.02026 3.27516C5.02026 2.86282 5.18433 2.62854 5.56401 2.49265C8.36714 1.50398 11.25 1.15724 14.2078 1.48992C15.6468 1.65392 17.0484 1.97723 18.4171 2.45048C18.9281 2.62854 19.0734 2.82534 19.0734 3.36419C19.0734 4.09047 19.0734 4.81675 19.0734 5.57114ZM16.2468 4.17013C16.2468 3.69687 16.2468 3.24236 16.2468 2.78317C13.4343 2.78317 10.6453 2.78317 7.84683 2.78317C7.84683 3.25173 7.84683 3.70624 7.84683 4.17013C10.65 4.17013 13.4343 4.17013 16.2468 4.17013Z" fill="white"/>
<path d="M7.51416 21.1143C7.95947 20.6457 8.36728 20.21 8.78447 19.7836C8.82666 19.7414 8.91104 19.732 8.97666 19.732C11.0204 19.7273 13.0688 19.7273 15.1126 19.732C15.1782 19.732 15.2626 19.7461 15.3048 19.7836C15.722 20.2147 16.1298 20.6504 16.5751 21.1143C13.5423 21.1143 10.561 21.1143 7.51416 21.1143Z" fill="white"/>
<path d="M9.2251 15.5293C9.2251 15.9932 9.2251 16.4383 9.2251 16.8975C8.29697 16.8975 7.37354 16.8975 6.43604 16.8975C6.43604 16.443 6.43604 15.9932 6.43604 15.5293C7.35947 15.5293 8.28291 15.5293 9.2251 15.5293Z" fill="#264B1D"/>
<path d="M14.8687 15.5234C15.8062 15.5234 16.7202 15.5234 17.653 15.5234C17.653 15.9826 17.653 16.4325 17.653 16.8963C16.7296 16.8963 15.8062 16.8963 14.8687 16.8963C14.8687 16.4418 14.8687 15.9967 14.8687 15.5234Z" fill="#264B1D"/>
<path d="M16.2469 4.17016C13.4391 4.17016 10.65 4.17016 7.84692 4.17016C7.84692 3.70628 7.84692 3.25177 7.84692 2.7832C10.6454 2.7832 13.4391 2.7832 16.2469 2.7832C16.2469 3.23771 16.2469 3.69222 16.2469 4.17016Z" fill="#264B1D"/>
</svg>
