<svg width="24" height="24" viewBox="0 0 24 24" fill="none" xmlns="http://www.w3.org/2000/svg">
<path d="M2.84251 23.9875C2.35297 23.7434 2.29621 23.493 2.61548 23.0737C3.27529 22.2162 3.93511 21.3587 4.59493 20.495C4.65169 20.4199 4.70845 20.3385 4.7794 20.2509C4.72264 20.2321 4.68716 20.2071 4.6446 20.2071C3.38881 20.1633 2.00532 19.2244 2.00532 17.6784C1.99823 13.8417 1.99823 10.0112 2.00532 6.17447C2.00532 5.04785 2.70061 4.1716 3.90673 3.79606C5.02062 3.44556 6.15579 3.15139 7.29096 2.85096C7.49671 2.79463 7.57476 2.72578 7.56057 2.53801C7.53928 2.18125 7.54638 1.81823 7.56057 1.46147C7.58185 0.66658 8.30552 0.0156474 9.21366 0.00938845C11.406 -0.00312948 13.6054 -0.00312948 15.7977 0.00938845C16.6987 0.0156474 17.4224 0.66658 17.4508 1.46147C17.4578 1.83701 17.4578 2.21254 17.4508 2.58808C17.4437 2.7383 17.4933 2.79463 17.6707 2.83844C18.8271 3.15139 19.9907 3.45182 21.133 3.80858C22.3036 4.17786 22.9847 5.04786 22.9918 6.13692C22.9989 9.99244 23.006 13.8542 22.9918 17.7097C22.9847 19.0867 21.9205 20.0631 20.3596 20.2133C20.3242 20.2133 20.2958 20.2258 20.2319 20.2384C20.2887 20.326 20.3383 20.3948 20.388 20.4637C21.0549 21.3337 21.7289 22.2099 22.4029 23.0799C22.7293 23.5055 22.6725 23.7434 22.1901 24C22.0837 24 21.9773 24 21.8708 24C21.7289 23.8686 21.5658 23.7496 21.4451 23.5994C21.1684 23.2552 20.913 22.8984 20.6363 22.5604C20.5725 22.4853 20.4306 22.4165 20.3242 22.4165C15.1236 22.4102 9.91605 22.4102 4.71554 22.404C4.55946 22.404 4.47432 22.4478 4.39628 22.5604C4.13377 22.9172 3.86416 23.2802 3.57328 23.6245C3.45266 23.7684 3.27529 23.8748 3.11921 24C3.01988 23.9875 2.93474 23.9875 2.84251 23.9875ZM3.16178 15.275C3.15468 15.3626 3.14759 15.4315 3.14759 15.5003C3.14759 16.2138 3.14759 16.9211 3.14759 17.6346C3.15468 18.5923 3.84997 19.2182 4.94258 19.2182C9.987 19.2244 15.0314 19.2244 20.0829 19.2182C21.1755 19.2182 21.8708 18.5923 21.8779 17.6346C21.8779 16.9211 21.8779 16.2138 21.8779 15.5003C21.8779 15.4252 21.8779 15.3501 21.8779 15.2687C15.6203 15.275 9.40522 15.275 3.16178 15.275ZM3.16178 14.2423C6.09903 14.2423 9.00791 14.2423 11.9239 14.2423C11.9239 11.9452 11.9239 9.66071 11.9239 7.37619C8.99372 7.37619 6.07775 7.37619 3.16178 7.37619C3.16178 9.66697 3.16178 11.9452 3.16178 14.2423ZM21.8495 14.2423C21.8495 11.9327 21.8495 9.64819 21.8495 7.36993C18.9194 7.36993 16.0105 7.36993 13.1016 7.36993C13.1016 9.66697 13.1016 11.9515 13.1016 14.2423C16.0247 14.2423 18.9336 14.2423 21.8495 14.2423ZM3.17597 6.34346C9.41232 6.34346 15.6345 6.34346 21.8495 6.34346C21.9489 5.6049 21.5303 4.99778 20.7428 4.72239C17.2734 3.52067 13.7047 2.98866 9.9799 3.40801C7.97916 3.63333 6.04937 4.09649 4.17634 4.7662C3.46685 5.02282 3.06954 5.65497 3.17597 6.34346ZM5.29022 21.3775C10.1289 21.3775 14.9037 21.3775 19.7282 21.3775C19.4799 21.052 19.2386 20.7641 19.0329 20.4574C18.9123 20.2822 18.7633 20.2133 18.5221 20.2133C14.5135 20.2196 10.5049 20.2196 6.49634 20.2196C6.4254 20.2196 6.35445 20.2133 6.2835 20.2258C6.22674 20.2321 6.15579 20.2571 6.12741 20.2947C5.85071 20.6452 5.58111 20.9957 5.29022 21.3775ZM8.69574 2.56931C11.2499 2.16873 13.7827 2.16247 16.3014 2.56305C16.3156 2.53801 16.3298 2.52549 16.3298 2.50672C16.3298 2.2188 16.3369 1.93089 16.3369 1.64298C16.3369 1.16104 16.1382 0.985786 15.5848 0.985786C14.102 0.985786 12.6121 0.985786 11.1293 0.985786C10.5262 0.985786 9.93024 0.979527 9.32718 0.985786C8.96534 0.992045 8.72412 1.16104 8.70993 1.44895C8.67446 1.81823 8.69574 2.18751 8.69574 2.56931Z" fill="#264B1D"/>
<path d="M5.71589 16.7452C5.92873 16.7452 6.14158 16.7327 6.35442 16.7452C6.68788 16.764 6.90782 16.9705 6.90782 17.2396C6.90782 17.515 6.67369 17.7341 6.33314 17.7404C5.92164 17.7529 5.50304 17.7529 5.09154 17.7404C4.75099 17.7341 4.50977 17.515 4.50977 17.2396C4.50977 16.9705 4.7439 16.7577 5.08445 16.7389C5.29729 16.7327 5.51014 16.7389 5.71589 16.7452Z" fill="#264B1D"/>
<path d="M19.3166 16.7333C19.5224 16.7333 19.721 16.727 19.9268 16.7333C20.2673 16.7458 20.5086 16.9523 20.5156 17.2214C20.5227 17.5031 20.2744 17.7222 19.9197 17.7347C19.5153 17.7472 19.1109 17.7472 18.6994 17.7347C18.3446 17.7284 18.1034 17.5031 18.1105 17.2214C18.1176 16.9461 18.3588 16.7458 18.7065 16.7333C18.9122 16.727 19.1109 16.7333 19.3166 16.7333Z" fill="#264B1D"/>
</svg>
