<svg width="375" height="218" viewBox="0 0 375 218" fill="none" xmlns="http://www.w3.org/2000/svg">
<g clip-path="url(#clip0_3508_3566)">
<path d="M0 0H375V198C375 209.046 366.046 218 355 218H20C8.95431 218 0 209.046 0 198V0Z" fill="white"/>
<path d="M0 0H375V203C375 211.284 368.284 218 360 218H15C6.71574 218 0 211.284 0 203V0Z" fill="#0CDA7B"/>
<path opacity="0.3" d="M-17 -17V167.665C70.4801 174.061 20.5973 86.4937 210.934 103.743C401.271 120.992 218.99 8.07438 339 -17H-17Z" fill="#1EF490" stroke="#DEF4EA"/>
<path opacity="0.3" d="M-51 -42V142.665C36.4801 149.061 -13.4027 61.4937 176.934 78.7426C367.271 95.9915 184.99 -16.9256 305 -42H-51Z" fill="#69F2B2" stroke="#F7FFFB"/>
<path opacity="0.3" d="M-1 3V187.665C86.4801 194.061 36.5973 106.494 226.934 123.743C417.271 140.992 234.99 28.0744 355 3H-1Z" fill="#27F494" stroke="#9BDFBF"/>
<path d="M133.37 115.804C132.254 115.804 131.24 115.638 130.327 115.304C129.413 114.971 128.631 114.493 127.979 113.87C127.334 113.246 126.834 112.486 126.479 111.587C126.124 110.696 125.946 109.688 125.946 108.565C125.946 107.413 126.113 106.272 126.446 105.141C126.787 104.011 127.294 102.938 127.968 101.924L130.109 103.478C129.979 103.659 129.816 103.928 129.62 104.283C129.432 104.638 129.25 105.047 129.077 105.511C128.903 105.975 128.75 106.475 128.62 107.011C128.497 107.547 128.435 108.087 128.435 108.63C128.435 109.275 128.569 109.862 128.837 110.391C129.113 110.92 129.482 111.373 129.946 111.75C130.41 112.134 130.946 112.431 131.555 112.641C132.171 112.859 132.819 112.975 133.5 112.989C133.537 112.989 133.573 112.989 133.609 112.989C134.116 112.989 134.613 112.938 135.098 112.837C135.591 112.743 136.058 112.594 136.5 112.391C136.942 112.196 137.345 111.957 137.707 111.674C138.069 111.391 138.377 111.076 138.631 110.728C138.884 110.38 139.08 110.004 139.218 109.598C139.327 109.25 139.381 108.888 139.381 108.511C139.381 108.453 139.381 108.391 139.381 108.326C139.366 107.993 139.308 107.623 139.207 107.217C139.113 106.804 138.997 106.388 138.859 105.967C138.721 105.547 138.573 105.138 138.413 104.739C138.261 104.333 138.116 103.975 137.979 103.663C137.841 103.351 137.725 103.101 137.631 102.913C137.537 102.725 137.486 102.63 137.479 102.63L140.033 101.207C140.055 101.243 140.131 101.428 140.261 101.761C140.399 102.087 140.573 102.496 140.783 102.989C141.058 103.62 141.327 104.109 141.587 104.457C141.855 104.797 142.116 105.051 142.37 105.217C142.624 105.377 142.87 105.471 143.109 105.5C143.355 105.529 143.591 105.543 143.816 105.543H144.174V108.326H143.816C143.424 108.326 143.069 108.286 142.75 108.207C142.432 108.134 142.156 108.033 141.924 107.902C141.932 108.04 141.935 108.178 141.935 108.315C141.935 108.837 141.884 109.384 141.783 109.957C141.682 110.536 141.49 111.12 141.207 111.707C140.932 112.293 140.566 112.837 140.109 113.337C139.653 113.837 139.102 114.268 138.457 114.63C137.819 115 137.077 115.286 136.229 115.489C135.381 115.699 134.428 115.804 133.37 115.804ZM135.816 100.967L133.729 103.054L131.653 100.967L133.729 98.8913L135.816 100.967ZM143.984 105.543C144.513 105.543 144.974 105.446 145.365 105.25C145.756 105.047 146.1 104.786 146.397 104.467C146.702 104.149 146.966 103.79 147.191 103.391C147.423 102.993 147.64 102.594 147.843 102.196C148.046 101.775 148.267 101.359 148.506 100.946C148.745 100.533 149.017 100.163 149.321 99.837C149.626 99.5036 149.974 99.2355 150.365 99.0326C150.756 98.8225 151.209 98.7174 151.724 98.7174C152.187 98.7174 152.611 98.7899 152.995 98.9348C153.387 99.0725 153.734 99.2681 154.039 99.5217C154.35 99.7681 154.622 100.058 154.854 100.391C155.086 100.717 155.278 101.072 155.43 101.457C155.582 101.833 155.695 102.225 155.767 102.63C155.847 103.036 155.887 103.438 155.887 103.837C155.887 104.207 155.854 104.565 155.789 104.913C155.731 105.261 155.64 105.598 155.517 105.924C155.379 106.272 155.198 106.587 154.974 106.87C154.756 107.152 154.506 107.395 154.224 107.598C153.941 107.793 153.637 107.946 153.31 108.054C152.984 108.163 152.644 108.217 152.289 108.217C151.984 108.217 151.662 108.178 151.321 108.098C150.988 108.025 150.647 107.924 150.3 107.793C150.147 107.728 149.977 107.652 149.789 107.565C149.6 107.471 149.408 107.37 149.213 107.261C149.017 107.152 148.821 107.04 148.626 106.924C148.437 106.801 148.26 106.681 148.093 106.565C147.521 107.13 146.905 107.565 146.245 107.87C145.593 108.174 144.839 108.326 143.984 108.326H143.767V105.543H143.984ZM149.724 104.272C149.919 104.402 150.162 104.547 150.452 104.707C150.749 104.866 151.057 105.011 151.376 105.141C151.695 105.272 152.01 105.37 152.321 105.435C152.495 105.478 152.655 105.5 152.8 105.5C152.916 105.5 153.021 105.486 153.115 105.457C153.187 105.442 153.263 105.399 153.343 105.326C153.43 105.246 153.506 105.141 153.571 105.011C153.644 104.88 153.702 104.728 153.745 104.554C153.774 104.409 153.789 104.25 153.789 104.076C153.789 104.04 153.789 104.004 153.789 103.967C153.789 103.641 153.731 103.315 153.615 102.989C153.506 102.656 153.354 102.362 153.158 102.109C152.963 101.855 152.731 101.659 152.463 101.522C152.281 101.435 152.086 101.391 151.876 101.391C151.774 101.391 151.669 101.402 151.56 101.424C151.459 101.446 151.358 101.504 151.256 101.598C151.162 101.685 151.046 101.837 150.908 102.054C150.771 102.264 150.608 102.551 150.419 102.913C150.231 103.268 149.999 103.721 149.724 104.272ZM179.18 98.6413C179.506 98.5688 179.84 98.5254 180.18 98.5109C180.274 98.5036 180.369 98.5 180.463 98.5C180.702 98.5 180.963 98.5181 181.245 98.5543C181.535 98.5906 181.84 98.6594 182.158 98.7609C182.485 98.8623 182.796 98.9928 183.093 99.1522L182.104 101.761C181.727 101.594 181.336 101.482 180.93 101.424C180.756 101.402 180.586 101.391 180.419 101.391C180.18 101.391 179.941 101.413 179.702 101.457C179.456 101.478 179.191 101.551 178.908 101.674C178.626 101.797 178.343 101.957 178.061 102.152C177.785 102.341 177.517 102.562 177.256 102.815C177.003 103.062 176.778 103.326 176.582 103.609C176.387 103.884 176.227 104.17 176.104 104.467C175.988 104.757 175.93 105.04 175.93 105.315C175.93 105.627 176.003 105.873 176.148 106.054C176.3 106.228 176.499 106.373 176.745 106.489C176.999 106.598 177.289 106.688 177.615 106.761C177.941 106.826 178.282 106.906 178.637 107C179.071 107.101 179.51 107.217 179.952 107.348C180.394 107.478 180.792 107.659 181.148 107.891C181.503 108.116 181.785 108.413 181.995 108.783C182.177 109.109 182.267 109.511 182.267 109.989C182.267 110.054 182.263 110.123 182.256 110.196C182.213 110.957 182.039 111.627 181.735 112.207C181.43 112.793 181.035 113.301 180.55 113.728C180.064 114.156 179.51 114.511 178.887 114.793C178.263 115.083 177.611 115.315 176.93 115.489C176.249 115.663 175.561 115.786 174.865 115.859C174.169 115.931 173.506 115.967 172.876 115.967C171.6 115.967 170.434 115.797 169.376 115.457C168.325 115.116 167.437 114.609 166.713 113.935C165.988 113.268 165.463 112.435 165.137 111.435C164.919 110.783 164.811 110.062 164.811 109.272C164.811 108.851 164.84 108.417 164.898 107.967C164.956 107.489 165.035 107.004 165.137 106.511C165.238 106.018 165.347 105.543 165.463 105.087C165.579 104.623 165.698 104.185 165.821 103.772C165.945 103.359 166.057 102.996 166.158 102.685C166.26 102.373 166.347 102.12 166.419 101.924C166.492 101.728 166.535 101.616 166.55 101.587L168.941 102.554C168.767 103.098 168.608 103.609 168.463 104.087C168.318 104.558 168.187 105.022 168.071 105.478C167.956 105.935 167.85 106.395 167.756 106.859C167.669 107.315 167.593 107.801 167.528 108.315C167.499 108.554 167.485 108.786 167.485 109.011C167.485 109.525 167.582 110.036 167.778 110.543C167.981 111.058 168.325 111.511 168.811 111.902C169.303 112.301 169.898 112.598 170.593 112.793C171.289 112.989 172.05 113.087 172.876 113.087C173.84 113.087 174.735 113.011 175.561 112.859C176.394 112.714 177.115 112.518 177.724 112.272C178.34 112.025 178.829 111.746 179.191 111.435C179.561 111.13 179.767 110.815 179.811 110.489C179.803 110.424 179.735 110.362 179.604 110.304C179.474 110.246 179.311 110.188 179.115 110.13C178.919 110.08 178.702 110.025 178.463 109.967C178.231 109.917 178.006 109.862 177.789 109.804C177.18 109.652 176.615 109.478 176.093 109.283C175.571 109.094 175.119 108.844 174.735 108.533C174.35 108.221 174.05 107.826 173.832 107.348C173.615 106.87 173.506 106.268 173.506 105.543C173.542 104.746 173.709 103.971 174.006 103.217C174.303 102.464 174.702 101.779 175.202 101.163C175.709 100.54 176.3 100.007 176.974 99.5652C177.648 99.1232 178.383 98.8152 179.18 98.6413ZM190.511 108.326H190.076C188.605 108.326 187.489 107.957 186.728 107.217C185.967 106.478 185.583 105.362 185.576 103.87C185.576 103.638 185.583 103.257 185.598 102.728C185.612 102.192 185.619 101.54 185.619 100.772C185.619 100.315 185.616 99.8261 185.609 99.3043C185.601 98.7754 185.59 98.2391 185.576 97.6957C185.561 97.1449 185.54 96.5978 185.511 96.0543C185.489 95.5036 185.46 94.9746 185.424 94.4674C185.388 93.9529 185.344 93.4746 185.293 93.0326C185.243 92.5833 185.185 92.1884 185.119 91.8478L187.848 91.0326C187.927 91.4529 188 91.9674 188.065 92.5761C188.13 93.1775 188.188 93.8225 188.239 94.5109C188.29 95.1993 188.326 95.9022 188.348 96.6196C188.377 97.3297 188.391 98 188.391 98.6304C188.391 99.0145 188.395 99.4239 188.402 99.8587C188.409 100.286 188.413 100.663 188.413 100.989C188.413 101.264 188.409 101.525 188.402 101.772C188.402 102.011 188.398 102.243 188.391 102.467C188.391 102.692 188.388 102.913 188.38 103.13C188.38 103.348 188.38 103.569 188.38 103.793C188.38 103.851 188.38 103.909 188.38 103.967C188.38 104.228 188.406 104.46 188.456 104.663C188.514 104.866 188.612 105.036 188.75 105.174C188.888 105.304 189.061 105.399 189.272 105.457C189.489 105.514 189.739 105.543 190.022 105.543H190.511V108.326ZM190.08 105.543H190.287C190.541 105.543 190.754 105.543 190.928 105.543C191.109 105.536 191.283 105.529 191.45 105.522C191.617 105.507 191.791 105.496 191.972 105.489C192.16 105.475 192.388 105.46 192.657 105.446C192.301 104.989 192.037 104.489 191.863 103.946C191.696 103.402 191.613 102.848 191.613 102.283C191.613 101.884 191.657 101.489 191.744 101.098C191.83 100.699 191.961 100.322 192.135 99.9674C192.309 99.6123 192.522 99.2826 192.776 98.9783C193.037 98.6739 193.338 98.4094 193.678 98.1848C193.62 98.1703 193.537 98.1377 193.428 98.087C193.327 98.0362 193.164 97.9493 192.939 97.8261L194.559 95.1848C194.588 95.1848 194.689 95.2283 194.863 95.3152C195.037 95.3949 195.262 95.5036 195.537 95.6413C195.812 95.779 196.124 95.9384 196.472 96.1196C196.827 96.2935 197.193 96.4746 197.57 96.663C197.946 96.8442 198.323 97.0254 198.7 97.2065C199.077 97.3877 199.428 97.5507 199.754 97.6957C200.428 98 201.022 98.2681 201.537 98.5C202.051 98.7319 202.508 98.9638 202.907 99.1957C203.312 99.4275 203.671 99.6703 203.983 99.9239C204.301 100.178 204.602 100.478 204.885 100.826C205.334 101.377 205.635 101.971 205.787 102.609C205.874 102.964 205.917 103.315 205.917 103.663C205.917 103.953 205.87 104.322 205.776 104.772C205.682 105.221 205.443 105.721 205.059 106.272C204.682 106.822 204.186 107.283 203.57 107.652C203.359 107.775 203.102 107.88 202.798 107.967C202.501 108.054 202.186 108.127 201.852 108.185C201.526 108.243 201.2 108.286 200.874 108.315C200.555 108.344 200.272 108.359 200.026 108.359C199.722 108.359 199.381 108.344 199.004 108.315C198.635 108.293 198.258 108.254 197.874 108.196C197.497 108.138 197.128 108.065 196.765 107.978C196.403 107.891 196.08 107.786 195.798 107.663C195.117 107.88 194.301 108.043 193.352 108.152C192.403 108.268 191.381 108.326 190.287 108.326H190.08V105.543ZM200.95 101.761C200.95 102.442 200.838 103.112 200.613 103.772C200.396 104.424 200.07 105.022 199.635 105.565C199.758 105.58 199.878 105.591 199.994 105.598C200.109 105.605 200.222 105.609 200.33 105.609C200.794 105.609 201.222 105.558 201.613 105.457C202.012 105.348 202.356 105.207 202.646 105.033C202.936 104.859 203.164 104.656 203.33 104.424C203.497 104.192 203.58 103.946 203.58 103.685C203.58 103.453 203.508 103.214 203.363 102.967C203.225 102.721 203.037 102.482 202.798 102.25C202.559 102.011 202.276 101.786 201.95 101.576C201.624 101.359 201.276 101.163 200.907 100.989C200.921 101.112 200.932 101.243 200.939 101.38C200.946 101.511 200.95 101.638 200.95 101.761ZM196.341 99.6522C196.283 99.6449 196.225 99.6413 196.167 99.6413C195.943 99.6413 195.707 99.721 195.461 99.8804C195.215 100.033 194.983 100.254 194.765 100.543C194.555 100.833 194.392 101.156 194.276 101.511C194.182 101.793 194.135 102.062 194.135 102.315C194.135 102.395 194.138 102.471 194.146 102.543C194.175 102.775 194.236 103.011 194.33 103.25C194.432 103.489 194.555 103.714 194.7 103.924C194.852 104.127 195.022 104.308 195.211 104.467C195.399 104.62 195.602 104.728 195.82 104.793C196.109 104.728 196.385 104.63 196.646 104.5C196.914 104.362 197.153 104.181 197.363 103.957C197.58 103.732 197.765 103.46 197.917 103.141C198.07 102.815 198.175 102.435 198.233 102C198.247 101.884 198.254 101.775 198.254 101.674C198.254 101.435 198.204 101.199 198.102 100.967C198.001 100.728 197.849 100.514 197.646 100.326C197.45 100.13 197.233 99.9783 196.994 99.8696C196.754 99.7536 196.537 99.6812 196.341 99.6522ZM215.927 108.326H215.59C215.401 108.326 215.162 108.304 214.872 108.261C214.59 108.217 214.278 108.087 213.938 107.87C213.843 108.783 213.564 109.656 213.101 110.489C212.637 111.33 212.053 112.116 211.351 112.848C210.655 113.58 209.869 114.25 208.992 114.859C208.122 115.467 207.227 116 206.307 116.457L205.09 113.946C205.597 113.685 206.108 113.402 206.622 113.098C207.13 112.793 207.615 112.467 208.079 112.12C208.543 111.772 208.974 111.409 209.372 111.033C209.778 110.656 210.126 110.261 210.416 109.848C210.713 109.435 210.945 109.011 211.111 108.576C211.285 108.141 211.372 107.696 211.372 107.239C211.372 106.913 211.325 106.554 211.231 106.163C211.137 105.764 211.017 105.351 210.872 104.924C210.727 104.496 210.572 104.065 210.405 103.63C210.238 103.188 210.086 102.761 209.948 102.348L212.557 101.261C212.84 102.109 213.097 102.812 213.329 103.37C213.568 103.92 213.8 104.359 214.024 104.685C214.256 105.004 214.496 105.228 214.742 105.359C214.996 105.482 215.282 105.543 215.601 105.543H215.938L215.927 108.326ZM215.495 105.543H215.713C216.184 105.543 216.651 105.543 217.115 105.543C217.586 105.543 217.985 105.525 218.311 105.489C218.166 105.395 218.006 105.261 217.832 105.087C217.659 104.906 217.495 104.696 217.343 104.457C217.198 104.21 217.072 103.935 216.963 103.63C216.861 103.319 216.807 102.978 216.8 102.609C216.793 102.514 216.789 102.42 216.789 102.326C216.789 102.029 216.829 101.699 216.909 101.337C216.995 100.967 217.133 100.591 217.322 100.207C217.517 99.8225 217.753 99.4638 218.028 99.1304C218.303 98.7899 218.608 98.4964 218.941 98.25C219.274 97.9964 219.633 97.8007 220.017 97.663C220.358 97.5399 220.709 97.4783 221.072 97.4783C221.115 97.4783 221.155 97.4783 221.191 97.4783C221.778 97.5 222.322 97.6522 222.822 97.9348C223.329 98.2101 223.767 98.5688 224.137 99.0109C224.506 99.4529 224.796 99.9565 225.006 100.522C225.217 101.08 225.322 101.652 225.322 102.239C225.322 102.804 225.217 103.351 225.006 103.88C224.803 104.402 224.539 104.891 224.213 105.348C224.561 105.406 224.938 105.453 225.343 105.489C225.756 105.525 226.148 105.543 226.517 105.543H226.811V108.326H226.593C226.035 108.326 225.495 108.315 224.974 108.293C224.459 108.279 223.974 108.239 223.517 108.174C223.061 108.109 222.633 108.018 222.235 107.902C221.843 107.779 221.495 107.612 221.191 107.402C220.974 107.562 220.662 107.699 220.256 107.815C219.858 107.931 219.409 108.025 218.909 108.098C218.409 108.178 217.88 108.236 217.322 108.272C216.771 108.308 216.235 108.326 215.713 108.326H215.495V105.543ZM221.159 100.228C220.97 100.264 220.753 100.341 220.506 100.457C220.267 100.565 220.039 100.721 219.822 100.924C219.611 101.12 219.43 101.362 219.278 101.652C219.133 101.942 219.061 102.286 219.061 102.685C219.061 102.815 219.122 102.986 219.245 103.196C219.369 103.399 219.532 103.605 219.735 103.815C219.938 104.018 220.169 104.21 220.43 104.391C220.691 104.565 220.959 104.688 221.235 104.761C221.452 104.652 221.662 104.511 221.865 104.337C222.075 104.163 222.26 103.975 222.419 103.772C222.579 103.562 222.706 103.348 222.8 103.13C222.901 102.906 222.952 102.692 222.952 102.489C222.952 102.207 222.89 101.938 222.767 101.685C222.651 101.424 222.503 101.192 222.322 100.989C222.14 100.786 221.945 100.62 221.735 100.489C221.532 100.351 221.34 100.264 221.159 100.228ZM223.159 93.5435L221.072 95.6304L218.995 93.5435L221.072 91.4674L223.159 93.5435ZM226.819 105.543C227.218 105.543 227.573 105.457 227.884 105.283C228.203 105.109 228.482 104.877 228.721 104.587C228.968 104.297 229.181 103.967 229.362 103.598C229.551 103.228 229.714 102.848 229.852 102.457C229.989 102.065 230.109 101.681 230.21 101.304C230.312 100.92 230.402 100.576 230.482 100.272L233.199 100.87C233.134 101.072 233.047 101.333 232.939 101.652C232.83 101.964 232.725 102.297 232.623 102.652C232.529 103 232.449 103.351 232.384 103.707C232.333 103.975 232.308 104.225 232.308 104.457C232.308 104.529 232.315 104.656 232.33 104.837C232.344 105.018 232.417 105.199 232.547 105.38C232.685 105.554 232.906 105.641 233.21 105.641C233.536 105.641 233.83 105.551 234.091 105.37C234.352 105.181 234.583 104.938 234.786 104.641C234.996 104.337 235.178 103.993 235.33 103.609C235.489 103.225 235.623 102.833 235.732 102.435C235.848 102.029 235.942 101.634 236.015 101.25C236.094 100.866 236.156 100.522 236.199 100.217L238.743 100.707C238.721 100.88 238.689 101.087 238.645 101.326C238.609 101.565 238.569 101.826 238.525 102.109C238.482 102.384 238.439 102.674 238.395 102.978C238.359 103.283 238.33 103.587 238.308 103.891C238.308 103.949 238.308 104.007 238.308 104.065C238.308 104.239 238.326 104.42 238.362 104.609C238.399 104.79 238.475 104.964 238.591 105.13C238.707 105.29 238.859 105.42 239.047 105.522C239.236 105.616 239.468 105.667 239.743 105.674C240.257 105.674 240.678 105.543 241.004 105.283C241.33 105.022 241.493 104.623 241.493 104.087C241.493 103.696 241.439 103.272 241.33 102.815C241.228 102.359 241.102 101.913 240.949 101.478C240.804 101.043 240.649 100.634 240.482 100.25C240.315 99.8659 240.17 99.5471 240.047 99.2935L242.384 97.9891C242.428 98.0688 242.496 98.2138 242.591 98.4239C242.692 98.6341 242.804 98.8949 242.928 99.2065C243.058 99.5109 243.189 99.8551 243.319 100.239C243.449 100.623 243.569 101.029 243.678 101.457C243.794 101.877 243.884 102.308 243.949 102.75C244.022 103.192 244.058 103.627 244.058 104.054C244.058 104.728 243.953 105.337 243.743 105.88C243.54 106.424 243.236 106.888 242.83 107.272C242.431 107.656 241.939 107.949 241.352 108.152C240.786 108.355 240.138 108.457 239.406 108.457C239.384 108.457 239.359 108.457 239.33 108.457C239.301 108.457 239.275 108.457 239.254 108.457C238.913 108.457 238.602 108.409 238.319 108.315C238.036 108.228 237.775 108.105 237.536 107.946C237.304 107.779 237.094 107.591 236.906 107.38C236.725 107.17 236.562 106.957 236.417 106.739C236.25 106.978 236.069 107.203 235.873 107.413C235.678 107.616 235.449 107.793 235.189 107.946C234.935 108.098 234.645 108.217 234.319 108.304C234 108.399 233.631 108.449 233.21 108.457C233.189 108.457 233.163 108.457 233.134 108.457C232.808 108.457 232.504 108.413 232.221 108.326C231.946 108.239 231.689 108.12 231.449 107.967C231.218 107.808 231.004 107.623 230.808 107.413C230.62 107.203 230.446 106.982 230.286 106.75C230.149 106.953 229.982 107.149 229.786 107.337C229.598 107.525 229.362 107.696 229.08 107.848C228.804 107.993 228.478 108.109 228.102 108.196C227.725 108.283 227.283 108.326 226.775 108.326H226.384V105.543H226.819Z" fill="white"/>
</g>
<defs>
<clipPath id="clip0_3508_3566">
<path d="M0 0H375V198C375 209.046 366.046 218 355 218H20C8.95431 218 0 209.046 0 198V0Z" fill="white"/>
</clipPath>
</defs>
</svg>
