<svg width="23" height="22" viewBox="0 0 23 22" fill="none" xmlns="http://www.w3.org/2000/svg">
<path d="M9.95644 15.7255C9.55644 14.0255 9.05645 12.3255 8.55645 10.6255C8.25645 10.7255 7.95645 10.7255 7.65645 10.8255C5.75645 11.3255 3.75646 11.8255 1.85646 12.4255C0.856465 12.7255 0.156447 12.2255 0.0564466 11.2255C-0.243553 8.42546 0.656453 6.12547 2.65645 4.22547C3.65645 3.22547 4.75645 2.52549 6.05645 2.12549C6.15645 2.12549 6.15646 2.12548 6.25646 2.02548C6.15646 1.62548 6.05644 1.32548 5.95644 0.925477C5.85644 0.525477 6.05644 0.125483 6.45644 0.0254834C6.85644 -0.0745166 7.15646 0.125483 7.25646 0.525483C7.35646 0.925483 7.45645 1.22549 7.55645 1.62549C8.05645 1.62549 8.55644 1.52548 8.95644 1.52548C12.2564 1.42548 14.9565 2.62548 16.8565 5.42548C17.1565 5.82548 17.3564 6.32547 17.5564 6.82547C17.8564 7.52547 17.4565 8.32548 16.6565 8.52548C14.4565 9.12548 12.1564 9.72547 9.95644 10.3255C9.85644 10.3255 9.85646 10.3255 9.75646 10.4255C10.2565 12.2255 10.6565 14.0255 11.1565 15.8255C11.2565 15.8255 11.3564 15.8255 11.5564 15.8255C14.7564 15.7255 17.6565 16.4255 20.2565 18.3255C20.8565 18.7255 21.3565 19.3255 21.8565 19.9255C22.2565 20.3255 22.2564 20.8255 22.0564 21.2255C21.8564 21.7255 21.4565 21.9255 20.8565 21.9255C15.0565 21.9255 9.25644 21.9255 3.45644 21.9255C2.95644 21.9255 2.55646 21.7255 2.25646 21.2255C2.05646 20.7255 2.15644 20.3255 2.45644 19.9255C3.75644 18.4255 5.25645 17.4255 7.15645 16.7255C8.15645 16.2255 9.05644 16.0255 9.95644 15.7255ZM3.85646 20.3255C9.55647 20.3255 15.1565 20.3255 20.7565 20.3255C20.6565 20.2255 20.5564 20.1255 20.5564 20.1255C19.8564 19.4255 19.0564 18.8255 18.0564 18.3255C15.9564 17.2255 13.6565 16.8255 11.2565 17.0255C9.25646 17.1255 7.35645 17.7255 5.65645 18.8255C5.05645 19.2255 4.45646 19.7255 3.85646 20.3255ZM11.3565 8.52548C11.3565 8.42548 11.3565 8.42548 11.3565 8.52548C10.9565 7.12548 10.3564 5.82547 9.55645 4.72547C9.15645 4.22547 8.75645 3.72547 8.15645 3.32547C7.45645 2.82547 6.85645 3.02547 6.55645 3.72547C6.35645 4.12546 6.25645 4.62549 6.15645 5.12549C5.95645 6.32549 6.05645 7.42549 6.15645 8.62549C6.25645 9.02549 6.25646 9.42547 6.35646 9.82547C8.05647 9.32547 9.65647 8.92548 11.3565 8.52548ZM16.3565 7.22547C16.0565 6.22547 15.0565 4.82549 13.8565 4.12549C12.6565 3.32549 11.2565 2.92547 9.75646 2.82547C11.2565 4.42547 12.0565 6.22546 12.7565 8.22546C13.9565 7.82546 15.1565 7.52547 16.3565 7.22547ZM4.95644 4.02548C2.45644 5.52548 0.95644 8.52549 1.45644 11.1255C2.65644 10.8255 3.85645 10.5255 5.05645 10.1255C4.65645 8.12549 4.45644 6.12548 4.95644 4.02548Z" fill="#264B1D"/>
</svg>
