<svg width="24" height="24" viewBox="0 0 24 24" fill="none" xmlns="http://www.w3.org/2000/svg">
<rect width="24" height="24" fill="#DADADA"/>
<rect id="Rectangle 10136" x="-140" y="-12" width="343" height="75" rx="15" fill="white"/>
<g id="Group">
<path id="Vector" d="M0.0124512 8.46921C0.0124512 7.17647 0.0124512 5.88373 0.0124512 4.59099C0.0937012 4.47858 0.156201 4.35368 0.249951 4.26C0.612451 3.88529 0.987451 3.51683 1.3562 3.14837C1.5187 2.986 1.71245 2.90481 1.9437 2.91105C2.21245 2.9173 2.48745 2.91105 2.76245 2.91105C2.7812 2.81113 2.79995 2.7237 2.81245 2.64251C3.0312 1.17491 4.29995 0.0632776 5.79995 0.0632776C9.9312 0.0570325 14.0625 0.0570325 18.2 0.0632776C19.2625 0.0632776 20.1 0.544152 20.7062 1.41847C21.0125 1.86187 21.1562 2.36773 21.225 2.91105C21.5 2.91105 21.7562 2.9173 22.0125 2.91105C22.2812 2.90481 22.4937 2.99848 22.6812 3.18584C23.025 3.53556 23.375 3.88529 23.725 4.22877C23.9062 4.40988 23.9937 4.61597 23.9875 4.87827C23.9812 5.9899 23.9875 7.10777 23.9875 8.21941C23.9875 8.68154 23.7062 8.98755 23.2937 8.9938C22.8687 9.00004 22.5875 8.68154 22.5875 8.21316C22.5875 7.40129 22.5562 6.58943 22.6 5.78381C22.625 5.27171 22.475 4.91574 22.1 4.56601C21.825 4.30996 21.5625 4.29122 21.2312 4.33494C21.2312 4.44111 21.2312 4.53478 21.2312 4.62846C21.2312 7.45126 21.2312 10.2678 21.2312 13.0906C21.2312 15.3638 21.2312 17.637 21.2312 19.9165C21.2312 20.3162 21.1312 20.7034 20.7875 20.8908C20.425 21.0906 20.4062 21.3591 20.4312 21.6901C20.4437 21.915 20.4312 22.1398 20.4312 22.3646C20.4312 22.4208 20.425 22.477 20.4312 22.527C20.4937 23.2577 20.2062 23.7573 19.4937 24.0008C18.6062 24.0008 17.7125 24.0008 16.825 24.0008C16.8 23.9883 16.775 23.9634 16.75 23.9571C16.1812 23.7635 15.8937 23.3638 15.8937 22.7643C15.8937 22.4833 15.8937 22.2022 15.8937 21.9212C15.8937 21.6776 15.8937 21.4278 15.8937 21.1843C13.2875 21.1843 10.7125 21.1843 8.12495 21.1843C8.12495 21.3779 8.12495 21.559 8.12495 21.7338C8.12495 22.0711 8.1187 22.4021 8.12495 22.7393C8.13745 23.4013 7.7812 23.7885 7.18745 24.0008C6.29995 24.0008 5.4062 24.0008 4.5187 24.0008C3.81245 23.7635 3.5312 23.2577 3.5812 22.527C3.6062 22.1086 3.58745 21.6839 3.5812 21.2655C3.5812 21.1968 3.53745 21.0968 3.4812 21.0656C2.98745 20.8033 2.78745 20.3974 2.78745 19.8416C2.7937 14.7643 2.7937 9.68701 2.7937 4.60973C2.7937 4.51605 2.7937 4.42862 2.7937 4.33494C2.43745 4.27873 2.12495 4.27873 1.9062 4.60348C1.82495 4.72214 1.7062 4.82206 1.5937 4.91574C1.4687 5.0219 1.4312 5.14056 1.43745 5.30293C1.4437 6.28966 1.4437 7.28264 1.43745 8.26937C1.43745 8.61285 1.23745 8.87514 0.924951 8.96882C0.643701 9.05001 0.331201 8.93759 0.162451 8.68779C0.0937013 8.61285 0.0562012 8.53791 0.0124512 8.46921ZM12.0125 1.45594C9.9937 1.45594 7.97495 1.45594 5.9562 1.45594C4.8562 1.45594 4.1812 2.13666 4.1812 3.2358C4.1812 6.19599 4.1812 9.15617 4.1812 12.1164C4.1812 12.8345 4.1812 12.8595 4.89995 12.9032C6.54995 13.0094 8.19995 13.1531 9.84995 13.1718C12.175 13.1968 14.4937 13.1468 16.8187 13.0844C17.7375 13.0594 18.65 12.9157 19.5625 12.8408C19.775 12.8221 19.8187 12.7284 19.8187 12.5285C19.8125 9.4372 19.8125 6.34587 19.8125 3.24829C19.8125 2.11792 19.1375 1.44969 18.0062 1.44969C16.0062 1.45594 14.0062 1.45594 12.0125 1.45594ZM19.7875 17.0438C19.7875 16.0883 19.7875 15.1577 19.7875 14.2647C14.575 14.7268 9.3812 14.7331 4.18745 14.2584C4.18745 15.1702 4.18745 16.0945 4.18745 17.025C4.2312 17.0375 4.2687 17.0563 4.3062 17.0625C5.22495 17.2186 6.14995 17.3872 7.0687 17.5371C7.44995 17.5996 7.6812 17.7932 7.7937 18.1679C7.9312 18.6363 8.0937 19.0984 8.23745 19.5668C8.27495 19.6979 8.3312 19.7541 8.4812 19.7541C10.8312 19.7479 13.175 19.7479 15.525 19.7541C15.6562 19.7541 15.7187 19.7167 15.7562 19.5855C15.9 19.1171 16.0687 18.655 16.2 18.1866C16.3125 17.7932 16.5562 17.5996 16.9562 17.5371C17.8937 17.381 18.8312 17.2124 19.7875 17.0438ZM6.81245 19.7417C6.77495 19.623 6.7312 19.5356 6.7187 19.4481C6.6687 18.9922 6.4187 18.8049 5.96245 18.7674C5.3687 18.7112 4.78745 18.5738 4.18745 18.4739C4.18745 18.9111 4.18745 19.3232 4.18745 19.7479C5.06245 19.7417 5.9187 19.7417 6.81245 19.7417ZM19.8 18.4676C19.0437 18.5988 18.3 18.7237 17.5562 18.8548C17.5125 18.8611 17.4437 18.8986 17.4312 18.936C17.3437 19.1921 17.2625 19.4544 17.175 19.7292C18.075 19.7292 18.9312 19.7292 19.8 19.7292C19.8 19.3107 19.8 18.9048 19.8 18.4676ZM6.6937 21.1718C6.11245 21.1718 5.54995 21.1718 4.9937 21.1718C4.9937 21.6527 4.9937 22.1148 4.9937 22.5707C5.5687 22.5707 6.12495 22.5707 6.6937 22.5707C6.6937 22.1086 6.6937 21.6527 6.6937 21.1718ZM19 22.5769C19 22.0961 19 21.6402 19 21.1718C18.4249 21.1718 17.8625 21.1718 17.2937 21.1718C17.2937 21.6464 17.2937 22.1086 17.2937 22.5769C17.8687 22.5769 18.4249 22.5769 19 22.5769Z" fill="#F5BB00"/>
<path id="Vector_2" d="M19.4813 23.9875C20.1875 23.7502 20.4813 23.2443 20.4188 22.5137C20.4125 22.4575 20.4188 22.4075 20.4188 22.3513C20.4188 22.1265 20.4313 21.9016 20.4188 21.6768C20.3938 21.3458 20.4125 21.0773 20.775 20.8774C21.1188 20.6901 21.2188 20.3029 21.2188 19.9032C21.2125 17.63 21.2188 15.3568 21.2188 13.0773C21.2188 10.2545 21.2188 7.43794 21.2188 4.61515C21.2188 4.52147 21.2188 4.42779 21.2188 4.32162C21.55 4.27791 21.8125 4.29664 22.0875 4.55269C22.4625 4.90242 22.6125 5.25839 22.5875 5.77049C22.5438 6.57611 22.575 7.38798 22.575 8.19984C22.575 8.67447 22.8625 8.98673 23.2812 8.98048C23.6938 8.97424 23.975 8.66823 23.975 8.20609C23.975 7.09446 23.975 5.97658 23.975 4.86495C23.975 4.6089 23.8938 4.39656 23.7125 4.21546C23.3625 3.87197 23.0125 3.52225 22.6688 3.17252C22.4813 2.98517 22.2687 2.88525 22 2.89774C21.7437 2.90398 21.4875 2.89774 21.2125 2.89774C21.15 2.35441 21.0062 1.84856 20.6937 1.40515C20.0875 0.530835 19.2563 0.0499612 18.1875 0.0499612C14.0562 0.0374709 9.925 0.043716 5.7875 0.0499612C4.29375 0.0499612 3.01875 1.16159 2.8 2.6292C2.7875 2.71038 2.76875 2.79781 2.75 2.89774C2.475 2.89774 2.2 2.90398 1.93125 2.89774C1.7 2.89149 1.50625 2.97268 1.34375 3.13505C0.975 3.50351 0.6 3.87197 0.2375 4.24668C0.14375 4.3466 0.075 4.47151 0 4.57767C0 3.05386 0 1.52381 0 0C8 0 15.9937 0 24 0C24 7.99375 24 15.9875 24 23.9813C22.5063 23.9875 20.9938 23.9875 19.4813 23.9875Z" fill="white"/>
<path id="Vector_3" d="M0.0124998 8.46909C0.0562498 8.54403 0.0937498 8.61897 0.1375 8.68766C0.3 8.93122 0.61875 9.04364 0.9 8.96869C1.2125 8.88126 1.4125 8.61897 1.4125 8.26924C1.41875 7.28251 1.41875 6.28954 1.4125 5.30281C1.4125 5.14044 1.45 5.02178 1.56875 4.91561C1.68125 4.82193 1.8 4.72201 1.88125 4.60336C2.10625 4.27861 2.4125 4.27861 2.76875 4.33482C2.76875 4.42225 2.76875 4.51592 2.76875 4.6096C2.76875 9.68688 2.76875 14.7642 2.7625 19.8415C2.7625 20.391 2.95625 20.8032 3.45625 21.0655C3.5125 21.0967 3.55625 21.1966 3.55625 21.2653C3.5625 21.6838 3.58125 22.1084 3.55625 22.5269C3.5125 23.2575 3.7875 23.7571 4.49375 24.0007C3 24.0007 1.5 24.0007 0 24.0007C0.0125 18.811 0.0124998 13.64 0.0124998 8.46909Z" fill="white"/>
<path id="Vector_4" d="M7.17505 23.9884C7.7688 23.7761 8.1188 23.3889 8.11255 22.7269C8.1063 22.3897 8.11255 22.0587 8.11255 21.7214C8.11255 21.5403 8.11255 21.3655 8.11255 21.1719C10.7 21.1719 13.275 21.1719 15.8813 21.1719C15.8813 21.4217 15.8813 21.6652 15.8813 21.9088C15.8813 22.1898 15.8813 22.4709 15.8813 22.7519C15.8813 23.3514 16.175 23.7511 16.7375 23.9447C16.7625 23.9572 16.7875 23.9759 16.8125 23.9884C13.6 23.9884 10.3875 23.9884 7.17505 23.9884Z" fill="white"/>
<path id="Vector_5" d="M12.0125 1.45508C14.0063 1.45508 16.0063 1.45508 18 1.45508C19.1313 1.45508 19.8063 2.12331 19.8063 3.25367C19.8063 6.34501 19.8063 9.43634 19.8125 12.5339C19.8125 12.7275 19.775 12.8274 19.5563 12.8462C18.6375 12.9211 17.725 13.0648 16.8125 13.0897C14.4875 13.1522 12.1688 13.2021 9.8438 13.1772C8.1938 13.1584 6.5438 13.0148 4.8938 12.9086C4.17505 12.8649 4.17505 12.8399 4.17505 12.1217C4.17505 9.16156 4.17505 6.20137 4.17505 3.24118C4.17505 2.14204 4.8563 1.46132 5.95005 1.46132C7.97505 1.45508 9.9938 1.45508 12.0125 1.45508Z" fill="white"/>
<path id="Vector_6" d="M19.7875 17.0435C18.8313 17.2121 17.8875 17.3808 16.9438 17.5306C16.5438 17.5931 16.3 17.7867 16.1875 18.1801C16.0563 18.6485 15.8875 19.1107 15.7438 19.579C15.7063 19.7102 15.6438 19.7477 15.5125 19.7477C13.1625 19.7414 10.8188 19.7414 8.4688 19.7477C8.32505 19.7477 8.2688 19.6977 8.22505 19.5603C8.0813 19.0919 7.9188 18.6298 7.7813 18.1614C7.67505 17.7867 7.43755 17.5931 7.0563 17.5306C6.1313 17.3808 5.21255 17.2184 4.2938 17.056C4.2563 17.0498 4.2188 17.031 4.17505 17.0185C4.17505 16.088 4.17505 15.1637 4.17505 14.252C9.37505 14.7203 14.5688 14.7203 19.775 14.2582C19.7875 15.1575 19.7875 16.088 19.7875 17.0435ZM11.9813 17.6431C12.6688 17.6493 13.35 17.6493 14.0375 17.6431C14.4938 17.6368 14.8063 17.3495 14.8 16.9374C14.7938 16.5314 14.4813 16.2379 14.025 16.2379C12.6688 16.2317 11.3125 16.2317 9.96255 16.2441C9.8188 16.2441 9.6688 16.2816 9.53755 16.3503C9.27505 16.4877 9.13755 16.8062 9.20005 17.081C9.2688 17.3995 9.5188 17.6368 9.8563 17.6368C10.5625 17.6493 11.275 17.6431 11.9813 17.6431Z" fill="white"/>
<path id="Vector_7" d="M6.81248 19.7408C5.91873 19.7408 5.06248 19.7408 4.19373 19.7408C4.19373 19.3224 4.19373 18.904 4.19373 18.4668C4.78748 18.5667 5.37498 18.7041 5.96873 18.7603C6.43123 18.804 6.67498 18.9914 6.72498 19.441C6.73123 19.5347 6.77498 19.6159 6.81248 19.7408Z" fill="white"/>
<path id="Vector_8" d="M19.8 18.4668C19.8 18.904 19.8 19.3099 19.8 19.7283C18.9313 19.7283 18.075 19.7283 17.175 19.7283C17.2625 19.4598 17.3375 19.1912 17.4313 18.9352C17.4438 18.8977 17.5125 18.8602 17.5563 18.854C18.3 18.7228 19.0438 18.5979 19.8 18.4668Z" fill="white"/>
<path id="Vector_9" d="M6.69377 21.1719C6.69377 21.6465 6.69377 22.1024 6.69377 22.5708C6.12502 22.5708 5.56877 22.5708 4.99377 22.5708C4.99377 22.1149 4.99377 21.6527 4.99377 21.1719C5.55002 21.1719 6.11252 21.1719 6.69377 21.1719Z" fill="white"/>
<path id="Vector_10" d="M19 22.577C18.425 22.577 17.8625 22.577 17.2937 22.577C17.2937 22.1086 17.2937 21.6465 17.2937 21.1719C17.8625 21.1719 18.425 21.1719 19 21.1719C19 21.6403 19 22.0962 19 22.577Z" fill="white"/>
<path id="Vector_11" d="M11.9813 17.6434C11.275 17.6434 10.5625 17.6497 9.85626 17.6372C9.51876 17.6309 9.26876 17.3999 9.20001 17.0814C9.13751 16.8066 9.27501 16.4818 9.53751 16.3507C9.66251 16.2882 9.81876 16.2508 9.96251 16.2445C11.3188 16.2383 12.675 16.2383 14.025 16.2383C14.4813 16.2383 14.7938 16.5318 14.8 16.9377C14.8063 17.3437 14.4938 17.6372 14.0375 17.6434C13.35 17.6497 12.6688 17.6434 11.9813 17.6434Z" fill="#F5BB00"/>
</g>
</svg>
