<svg width="24" height="24" viewBox="0 0 24 24" fill="none" xmlns="http://www.w3.org/2000/svg">
<path d="M7.28324 23.8699C6.24277 23.8699 5.20231 23.8699 4.16185 23.8699C4.16185 23.3496 4.16185 22.8293 4.16185 22.3089C4.16185 22.2439 4.0925 22.1138 4.02313 22.0488C2.84394 21.3333 2.28903 20.2927 2.28903 18.9919C2.28903 16.9756 2.28903 14.8943 2.28903 12.878C2.28903 12.813 2.28903 12.6829 2.28903 12.5528C1.73412 12.5528 1.24856 12.5528 0.76301 12.5528C0.76301 11.4471 0.76301 10.4065 0.76301 9.30081C0.485553 9.30081 0.277457 9.30081 0 9.30081C0 7.28455 0 5.2683 0 3.31708C0.624277 3.31708 1.24856 3.31708 1.87284 3.31708C1.87284 5.33334 1.87284 7.34959 1.87284 9.36585C1.59538 9.36585 1.38729 9.36585 1.10983 9.36585C1.10983 10.3415 1.10983 11.3171 1.10983 12.2927C1.52602 12.2927 1.94221 12.2927 2.3584 12.2927C2.3584 12.1626 2.3584 12.0976 2.3584 12.0325C2.3584 9.17073 2.3584 6.37398 2.3584 3.51219C2.3584 3.25203 2.35838 2.92683 2.42775 2.66667C2.77457 1.04065 4.23122 0 6.03469 0C9.01735 0 12 0 14.9827 0C15.8844 0 16.7861 0 17.7572 0C18.4509 0 19.0752 0.130069 19.6301 0.455273C20.8093 1.17072 21.4335 2.14634 21.4335 3.51219C21.4335 6.43902 21.4335 9.30081 21.4335 12.2276C21.4335 12.3577 21.4335 12.4228 21.4335 12.5528C21.9191 12.5528 22.4046 12.5528 22.8208 12.5528C22.8208 11.6423 22.8208 10.7317 22.8208 9.82114C22.5434 9.82114 22.3353 9.82114 22.1272 9.82114C22.1272 7.80488 22.1272 5.78861 22.1272 3.83739C22.7515 3.83739 23.3757 3.83739 24 3.83739C24 4.1626 24 4.4878 24 4.74796C24 6.37398 24 7.99999 24 9.56097C24 9.75609 23.9306 9.82114 23.7225 9.82114C23.5145 9.82114 23.3757 9.82114 23.1676 9.82114C23.1676 10.8618 23.1676 11.8374 23.1676 12.878C22.6127 12.878 21.9885 12.878 21.4335 12.878C21.4335 13.0081 21.4335 13.0732 21.4335 13.2032C21.4335 15.2195 21.4335 17.1707 21.4335 19.187C21.4335 20.4878 20.8786 21.5284 19.6301 22.2439C19.5607 22.3089 19.4913 22.439 19.4913 22.5041C19.4913 23.0244 19.4913 23.5447 19.4913 24C18.4509 24 17.4104 24 16.3699 24C16.3699 23.5447 16.3699 23.1545 16.3699 22.6992C13.3873 22.6992 10.474 22.6992 7.49134 22.6992C7.28325 22.9593 7.28324 23.4146 7.28324 23.8699ZM3.74568 3.44715C3.74568 3.57723 3.74568 3.64227 3.74568 3.77235C3.74568 6.5691 3.74568 9.36585 3.74568 12.2276C3.74568 12.748 3.95376 13.2032 4.30059 13.5284C4.57804 13.7236 4.85551 13.9837 5.13296 14.1138C6.45088 14.8293 7.83815 15.1545 9.36416 15.2846C10.7514 15.4146 12.0694 15.4146 13.4567 15.3496C14.7746 15.2846 16.0925 15.0894 17.341 14.6341C18.1734 14.3089 18.9364 13.9187 19.4913 13.2683C19.6301 13.0732 19.7688 12.878 19.7688 12.6179C19.7688 9.69105 19.7688 6.76422 19.7688 3.83739C19.7688 3.77235 19.7688 3.64228 19.7688 3.57724C14.4277 3.44715 9.08672 3.44715 3.74568 3.44715ZM7.63006 0.585362C7.63006 1.17073 7.63006 1.82113 7.63006 2.40649C10.4046 2.40649 13.2486 2.40649 16.0231 2.40649C16.0231 1.82113 16.0231 1.23577 16.0231 0.585362C13.2486 0.585362 10.474 0.585362 7.63006 0.585362ZM3.8844 17.0406C3.8844 17.691 3.8844 18.3415 3.8844 18.9919C5.41041 18.9919 6.93643 18.9919 8.5318 18.9919C8.5318 18.3415 8.5318 17.691 8.5318 17.0406C7.00579 17.0406 5.47977 17.0406 3.8844 17.0406ZM19.7688 18.9919C19.7688 18.3415 19.7688 17.691 19.7688 17.0406C18.2428 17.0406 16.7168 17.0406 15.1214 17.0406C15.1214 17.691 15.1214 18.3415 15.1214 18.9919C16.7168 18.9919 18.2428 18.9919 19.7688 18.9919Z" fill="#F5BB00"/>
</svg>
