<svg width="24" height="24" viewBox="0 0 24 24" fill="none" xmlns="http://www.w3.org/2000/svg">
<path d="M21.417 5.05549C21.417 5.15062 21.417 5.25255 21.417 5.34768C21.417 9.96149 21.417 14.5685 21.417 19.1823C21.417 20.8607 20.3738 22.2129 18.8345 22.5459C18.631 22.5866 18.4274 22.6002 18.1794 22.6342C18.1794 22.872 18.1921 23.1166 18.173 23.3545C18.1348 23.8505 17.7723 24.1087 17.3588 23.9524C17.1171 23.8641 17.0153 23.6602 16.9899 23.4088C16.9644 23.1574 16.9644 22.906 16.9517 22.6342C13.6505 22.6342 10.3429 22.6342 7.03524 22.6342C7.02251 22.8856 7.02251 23.1302 6.99707 23.3749C6.95255 23.7894 6.74264 24 6.40552 24C6.07476 24 5.84577 23.7758 5.81396 23.3749C5.79488 23.1302 5.8076 22.8856 5.8076 22.6886C5.36871 22.5798 4.95526 22.5187 4.57361 22.3692C3.37142 21.8935 2.56359 20.6569 2.56359 19.2911C2.55723 15.4926 2.55723 11.6942 2.56359 7.89581C2.56359 7.46772 2.79894 7.20951 3.17423 7.21631C3.54952 7.21631 3.77215 7.46772 3.77215 7.9094C3.77851 9.35674 3.77851 10.8109 3.77215 12.2582C3.77215 12.4621 3.82939 12.6048 3.96933 12.7407C4.64358 13.4337 5.31146 14.1336 5.97934 14.8403C6.47549 15.3703 7.06704 15.6353 7.77309 15.6353C10.5909 15.6285 13.4088 15.6285 16.2266 15.6353C16.8818 15.6353 17.4542 15.4111 17.9377 14.9354C18.2175 14.6636 18.561 14.6501 18.7964 14.8879C19.0253 15.1121 19.0508 15.5198 18.8282 15.812C18.7073 15.9751 18.561 16.1246 18.3956 16.2401C17.7468 16.6818 17.0408 16.9332 16.2648 16.9332C13.3579 16.9332 10.4573 16.9332 7.55046 16.9332C6.85077 16.9332 6.23378 16.675 5.70583 16.2197C5.15244 15.7441 4.64357 15.2072 4.11563 14.6976C4.02022 14.6093 3.93753 14.5074 3.81031 14.3715C3.79759 14.4938 3.79123 14.5617 3.79123 14.6297C3.79123 16.1246 3.78487 17.6127 3.79123 19.1076C3.79759 20.4394 4.62449 21.3092 5.87757 21.3092C9.9612 21.3092 14.0512 21.3092 18.1348 21.3092C19.3752 21.3092 20.2148 20.4394 20.2148 19.128C20.2212 14.5006 20.2148 9.87316 20.2148 5.24575C20.2148 5.1846 20.2085 5.13024 20.2021 5.0487C20.113 5.0419 20.0304 5.03511 19.9413 5.03511C14.0766 5.03511 8.21198 5.03511 2.34733 5.03511C1.59675 5.03511 1.22783 5.42922 1.22783 6.23783C1.22783 6.89015 1.23419 7.54247 1.22783 8.19479C1.22146 8.69762 0.814373 9.01699 0.407282 8.84711C0.171933 8.75198 0.0192735 8.55492 0.0192735 8.28992C0.00655188 7.47452 -0.0252519 6.65912 0.0383561 5.85051C0.140129 4.60023 1.03064 3.74405 2.23919 3.75085C2.70353 3.75085 2.92616 3.58777 3.10426 3.15968C3.37142 2.52775 3.69582 1.92299 4.00113 1.31144C4.44003 0.441676 5.12064 0 6.04931 0C10.0185 0 13.9876 0 17.9504 0C18.8854 0 19.5724 0.441675 20.0113 1.33182C20.3675 2.05889 20.7364 2.77916 21.0799 3.51302C21.1626 3.6829 21.258 3.72367 21.4297 3.73726C21.8241 3.77123 22.2376 3.77123 22.5938 3.91393C23.497 4.28086 23.9486 5.0487 23.9868 6.07475C24.0122 6.77463 23.9931 7.48131 23.9931 8.18799C23.9868 8.61608 23.7514 8.87429 23.3825 8.87429C23.0072 8.87429 22.7719 8.60929 22.7655 8.16761C22.7591 7.50849 22.7655 6.84258 22.7655 6.18346C22.7464 5.36127 22.1994 4.89241 21.417 5.05549ZM19.795 3.71008C19.4897 3.09173 19.2034 2.50736 18.9172 1.92299C18.7137 1.4949 18.3893 1.29785 17.9377 1.29785C13.9685 1.30464 10.0057 1.30464 6.03659 1.29785C5.58497 1.29785 5.26693 1.4949 5.05703 1.92299C4.79623 2.4598 4.53544 2.98981 4.27465 3.51982C4.24921 3.57418 4.23012 3.63533 4.20468 3.71008C9.40145 3.71008 14.5728 3.71008 19.795 3.71008Z" fill="#264B1D"/>
<path d="M11.9774 19.7668C11.4113 19.7668 10.8515 19.7736 10.2854 19.7668C9.84015 19.76 9.57299 19.3659 9.70021 18.9106C9.77654 18.6388 9.96736 18.4689 10.2727 18.4621C11.4176 18.4553 12.5562 18.4553 13.7012 18.4621C14.0764 18.4689 14.3181 18.7475 14.3054 19.128C14.2927 19.5086 14.0574 19.76 13.6693 19.76C13.1032 19.7736 12.5371 19.7668 11.9774 19.7668Z" fill="#264B1D"/>
<path d="M6.39922 18.2109C6.889 18.2109 7.26429 18.6118 7.25793 19.1215C7.25157 19.6379 6.87628 20.0252 6.3865 20.0184C5.89672 20.0116 5.55324 19.6311 5.54688 19.1215C5.54687 18.5915 5.90944 18.2109 6.39922 18.2109Z" fill="#264B1D"/>
<path d="M18.4209 19.1215C18.4209 19.6447 18.0519 20.0252 17.5558 20.0184C17.0724 20.0116 16.7162 19.6311 16.7098 19.1215C16.7034 18.6051 17.0787 18.2109 17.5685 18.2109C18.0646 18.2109 18.4272 18.5983 18.4209 19.1215Z" fill="#264B1D"/>
</svg>
