<svg width="30" height="30" viewBox="0 0 30 30" fill="none" xmlns="http://www.w3.org/2000/svg">
<path d="M27.193 22.1979C27.193 22.6326 27.1953 23.0336 27.1923 23.4354C27.19 23.8387 27.0327 23.9953 26.6287 23.9983C26.2713 24.0006 25.9139 24.0006 25.5564 23.9983C25.196 23.9961 25.0817 23.9091 24.9778 23.5523C24.8476 23.1048 24.7205 22.6566 24.5911 22.2069C18.1953 22.2069 11.8198 22.2069 5.40753 22.2069C5.29166 22.6199 5.17352 23.0396 5.05464 23.4586C4.92146 23.9294 4.83116 23.9983 4.34583 23.9983C4.00723 23.9983 3.66863 24.0021 3.33004 23.9968C2.97864 23.9916 2.81311 23.8274 2.80935 23.4774C2.80483 23.0584 2.80784 22.6394 2.80784 22.2114C2.63929 22.2009 2.49859 22.2031 2.36164 22.1821C1.57534 22.0622 1.00574 21.4221 1.00424 20.6268C0.99897 17.6278 0.998218 14.6289 1.00424 11.6306C1.00574 10.7327 1.69724 10.0626 2.60468 10.0506C2.8101 10.0483 3.01627 10.0498 3.26006 10.0498C3.26006 9.57836 3.25404 9.12263 3.26157 8.66765C3.28263 7.42563 4.12387 6.37101 5.33605 6.08168C5.57081 6.02546 5.81987 6.00373 6.06215 6.00373C12.0155 5.99923 17.9696 5.99923 23.9229 6.00148C25.5775 6.00223 26.7355 7.16554 26.74 8.82131C26.7408 9.22157 26.74 9.62258 26.74 10.0506C26.9801 10.0506 27.1938 10.0476 27.4074 10.0513C28.2998 10.0656 28.9921 10.7319 28.9944 11.6156C29.0019 14.6236 29.0019 17.6323 28.9944 20.6403C28.9921 21.4978 28.3156 22.1642 27.4556 22.1964C27.3826 22.2001 27.3074 22.1979 27.193 22.1979ZM15.0012 21.2992C19.0922 21.2992 23.184 21.2992 27.275 21.2992C27.8363 21.2992 28.0959 21.0488 28.0959 20.5024C28.0974 17.5784 28.0974 14.6551 28.0959 11.7311C28.0959 11.2146 27.8326 10.9538 27.3149 10.9515C26.6565 10.9485 25.9981 10.95 25.3397 10.9508C24.7242 10.9515 24.4842 11.1877 24.4842 11.7978C24.4835 13.5592 24.4842 15.3215 24.4835 17.0829C24.4835 17.5589 24.3412 17.699 23.8604 17.699C17.9538 17.699 12.0478 17.699 6.14116 17.699C5.66035 17.699 5.51889 17.5589 5.51889 17.0822C5.51814 15.311 5.51965 13.5398 5.51814 11.7686C5.51814 11.1981 5.26758 10.9515 4.69045 10.9508C4.05088 10.9493 3.4113 10.95 2.77172 10.9508C2.13817 10.9515 1.90642 11.1832 1.90642 11.8158C1.90642 14.6738 1.90642 17.5319 1.90642 20.3899C1.90642 21.0818 2.12237 21.2992 2.81311 21.2992C6.87555 21.2992 10.938 21.2992 15.0012 21.2992ZM6.42182 13.8883C7.06291 13.3561 7.74311 13.1942 8.49556 13.1957C12.859 13.2062 17.2224 13.2002 21.5866 13.2017C21.7739 13.2017 21.9628 13.21 22.1486 13.2309C22.6738 13.2917 23.1283 13.5225 23.582 13.8748C23.582 13.7361 23.582 13.6469 23.582 13.5578C23.582 13.0233 23.6151 12.4874 23.5753 11.9559C23.4842 10.7327 24.3164 9.94189 25.4804 10.0498C25.5963 10.0603 25.7145 10.0513 25.8394 10.0513C25.8394 9.63008 25.8394 9.25605 25.8394 8.88127C25.8386 7.63851 25.1035 6.90244 23.8627 6.90169C19.2073 6.90169 14.5527 6.90169 9.89736 6.90169C8.59036 6.90169 7.28262 6.89795 5.97563 6.90319C5.20212 6.90694 4.53094 7.36717 4.28188 8.07625C4.05539 8.72012 4.20287 9.38497 4.16374 10.0506C4.36916 10.0506 4.52868 10.0506 4.6882 10.0506C5.77623 10.0521 6.42032 10.6944 6.42182 11.7821C6.42182 12.4634 6.42182 13.144 6.42182 13.8883ZM6.43386 16.7801C12.1615 16.7801 17.8635 16.7801 23.5805 16.7801C23.5805 16.499 23.582 16.2374 23.5805 15.9766C23.5738 14.871 22.8063 14.1042 21.6987 14.1012C20.7957 14.0982 19.8936 14.1004 18.9906 14.1004C15.4271 14.1004 11.8627 14.0989 8.29917 14.1012C7.32099 14.1019 6.552 14.7413 6.44064 15.673C6.3985 16.0313 6.43386 16.3993 6.43386 16.7801ZM3.72582 22.2106C3.72582 22.5194 3.72582 22.7968 3.72582 23.0861C3.89512 23.0861 4.05012 23.0861 4.21942 23.0861C4.29993 22.7983 4.37969 22.5134 4.46472 22.2106C4.20362 22.2106 3.97337 22.2106 3.72582 22.2106ZM25.5361 22.2121C25.6227 22.5172 25.7054 22.8065 25.7852 23.0876C25.9665 23.0876 26.1133 23.0876 26.275 23.0876C26.275 22.7923 26.275 22.5089 26.275 22.2121C26.032 22.2121 25.801 22.2121 25.5361 22.2121Z" fill="#1B3D13"/>
<path d="M3.72562 22.2109C3.97317 22.2109 4.20342 22.2109 4.46452 22.2109C4.37949 22.5138 4.29973 22.7986 4.21922 23.0864C4.04992 23.0864 3.89492 23.0864 3.72562 23.0864C3.72562 22.7963 3.72562 22.5198 3.72562 22.2109Z" fill="white"/>
<path d="M25.5365 22.2109C25.8013 22.2109 26.0316 22.2109 26.2754 22.2109C26.2754 22.5078 26.2754 22.7911 26.2754 23.0864C26.1136 23.0864 25.9669 23.0864 25.7855 23.0864C25.7058 22.8053 25.6238 22.516 25.5365 22.2109Z" fill="white"/>
</svg>
