<svg width="30" height="30" viewBox="0 0 30 30" fill="none" xmlns="http://www.w3.org/2000/svg">
<path d="M12.9722 1.00146C13.5539 1.16625 14.0051 1.45646 14.1723 2.02885C14.3601 2.67198 14.064 3.31437 13.4195 3.62354C13.2818 3.68989 13.2102 3.75187 13.211 3.90719C13.2165 7.08708 13.2157 10.2677 13.2157 13.4476C13.2157 13.4826 13.2237 13.5183 13.2324 13.5971C13.3598 13.5971 13.4839 13.5971 13.6088 13.5971C17.8153 13.5971 22.0225 13.5985 26.229 13.5956C27.1457 13.5949 27.9255 13.8552 28.4937 14.5443C28.8287 14.9497 28.9871 15.4134 28.9998 15.9173C29.0062 16.1718 28.8367 16.3439 28.555 16.3832C28.3815 16.408 28.2033 16.4073 28.0521 16.416C27.7839 21.2475 25.0799 24.0475 19.8381 24.843C19.8381 24.8926 19.8381 24.9896 19.8381 25.0873C19.8381 26.1716 19.831 27.2558 19.8429 28.3401C19.8461 28.6318 19.7625 28.8556 19.4776 29C16.3145 29 13.1513 29 9.98809 29C9.704 28.8352 9.64511 28.5866 9.6475 28.2971C9.65546 27.2405 9.65148 26.1832 9.64989 25.1267C9.64989 25.0217 9.64034 24.9159 9.63557 24.8146C9.37694 24.7869 9.15095 24.7665 8.92574 24.738C6.86629 24.477 5.15141 22.7685 5.0957 20.8691C5.05512 19.4946 5.07899 18.1179 5.07342 16.7427C5.07342 16.6377 5.07342 16.532 5.07342 16.4029C4.59039 16.4029 4.15351 16.4226 3.71902 16.3964C3.42777 16.3789 3.11424 16.346 2.85641 16.233C2.20706 15.9486 2.00732 15.4178 2.00811 14.7871C2.01368 11.1886 2.00971 7.59021 2.01289 3.99104C2.01289 3.81604 1.98663 3.70375 1.7845 3.60677C1.10969 3.28229 0.83197 2.55094 1.10253 1.89542C1.30147 1.41198 1.72243 1.16042 2.22854 1C5.8103 1.00146 9.39126 1.00146 12.9722 1.00146ZM6.10872 16.4197C6.10235 16.489 6.09439 16.5415 6.09439 16.594C6.0936 17.9334 6.0745 19.2736 6.09917 20.6131C6.13339 22.4783 7.66922 23.8579 9.7048 23.863C12.8974 23.871 16.0901 23.8645 19.2827 23.8652C20.1143 23.8652 20.9331 23.766 21.7153 23.5101C24.4122 22.6278 26.1191 20.9062 26.7796 18.3534C26.9404 17.7336 26.9443 17.0803 27.0231 16.4197C20.006 16.4197 13.0765 16.4197 6.10872 16.4197ZM12.1725 15.4696C12.1725 11.5591 12.1725 7.68427 12.1725 3.81458C9.11832 3.81458 6.09121 3.81458 3.03148 3.81458C3.03148 3.93052 3.03148 4.02896 3.03148 4.12739C3.03148 7.67187 3.03148 11.2164 3.03148 14.7601C3.03148 15.3398 3.17233 15.4689 3.80337 15.4689C6.4883 15.4696 9.17322 15.4689 11.8574 15.4689C11.9648 15.4696 12.0714 15.4696 12.1725 15.4696ZM10.6963 24.8044C10.6963 25.9025 10.6963 26.9788 10.6963 28.0557C13.4123 28.0557 16.102 28.0557 18.7981 28.0557C18.7981 26.9649 18.7981 25.8886 18.7981 24.8044C16.0932 24.8044 13.4107 24.8044 10.6963 24.8044ZM13.2237 15.4433C18.1224 15.4433 22.9918 15.4433 27.8722 15.4433C27.612 14.8294 27.0892 14.5341 26.2743 14.5341C22.0305 14.5326 17.7874 14.5333 13.5436 14.5341C13.4385 14.5341 13.3343 14.5435 13.2237 14.5494C13.2237 14.8615 13.2237 15.1422 13.2237 15.4433ZM7.61351 2.86448C9.2337 2.86448 10.8531 2.86448 12.4733 2.86448C12.5728 2.86448 12.6738 2.87031 12.7709 2.85573C13.0263 2.81708 13.1847 2.6749 13.2062 2.43792C13.2285 2.19875 13.0956 2.03396 12.8473 1.96615C12.7359 1.93552 12.6125 1.93406 12.494 1.93406C9.24405 1.9326 5.99492 1.9326 2.745 1.93406C2.61767 1.93406 2.48399 1.93916 2.36382 1.97344C2.12509 2.04052 2.01448 2.20823 2.0296 2.43208C2.04472 2.65885 2.18796 2.8025 2.42828 2.8499C2.53332 2.87104 2.64552 2.86375 2.75455 2.86375C4.37394 2.86521 5.99412 2.86448 7.61351 2.86448Z" fill="#1B3D13"/>
</svg>
