<svg width="30" height="30" viewBox="0 0 30 30" fill="none" xmlns="http://www.w3.org/2000/svg">
<path d="M9.44045 30C8.84323 29.7547 8.6439 29.2797 8.71239 28.6656C8.7401 28.414 8.64851 28.3007 8.41763 28.1937C7.53873 27.7843 7.06542 27.0726 7.00693 26.0866C7.00154 25.9991 7.00308 25.9108 7.00308 25.8233C7.00308 18.0809 7.00539 10.3378 7 2.59538C6.99923 1.50004 7.44253 0.699236 8.41609 0.218755C8.61157 0.121877 8.82861 0.0718769 9.0364 0C13.347 0 17.6568 0 21.9675 0C22.1837 0.0757832 22.41 0.128908 22.6132 0.230473C23.4705 0.657828 23.9369 1.35941 23.9908 2.33287C24 2.4985 23.9946 2.66491 23.9946 2.83054C23.9946 10.4643 23.9892 18.0981 24 25.7319C24.0015 26.9366 23.5359 27.7945 22.43 28.2742C22.3638 28.3031 22.3192 28.4078 22.2899 28.4867C22.2676 28.5468 22.2791 28.6226 22.2861 28.6898C22.3469 29.2992 22.1398 29.7539 21.5634 30C20.6976 30 19.8318 30 18.966 30C18.1833 29.7562 18.1509 29.1133 18.1987 28.4414C16.3816 28.4414 14.6007 28.4414 12.7837 28.4414C12.8706 29.1398 12.7937 29.7476 12.0387 30C11.1721 30 10.3063 30 9.44045 30ZM7.92662 11.7769C7.92662 11.9058 7.92662 12.0027 7.92662 12.0988C7.92662 16.6676 7.94124 21.2357 7.91584 25.8046C7.90969 26.8734 8.67083 27.4984 9.58514 27.4921C13.5279 27.4656 17.4714 27.4812 21.4141 27.4804C22.4985 27.4804 23.0757 26.9007 23.0765 25.8085C23.0772 21.2396 23.0765 16.6715 23.0765 12.1027C23.0765 11.9987 23.0765 11.8948 23.0765 11.7761C18.0155 11.7769 12.9907 11.7769 7.92662 11.7769ZM23.0711 10.8104C23.0711 10.6917 23.0711 10.5956 23.0711 10.5003C23.0711 7.86427 23.0718 5.22748 23.0711 2.59147C23.0711 1.53363 22.4862 0.936742 21.4495 0.936742C17.4868 0.935961 13.5232 0.935961 9.56051 0.936742C8.5146 0.936742 7.92815 1.52504 7.92738 2.57819C7.92585 5.2142 7.92662 7.85098 7.92738 10.487C7.92738 10.5909 7.93585 10.694 7.94124 10.8104C12.9861 10.8104 18.0039 10.8104 23.0711 10.8104ZM9.66056 29.0453C10.404 29.0453 11.1297 29.0453 11.8616 29.0453C11.8616 28.8304 11.8616 28.6336 11.8616 28.4382C11.1128 28.4382 10.3871 28.4382 9.66056 28.4382C9.66056 28.6507 9.66056 28.8422 9.66056 29.0453ZM19.1414 28.4328C19.1414 28.6461 19.1414 28.8437 19.1414 29.0414C19.8887 29.0414 20.6145 29.0414 21.3441 29.0414C21.3441 28.8289 21.3441 28.6375 21.3441 28.4328C20.6014 28.4328 19.8749 28.4328 19.1414 28.4328Z" fill="#1B3D13"/>
<path d="M9.02937 17.3809C9.02937 16.3653 9.02783 15.3504 9.03014 14.3348C9.03091 13.7754 9.2718 13.5308 9.81822 13.5277C10.0776 13.5261 10.3377 13.523 10.5971 13.5285C11.0411 13.5379 11.2928 13.7824 11.312 14.2348C11.3244 14.5269 11.3159 14.8207 11.3159 15.1129C11.3159 16.8606 11.3167 18.6083 11.3159 20.3552C11.3159 21.0709 11.1081 21.2818 10.407 21.2826C10.1861 21.2826 9.96445 21.2873 9.74357 21.2803C9.28565 21.2654 9.03322 21.0091 9.03091 20.5435C9.02629 19.4896 9.02937 18.4349 9.02937 17.3809ZM9.97292 14.4777C9.97292 16.4434 9.97292 18.3778 9.97292 20.3162C10.1176 20.3162 10.2454 20.3162 10.3731 20.3162C10.3731 18.3599 10.3731 16.4254 10.3731 14.4777C10.233 14.4777 10.1122 14.4777 9.97292 14.4777Z" fill="#1B3D13"/>
<path d="M11.3169 5.87058C11.3169 6.65185 11.3199 7.43234 11.3161 8.21361C11.313 8.81909 11.0714 9.05894 10.4695 9.06285C10.2294 9.06441 9.98851 9.07066 9.74839 9.0605C9.29047 9.04097 9.03342 8.78003 9.03188 8.32064C9.02803 6.69013 9.02803 5.05962 9.03265 3.42911C9.03419 2.97597 9.30663 2.71112 9.7584 2.70174C9.99851 2.69706 10.2394 2.70018 10.4795 2.70096C11.0775 2.70253 11.3138 2.9416 11.3169 3.55645C11.3192 4.32757 11.3169 5.09946 11.3169 5.87058ZM10.3649 8.11282C10.3649 6.60575 10.3649 5.12915 10.3649 3.65802C10.2163 3.65802 10.097 3.65802 9.98081 3.65802C9.98081 5.15493 9.98081 6.63153 9.98081 8.11282C10.1178 8.11282 10.2302 8.11282 10.3649 8.11282Z" fill="#1B3D13"/>
</svg>
