<svg width="30" height="30" viewBox="0 0 30 30" fill="none" xmlns="http://www.w3.org/2000/svg">
<path d="M0.000755926 21.0129C0.0800507 20.5983 0.112523 20.1678 0.249967 19.7729C0.475013 19.1264 0.706857 18.4686 1.04367 17.8765C2.94222 14.5408 4.87248 11.2239 6.79217 7.90102C7.12369 7.32782 7.60173 7.32404 7.93024 7.89347C9.85068 11.2164 11.7772 14.5355 13.687 17.8645C15.9375 21.7878 14.3592 26.6407 10.2721 28.3988C10.1686 28.4434 10.0614 28.4864 9.95188 28.5068C9.68379 28.5559 9.44062 28.4102 9.34244 28.1587C9.24578 27.911 9.33111 27.6323 9.55691 27.4881C9.64376 27.4329 9.74269 27.3967 9.83784 27.3551C13.1894 25.8961 14.6114 21.9139 12.8465 18.7118C11.2674 15.8466 9.58939 13.0357 7.95516 10.2014C7.76787 9.87664 7.57907 9.55266 7.37215 9.19545C7.30267 9.29891 7.24906 9.37065 7.2045 9.44844C5.4789 12.4368 3.75027 15.4244 2.02919 18.4158C0.0838256 21.7961 1.40465 25.8191 4.97141 27.3929C5.36109 27.5651 5.5091 27.846 5.37996 28.167C5.24629 28.4978 4.92157 28.6088 4.52358 28.4291C1.9567 27.2691 0.4584 25.2987 0.0528641 22.5052C0.0407811 22.4229 0.0181245 22.3421 0 22.2605C0.000755189 21.8436 0.000755926 21.4283 0.000755926 21.0129Z" fill="#1B3D13"/>
<path d="M29 17.106C28.929 17.4262 28.8724 17.7502 28.784 18.0651C28.0636 20.6374 25.6613 22.3479 22.9932 22.1961C20.3682 22.0466 18.1479 20.037 17.7416 17.4262C17.5355 16.1031 17.7734 14.8532 18.441 13.6925C19.8841 11.1852 21.3318 8.68017 22.7803 6.17514C23.0907 5.63819 23.5823 5.63668 23.8911 6.17212C25.3343 8.66884 26.7745 11.1671 28.2161 13.6645C28.6028 14.3336 28.8542 15.0481 28.9502 15.8161C28.9592 15.8879 28.9834 15.9581 29 16.0298C29 16.3886 29 16.7473 29 17.106ZM23.3285 7.49147C23.0944 7.89626 22.886 8.25423 22.6791 8.61295C21.5629 10.5485 20.4256 12.4713 19.3381 14.4228C18.4455 16.0245 18.6788 18.0364 19.8509 19.4313C21.0531 20.8632 22.9494 21.4182 24.7098 20.8541C27.4889 19.9637 28.6994 16.8032 27.2313 14.2272C25.9951 12.0567 24.7362 9.89907 23.4864 7.73616C23.4456 7.66592 23.3988 7.59946 23.3285 7.49147Z" fill="#1B3D13"/>
<path d="M14.6703 0C14.813 0.156328 14.989 0.293776 15.094 0.47276C16.0455 2.10023 16.9985 3.7277 17.9244 5.37027C19.2588 7.73634 17.9939 10.6439 15.3681 11.2209C13.7641 11.5735 12.4002 11.0804 11.3905 9.79805C10.3778 8.51194 10.2094 7.04532 10.9691 5.60061C11.9161 3.79945 12.9832 2.06171 14.0072 0.301327C14.0782 0.178983 14.221 0.0989321 14.3305 0C14.4437 0 14.557 0 14.6703 0ZM14.4906 1.70828C13.6274 3.21038 12.7506 4.64377 11.969 6.12699C11.4071 7.19335 11.5702 8.27103 12.3519 9.1886C13.1327 10.1047 14.1568 10.409 15.316 10.0684C17.0673 9.55412 17.8549 7.56113 16.9517 5.95556C16.1897 4.59996 15.3998 3.25947 14.622 1.91218C14.591 1.85705 14.554 1.8057 14.4906 1.70828Z" fill="#1B3D13"/>
<path d="M7.19394 29.0008C7.14938 28.969 7.10331 28.9388 7.05951 28.9064C6.83975 28.7462 6.74309 28.5333 6.82842 28.2697C6.91149 28.0107 7.10331 27.8672 7.3782 27.8732C7.6395 27.8793 7.8215 28.022 7.90004 28.2697C7.98386 28.534 7.88871 28.7462 7.66895 28.9064C7.62439 28.9388 7.57908 28.9698 7.53453 29.0008C7.42049 29.0008 7.30721 29.0008 7.19394 29.0008Z" fill="#1B3D13"/>
<path d="M11.3287 21.3983C11.3271 23.7108 9.6982 25.4553 7.64182 25.5935C7.11621 25.629 6.82471 25.444 6.79979 25.0649C6.78091 24.7733 7.03994 24.4713 7.5512 24.4486C9.50865 24.3602 10.7547 22.2638 9.9459 20.4717C9.90361 20.3773 9.85 20.2874 9.80846 20.193C9.67781 19.8955 9.78052 19.5836 10.0516 19.4408C10.3243 19.2973 10.6399 19.3849 10.8068 19.6727C11.158 20.2821 11.3256 20.9429 11.3287 21.3983Z" fill="#1B3D13"/>
<path d="M25.601 16.5524C25.5904 17.7124 24.7038 18.6821 23.5477 18.7962C23.482 18.803 23.4162 18.8052 23.3505 18.803C23.0273 18.7924 22.7857 18.5658 22.7721 18.263C22.7585 17.9602 22.9813 17.6807 23.3022 17.6815C24.1865 17.6845 24.7605 16.7322 24.3149 15.9483C24.1473 15.653 24.2855 15.323 24.5717 15.1863C24.8481 15.0541 25.1751 15.1432 25.3103 15.4491C25.4636 15.795 25.5534 16.1696 25.6705 16.5313C25.6471 16.5373 25.6244 16.5449 25.601 16.5524Z" fill="#1B3D13"/>
</svg>
