<svg width="30" height="30" viewBox="0 0 30 30" fill="none" xmlns="http://www.w3.org/2000/svg">
<path d="M29 23.7201C28.8475 23.9462 28.6297 24 28.3665 24C19.125 23.9958 9.8828 23.9965 0.641306 23.9965C0.128402 23.9965 0 23.8703 0 23.3666C0 17.4558 0 11.5442 0 5.63338C0 5.12965 0.128402 5.00354 0.641306 5.00354C9.8828 5.00354 19.125 5.00425 28.3665 5C28.6297 5 28.8475 5.05385 29 5.27985C29 11.4259 29 17.5727 29 23.7201ZM0.864772 5.86647C0.864772 11.6264 0.864772 17.3722 0.864772 23.1222C7.8475 23.1222 14.8153 23.1222 21.7803 23.1222C21.7803 17.358 21.7803 11.62 21.7803 5.86647C14.8019 5.86647 7.84041 5.86647 0.864772 5.86647ZM22.6635 5.85868C22.6635 11.6285 22.6635 17.3722 22.6635 23.1307C24.4938 23.1307 26.3092 23.1307 28.1253 23.1307C28.1253 17.3637 28.1253 11.6129 28.1253 5.85868C26.2993 5.85868 24.4981 5.85868 22.6635 5.85868Z" fill="#1B3D13"/>
<path d="M3.13049 9.47799C3.13049 12.8383 3.13049 16.1618 3.13049 19.5037C8.59366 19.5037 14.0433 19.5037 19.5101 19.5037C19.5101 16.1646 19.5101 12.8426 19.5101 9.47799C19.1085 9.47799 18.7155 9.4787 18.3232 9.47799C18.1061 9.47729 17.8891 9.48154 17.672 9.46949C17.4379 9.45603 17.3066 9.30442 17.2903 9.08691C17.2733 8.86587 17.3925 8.70929 17.6181 8.65757C17.6997 8.63844 17.7862 8.63207 17.8699 8.63136C18.5119 8.62924 19.1539 8.62711 19.7952 8.63136C20.2287 8.63419 20.3756 8.77872 20.3763 9.21161C20.3784 12.737 20.3784 16.2631 20.3763 19.7885C20.3763 20.2214 20.2287 20.3687 19.7952 20.3687C14.1505 20.3702 8.50569 20.3702 2.86091 20.3687C2.41114 20.3687 2.26713 20.2221 2.26713 19.7743C2.26642 16.2581 2.26642 12.742 2.26713 9.22578C2.26713 8.77731 2.41114 8.63065 2.8602 8.63065C7.07055 8.62923 11.2802 8.62994 15.4905 8.63136C15.5927 8.63136 15.7296 8.6179 15.7906 8.67458C15.9098 8.7851 16.046 8.93247 16.068 9.07983C16.0978 9.28033 15.9481 9.42982 15.7332 9.46382C15.6225 9.48154 15.5076 9.47658 15.3941 9.47729C11.4391 9.47799 7.48414 9.47799 3.52846 9.47799C3.40715 9.47799 3.28585 9.47799 3.13049 9.47799Z" fill="#1B3D13"/>
<path d="M23.6148 18.591C23.6091 17.6069 24.3958 16.8113 25.3833 16.8028C26.3637 16.7943 27.1711 17.5857 27.1824 18.5662C27.1938 19.5319 26.3879 20.348 25.4089 20.3629C24.442 20.3778 23.6205 19.5666 23.6148 18.591ZM25.1663 19.4681C25.5642 19.5737 25.8842 19.4553 26.1247 19.15C26.3077 18.9176 26.4028 18.6533 26.2729 18.36C25.9012 18.732 25.5401 19.094 25.1663 19.4681ZM24.4916 18.749C24.8619 18.3863 25.2259 18.0299 25.5862 17.6764C25.2656 17.5991 24.9627 17.6806 24.7193 17.9406C24.4959 18.1815 24.4072 18.4642 24.4916 18.749Z" fill="#1B3D13"/>
<path d="M23.6158 14.5106C23.6101 13.5315 24.4004 12.7309 25.385 12.7189C26.3541 12.7068 27.1735 13.5131 27.1834 14.488C27.1933 15.4564 26.3881 16.2691 25.4084 16.2804C24.4344 16.2917 23.6214 15.489 23.6158 14.5106ZM25.6106 13.6038C25.2339 13.5202 24.9154 13.6179 24.6735 13.9162C24.4819 14.1528 24.4068 14.4207 24.5082 14.7118C24.8792 14.3392 25.2403 13.9757 25.6106 13.6038ZM25.1857 15.3948C25.5418 15.4784 25.8575 15.392 26.1037 15.1008C26.3066 14.8606 26.3917 14.5879 26.2909 14.3009C25.9206 14.6679 25.5567 15.0271 25.1857 15.3948Z" fill="#1B3D13"/>
<path d="M24.5024 9.4738C24.2704 9.48017 24.0824 9.30872 24.0718 9.0813C24.0604 8.84183 24.2513 8.64062 24.4882 8.64062C24.7074 8.64062 24.906 8.83546 24.9103 9.05367C24.9145 9.27542 24.7287 9.46742 24.5024 9.4738Z" fill="#1B3D13"/>
<path d="M24.9101 10.406C24.9172 10.6278 24.7327 10.8219 24.5064 10.8311C24.2737 10.8403 24.0843 10.6717 24.0716 10.4443C24.0574 10.2048 24.2447 10.0029 24.483 10C24.7036 9.99651 24.903 10.1864 24.9101 10.406Z" fill="#1B3D13"/>
<path d="M26.3356 8.64063C26.564 8.64276 26.7456 8.82484 26.7471 9.05438C26.7492 9.29739 26.5605 9.48018 26.3157 9.47239C26.0838 9.4646 25.9107 9.2811 25.9156 9.04943C25.9213 8.82201 26.1093 8.63922 26.3356 8.64063Z" fill="#1B3D13"/>
<path d="M26.3156 10.8311C26.0836 10.8226 25.9112 10.6405 25.9169 10.4074C25.9219 10.1793 26.1091 9.99789 26.3361 10C26.5773 10.0021 26.759 10.1977 26.7462 10.4421C26.7334 10.6738 26.5504 10.8396 26.3156 10.8311Z" fill="#1B3D13"/>
<path d="M24.4909 11.3613C24.7144 11.3628 24.9073 11.5526 24.9094 11.7737C24.9116 11.9961 24.725 12.186 24.4987 12.191C24.2554 12.1966 24.0652 12.0082 24.0709 11.768C24.0766 11.5399 24.2625 11.3599 24.4909 11.3613Z" fill="#1B3D13"/>
<path d="M26.3332 12.1891C26.0977 12.1898 25.9218 12.019 25.9168 11.7852C25.9126 11.555 26.0878 11.3694 26.3169 11.3616C26.561 11.3538 26.749 11.5387 26.7454 11.7831C26.7433 12.0176 26.5688 12.1891 26.3332 12.1891Z" fill="#1B3D13"/>
<path d="M25.1663 19.4694C25.5394 19.096 25.9012 18.734 26.2736 18.3613C26.4028 18.6546 26.3084 18.9196 26.1254 19.1513C25.8842 19.4566 25.5642 19.575 25.1663 19.4694Z" fill="white"/>
<path d="M24.4919 18.7503C24.4075 18.4648 24.4962 18.1828 24.7203 17.9426C24.9637 17.6819 25.2666 17.6012 25.5872 17.6784C25.2268 18.0312 24.8622 18.3876 24.4919 18.7503Z" fill="white"/>
<path d="M25.6104 13.603C25.2401 13.9756 24.879 14.3384 24.508 14.711C24.4066 14.4199 24.4811 14.1528 24.6733 13.9154C24.9152 13.6164 25.2337 13.5194 25.6104 13.603Z" fill="white"/>
<path d="M25.1855 15.3947C25.5566 15.0277 25.9205 14.6678 26.2908 14.3008C26.3916 14.5877 26.3064 14.8605 26.1035 15.1007C25.8581 15.3918 25.5424 15.4776 25.1855 15.3947Z" fill="white"/>
</svg>
