<svg width="30" height="30" viewBox="0 0 30 30" fill="none" xmlns="http://www.w3.org/2000/svg">
<path d="M29.9992 18.1695C29.9664 18.7074 29.9422 19.2462 29.9 19.7833C29.7813 21.3009 29.6633 22.8185 29.5313 24.3345C29.3953 25.8985 28.1931 27.0906 26.6642 27.1973C26.2064 27.2293 25.7494 27.2742 25.2909 27.2911C25.1049 27.2983 25.0417 27.372 25.0096 27.5492C24.9464 27.8931 24.862 28.233 24.7807 28.573C24.7057 28.8888 24.4956 29.046 24.2394 28.9882C23.9847 28.9305 23.855 28.6892 23.9214 28.3749C23.9894 28.0535 24.0675 27.7336 24.1441 27.3977C23.8691 27.3977 23.612 27.3913 23.3542 27.3993C22.9738 27.4113 22.5933 27.4378 22.2129 27.4498C21.9114 27.4594 21.7137 27.3007 21.6903 27.045C21.6661 26.786 21.8559 26.5776 22.1692 26.5551C22.6855 26.5182 23.2027 26.503 23.7191 26.4725C24.7128 26.414 25.708 26.3619 26.701 26.2874C27.6798 26.2144 28.5251 25.3951 28.6423 24.3818C29.0399 20.9433 29.2243 17.4921 29.0766 14.032C28.9907 12.0118 28.8102 9.99555 28.6501 7.97931C28.5626 6.8786 27.6868 6.03603 26.6244 5.96147C22.0824 5.64401 17.5358 5.49569 12.9845 5.56704C10.8955 5.59991 8.80813 5.69531 6.71996 5.76506C6.36372 5.77708 6.15748 5.65683 6.10905 5.39148C6.05749 5.10768 6.25982 4.88321 6.60356 4.86958C8.20347 4.80785 9.80339 4.74933 11.4041 4.69642C11.8111 4.68279 12.2189 4.69401 12.6993 4.69401C12.5939 4.55291 12.5462 4.48317 12.4923 4.41903C11.5502 3.29427 10.608 2.17031 9.66512 1.04635C9.58231 0.947743 9.49637 0.85154 9.41982 0.747322C9.25654 0.52285 9.2792 0.267115 9.47137 0.105175C9.65261 -0.0479469 9.8987 -0.0375248 10.0753 0.160491C10.3776 0.501207 10.6651 0.855551 10.958 1.20508C11.8619 2.28335 12.7689 3.36001 13.6673 4.44389C13.7922 4.5946 13.9211 4.65794 14.1149 4.65473C14.7492 4.6427 15.3843 4.6419 16.0187 4.65473C16.2156 4.65874 16.3405 4.58899 16.4648 4.43988C17.6069 3.069 18.7553 1.70373 19.9013 0.33686C19.9458 0.283949 19.988 0.227832 20.0349 0.177326C20.2278 -0.026302 20.4739 -0.0527588 20.6614 0.10838C20.8473 0.267915 20.8723 0.533272 20.7036 0.752132C20.5224 0.987827 20.3263 1.2115 20.1357 1.43998C19.2888 2.4501 18.442 3.46022 17.5952 4.47034C17.5577 4.51523 17.5225 4.56253 17.4491 4.65633C17.5913 4.66756 17.6905 4.67718 17.7889 4.68199C20.7442 4.80785 23.6995 4.9281 26.6549 5.06198C28.1368 5.12932 29.393 6.33746 29.5227 7.85585C29.6899 9.81116 29.8109 11.7705 29.9539 13.7274C29.9625 13.8452 29.9844 13.9623 30 14.0793C29.9992 15.443 29.9992 16.8058 29.9992 18.1695Z" fill="#1B3D13"/>
<path d="M0.000781972 14.0782C0.0328116 13.5395 0.057811 13.0008 0.0992151 12.4636C0.217959 10.946 0.335921 9.42846 0.469508 7.91248C0.607782 6.34278 1.84444 5.13785 3.37561 5.05608C3.80449 5.03283 4.23259 4.99996 4.66148 4.9727C4.9888 4.95186 5.19036 5.09456 5.21692 5.36473C5.24426 5.64211 5.08021 5.83291 4.75679 5.86337C4.30993 5.90506 3.86152 5.93152 3.4131 5.95877C2.32644 6.02291 1.46946 6.86388 1.34368 7.9694C0.91636 11.7197 0.767148 15.4812 0.952295 19.2515C1.03588 20.9615 1.1976 22.6675 1.35931 24.3718C1.45618 25.3924 2.32488 26.2173 3.31936 26.2887C8.36832 26.6502 13.422 26.7833 18.4826 26.6663C19.0685 26.6526 19.6544 26.6406 20.2396 26.6294C20.6185 26.6222 20.8114 26.7681 20.8185 27.0615C20.8247 27.3533 20.6372 27.5265 20.2614 27.5289C17.5085 27.5489 14.7547 27.5914 12.0017 27.5682C10.0792 27.5513 8.15739 27.4407 6.23483 27.3733C6.11921 27.3693 6.00281 27.3725 5.8536 27.3725C5.92938 27.7093 6.00204 28.0267 6.07156 28.3442C6.145 28.6801 6.02312 28.9278 5.75986 28.9863C5.49581 29.0457 5.29348 28.8813 5.21379 28.5414C5.13645 28.2103 5.0513 27.8808 4.98958 27.5473C4.95677 27.3701 4.89193 27.3012 4.70757 27.29C4.10448 27.2515 3.49435 27.2355 2.90141 27.1256C1.59445 26.8843 0.585908 25.7467 0.474195 24.3927C0.314047 22.447 0.187492 20.4981 0.0453115 18.5508C0.0374994 18.4426 0.014843 18.336 0 18.2285C0.000781209 16.844 0.000781972 15.4611 0.000781972 14.0782Z" fill="#1B3D13"/>
<path d="M14.9866 25.3956C11.5485 25.4028 8.11427 25.2841 4.68476 25.0324C3.67934 24.9587 2.93719 24.2043 2.80829 23.1741C2.4255 20.1157 2.25988 17.0468 2.41456 13.9676C2.49815 12.2985 2.66064 10.6326 2.83016 8.96988C2.92703 8.02148 3.74262 7.29035 4.65194 7.22541C8.9111 6.92077 13.1757 6.78689 17.4435 6.8855C20.0777 6.94643 22.7104 7.10035 25.3438 7.22942C26.2797 7.27512 27.0578 8.03592 27.1797 8.99633C27.6039 12.3434 27.7593 15.7024 27.5476 19.0727C27.4617 20.4412 27.3187 21.8064 27.1867 23.1717C27.0867 24.2059 26.3219 24.9595 25.3173 25.0332C21.8784 25.2849 18.4348 25.4044 14.9866 25.3956ZM14.9748 24.4913C15.3358 24.4913 15.6982 24.5033 16.0584 24.4897C19.1215 24.3734 22.1846 24.2588 25.247 24.1297C25.8415 24.1049 26.2438 23.6936 26.3094 23.0859C26.4196 22.071 26.5305 21.0553 26.6086 20.0371C26.8875 16.4079 26.7742 12.7891 26.3125 9.18072C26.2329 8.56022 25.8243 8.15857 25.2235 8.1257C23.44 8.02629 21.6565 7.90444 19.8715 7.84431C14.842 7.67436 9.81574 7.76013 4.79569 8.1233C4.17619 8.16819 3.75277 8.5538 3.68949 9.19194C3.55747 10.5171 3.41763 11.8415 3.33326 13.1699C3.12468 16.4696 3.26295 19.7589 3.68246 23.0362C3.76918 23.7144 4.13713 24.0872 4.791 24.1353C8.18067 24.3846 11.5758 24.5017 14.9748 24.4913Z" fill="#1B3D13"/>
</svg>
