<svg width="30" height="30" viewBox="0 0 30 30" fill="none" xmlns="http://www.w3.org/2000/svg">
<path d="M1 8.19277C1.04666 7.97542 1.08748 7.75808 1.13997 7.54073C1.47823 6.10491 2.29473 5.06425 3.33285 4.2212C4.72089 3.09493 6.29557 2.42971 7.9344 1.9555C11.1596 1.02683 14.4372 0.822657 17.744 1.1388C19.8727 1.34298 21.9606 1.77769 23.9727 2.63391C25.3199 3.20692 26.5855 3.95119 27.6061 5.12356C28.3293 5.95344 28.8134 6.91504 28.9533 8.08741C28.9592 8.12692 28.9825 8.15984 29 8.19277C29 9.47052 29 10.7483 29 12.0194C28.9533 12.1841 28.9125 12.3487 28.8659 12.5134C28.5043 13.6528 27.4661 14.3246 26.3989 14.1007C25.2033 13.8438 24.0019 13.5804 22.8121 13.3104C21.8032 13.0798 21.0858 12.0985 21.0741 10.9393C21.0625 10.2411 21.0566 9.53637 21.08 8.83822C21.0916 8.52207 20.9808 8.33766 20.7359 8.26521C20.0944 8.06762 19.4586 7.82392 18.8113 7.72513C16.1927 7.31677 13.5624 7.3102 10.9438 7.77783C10.3839 7.87662 9.83567 8.09398 9.28745 8.2784C9.03667 8.35743 8.92 8.54183 8.93166 8.87773C8.96083 9.54295 8.94334 10.2148 8.9375 10.8866C8.92584 12.1182 8.22015 13.093 7.14704 13.3367C5.96895 13.6001 4.79086 13.8636 3.61278 14.1139C2.43469 14.3642 1.32659 13.5277 1.06414 12.2039C1.05248 12.1446 1.02917 12.0919 1.01168 12.0326C1.00001 10.7417 1 9.46393 1 8.19277ZM14.653 6.21028C16.4434 6.21028 17.919 6.28273 19.377 6.58571C20.106 6.73719 20.8234 6.9282 21.4591 7.36948C21.914 7.68562 22.1589 8.12034 22.1414 8.74604C22.1181 9.44419 22.1298 10.1423 22.1414 10.847C22.1473 11.5188 22.4855 11.9931 23.0571 12.1248C24.2235 12.3882 25.3958 12.6517 26.568 12.8888C27.3437 13.0469 27.9094 12.4936 27.9094 11.5979C27.9152 10.8339 27.9152 10.0765 27.9094 9.31245C27.9094 8.93045 27.9211 8.54841 27.8686 8.17299C27.6994 6.94794 27.0462 6.06538 26.2064 5.34088C24.9642 4.26072 23.5295 3.65481 22.0365 3.18718C19.9894 2.5483 17.8898 2.27825 15.7728 2.22556C12.9325 2.15311 10.1331 2.4495 7.40365 3.37817C6.02144 3.85238 4.69171 4.47148 3.57195 5.53846C2.71463 6.35517 2.10226 7.34311 2.08477 8.66697C2.0731 9.65492 2.07893 10.6429 2.08477 11.6308C2.0906 12.4804 2.66215 13.0403 3.40283 12.8954C4.54592 12.6583 5.68902 12.3949 6.83212 12.1512C7.50864 12.0063 7.84691 11.5584 7.85274 10.7878C7.85857 10.0962 7.87023 9.41123 7.8469 8.71967C7.8294 8.13349 8.04521 7.67904 8.48262 7.41559C8.92003 7.15872 9.38659 6.9216 9.86483 6.78329C11.5445 6.28931 13.2533 6.22345 14.653 6.21028Z" fill="#1B3D13"/>
<path d="M14.9913 28.9797C11.6029 28.9797 8.2144 28.9797 4.82594 28.9797C4.38853 28.9797 3.97444 28.9073 3.61285 28.6109C3.13461 28.2157 2.87219 27.6756 2.86635 27.0104C2.85469 25.2519 2.86052 23.4933 2.86635 21.7348C2.86635 21.1025 3.09963 20.5624 3.47288 20.0948C4.8201 18.4087 6.16731 16.716 7.51453 15.0233C8.20856 14.1539 8.90259 13.2779 9.60244 12.4085C9.82989 12.1253 9.94655 11.8092 9.94071 11.4338C9.93488 11.0649 9.93488 10.6895 9.94071 10.3207C9.95821 9.33933 10.5298 8.70703 11.3929 8.70703C13.7957 8.70703 16.2044 8.70703 18.6072 8.70703C19.4587 8.70703 20.0303 9.33271 20.0536 10.2943C20.0653 10.6632 20.0653 11.0386 20.0536 11.4074C20.0419 11.8026 20.1644 12.1253 20.3919 12.4151C22.3923 14.9179 24.381 17.4405 26.3931 19.9367C26.9005 20.569 27.1454 21.2606 27.1338 22.1102C27.1105 23.625 27.0871 25.1399 27.1396 26.6482C27.1863 27.9457 26.4631 29.0193 25.0459 28.9995C21.6982 28.9468 18.3448 28.9797 14.9913 28.9797ZM14.9913 27.7679C18.3973 27.7679 21.8032 27.7679 25.2092 27.7679C25.7866 27.7679 26.049 27.478 26.049 26.8326C26.049 25.1728 26.049 23.5197 26.0549 21.8599C26.0549 21.4911 25.9499 21.1815 25.7283 20.9115C25.0576 20.075 24.3869 19.232 23.7162 18.3889C22.3456 16.6699 20.9751 14.9443 19.6045 13.2252C19.1788 12.6983 18.963 12.0924 18.9805 11.3745C18.9922 11.0386 18.9863 10.6961 18.9805 10.3536C18.9747 10.0309 18.8872 9.91889 18.6072 9.91889C16.1927 9.91889 13.7782 9.91889 11.3638 9.91889C11.1071 9.91889 11.0022 10.0638 11.0022 10.3404C11.0022 10.65 10.9905 10.9596 11.0022 11.2691C11.043 12.0792 10.7805 12.7378 10.3023 13.3372C8.29022 15.8466 6.2898 18.3692 4.28355 20.8785C4.04444 21.1749 3.92781 21.5043 3.93364 21.9126C3.94531 23.5263 3.93944 25.1465 3.93944 26.7601C3.93944 27.511 4.17859 27.7745 4.84345 27.7745C8.23191 27.7679 11.6087 27.7679 14.9913 27.7679Z" fill="#1B3D13"/>
<path d="M9.73072 20.2099C9.73656 16.9233 12.0927 14.2625 14.9913 14.2559C17.9015 14.2493 20.2694 16.9431 20.2577 20.2362C20.2461 23.5228 17.8957 26.1705 14.9796 26.1639C12.0811 26.1639 9.72489 23.4965 9.73072 20.2099ZM14.9855 24.9521C17.295 24.9586 19.1788 22.8444 19.1904 20.2362C19.2021 17.6346 17.3183 15.4875 15.0147 15.4809C12.6935 15.4743 10.798 17.6017 10.7922 20.2165C10.798 22.8181 12.6759 24.9389 14.9855 24.9521Z" fill="#1B3D13"/>
<path d="M14.997 23.6588C13.3232 23.6588 11.9526 22.111 11.9468 20.2274C11.941 18.3305 13.3173 16.7695 15.0028 16.7695C16.6825 16.7695 18.0647 18.3371 18.053 20.2274C18.0413 22.1176 16.665 23.6588 14.997 23.6588ZM14.9853 17.988C13.883 17.9946 13.0141 18.9891 13.0257 20.2339C13.0316 21.4458 13.9297 22.447 15.0028 22.4404C16.0934 22.4338 16.9741 21.4195 16.9624 20.1813C16.9624 18.9628 16.0759 17.988 14.9853 17.988Z" fill="#1B3D13"/>
</svg>
