<svg width="30" height="30" viewBox="0 0 30 30" fill="none" xmlns="http://www.w3.org/2000/svg">
<path d="M25.7848 0C25.8258 0.0210926 25.866 0.0468732 25.9093 0.0617162C26.5795 0.296079 26.9845 0.819487 26.9868 1.53195C26.9953 4.28493 26.9907 7.03791 26.9907 9.79168C26.9907 10.0385 26.9126 10.2417 26.6544 10.3065C26.445 10.3588 26.2625 10.2854 26.1721 10.0815C26.1273 9.97995 26.1226 9.85495 26.1218 9.74012C26.118 8.80266 26.1195 7.866 26.1195 6.92854C26.1195 6.82308 26.1195 6.71762 26.1195 6.58716C26.002 6.58013 25.9093 6.57075 25.8165 6.57075C24.4444 6.56997 23.0731 6.57388 21.7011 6.56528C21.5009 6.56372 21.3857 6.61997 21.2968 6.80589C21.1546 7.10354 20.9899 7.3918 20.8199 7.67538C20.285 8.56752 19.5042 9.07843 18.4661 9.08624C16.1572 9.10421 13.8482 9.10421 11.5393 9.08624C10.5012 9.07843 9.71889 8.57221 9.18397 7.67929C8.99923 7.37071 8.84231 7.04573 8.65602 6.73793C8.61041 6.66215 8.50142 6.577 8.42103 6.577C6.92451 6.56763 5.42722 6.56997 3.90596 6.56997C3.90596 12.9267 3.90596 19.267 3.90596 25.633C11.2919 25.633 18.6841 25.633 26.1195 25.633C26.1195 25.5135 26.1195 25.3901 26.1195 25.2674C26.1195 20.9231 26.1195 16.578 26.1195 12.2337C26.1195 12.1361 26.1157 12.0384 26.1226 11.9408C26.1404 11.683 26.3081 11.5088 26.5393 11.5025C26.7627 11.4963 26.9528 11.6689 26.9837 11.9189C26.9969 12.0252 26.9899 12.1337 26.9899 12.2408C26.9899 17.5131 26.9791 22.7847 27 28.0571C27.0038 29.0071 26.7109 29.6852 25.784 30C20.3151 30 14.8454 30 9.37645 30C9.16233 29.8664 9.01314 29.6906 9.10126 29.4219C9.18938 29.1539 9.41432 29.1024 9.66477 29.1204C9.73203 29.125 9.80005 29.1211 9.8673 29.1211C14.9289 29.1211 19.9904 29.1211 25.052 29.1211C25.9943 29.1211 26.1187 28.9946 26.1187 28.0392C26.1187 27.5447 26.1187 27.0509 26.1187 26.5635C18.6833 26.5635 11.2912 26.5635 3.88046 26.5635C3.88046 27.183 3.87582 27.7775 3.882 28.372C3.88664 28.8758 4.13477 29.1188 4.63876 29.1204C5.52771 29.1227 6.41588 29.1243 7.30482 29.1196C7.54909 29.118 7.77326 29.1368 7.87761 29.4071C7.98428 29.682 7.815 29.843 7.63644 30C6.49627 30 5.3561 30 4.21593 30C3.28911 29.686 2.99769 29.0094 3.00001 28.0587C3.01779 20.0075 3.01006 11.9556 3.01006 3.90448C3.01006 3.12406 3.00388 2.34285 3.01238 1.56242C3.02011 0.83355 3.41279 0.300766 4.09226 0.0640597C4.13554 0.0492168 4.17497 0.0234362 4.21671 0.00234353C11.4063 -9.53101e-08 18.5952 0 25.7848 0ZM26.1195 5.68174C26.1195 5.56768 26.1195 5.48175 26.1195 5.39581C26.1195 4.16541 26.1203 2.935 26.1187 1.7046C26.118 1.10385 25.8923 0.879642 25.2909 0.879642C18.4305 0.879642 11.5694 0.879642 4.7091 0.879642C4.10694 0.879642 3.882 1.10307 3.88123 1.7046C3.87968 2.935 3.88046 4.16541 3.88046 5.39581C3.88046 5.48878 3.88046 5.58096 3.88046 5.68252C11.3097 5.68173 18.691 5.68174 26.1195 5.68174ZM20.3816 6.58794C16.7825 6.58794 13.2043 6.58794 9.61994 6.58794C10.0227 7.6621 10.6983 8.23004 11.7704 8.21988C13.924 8.19879 16.0783 8.19957 18.2327 8.21988C19.2971 8.22926 19.9765 7.67226 20.3816 6.58794Z" fill="#1B3D13"/>
<path d="M9.79761 4.63326C8.56081 4.63326 7.32402 4.63404 6.08723 4.63247C5.50362 4.63169 5.24003 4.36764 5.2323 3.77549C5.22766 3.41457 5.22534 3.05287 5.23307 2.69195C5.24544 2.15917 5.52371 1.87871 6.04703 1.87871C8.53994 1.87637 11.0328 1.87637 13.5258 1.87871C14.0599 1.87949 14.3475 2.17089 14.3544 2.7107C14.359 3.09115 14.3629 3.47238 14.3529 3.85283C14.3405 4.34577 14.0529 4.63013 13.5652 4.63169C12.3098 4.63482 11.0537 4.63247 9.79761 4.63326ZM13.4701 2.77241C11.0158 2.77241 8.57705 2.77241 6.12588 2.77241C6.12588 3.10208 6.12588 3.41613 6.12588 3.7333C8.58555 3.7333 11.0243 3.7333 13.4701 3.7333C13.4701 3.40441 13.4701 3.09662 13.4701 2.77241Z" fill="#1B3D13"/>
<path d="M25.0928 3.24994C25.0952 4.24363 24.3152 5.03969 23.3343 5.04359C22.3557 5.04672 21.5579 4.25145 21.5541 3.26712C21.5502 2.28592 22.3472 1.47268 23.318 1.46878C24.2943 1.46331 25.0905 2.26327 25.0928 3.24994ZM24.2225 3.24681C24.2178 2.7484 23.7996 2.3367 23.308 2.34686C22.8295 2.35701 22.4268 2.77027 22.4245 3.25384C22.4222 3.74991 22.8349 4.16551 23.3289 4.16395C23.8275 4.16239 24.2279 3.75147 24.2225 3.24681Z" fill="#1B3D13"/>
<path d="M17.1435 3.25873C17.1435 2.9853 17.1381 2.71188 17.145 2.43924C17.152 2.15644 17.3143 1.98379 17.5625 1.97676C17.8214 1.96973 18.0061 2.14785 18.0108 2.4408C18.0193 2.98687 18.0193 3.53371 18.0108 4.07978C18.0061 4.36726 17.8106 4.55788 17.5617 4.54851C17.3197 4.53913 17.1535 4.35789 17.1458 4.079C17.1381 3.80479 17.1435 3.53137 17.1435 3.25873Z" fill="#1B3D13"/>
<path d="M20.1025 3.27377C20.1025 3.53704 20.108 3.80109 20.101 4.06435C20.0933 4.35575 19.9139 4.5487 19.6658 4.54792C19.4177 4.54714 19.2383 4.3534 19.2345 4.06123C19.2291 3.52454 19.2283 2.98785 19.2345 2.45116C19.2376 2.15352 19.4107 1.97306 19.6689 1.97462C19.9263 1.9754 20.094 2.15664 20.1018 2.45506C20.108 2.7277 20.1025 3.00113 20.1025 3.27377Z" fill="#1B3D13"/>
</svg>
