<svg width="30" height="30" viewBox="0 0 30 30" fill="none" xmlns="http://www.w3.org/2000/svg">
<path d="M11.7347 15.4962C11.7526 14.8145 11.7502 14.8202 11.1593 14.6077C9.77959 14.1099 8.45796 13.5017 7.30552 12.5732C5.34882 10.9964 4.70067 8.86214 5.54089 6.49331C6.35087 4.20948 7.84659 2.51501 10.1163 1.5848C11.3162 1.09354 12.5381 1.15975 13.7232 1.67308C15.1617 2.29594 15.9251 3.64139 15.6154 5.17811C15.3882 6.30367 15.0277 7.4039 14.7016 8.50821C14.4204 9.45967 14.2447 10.4136 14.4311 11.4059C14.4515 11.5146 14.4744 11.6233 14.494 11.7222C14.5324 11.7361 14.5512 11.7492 14.5692 11.7484C15.1993 11.7141 15.1936 11.7124 15.4094 11.1141C15.8859 9.79235 16.4695 8.52619 17.3424 7.41207C18.9902 5.30889 21.2002 4.65252 23.6964 5.60724C25.9015 6.4508 27.5485 7.93112 28.4328 10.1602C28.8987 11.3348 28.8358 12.5266 28.3462 13.6824C27.7218 15.1578 26.3764 15.9253 24.8047 15.609C23.6792 15.3826 22.5791 15.0205 21.4757 14.6927C20.5341 14.4131 19.5884 14.2464 18.6076 14.427C18.4899 14.4491 18.3722 14.4753 18.2447 14.5014C18.2529 14.6624 18.2774 14.8055 18.2635 14.9444C18.2431 15.1512 18.3526 15.215 18.5218 15.2869C19.4601 15.6834 20.4197 16.0422 21.3163 16.5196C21.9661 16.8653 22.5774 17.3231 23.1226 17.8217C24.5726 19.1508 25.1292 20.8224 24.6674 22.7384C24.0209 25.4195 22.4189 27.351 19.8573 28.4226C18.7245 28.8967 17.5549 28.8305 16.4188 28.3875C14.9746 27.8243 14.2055 26.657 14.3779 25.0925C14.4785 24.1795 14.789 23.2893 15.0146 22.3918C15.2108 21.6112 15.483 20.8445 15.6047 20.0532C15.6947 19.4729 15.5949 18.8631 15.5802 18.2713C15.3031 18.2713 15.1086 18.2492 14.9239 18.2819C14.8479 18.2958 14.7719 18.4192 14.7318 18.5091C14.3199 19.441 13.9644 20.4014 13.4919 21.3014C13.1642 21.9275 12.7285 22.5152 12.2553 23.0433C10.9108 24.5432 9.21563 25.1366 7.24749 24.6609C4.58951 24.0193 2.67367 22.4245 1.59152 19.8979C1.11256 18.7797 1.16324 17.6214 1.58253 16.4877C2.17837 14.8782 3.60707 14.0494 5.31694 14.4066C6.42198 14.6379 7.50086 14.9959 8.58383 15.3221C9.61694 15.6343 10.6525 15.7806 11.7347 15.4962ZM8.39666 23.5059C9.65127 23.4945 10.6002 22.9558 11.3783 22.0755C12.3992 20.9205 12.9885 19.535 13.4772 18.0988C13.5001 18.031 13.438 17.9018 13.3759 17.8421C13.0318 17.5135 12.6787 17.1939 12.3215 16.8801C12.2561 16.8228 12.1441 16.7599 12.0722 16.7771C10.5888 17.1392 9.16577 16.907 7.74443 16.4264C6.84944 16.124 5.92831 15.8812 5.00227 15.6932C3.97896 15.4856 3.20167 15.958 2.81916 16.934C2.51429 17.7114 2.48324 18.5075 2.75786 19.3004C3.18124 20.52 3.99612 21.4469 5.00962 22.2095C6.02639 22.9746 7.15186 23.4667 8.39666 23.5059ZM18.0396 16.4934C17.6105 16.9275 17.2296 17.3035 16.8618 17.6917C16.8046 17.7514 16.7662 17.8748 16.7842 17.9525C17.1127 19.338 16.9444 20.6785 16.5022 22.0174C16.1867 22.9738 15.9104 23.949 15.7053 24.9339C15.4691 26.066 16.0012 26.8802 17.1054 27.2439C18.0919 27.5692 19.0449 27.463 19.9448 26.9676C21.5623 26.0775 22.6739 24.7435 23.2558 22.9967C23.8468 21.2221 23.3931 19.7263 21.9628 18.5222C20.7867 17.5315 19.3955 16.9593 18.0396 16.4934ZM16.4916 11.974C16.9092 12.3713 17.2836 12.699 17.6203 13.0611C17.7486 13.1993 17.8377 13.2516 18.0241 13.2091C19.2787 12.9246 20.5088 13.0113 21.7339 13.4126C22.7213 13.7363 23.7201 14.0363 24.7319 14.2668C26.1075 14.5815 27.0009 13.9717 27.3311 12.592C27.546 11.6936 27.4038 10.8443 26.9649 10.0474C26.0912 8.45753 24.7826 7.36139 23.076 6.76959C21.2681 6.14264 19.7821 6.56933 18.5365 8.02594C17.5296 9.203 16.9583 10.6065 16.4916 11.974ZM11.9594 13.5042C12.3967 13.0636 12.7792 12.6892 13.1454 12.2993C13.2042 12.2372 13.2271 12.1007 13.2067 12.0116C12.9018 10.6686 13.0391 9.36485 13.4748 8.06599C13.7854 7.13988 14.0608 6.19741 14.2741 5.24432C14.5765 3.89397 13.9496 2.96785 12.6019 2.66786C11.8213 2.49457 11.0538 2.54689 10.3305 2.9C8.50864 3.78934 7.30306 5.22552 6.70396 7.14968C6.20375 8.75506 6.5928 10.1545 7.83515 11.2956C9.04236 12.404 10.5193 13.0105 11.9594 13.5042ZM16.9566 15.0017C16.9574 13.9137 16.0763 13.0301 14.9958 13.0342C13.9194 13.0383 13.026 13.939 13.0359 15.0115C13.0457 16.0839 13.9161 16.9487 14.9909 16.9536C16.0837 16.9593 16.9558 16.0937 16.9566 15.0017Z" fill="#1B3D13"/>
</svg>
