<svg width="30" height="30" viewBox="0 0 30 30" fill="none" xmlns="http://www.w3.org/2000/svg">
<path d="M9.50167 13.579C9.61677 13.579 9.71909 13.5767 9.8214 13.579C10.4533 13.5933 10.9032 14.0282 10.9258 14.6602C10.9378 14.9988 10.9348 15.3374 10.9273 15.676C10.913 16.3502 10.4579 16.7934 9.77777 16.8024C9.68598 16.8039 9.5942 16.8024 9.47233 16.8024C9.47233 16.9288 9.47233 17.0296 9.47233 17.1305C9.47233 19.2102 9.47233 21.2892 9.47233 23.3689C9.47233 23.8542 9.34068 23.9852 8.85243 23.9867C8.39126 23.9882 7.93085 23.9807 7.46969 23.9935C7.38994 23.9957 7.25829 24.0627 7.24099 24.1244C7.083 24.7075 6.9679 25.3019 7.07623 25.9069C7.11686 26.1326 7.21616 26.3531 7.31772 26.5615C7.68259 27.3109 7.651 28.0325 7.18607 28.7263C6.99799 29.0062 6.74371 29.0724 6.51426 28.9204C6.28254 28.7669 6.24869 28.5118 6.43602 28.2312C6.68503 27.8572 6.76478 27.4471 6.54209 27.0581C6.06664 26.2274 6.07265 25.3554 6.23064 24.4577C6.25622 24.3125 6.28405 24.1673 6.31715 23.9874C5.96281 23.9874 5.63556 23.9897 5.30906 23.9867C4.90206 23.9837 4.77342 23.8648 4.72301 23.4652C4.26937 19.855 3.81423 16.2456 3.36284 12.6354C3.33576 12.4217 3.25752 12.2622 3.09201 12.1102C0.0609607 9.31491 0.370159 4.28036 3.71718 1.97339C5.06606 1.04337 6.54961 0.826673 8.15504 1.12539C11.4058 1.7296 14.6648 2.28791 17.9207 2.86502C18.7716 3.01626 19.6217 3.17277 20.4741 3.31348C20.611 3.33605 20.7727 3.31348 20.9014 3.26005C21.6815 2.93575 22.4557 2.59641 23.2313 2.26157C23.7797 2.02531 24.0445 2.19159 24.0445 2.77849C24.0453 5.78975 24.0453 8.80025 24.0445 11.8115C24.0445 12.4059 23.7865 12.573 23.2373 12.3359C22.4699 12.0049 21.7071 11.664 20.9345 11.345C20.7795 11.281 20.5847 11.2539 20.4214 11.2825C17.0812 11.8687 13.7432 12.4661 10.4052 13.0613C10.1833 13.1012 9.96208 13.1644 9.7394 13.1742C9.46331 13.1854 9.43547 13.3254 9.50167 13.579ZM20.286 7.3044C20.286 6.44813 20.286 5.59186 20.286 4.73633C20.286 4.19533 20.2852 4.2006 19.7458 4.10504C15.8429 3.4143 11.9376 2.73561 8.03918 2.02079C6.79562 1.7928 5.62729 1.88309 4.52741 2.52793C2.06586 3.97186 1.15331 7.34955 2.56013 9.95373C3.5622 11.807 5.10669 12.8107 7.26807 12.6753C7.81725 12.6407 8.36042 12.4977 8.90584 12.4014C12.6147 11.7445 16.3228 11.0846 20.0325 10.4353C20.2371 10.3992 20.292 10.3262 20.2905 10.1283C20.2807 9.18549 20.286 8.24495 20.286 7.3044ZM4.31225 12.9778C4.74107 16.3833 5.16086 19.7189 5.58215 23.068C6.58121 23.068 7.56222 23.068 8.55677 23.068C8.55677 19.8385 8.55677 16.6256 8.55677 13.3675C7.10858 13.7445 5.71079 13.6806 4.31225 12.9778ZM23.1275 3.29241C22.5444 3.54447 21.9983 3.78977 21.4446 4.01475C21.2617 4.08924 21.2001 4.18405 21.2008 4.38344C21.2091 6.24422 21.2174 8.10424 21.1963 9.96502C21.1918 10.3457 21.2813 10.5504 21.659 10.6776C22.1517 10.8431 22.6204 11.0809 23.1275 11.2998C23.1275 8.6174 23.1275 5.98086 23.1275 3.29241ZM9.49189 15.8769C9.99368 15.9356 10.0268 15.907 10.0268 15.4247C10.0268 15.2554 10.0268 15.0869 10.0268 14.9176C10.026 14.4766 9.97036 14.4337 9.49189 14.5173C9.49189 14.962 9.49189 15.4089 9.49189 15.8769Z" fill="#1B3D13"/>
<path d="M26.2286 5.13075C25.5282 5.0856 25.0302 4.88997 24.6141 4.50472C24.4118 4.31811 24.3945 4.0653 24.5524 3.87342C24.7134 3.67854 24.9504 3.65672 25.1829 3.81248C25.3228 3.90653 25.4582 4.01037 25.6057 4.09088C25.9119 4.25717 26.1962 4.24739 26.4964 4.02767C27.1223 3.57095 28.2019 3.60857 28.8067 4.0811C29.0016 4.23384 29.058 4.43474 28.9354 4.65596C28.8143 4.87567 28.6179 4.94038 28.3824 4.86062C28.2493 4.81548 28.1252 4.74475 27.9927 4.69885C27.597 4.56115 27.2359 4.58598 26.8748 4.84708C26.6574 5.00659 26.3723 5.0713 26.2286 5.13075Z" fill="#1B3D13"/>
<path d="M24.86 6.31055C25.0113 6.38955 25.1181 6.44222 25.2211 6.50016C25.4077 6.6055 25.586 6.72815 25.7801 6.81769C25.9998 6.91927 26.2172 6.88541 26.4158 6.73793C27.1832 6.16834 27.9663 6.30829 28.7457 6.70332C28.9895 6.82672 29.0564 7.07879 28.9436 7.30151C28.8285 7.52874 28.6058 7.60022 28.3447 7.50316C28.1439 7.42792 27.9422 7.35042 27.7354 7.29474C27.457 7.22024 27.2005 7.2842 26.9635 7.45199C26.2495 7.95613 25.0797 7.7921 24.5591 7.09609C24.4756 6.98398 24.4523 6.76427 24.5019 6.63259C24.5523 6.50167 24.7306 6.41965 24.86 6.31055Z" fill="#1B3D13"/>
<path d="M24.8767 8.97266C25.0264 9.05542 25.1317 9.11186 25.2348 9.17205C25.4041 9.27062 25.5651 9.38649 25.7426 9.46701C25.9796 9.57536 26.2158 9.55655 26.4302 9.38875C27.1682 8.81088 28.0936 9.002 28.7609 9.37145C28.988 9.4971 29.0512 9.73638 28.9482 9.95157C28.8398 10.1781 28.6089 10.2593 28.3539 10.1683C28.1342 10.09 27.9145 9.96662 27.6911 9.95835C27.4541 9.94932 27.1742 9.99296 26.9809 10.1186C26.2436 10.5957 25.1016 10.4595 24.5675 9.76422C24.4795 9.6491 24.4599 9.41734 24.5118 9.2789C24.5592 9.15023 24.7465 9.07499 24.8767 8.97266Z" fill="#1B3D13"/>
<path d="M8.96063 7.29598C8.95612 8.72335 7.79606 9.86856 6.36592 9.85727C4.97716 9.84674 3.82989 8.67745 3.83892 7.28243C3.84795 5.88591 5.00199 4.73468 6.39451 4.73243C7.80358 4.73017 8.96515 5.89043 8.96063 7.29598ZM6.39827 8.95435C7.3048 8.95585 8.0526 8.21696 8.05786 7.31479C8.06313 6.39531 7.3206 5.64137 6.40429 5.6361C5.50754 5.63084 4.75373 6.3765 4.74169 7.27942C4.7289 8.19213 5.48271 8.95284 6.39827 8.95435Z" fill="#1B3D13"/>
</svg>
