<svg width="30" height="30" viewBox="0 0 30 30" fill="none" xmlns="http://www.w3.org/2000/svg">
<path d="M7.0239 19.8991C7.08766 22.31 7.15928 24.7209 7.21202 27.1318C7.23484 28.1683 6.47133 28.97 5.47956 28.996C4.44135 29.0236 3.61093 28.1887 3.63612 27.1184C3.68886 24.9044 3.75419 22.6904 3.81401 20.4756C3.88564 17.8387 3.95806 15.201 4.02181 12.5641C4.02417 12.4601 3.96986 12.2979 3.89194 12.2569C2.5617 11.5575 1.77536 10.421 1.35976 9.02534C0.70173 6.81293 0.914252 4.69583 2.26417 2.77563C3.02531 1.69266 4.06117 1.00902 5.43312 1.00587C6.70905 1.0035 7.68586 1.62966 8.45646 2.59684C9.42698 3.81607 9.82999 5.23692 9.83156 6.77513C9.83314 8.38658 9.42856 9.88305 8.3565 11.1204C7.99048 11.5425 7.50325 11.8678 7.04121 12.1931C6.86962 12.3136 6.81059 12.4089 6.8161 12.6074C6.89166 15.038 6.95699 17.4685 7.0239 19.8991ZM4.66804 19.6384C4.59956 22.1076 4.53265 24.576 4.4626 27.0451C4.4445 27.6965 4.82468 28.1572 5.40242 28.1714C5.9967 28.1856 6.40364 27.7398 6.38633 27.0656C6.31942 24.4492 6.24622 21.8327 6.17459 19.2163C6.11083 16.8652 6.04708 14.5142 5.97939 12.164C5.97151 11.8954 6.06203 11.715 6.32572 11.6174C7.10497 11.3291 7.67878 10.7896 8.11091 10.0965C8.91614 8.80559 9.13496 7.38868 8.94763 5.90167C8.79414 4.68087 8.35335 3.57742 7.45445 2.70396C6.24228 1.52648 4.59562 1.5249 3.3992 2.71656C3.06939 3.04499 2.76556 3.43093 2.55934 3.84442C1.56756 5.83236 1.5778 7.84077 2.58374 9.8224C2.98045 10.6037 3.57472 11.2141 4.39805 11.5654C4.85144 11.7591 4.87269 11.7804 4.8601 12.2608C4.79713 14.7206 4.73258 17.1795 4.66804 19.6384Z" fill="#1B3D13"/>
<path d="M23.8196 19.6877C23.7535 22.1679 23.6842 24.6473 23.6252 27.1275C23.6071 27.8875 24.2903 28.3766 24.9554 28.1009C25.3324 27.9442 25.5646 27.5851 25.5528 27.1345C25.4946 24.8906 25.43 22.6475 25.3694 20.4036C25.2954 17.6674 25.2262 14.9321 25.1475 12.1959C25.1388 11.8879 25.264 11.7273 25.5513 11.6375C27.1971 11.1263 28.1676 9.81258 28.1708 8.09401C28.1739 5.93831 28.1716 3.78183 28.1724 1.62613C28.1724 1.52768 28.1621 1.42529 28.185 1.33235C28.2338 1.12994 28.3692 1.00471 28.5832 1.00392C28.7973 1.00235 28.9319 1.12758 28.9855 1.32842C29.0075 1.4119 28.9981 1.50405 28.9981 1.59305C28.9988 3.75899 29.0012 5.92492 28.9981 8.09086C28.9949 10.0284 27.9724 11.5595 26.1802 12.2991C26.0015 12.3723 25.9802 12.4708 25.985 12.6314C26.0566 15.1998 26.1227 17.7683 26.1928 20.3367C26.2542 22.6003 26.3234 24.8631 26.3777 27.1267C26.4029 28.1758 25.6032 28.9972 24.5878 28.9972C23.5669 28.998 22.7766 28.1915 22.8018 27.1298C22.8813 23.7935 22.9758 20.458 23.0655 17.1216C23.1057 15.6157 23.1458 14.1106 23.1946 12.6047C23.2001 12.4385 23.1474 12.3629 22.9978 12.2991C21.1457 11.5122 20.202 10.0969 20.1784 8.09558C20.1532 5.9202 20.1728 3.74402 20.1728 1.56864C20.1728 1.50012 20.1736 1.43002 20.1839 1.36228C20.2193 1.13545 20.3578 1.0055 20.5829 1.00392C20.8073 1.00235 20.9521 1.12757 20.9844 1.35677C20.9993 1.4631 20.997 1.57258 20.997 1.68048C20.9977 3.75741 20.997 5.83513 20.9977 7.91207C20.9985 9.83463 21.8533 11.0373 23.6708 11.6548C23.9723 11.7572 24.04 11.9628 24.0313 12.2479C23.9565 14.7281 23.8888 17.2075 23.8196 19.6877Z" fill="#1B3D13"/>
<path d="M16.9613 14.7019C16.9613 18.8361 16.9621 22.9703 16.9605 27.1044C16.9597 28.074 16.415 28.771 15.5208 28.9624C14.5023 29.1798 13.457 28.4276 13.4129 27.3872C13.3846 26.7217 13.4578 26.0514 13.4995 25.3835C13.6152 23.5271 13.7404 21.6715 13.8506 19.8151C13.8553 19.7292 13.7703 19.5993 13.69 19.5528C13.2413 19.289 12.784 19.0385 12.3227 18.7967C12.0921 18.6762 12.0048 18.5014 12.0118 18.2477C12.1622 12.6911 12.9603 7.24244 14.7195 1.95441C14.7809 1.77011 14.8557 1.58029 14.9706 1.42671C15.2587 1.03999 15.753 0.90846 16.2143 1.06362C16.6519 1.2109 16.9526 1.61495 16.9581 2.09382C16.966 2.82236 16.9613 3.5509 16.9613 4.27865C16.9613 7.75202 16.9613 11.227 16.9613 14.7019ZM16.1356 14.7248C16.1356 10.6111 16.1364 6.49814 16.134 2.38444C16.134 2.16864 16.208 1.88746 15.8853 1.83942C15.5665 1.79216 15.5484 2.082 15.4807 2.28678C13.8025 7.36767 13.0099 12.5982 12.8635 17.9359C12.8611 18.0335 12.9422 18.1776 13.0264 18.2273C13.4743 18.4927 13.9324 18.74 14.3929 18.9834C14.6314 19.1094 14.7266 19.2882 14.7085 19.5575C14.596 21.2068 14.4897 22.8561 14.3834 24.5053C14.3268 25.389 14.2662 26.2727 14.2237 27.1564C14.1985 27.6723 14.544 28.0827 15.0312 28.1614C15.498 28.237 15.9703 27.9401 16.0962 27.4731C16.1364 27.3242 16.1348 27.1619 16.1348 27.006C16.1356 22.912 16.1356 18.8188 16.1356 14.7248Z" fill="#1B3D13"/>
<path d="M24.9916 4.69196C24.9916 5.73554 24.9924 6.77834 24.9908 7.82193C24.99 8.1669 24.8421 8.36066 24.5862 8.36223C24.3281 8.36459 24.1667 8.16769 24.1667 7.8298C24.1651 5.73318 24.1651 3.63655 24.1667 1.53993C24.1667 1.19889 24.321 1.00435 24.5792 1.00199C24.8405 0.998841 24.9908 1.18787 24.9916 1.53206C24.9932 2.58588 24.9916 3.63892 24.9916 4.69196Z" fill="#1B3D13"/>
<path d="M26.9941 4.69117C26.9941 5.73475 26.9948 6.77834 26.9933 7.82114C26.9925 8.16532 26.8445 8.35908 26.5879 8.36144C26.3282 8.3638 26.1691 8.16926 26.1691 7.83059C26.1676 5.73396 26.1676 3.63734 26.1691 1.54072C26.1691 1.20047 26.3219 1.00514 26.5792 1.00199C26.839 0.998841 26.9933 1.19181 26.9941 1.53127C26.9948 2.5843 26.9941 3.63734 26.9941 4.69117Z" fill="#1B3D13"/>
<path d="M22.9923 4.6909C22.9923 5.73449 22.9978 6.77729 22.986 7.82009C22.9844 7.96501 22.9388 8.14222 22.8475 8.24619C22.6562 8.46357 22.3004 8.36827 22.2068 8.08945C22.1706 7.98076 22.1682 7.85711 22.1682 7.74054C22.1658 5.70299 22.1666 3.66622 22.1666 1.62867C22.1666 1.56014 22.1627 1.49005 22.1698 1.42231C22.195 1.17579 22.3193 1.01591 22.5783 1.00252C22.8152 0.990702 22.986 1.16555 22.9884 1.442C22.9955 2.28869 22.9915 3.13458 22.9923 3.98127C22.9923 4.21834 22.9923 4.45462 22.9923 4.6909Z" fill="#1B3D13"/>
</svg>
