<svg width="30" height="30" viewBox="0 0 30 30" fill="none" xmlns="http://www.w3.org/2000/svg">
<path d="M28.9995 15.0287C28.9995 18.6489 29.001 22.2691 28.9987 25.8892C28.998 27.3792 28.1513 28.5349 26.7938 28.8971C26.568 28.9577 26.3269 28.9926 26.0935 28.9933C18.7018 28.9986 11.3101 29.0062 3.91922 28.9911C2.45104 28.988 1.305 27.965 1.0435 26.5251C1.00485 26.3129 1.00181 26.0916 1.00181 25.8741C0.999541 18.6239 0.99954 11.3744 1.00106 4.12422C1.00106 2.51913 1.95837 1.32705 3.46899 1.0421C3.6077 1.01558 3.75095 1.00421 3.89269 1.00421C11.2935 1.00194 18.695 0.993604 26.0957 1.00952C27.5647 1.01255 28.7259 2.06746 28.9662 3.51644C29.0033 3.73924 28.9995 3.96962 28.9995 4.19697C29.0003 7.8073 28.9995 11.4184 28.9995 15.0287ZM1.65139 15.0029C1.65139 18.6224 1.64987 22.2418 1.65215 25.8612C1.6529 27.361 2.62765 28.3484 4.11629 28.3484C11.3738 28.3507 18.6306 28.3507 25.8881 28.3484C27.3631 28.3477 28.3461 27.3625 28.3469 25.8839C28.3492 18.6262 28.3492 11.3684 28.3469 4.11058C28.3461 2.63432 27.36 1.65292 25.8828 1.65216C18.6252 1.64989 11.3685 1.65065 4.11098 1.65444C3.88511 1.65444 3.65393 1.67338 3.43564 1.72492C2.33735 1.98637 1.65366 2.90562 1.6529 4.11588C1.64987 7.74516 1.65139 11.3737 1.65139 15.0029Z" fill="#1B3D13"/>
<path d="M26.7999 14.9975C26.7999 18.7306 26.7999 22.4637 26.7999 26.1968C26.7999 26.7455 26.7438 26.8023 26.2004 26.8023C18.7344 26.8023 11.2692 26.8023 3.80327 26.8023C3.25677 26.8023 3.20068 26.7462 3.20068 26.2006C3.20068 18.7344 3.20068 11.2682 3.20068 3.80202C3.20068 3.25259 3.25526 3.19727 3.80024 3.19727C11.2662 3.19727 18.7314 3.19727 26.1973 3.19727C26.7446 3.19727 26.8007 3.25335 26.8007 3.79899C26.7999 7.53133 26.7999 11.2644 26.7999 14.9975ZM3.88285 3.86947C3.88285 11.3031 3.88285 18.7147 3.88285 26.1187C11.3117 26.1187 18.717 26.1187 26.1215 26.1187C26.1215 18.692 26.1215 11.2864 26.1215 3.86947C18.7041 3.86947 11.3056 3.86947 3.88285 3.86947Z" fill="#1B3D13"/>
<path d="M14.9886 4.92969C19.3598 4.94939 22.3227 9.45472 20.5536 13.4531C19.7972 15.162 19.2272 16.9171 19.0172 18.7746C18.9225 19.6105 18.9157 20.4562 18.8618 21.2967C18.7656 22.7964 18.0766 23.9423 16.7312 24.6198C15.4078 25.2859 14.0791 25.2041 12.855 24.3575C11.7188 23.5724 11.1518 22.4425 11.142 21.0648C11.1268 18.9822 10.8327 16.952 10.1058 14.9945C9.93454 14.5337 9.73671 14.0821 9.53131 13.6365C7.8653 10.0269 9.89589 5.92927 13.7797 5.08807C14.1754 5.00092 14.5854 4.98046 14.9886 4.92969ZM20.4164 11.0333C20.3952 10.7976 20.3793 10.5619 20.3513 10.327C19.9359 6.87126 16.287 4.7084 13.0407 5.99066C10.099 7.15242 8.81427 10.424 10.1142 13.3545C10.5265 14.2852 10.8858 15.2461 11.1784 16.2207C11.6688 17.8546 11.7794 19.5468 11.8173 21.2466C11.8545 22.9366 13.265 24.3325 14.931 24.3727C16.7365 24.4167 18.1774 22.9957 18.1903 21.1292C18.2092 18.3934 18.7474 15.7751 19.9033 13.2894C20.2353 12.5747 20.399 11.8222 20.4164 11.0333Z" fill="#1B3D13"/>
<path d="M22.5181 23.0557C23.2935 23.0557 24.0689 23.0526 24.845 23.0572C25.1338 23.0587 25.2877 23.2133 25.2392 23.4437C25.1929 23.6635 25.0307 23.7089 24.8321 23.7082C24.009 23.7051 23.1866 23.7067 22.3634 23.7067C21.6638 23.7067 20.9635 23.7067 20.2639 23.7067C19.8993 23.7067 19.7416 23.6043 19.7454 23.3747C19.75 23.1489 19.9031 23.0557 20.2768 23.0557C21.0234 23.0549 21.7707 23.0557 22.5181 23.0557Z" fill="#1B3D13"/>
<path d="M7.72198 23.7084C6.93749 23.7084 6.15224 23.7107 5.36775 23.7069C5.07441 23.7054 4.916 23.5228 4.98876 23.2856C5.05092 23.0817 5.21464 23.0567 5.39503 23.0567C6.34021 23.0582 7.28615 23.0575 8.23133 23.0575C8.83619 23.0575 9.4418 23.0552 10.0467 23.0582C10.3354 23.0597 10.4855 23.1795 10.4673 23.3962C10.4461 23.6516 10.2733 23.7107 10.0474 23.71C9.27202 23.7062 8.49738 23.7084 7.72198 23.7084Z" fill="#1B3D13"/>
<path d="M7.48707 21.9442C6.79656 21.9442 6.10606 21.9411 5.41555 21.9457C5.1821 21.9472 4.99336 21.8964 4.97442 21.6236C4.95926 21.4099 5.11237 21.2894 5.40267 21.2894C6.80263 21.2864 8.20183 21.2864 9.60179 21.2894C9.88299 21.2901 10.0543 21.4228 10.0338 21.6251C10.0065 21.8888 9.82387 21.9487 9.58663 21.9472C8.88703 21.9404 8.18743 21.9442 7.48707 21.9442Z" fill="#1B3D13"/>
<path d="M22.6978 21.9442C22.0073 21.9442 21.3168 21.9404 20.6263 21.9464C20.3883 21.9479 20.192 21.8828 20.1897 21.619C20.1882 21.3538 20.389 21.2871 20.624 21.2871C22.024 21.2886 23.4239 21.2864 24.8231 21.2894C25.1127 21.2901 25.2605 21.4129 25.2438 21.6297C25.2241 21.8858 25.0505 21.9464 24.8262 21.9457C24.116 21.9419 23.4065 21.9442 22.6978 21.9442Z" fill="#1B3D13"/>
<path d="M7.28152 20.179C6.65771 20.179 6.03391 20.1759 5.40934 20.1805C5.17362 20.1828 4.97958 20.1252 4.9773 19.8523C4.97579 19.5757 5.17665 19.5234 5.40859 19.5234C6.65619 19.525 7.90456 19.525 9.15217 19.5234C9.38638 19.5227 9.57285 19.5833 9.59028 19.8531C9.60392 20.0585 9.43641 20.1775 9.15217 20.1782C8.52913 20.1805 7.90532 20.179 7.28152 20.179Z" fill="#1B3D13"/>
<path d="M22.9101 20.1782C22.2954 20.1782 21.6814 20.1797 21.0667 20.1774C20.7794 20.1767 20.6203 20.0623 20.6309 19.8523C20.6445 19.578 20.8348 19.5234 21.0667 19.5234C22.3143 19.525 23.5627 19.525 24.8103 19.5234C25.0407 19.5234 25.2332 19.5727 25.2438 19.8516C25.2522 20.066 25.1013 20.1767 24.8103 20.1774C24.1774 20.1797 23.5437 20.1782 22.9101 20.1782Z" fill="#1B3D13"/>
<path d="M7.06468 18.4157C6.50682 18.4157 5.94971 18.4127 5.39185 18.4172C5.16522 18.4187 4.99543 18.352 4.97497 18.0997C4.95754 17.886 5.1114 17.7579 5.3964 17.7564C6.50227 17.7526 7.60814 17.7541 8.71401 17.7549C8.94367 17.7549 9.14605 17.814 9.14301 18.0898C9.13998 18.3626 8.94367 18.4187 8.70946 18.4172C8.16145 18.4127 7.61269 18.4157 7.06468 18.4157Z" fill="#1B3D13"/>
<path d="M23.1442 18.4171C22.5962 18.4171 22.0482 18.4186 21.5002 18.4163C21.2129 18.4148 21.0651 18.2981 21.0757 18.0806C21.0886 17.8199 21.269 17.757 21.4881 17.757C22.603 17.7555 23.718 17.7555 24.8337 17.757C25.0535 17.757 25.2324 17.8229 25.2438 18.0829C25.2536 18.2988 25.1043 18.4148 24.817 18.4163C24.2592 18.4186 23.7021 18.4171 23.1442 18.4171Z" fill="#1B3D13"/>
<path d="M23.4011 16.6519C22.9099 16.6519 22.4188 16.6481 21.9276 16.6534C21.6972 16.6557 21.5221 16.5791 21.516 16.3313C21.51 16.0828 21.6843 15.9926 21.9132 15.9926C22.8955 15.9926 23.8786 15.9911 24.8609 15.9941C25.0739 15.9948 25.2414 16.0752 25.2422 16.3169C25.2422 16.5693 25.0785 16.6534 24.8465 16.6526C24.3644 16.6496 23.8824 16.6519 23.4011 16.6519Z" fill="#1B3D13"/>
<path d="M6.83953 15.9915C7.32084 15.9915 7.8029 15.9878 8.28421 15.9931C8.56769 15.9961 8.72156 16.1226 8.70261 16.3371C8.68063 16.5895 8.51008 16.6531 8.28345 16.6516C7.32008 16.6478 6.35671 16.6478 5.39333 16.6516C5.1667 16.6524 4.99692 16.588 4.97494 16.3364C4.95599 16.1227 5.11137 15.9953 5.39409 15.9923C5.87616 15.9885 6.35747 15.9915 6.83953 15.9915Z" fill="#1B3D13"/>
<path d="M23.596 14.8878C23.1806 14.8878 22.7645 14.8847 22.3491 14.8885C22.1286 14.8908 21.9656 14.8014 21.9542 14.5763C21.9421 14.33 22.1157 14.2262 22.3423 14.2254C23.1829 14.2216 24.0242 14.2216 24.8648 14.2262C25.0755 14.2277 25.2445 14.3133 25.2423 14.5551C25.24 14.8082 25.0732 14.89 24.8436 14.8885C24.4274 14.8855 24.0121 14.8878 23.596 14.8878Z" fill="#1B3D13"/>
<path d="M6.59938 14.8879C6.19311 14.8879 5.78684 14.8857 5.38057 14.8887C5.15091 14.8902 4.98036 14.8107 4.97733 14.5598C4.9743 14.3037 5.15621 14.2256 5.3783 14.2248C6.19993 14.2226 7.02232 14.2211 7.84395 14.2256C8.1191 14.2271 8.29267 14.3703 8.26917 14.5727C8.24037 14.8144 8.07665 14.894 7.84699 14.891C7.43087 14.8834 7.01474 14.8879 6.59938 14.8879Z" fill="#1B3D13"/>
<path d="M23.784 13.1226C23.4536 13.1226 23.1231 13.1211 22.7926 13.1233C22.5599 13.1248 22.3955 13.0331 22.3977 12.7853C22.3992 12.5504 22.5683 12.4625 22.7813 12.4617C23.4801 12.4587 24.1789 12.4572 24.8778 12.4625C25.0923 12.464 25.2515 12.5625 25.2431 12.8012C25.2348 13.0362 25.0809 13.1233 24.8611 13.1226C24.5018 13.1218 24.1426 13.1226 23.784 13.1226Z" fill="#1B3D13"/>
<path d="M6.38716 13.123C6.04759 13.123 5.70727 13.1207 5.3677 13.1237C5.14865 13.126 4.98796 13.0426 4.97735 12.81C4.96598 12.5568 5.13576 12.4629 5.36315 12.4614C6.05214 12.4583 6.74189 12.4583 7.43088 12.4606C7.65827 12.4614 7.83336 12.5591 7.82351 12.8054C7.81365 13.0494 7.63553 13.1283 7.40663 13.1237C7.06706 13.1184 6.72673 13.123 6.38716 13.123Z" fill="#1B3D13"/>
<path d="M15.0075 13.1233C13.8539 13.1263 12.9072 12.1881 12.9026 11.0377C12.8973 9.8911 13.8425 8.93926 14.9916 8.93168C16.1353 8.92486 17.0919 9.87367 17.0964 11.021C17.101 12.1714 16.1581 13.1202 15.0075 13.1233ZM16.4271 11.0225C16.4249 10.2329 15.7897 9.59857 15.0007 9.59781C14.2116 9.59706 13.5742 10.2314 13.5719 11.0203C13.5689 11.8274 14.2071 12.4632 15.012 12.4564C15.8041 12.4503 16.4294 11.8168 16.4271 11.0225Z" fill="#1B3D13"/>
</svg>
