<svg width="30" height="30" viewBox="0 0 30 30" fill="none" xmlns="http://www.w3.org/2000/svg">
<path d="M27 5.29099C27 10.7442 27 16.198 27 21.6512C26.9837 21.6949 26.9629 21.738 26.9518 21.7831C26.7025 22.8594 26.0534 23.5614 24.9831 23.8246C24.6341 23.9102 24.2572 23.8899 23.8926 23.9017C23.5462 23.9134 23.1986 23.9043 22.8366 23.9043C22.8366 24.4013 22.8379 24.8656 22.8359 25.3299C22.834 25.806 22.6432 25.9967 22.168 25.9974C21.2402 25.9993 20.3125 25.998 19.3854 25.998C18.8301 25.998 18.6628 25.8276 18.6621 25.2627C18.6615 24.8166 18.6621 24.3706 18.6621 23.9226C15.8704 23.9226 13.1094 23.9226 10.3366 23.9226C10.3366 24.43 10.3418 24.9198 10.3346 25.409C10.3294 25.7655 10.1432 25.9876 9.80925 25.9915C8.76758 26.0033 7.72656 26.0026 6.6849 25.9908C6.37891 25.9876 6.19336 25.7825 6.16732 25.4769C6.15625 25.3469 6.16276 25.2156 6.16276 25.085C6.16211 24.6971 6.16276 24.3085 6.16276 23.9023C5.60091 23.9023 5.07292 23.9108 4.54557 23.9004C3.43229 23.8781 2.45182 23.133 2.11914 22.0672C2.07617 21.9294 2.03971 21.7896 2 21.6505C2 16.1973 2 10.7435 2 5.29033C2.04232 5.1336 2.07748 4.9749 2.12761 4.82143C2.49349 3.69291 3.48047 3.00196 4.73828 3.00131C9.14779 2.99935 13.5566 3.00065 17.9661 3.00065C20.0651 3.00065 22.1641 3.00196 24.263 3C25.1947 2.99935 25.9805 3.32589 26.5026 4.11088C26.7344 4.46093 26.8379 4.89523 27 5.29099ZM14.5156 4.05406C11.2773 4.05406 8.03841 4.05341 4.80013 4.05602C4.61393 4.05602 4.42253 4.05733 4.24349 4.09978C3.48763 4.27807 3.03776 4.8998 3.03776 5.75075C3.03711 10.8689 3.03711 15.987 3.03711 21.1052C3.03711 22.2259 3.67513 22.8639 4.79427 22.8646C6.64062 22.8652 8.48698 22.8659 10.3333 22.8646C13.2871 22.8613 16.2402 22.8541 19.194 22.8528C20.8939 22.8522 22.5944 22.8639 24.2943 22.8633C25.2982 22.8626 25.9603 22.1958 25.9609 21.1868C25.9629 16.036 25.9629 10.8852 25.959 5.73443C25.959 5.55679 25.9408 5.37328 25.8952 5.20217C25.7025 4.47987 25.0996 4.05537 24.2793 4.05537C21.0254 4.05341 17.7708 4.05406 14.5156 4.05406ZM9.26693 24.9335C9.26693 24.5743 9.26693 24.2452 9.26693 23.9193C8.57487 23.9193 7.90365 23.9193 7.22786 23.9193C7.22786 24.2641 7.22786 24.5933 7.22786 24.9335C7.91536 24.9335 8.58594 24.9335 9.26693 24.9335ZM19.7292 23.918C19.7292 24.2654 19.7292 24.5952 19.7292 24.9244C20.4232 24.9244 21.0996 24.9244 21.776 24.9244C21.776 24.5789 21.776 24.255 21.776 23.918C21.0924 23.918 20.4212 23.918 19.7292 23.918Z" fill="#1B3D13"/>
<path d="M18.2832 16.7698C16.332 19.3305 12.5391 19.2855 10.7077 16.7777C10.0215 17.1747 9.33268 17.5731 8.64387 17.9715C8.57356 18.012 8.5039 18.0551 8.43099 18.0903C8.16145 18.2196 7.87109 18.1354 7.73372 17.8911C7.59374 17.6417 7.66145 17.3491 7.92122 17.1904C8.32356 16.9442 8.73502 16.7137 9.14257 16.4766C9.48697 16.2768 9.83203 16.0776 10.196 15.866C9.62369 14.4188 9.6608 12.9964 10.442 11.638C11.22 10.2854 12.4167 9.5331 13.9753 9.29407C13.9753 9.20721 13.9753 9.1197 13.9753 9.03219C13.9753 8.25699 13.9707 7.48179 13.9785 6.70659C13.9818 6.37875 14.1855 6.15997 14.472 6.14168C14.7454 6.12405 14.9785 6.32911 15.0176 6.62626C15.0267 6.69875 15.0247 6.77255 15.0247 6.84635C15.0254 7.56473 15.0247 8.28246 15.0247 9.00084C15.0247 9.09031 15.0247 9.17913 15.0247 9.29211C16.5638 9.52526 17.7715 10.275 18.5534 11.6327C19.3327 12.9853 19.3789 14.3998 18.8021 15.864C19.2005 16.0952 19.5996 16.327 19.9993 16.5589C20.3437 16.7587 20.6914 16.9546 21.0332 17.1597C21.3314 17.3386 21.4167 17.641 21.2552 17.9081C21.1022 18.1609 20.8001 18.2281 20.5085 18.061C19.7676 17.6345 19.0306 17.2035 18.2832 16.7698ZM14.4974 10.3318C12.4766 10.3312 10.8437 11.9671 10.8509 13.9845C10.8581 15.99 12.4928 17.6299 14.4896 17.6338C16.5 17.6378 18.1445 15.9953 18.1484 13.9805C18.153 11.9612 16.5228 10.3325 14.4974 10.3318Z" fill="#1B3D13"/>
<path d="M22.3058 10.325C21.6554 10.325 21.0044 10.327 20.354 10.3244C19.8996 10.3224 19.714 10.1389 19.7134 9.687C19.7114 8.71587 19.7114 7.7454 19.7134 6.77428C19.714 6.32301 19.8996 6.13884 20.3547 6.13819C21.6639 6.13623 22.9738 6.13623 24.283 6.13819C24.7225 6.13884 24.9107 6.32627 24.912 6.76253C24.9146 7.74149 24.9146 8.72045 24.912 9.70006C24.9107 10.1357 24.7225 10.3224 24.283 10.3244C23.6235 10.327 22.9647 10.325 22.3058 10.325ZM23.8612 7.20597C22.8215 7.20597 21.7961 7.20597 20.7674 7.20597C20.7674 7.90084 20.7674 8.58003 20.7674 9.25139C21.811 9.25139 22.8371 9.25139 23.8612 9.25139C23.8612 8.55783 23.8612 7.88516 23.8612 7.20597Z" fill="#1B3D13"/>
</svg>
