<svg width="30" height="30" viewBox="0 0 30 30" fill="none" xmlns="http://www.w3.org/2000/svg">
<path d="M0 28.3756C0 26.8239 0 25.2715 0 23.7199C0.0294531 23.6314 0.058905 23.5436 0.0883581 23.455C0.323983 22.7488 0.926641 22.2659 1.66675 22.2394C1.92956 22.2296 1.96656 22.1305 1.96656 21.9004C1.96052 17.2266 1.96203 12.5528 1.96203 7.87896C1.96203 7.77754 1.96203 7.67611 1.96203 7.5868C1.41828 7.41877 1.22948 7.21214 1.22797 6.74741C1.22193 5.09209 1.21437 3.43601 1.23099 1.78069C1.24081 0.8096 1.91898 0.0572507 2.87961 0.0254613C4.2843 -0.020709 5.692 0.0103234 7.0982 0.0088096C7.12615 0.0088096 7.15484 0.0133505 7.18203 0.0201625C7.40331 0.072388 7.53396 0.211657 7.52792 0.439481C7.52187 0.678658 7.38443 0.822466 7.14201 0.849714C7.04836 0.860311 6.9532 0.858041 6.85956 0.858041C5.6044 0.858798 4.34925 0.856526 3.09334 0.859554C2.58281 0.860311 2.17047 1.11538 2.11534 1.5453C2.06096 1.96916 2.10325 2.40513 2.10325 2.84261C10.3766 2.84261 18.6385 2.84261 26.9254 2.84261C26.9254 2.5565 26.9254 2.29311 26.9254 2.02971C26.9247 1.1835 26.6045 0.858799 25.7685 0.858799C20.3415 0.858799 14.9146 0.858799 9.48693 0.858799C9.37365 0.858799 9.25961 0.862583 9.14708 0.8535C8.89711 0.833064 8.73021 0.668061 8.72568 0.444022C8.72039 0.216955 8.87974 0.0443833 9.12971 0.0133508C9.20448 0.00426807 9.28076 0.00805197 9.35628 0.00805197C14.8587 0.00805197 20.3612 0.00729582 25.8644 0.0088096C27.038 0.0088096 27.7698 0.742994 27.7743 1.92299C27.7781 2.94479 27.7751 3.96659 27.7751 4.98839C27.7751 5.57498 27.7751 6.16157 27.7743 6.74817C27.7743 7.10466 27.6323 7.39682 27.2857 7.49597C27.0501 7.56334 27.0342 7.68292 27.0349 7.87972C27.0402 9.34581 27.038 10.8127 27.038 12.2788C27.038 15.4766 27.041 18.6745 27.0327 21.8724C27.0319 22.1252 27.0697 22.2455 27.3604 22.2425C27.7939 22.2387 28.1934 22.412 28.4585 22.7466C28.6866 23.0334 28.8225 23.3937 29 23.7214C29 25.2731 29 26.8254 29 28.3771C28.7923 28.7987 28.4495 28.9319 27.9895 28.9319C18.9965 28.9243 10.0042 28.9243 1.01123 28.9319C0.549793 28.9304 0.208438 28.7964 0 28.3756ZM12.356 17.0835C13.0628 16.9897 13.6897 17.1433 14.2017 17.6292C14.7205 18.1212 14.9531 18.7335 14.8693 19.448C14.7953 20.0823 14.4902 20.594 13.9638 20.9558C13.2464 21.4485 12.4851 21.4477 11.6906 21.0844C11.6264 21.4742 11.5668 21.8338 11.5056 22.2077C16.4077 22.2077 21.2825 22.2077 26.1702 22.2077C26.1702 17.3234 26.1702 12.4566 26.1702 7.58226C25.5359 7.58226 24.9204 7.58226 24.2845 7.58226C24.2845 8.17339 24.289 8.7403 24.283 9.30645C24.2777 9.77648 24.076 10.002 23.6199 10.0717C23.567 10.08 23.5149 10.0914 23.4704 10.0997C23.2717 11.3175 22.657 12.1713 21.6616 12.5823C21.4207 12.6822 21.2365 12.7511 21.2652 13.0796C21.2855 13.3195 21.0597 13.4936 20.8385 13.4739C20.6021 13.4535 20.4586 13.3225 20.4374 13.0765C20.4307 13.0031 20.4231 12.9297 20.4148 12.8434C20.0961 12.8434 19.791 12.8434 19.4874 12.8434C19.4753 12.8865 19.4594 12.9146 19.4617 12.9403C19.4957 13.2824 19.2654 13.4822 19.0124 13.4747C18.7586 13.4671 18.6151 13.2847 18.6136 12.9289C18.6129 12.7617 18.5441 12.7034 18.4022 12.6527C17.659 12.387 17.0904 11.9041 16.7475 11.1919C16.5821 10.8482 16.4938 10.4668 16.3654 10.0876C15.7521 9.99296 15.6079 9.82265 15.6071 9.15735C15.6071 8.89244 15.6071 8.62752 15.6071 8.36261C15.6071 8.10148 15.6071 7.84036 15.6071 7.57318C14.895 7.57318 14.2289 7.57318 13.5348 7.57318C13.5348 8.17339 13.5379 8.75771 13.5333 9.34203C13.5303 9.68793 13.3664 9.93997 13.087 10.0278C12.9722 10.0641 12.8491 10.0747 12.7237 10.0982C12.7124 10.1504 12.6996 10.195 12.6928 10.2405C12.5146 11.369 11.8976 12.1622 10.8523 12.605C10.6288 12.6996 10.4997 12.7791 10.5223 13.0553C10.542 13.2983 10.3388 13.4716 10.1153 13.4762C9.89172 13.4815 9.715 13.3157 9.6863 13.0712C9.678 12.9986 9.67422 12.9244 9.66818 12.8411C9.34873 12.8411 9.04211 12.8411 8.73625 12.8411C8.72719 12.8843 8.71888 12.9123 8.71661 12.9395C8.68565 13.3028 8.53008 13.4875 8.26651 13.4747C8.00823 13.4625 7.86323 13.2862 7.87154 12.9297C7.87607 12.7367 7.77336 12.6996 7.63365 12.6459C6.63904 12.2598 6.00919 11.5446 5.74411 10.5092C5.70937 10.3737 5.692 10.2336 5.66784 10.1035C4.98815 9.971 4.86354 9.82114 4.86354 9.1581C4.86354 8.9598 4.86354 8.76074 4.86354 8.56243C4.86354 8.23621 4.86354 7.90923 4.86354 7.58226C4.15818 7.58226 3.49586 7.58226 2.82599 7.58226C2.82599 12.468 2.82599 17.3272 2.82599 22.2054C4.17555 22.2054 5.51076 22.2054 6.87919 22.2054C6.84143 21.9549 6.80971 21.7232 6.77195 21.4932C6.4963 19.8242 6.21083 18.1575 5.94651 16.4871C5.84531 15.8437 6.21461 15.4085 6.86107 15.4032C8.41831 15.3911 9.97555 15.3903 11.5328 15.404C12.1845 15.4093 12.5478 15.874 12.4496 16.5196C12.4232 16.6967 12.3915 16.8731 12.356 17.0835ZM0.851121 25.0785C1.00141 25.0785 1.12149 25.0785 1.24232 25.0785C6.96302 25.0785 12.683 25.0785 18.4037 25.0785C18.5071 25.0785 18.6121 25.0717 18.7148 25.0838C18.9285 25.1088 19.0599 25.2367 19.0856 25.4494C19.1128 25.6772 19.0033 25.8385 18.7858 25.9013C18.671 25.9346 18.5434 25.9293 18.4218 25.9293C12.692 25.9308 6.96227 25.93 1.2325 25.93C1.11318 25.93 0.993853 25.93 0.866978 25.93C0.866978 26.6567 0.866978 27.3515 0.866978 28.0509C9.96799 28.0509 19.0516 28.0509 28.13 28.0509C28.13 27.3333 28.13 26.6385 28.13 25.93C27.9963 25.93 27.8838 25.93 27.7713 25.93C25.5056 25.93 23.24 25.9308 20.9752 25.9285C20.8543 25.9285 20.6965 25.9459 20.621 25.8801C20.5001 25.7749 20.374 25.6129 20.3581 25.463C20.337 25.2625 20.4918 25.1171 20.7063 25.0854C20.7992 25.0717 20.8944 25.0785 20.9888 25.0785C23.2634 25.0785 25.5389 25.0785 27.8136 25.0785C27.9223 25.0785 28.0303 25.0785 28.1489 25.0785C28.1489 24.6744 28.1927 24.308 28.1338 23.9583C28.0938 23.7177 27.9639 23.4316 27.7796 23.2915C27.584 23.1424 27.2766 23.0849 27.0176 23.0849C18.6733 23.0751 10.3282 23.0766 1.98393 23.0766C1.88953 23.0766 1.79513 23.0758 1.70073 23.0834C1.23326 23.1212 0.872265 23.483 0.85414 23.9546C0.839792 24.3133 0.851121 24.6728 0.851121 25.0785ZM26.9088 3.73347C18.6302 3.73347 10.3675 3.73347 2.0957 3.73347C2.0957 4.72802 2.0957 5.70517 2.0957 6.68307C10.3796 6.68307 18.6416 6.68307 26.9088 6.68307C26.9088 5.69003 26.9088 4.72045 26.9088 3.73347ZM6.77724 16.2668C6.79612 16.4114 6.80669 16.5226 6.82482 16.6324C6.94716 17.3779 7.07177 18.1235 7.19487 18.869C7.36781 19.9128 7.53698 20.9573 7.71899 21.9995C7.73334 22.082 7.83906 22.213 7.90326 22.2137C8.808 22.2281 9.71273 22.2235 10.6371 22.2235C10.9679 20.2314 11.2957 18.2605 11.6264 16.2661C9.99971 16.2668 8.40924 16.2668 6.77724 16.2668ZM5.72372 9.20125C8.06109 9.20125 10.3652 9.20125 12.6641 9.20125C12.6641 8.64645 12.6641 8.11284 12.6641 7.57923C10.3396 7.57923 8.03542 7.57923 5.72372 7.57923C5.72372 8.12949 5.72372 8.65629 5.72372 9.20125ZM16.4756 9.202C18.7964 9.202 21.1013 9.202 23.4122 9.202C23.4122 8.64796 23.4122 8.11587 23.4122 7.57393C21.0915 7.57393 18.7934 7.57393 16.4756 7.57393C16.4756 8.12268 16.4756 8.65553 16.4756 9.202ZM17.2928 10.0876C17.403 11.1207 18.2587 11.9336 19.2616 11.9684C19.6853 11.9836 20.1104 11.9813 20.5341 11.9715C21.2999 11.9541 21.8958 11.6097 22.2937 10.9625C22.4493 10.709 22.5256 10.407 22.654 10.0876C20.8181 10.0876 19.0675 10.0876 17.2928 10.0876ZM11.8613 10.1004C10.0647 10.1004 8.30956 10.1004 6.55219 10.1004C6.64508 11.1033 7.5113 11.9291 8.50214 11.9677C8.92656 11.9843 9.35175 11.9783 9.77617 11.9722C10.6711 11.9594 11.4414 11.4091 11.7435 10.5667C11.7948 10.4214 11.8198 10.2662 11.8613 10.1004ZM12.7018 20.4963C13.2781 20.4668 13.6851 20.2284 13.914 19.7409C14.1383 19.2634 14.0763 18.7971 13.7463 18.3861C13.4065 17.9623 12.9511 17.8412 12.4285 17.9418C12.2616 17.9736 12.1838 18.0607 12.1589 18.2431C12.0916 18.7381 11.998 19.2293 11.9119 19.722C11.8356 20.161 11.8998 20.2776 12.3273 20.4169C12.4594 20.4608 12.6007 20.4759 12.7018 20.4963Z" fill="#1B3D13"/>
<path d="M0 28.375C0.208438 28.7958 0.549793 28.9298 1.01123 28.9298C10.0042 28.9215 18.9965 28.9215 27.9895 28.9298C28.4502 28.9306 28.7923 28.7966 29 28.375C29 28.5831 29 28.7913 29 28.9994C19.3333 28.9994 9.66667 28.9994 0 28.9994C0 28.7913 0 28.5831 0 28.375Z" fill="white"/>
</svg>
