<svg width="295" height="111" viewBox="0 0 295 111" fill="none" xmlns="http://www.w3.org/2000/svg">
<path d="M117.49 86.8H104.59V109H82.5402V86.8H36.7902V71.05L83.7402 1.89999H104.59V69.25H117.49V86.8ZM82.5402 51.1C82.5402 49.4 82.5402 47.4 82.5402 45.1C82.6402 42.7 82.7402 40.35 82.8402 38.05C82.9402 35.65 83.0402 33.55 83.1402 31.75C83.2402 29.85 83.3402 28.55 83.4402 27.85H82.8402C81.9402 29.85 80.9902 31.8 79.9902 33.7C78.9902 35.6 77.7902 37.55 76.3902 39.55L56.7402 69.25H82.5402V51.1ZM200.33 55.45C200.33 64.05 199.63 71.75 198.23 78.55C196.93 85.35 194.78 91.15 191.78 95.95C188.88 100.65 185.03 104.25 180.23 106.75C175.53 109.25 169.73 110.5 162.83 110.5C154.23 110.5 147.18 108.3 141.68 103.9C136.18 99.5 132.08 93.2 129.38 85C126.78 76.8 125.48 66.95 125.48 55.45C125.48 43.85 126.68 33.95 129.08 25.75C131.48 17.55 135.43 11.25 140.93 6.84999C146.43 2.44999 153.73 0.249996 162.83 0.249996C171.43 0.249996 178.48 2.44999 183.98 6.84999C189.48 11.15 193.58 17.45 196.28 25.75C198.98 33.95 200.33 43.85 200.33 55.45ZM147.98 55.45C147.98 63.55 148.43 70.35 149.33 75.85C150.23 81.25 151.73 85.35 153.83 88.15C156.03 90.85 159.03 92.2 162.83 92.2C166.63 92.2 169.58 90.85 171.68 88.15C173.88 85.45 175.43 81.4 176.33 76C177.33 70.5 177.83 63.65 177.83 55.45C177.83 47.25 177.33 40.45 176.33 35.05C175.43 29.55 173.88 25.45 171.68 22.75C169.58 19.95 166.63 18.55 162.83 18.55C159.03 18.55 156.03 19.95 153.83 22.75C151.73 25.45 150.23 29.55 149.33 35.05C148.43 40.45 147.98 47.25 147.98 55.45ZM289.17 86.8H276.27V109H254.22V86.8H208.47V71.05L255.42 1.89999H276.27V69.25H289.17V86.8ZM254.22 51.1C254.22 49.4 254.22 47.4 254.22 45.1C254.32 42.7 254.42 40.35 254.52 38.05C254.62 35.65 254.72 33.55 254.82 31.75C254.92 29.85 255.02 28.55 255.12 27.85H254.52C253.62 29.85 252.67 31.8 251.67 33.7C250.67 35.6 249.47 37.55 248.07 39.55L228.42 69.25H254.22V51.1Z" fill="#029551"/>
<path d="M2 31.8544L10.5378 26C55.5982 57.9159 77.8051 62.5187 115 60.1899L111.987 63C48.9752 61.5405 23.3466 55.5715 2 31.8544Z" fill="#F1FFF9" stroke="#F1FFF9" stroke-width="2"/>
<path d="M212 46.6392L218.044 43C249.946 62.8396 265.667 65.7008 292 64.2532L289.867 66C245.257 65.0927 227.113 61.3823 212 46.6392Z" fill="#F1FFF9" stroke="#F1FFF9" stroke-width="2"/>
<path d="M170 38C174.381 36.4864 182.479 29.8721 198 17L199.5 19C185.869 33.581 179.518 39.6506 173 42.5L170 38Z" fill="#F1FFF9"/>
<path d="M154.669 45.101C126.406 34.1253 108.731 27.722 109.894 20.7052L107.374 27.4617C113.596 35.6461 119.312 41.0904 153.553 46.9047C187.793 52.7189 154.669 45.101 154.669 45.101Z" fill="#F1FFF9"/>
</svg>
