<svg width="40" height="40" viewBox="0 0 40 40" fill="none" xmlns="http://www.w3.org/2000/svg">
<rect x="0.5" y="0.5" width="39" height="39" rx="11.5" fill="white" stroke="#F8C206"/>
<path d="M12 19.3563C12.0736 19.2266 12.1332 19.0828 12.2278 18.9741C12.3855 18.7918 12.6063 18.7497 12.8411 18.7497C14.7407 18.7497 16.6367 18.7497 18.5363 18.7497C18.5993 18.7497 18.6624 18.7497 18.7465 18.7497C18.7465 18.6761 18.7465 18.6165 18.7465 18.5533C18.7465 16.6845 18.7536 14.8121 18.743 12.9432C18.7395 12.4769 18.8937 12.1508 19.3529 12C19.451 12 19.5491 12 19.6473 12C19.7769 12.0736 19.9206 12.1332 20.0293 12.2279C20.2115 12.3857 20.2536 12.6066 20.2536 12.8415C20.2536 14.742 20.2536 16.6389 20.2536 18.5393C20.2536 18.6024 20.2536 18.6655 20.2536 18.7497C20.3272 18.7497 20.3867 18.7497 20.4498 18.7497C22.3599 18.7497 24.2664 18.7497 26.1765 18.7497C26.6041 18.7497 26.8985 18.9706 26.9826 19.3493C27.0737 19.749 26.7968 20.1663 26.3938 20.2329C26.3027 20.2469 26.2081 20.2504 26.1169 20.2504C24.2314 20.2504 22.3494 20.2504 20.4638 20.2504C20.4008 20.2504 20.3377 20.2504 20.2536 20.2504C20.2536 20.324 20.2536 20.3837 20.2536 20.4468C20.2536 22.3577 20.2536 24.2652 20.2536 26.1761C20.2536 26.6074 20.0328 26.8984 19.6543 26.9826C19.2547 27.0737 18.8377 26.7967 18.7676 26.3935C18.7536 26.3024 18.75 26.2077 18.75 26.1165C18.75 24.2301 18.75 22.3472 18.75 20.4608C18.75 20.3977 18.75 20.3346 18.75 20.2504C18.6765 20.2504 18.6169 20.2504 18.5538 20.2504C16.6858 20.2504 14.8143 20.2434 12.9463 20.2539C12.4801 20.2574 12.1542 20.1031 12.0035 19.6438C12 19.5527 12 19.4545 12 19.3563Z" fill="#F5BB00"/>
</svg>
