<svg width="8" height="12" viewBox="0 0 8 12" fill="none" xmlns="http://www.w3.org/2000/svg">
<path d="M1.01406 -3.14713e-05C1.08452 5.72205e-06 1.1553 0.00428295 1.2235 0.0220175C1.47661 0.0878344 1.66987 0.228374 1.85827 0.38283C3.78797 1.96611 5.72079 3.54685 7.65399 5.12727C7.95835 5.37602 8.08601 5.66554 7.93889 6.0038C7.88596 6.12578 7.78749 6.24586 7.67501 6.33822C5.68887 7.97056 3.69767 9.59875 1.70648 11.2266C1.40445 11.4735 1.04249 11.5572 0.638876 11.434C0.259786 11.318 0.044942 11.0808 0.00485338 10.7498C-0.027451 10.4826 0.103713 10.2628 0.332568 10.0762C0.812074 9.68602 1.28925 9.29394 1.76758 8.9025C3.015 7.88201 4.26203 6.86121 5.51022 5.84104C5.51852 5.83425 5.52725 5.82784 5.53658 5.82105C5.60068 5.77438 5.573 5.69697 5.51139 5.64707C3.79108 4.24151 2.07272 2.83404 0.352417 1.42848C0.0538935 1.1845 -0.0799945 0.903905 0.0496122 0.563743C0.150418 0.299702 0.367597 0.124842 0.69103 0.0404377C0.793685 0.0137091 0.899273 -0.000101089 1.00535 -3.62396e-05C1.00825 -3.43323e-05 1.01115 -3.24249e-05 1.01406 -3.14713e-05Z" fill="#1B3D13"/>
</svg>
