<svg width="207" height="48" viewBox="0 0 207 48" fill="none" xmlns="http://www.w3.org/2000/svg">
<path d="M194.636 36.0876C147.616 -0.951733 70.4038 -2.92717 10.5149 36.0876" stroke="#F5BB00" stroke-dasharray="2 2"/>
<g filter="url(#filter0_f_1832_3877)">
<ellipse cx="198.101" cy="39.5429" rx="3.46464" ry="3.45698" fill="#F5BB00" fill-opacity="0.63"/>
</g>
<ellipse cx="198.101" cy="39.5435" rx="2.47475" ry="2.46927" fill="#F5BB00"/>
<g filter="url(#filter1_f_1832_3877)">
<ellipse cx="9.03008" cy="39.5429" rx="3.46464" ry="3.45698" fill="#F5BB00" fill-opacity="0.63"/>
</g>
<ellipse cx="9.03017" cy="39.5435" rx="2.47475" ry="2.46927" fill="#F5BB00"/>
<path d="M101.515 9.75836C101.436 9.78987 101.38 9.74698 101.323 9.70172C100.719 9.22845 100.114 8.75518 99.5085 8.28098C99.4878 8.26247 99.4633 8.24871 99.4368 8.24067C99.4102 8.23262 99.3822 8.23049 99.3547 8.23443C98.1743 8.37958 96.9936 8.52322 95.8126 8.66533C95.802 8.66661 95.7918 8.66891 95.7797 8.67123C95.7678 8.7121 95.8006 8.73625 95.8165 8.76394C96.5503 10.0203 97.2851 11.2761 98.0208 12.5314C98.1483 12.7488 98.1437 12.8994 98.0053 13.0212C97.8668 13.1431 97.7132 13.1248 97.5162 12.9706C95.8821 11.6913 94.2478 10.4111 92.6132 9.1301C92.5872 9.1072 92.5564 9.0903 92.5231 9.0806C92.4898 9.0709 92.4548 9.06865 92.4205 9.07399C91.82 9.15044 91.2195 9.22881 90.6176 9.29309C90.0572 9.35296 89.5224 9.2418 89.0117 9.01095C88.9377 8.97555 88.8689 8.93027 88.8072 8.87636C88.6153 8.71701 88.5947 8.5258 88.7477 8.32547C88.8931 8.1348 89.0916 8.00738 89.2958 7.89247C89.6907 7.66358 90.1296 7.52059 90.5835 7.4729C91.1256 7.41929 91.6655 7.34294 92.2068 7.2807C92.2414 7.27835 92.2751 7.26834 92.3055 7.2514C92.3358 7.23445 92.362 7.21099 92.3821 7.18272C93.672 5.53914 94.9631 3.89647 96.2556 2.2547C96.3157 2.17837 96.3757 2.10546 96.4778 2.08305C96.7277 2.02782 96.9217 2.24786 96.8479 2.51018C96.7848 2.73561 96.7133 2.95824 96.6451 3.18195C96.2804 4.38514 95.9152 5.58847 95.5496 6.79193C95.5427 6.81471 95.5383 6.83827 95.5327 6.86174C95.5715 6.88026 95.6062 6.86519 95.64 6.86087C96.814 6.71905 97.9878 6.57738 99.1615 6.43588C99.1926 6.43323 99.2227 6.42378 99.2496 6.4082C99.2766 6.39262 99.2999 6.37131 99.3177 6.34576C99.7759 5.75979 100.238 5.17617 100.695 4.58927C100.761 4.5047 100.825 4.46287 100.929 4.49834L100.946 4.51144C100.951 4.58465 100.941 4.65813 100.915 4.72701C100.72 5.36643 100.526 6.00604 100.333 6.64583C100.292 6.77967 100.361 6.86486 100.499 6.85199C100.708 6.83302 100.866 6.94935 100.891 7.13747C100.916 7.3256 100.79 7.47948 100.582 7.51069C100.435 7.53229 100.392 7.62854 100.468 7.76117C100.813 8.34987 101.158 8.93843 101.503 9.52687C101.534 9.57703 101.557 9.63225 101.569 9.69004L101.515 9.75836Z" fill="#F5BB00"/>
<defs>
<filter id="filter0_f_1832_3877" x="189.636" y="31.0859" width="16.9293" height="16.9141" filterUnits="userSpaceOnUse" color-interpolation-filters="sRGB">
<feFlood flood-opacity="0" result="BackgroundImageFix"/>
<feBlend mode="normal" in="SourceGraphic" in2="BackgroundImageFix" result="shape"/>
<feGaussianBlur stdDeviation="2.5" result="effect1_foregroundBlur_1832_3877"/>
</filter>
<filter id="filter1_f_1832_3877" x="0.56543" y="31.0859" width="16.9293" height="16.9141" filterUnits="userSpaceOnUse" color-interpolation-filters="sRGB">
<feFlood flood-opacity="0" result="BackgroundImageFix"/>
<feBlend mode="normal" in="SourceGraphic" in2="BackgroundImageFix" result="shape"/>
<feGaussianBlur stdDeviation="2.5" result="effect1_foregroundBlur_1832_3877"/>
</filter>
</defs>
</svg>
