<svg width="10" height="6" viewBox="0 0 10 6" fill="none" xmlns="http://www.w3.org/2000/svg">
<path d="M9.99972 0.839954C9.95537 1.0691 9.81872 1.23374 9.66654 1.3937C8.28864 2.84098 6.91296 4.29059 5.53755 5.74049C5.32107 5.96876 5.06911 6.06451 4.77473 5.95417C4.66857 5.91447 4.56407 5.84062 4.48369 5.75625C3.0631 4.26665 1.64612 2.77326 0.229411 1.27986C0.0145901 1.05334 -0.0583105 0.781865 0.0489611 0.479157C0.149857 0.194839 0.356363 0.0337065 0.644361 0.00364004C0.876922 -0.0205883 1.06818 0.0777849 1.23061 0.249426C1.57017 0.609056 1.91139 0.966934 2.25205 1.32569C3.14016 2.26125 4.02855 3.19652 4.91638 4.13267C4.9416 4.15923 4.96073 4.19163 5.02587 4.24009C5.04527 4.20418 5.05857 4.16186 5.08518 4.13354C6.30841 2.84331 7.53331 1.55454 8.75654 0.264313C8.96886 0.0404201 9.21306 -0.0599959 9.5091 0.0372092C9.73889 0.112813 9.89106 0.275698 9.96452 0.518273C9.97616 0.556804 9.98808 0.595336 10 0.63416C9.99972 0.70305 9.99972 0.771648 9.99972 0.839954Z" fill="#798A14"/>
</svg>
