<svg width="11" height="7" viewBox="0 0 11 7" fill="none" xmlns="http://www.w3.org/2000/svg">
<path d="M10.9997 0.887194C10.9997 0.948903 10.9956 1.01092 10.9787 1.07028C10.9157 1.29189 10.7811 1.46106 10.6332 1.62599C9.11751 3.31447 7.60426 5.00569 6.09131 6.69724C5.85318 6.96356 5.57602 7.07526 5.25221 6.94653C5.13543 6.90021 5.02048 6.81405 4.93205 6.71563C3.36941 4.97776 1.81073 3.23546 0.252352 1.49317C0.0160491 1.22889 -0.0641416 0.912176 0.0538572 0.559017C0.164843 0.227313 0.392 0.0393242 0.708797 0.00424671C0.964614 -0.0240196 1.175 0.090749 1.35367 0.290997C1.72718 0.710565 2.10252 1.12809 2.47725 1.54664C3.45417 2.63813 4.4314 3.72927 5.40802 4.82145C5.41523 4.8295 5.42198 4.83801 5.42929 4.8472C5.4747 4.90423 5.54535 4.87703 5.5937 4.82247V4.82247C6.93925 3.3172 8.28664 1.81363 9.63219 0.308365C9.86575 0.0471568 10.1344 -0.0699952 10.46 0.0434107C10.7128 0.131615 10.8802 0.321647 10.961 0.604651V0.604651C10.9865 0.694415 10.9998 0.78724 10.9997 0.880575C10.9997 0.882782 10.9997 0.884988 10.9997 0.887194Z" fill="#D3D4D3"/>
</svg>
