<svg width="40" height="41" viewBox="0 0 40 41" fill="none" xmlns="http://www.w3.org/2000/svg">
<rect y="0.695312" width="40" height="40.197" rx="20" fill="#02A95C"/>
<path d="M25.2908 14.3452C25.2908 14.4259 25.2908 14.5012 25.2908 14.5819C25.2908 19.4613 25.2908 24.3407 25.2908 29.2255C25.2908 29.36 25.2908 29.4999 25.2687 29.6236C25.1988 30.0217 24.9262 30.2907 24.6536 30.2477C24.3515 30.1993 24.1342 29.8711 24.1194 29.4407C24.1158 29.3546 24.1158 29.2686 24.1158 29.1771C24.1158 24.3085 24.1158 19.4452 24.1158 14.5766C24.1158 14.4959 24.1158 14.4205 24.1158 14.286C24.0531 14.3721 24.0126 14.4259 23.9758 14.4797C22.9996 15.9053 22.0234 17.3256 21.0509 18.7512C20.8741 19.0094 20.6752 19.1332 20.4284 19.031C20.0158 18.8588 19.8648 18.1379 20.1374 17.6538C20.1705 17.5946 20.2074 17.5462 20.2442 17.4924C21.5666 15.561 22.8891 13.6297 24.2115 11.6984C24.5431 11.2142 24.8562 11.2142 25.1877 11.7038C26.5249 13.6566 27.8584 15.6041 29.1955 17.5569C29.3724 17.8151 29.4571 18.1056 29.3871 18.4661C29.2729 19.0579 28.7793 19.2838 28.4551 18.8965C28.4036 18.8373 28.3593 18.7674 28.3151 18.7028C27.35 17.2933 26.3849 15.8838 25.4198 14.4743C25.3866 14.4205 25.3645 14.3506 25.3387 14.286C25.3277 14.3022 25.3093 14.3237 25.2908 14.3452Z" fill="white"/>
<path d="M14.7092 27.2427C14.7092 27.162 14.7092 27.0867 14.7092 27.006C14.7092 22.1266 14.7092 17.2471 14.7092 12.3624C14.7092 12.2279 14.7092 12.088 14.7313 11.9643C14.8012 11.5662 15.0738 11.2972 15.3464 11.3402C15.6485 11.3886 15.8658 11.7168 15.8806 12.1472C15.8842 12.2332 15.8842 12.3193 15.8842 12.4108C15.8842 17.2794 15.8842 22.1427 15.8842 27.0113C15.8842 27.092 15.8842 27.1674 15.8842 27.3018C15.9469 27.2158 15.9874 27.162 16.0242 27.1082C17.0004 25.6825 17.9766 24.2623 18.9491 22.8367C19.1259 22.5784 19.3248 22.4547 19.5716 22.5569C19.9842 22.7291 20.1352 23.45 19.8626 23.9341C19.8295 23.9933 19.7926 24.0417 19.7558 24.0955C18.4334 26.0269 17.1109 27.9582 15.7885 29.8895C15.4569 30.3737 15.1438 30.3737 14.8123 29.8841C13.4751 27.9313 12.1416 25.9838 10.8045 24.031C10.6276 23.7727 10.5429 23.4822 10.6129 23.1218C10.7271 22.53 11.2207 22.3041 11.5449 22.6914C11.5964 22.7506 11.6407 22.8205 11.6849 22.8851C12.65 24.2946 13.6151 25.7041 14.5802 27.1136C14.6134 27.1674 14.6355 27.2373 14.6613 27.3018C14.6723 27.2857 14.6907 27.2642 14.7092 27.2427Z" fill="white"/>
</svg>
