<svg width="24" height="24" viewBox="0 0 24 24" fill="none" xmlns="http://www.w3.org/2000/svg">
<rect width="24" height="24" rx="3" fill="#F8F8F8"/>
<path d="M17.4287 17.9999C17.4053 17.9706 17.3818 17.9383 17.3555 17.912C15.5918 16.1479 13.8311 14.3838 12.0703 12.6226C12.0439 12.5963 12.0146 12.5699 11.9824 12.5406C11.9502 12.5699 11.9209 12.5963 11.8945 12.6226C10.1309 14.3838 8.37012 16.1479 6.60938 17.912C6.58301 17.9383 6.5625 17.9706 6.53613 17.9999C6.52734 17.9999 6.52148 17.9999 6.5127 17.9999C6.34277 17.827 6.16992 17.657 6 17.4841C6 17.4753 6 17.4695 6 17.4607C6.0293 17.4372 6.06152 17.4167 6.08789 17.3874C7.84863 15.6233 9.6123 13.8593 11.373 12.0981C11.3994 12.0717 11.4258 12.0424 11.4551 12.0102C11.4258 11.978 11.3994 11.9487 11.373 11.9223C9.60937 10.1582 7.84863 8.39411 6.08789 6.63296C6.06152 6.60659 6.0293 6.58314 6 6.5597C6 6.55091 6 6.54505 6 6.53626C6.16113 6.35751 6.3252 6.17875 6.48926 6C8.33789 7.85199 10.1543 9.66882 11.9619 11.4798C13.7871 9.65417 15.6035 7.83441 17.4111 6.02344C17.5986 6.21099 17.7686 6.38095 17.9414 6.55384C16.1367 8.35895 14.3232 10.1758 12.5039 11.9955C14.332 13.827 16.1484 15.6438 18 17.4988C17.8066 17.6746 17.6279 17.8358 17.4521 17.9999C17.4434 17.9999 17.4346 17.9999 17.4287 17.9999Z" fill="#1B3D13"/>
<path d="M6 17.4844C6.16992 17.6573 6.34277 17.8272 6.5127 18.0001C6.34277 18.0001 6.16992 18.0001 6 18.0001C6 17.8272 6 17.6573 6 17.4844Z" fill="white"/>
</svg>
