<svg width="40" height="40" viewBox="0 0 40 40" fill="none" xmlns="http://www.w3.org/2000/svg">
<rect x="0.5" y="0.5" width="39" height="39" rx="11.5" fill="white" stroke="#B40000"/>
<g clip-path="url(#clip0_2901_4140)">
<path d="M14 27C14 28.1 14.9 29 16 29H24C25.1 29 26 28.1 26 27V17C26 15.9 25.1 15 24 15H16C14.9 15 14 15.9 14 17V27ZM17 17H23C23.55 17 24 17.45 24 18V26C24 26.55 23.55 27 23 27H17C16.45 27 16 26.55 16 26V18C16 17.45 16.45 17 17 17ZM23.5 12L22.79 11.29C22.61 11.11 22.35 11 22.09 11H17.91C17.65 11 17.39 11.11 17.21 11.29L16.5 12H14C13.45 12 13 12.45 13 13C13 13.55 13.45 14 14 14H26C26.55 14 27 13.55 27 13C27 12.45 26.55 12 26 12H23.5Z" fill="#B40000"/>
</g>
<defs>
<clipPath id="clip0_2901_4140">
<rect width="24" height="24" fill="white" transform="translate(8 8)"/>
</clipPath>
</defs>
</svg>
