<svg width="42" height="42" viewBox="0 0 42 42" fill="none" xmlns="http://www.w3.org/2000/svg">
<circle cx="21" cy="21" r="21" fill="#06AB5F"/>
<path d="M28.7169 29.0065C28.2787 29.0065 27.8348 29.0128 27.3966 29.0002C27.2429 28.994 27.1803 29.0504 27.1177 29.207C26.6453 30.41 25.5412 31.1054 24.329 30.9864C23.1964 30.8736 22.2289 29.915 21.9671 28.6619C21.6598 27.1707 22.4338 25.6482 23.7314 25.172C25.0916 24.6771 26.5372 25.36 27.1006 26.7823C27.1746 26.964 27.26 27.0078 27.4307 27.0078C28.3185 27.0016 29.2064 27.0016 30.0942 27.0078C30.5552 27.0141 30.9137 27.3712 30.982 27.8787C31.0446 28.3361 30.7942 28.7935 30.3845 28.9439C30.2593 28.9877 30.1227 29.0065 29.9861 29.0065C29.5706 29.0128 29.1438 29.0065 28.7169 29.0065Z" fill="white"/>
<path d="M13.2424 21.9955C12.8099 21.9955 12.3773 22.0018 11.9448 21.9955C11.3984 21.9892 10.9944 21.5569 11.0001 20.993C11.0058 20.4354 11.4041 20.0093 11.9391 20.0093C12.8213 20.0031 13.6977 20.0031 14.5799 20.0093C14.7335 20.0093 14.8132 19.9655 14.8758 19.7963C15.388 18.4993 16.6629 17.7726 17.9092 18.0545C19.1727 18.3364 20.089 19.5707 20.0947 20.9867C20.1004 22.4027 19.2068 23.6245 17.932 23.9378C16.697 24.2385 15.4051 23.5243 14.8815 22.2273C14.8075 22.0456 14.7278 21.9892 14.5571 21.9955C14.1246 22.0018 13.6863 21.9955 13.2424 21.9955Z" fill="white"/>
<path d="M28.2788 11.0001C29.7983 11.0126 31.0162 12.366 30.9992 14.02C30.9821 15.6741 29.7471 17.0087 28.2503 16.9961C26.7535 16.9836 25.5356 15.624 25.547 13.9762C25.564 12.3096 26.7763 10.9876 28.2788 11.0001Z" fill="white"/>
<path d="M17.3572 14.9909C15.5531 14.9909 13.7547 14.9909 11.9506 14.9909C11.3188 14.9909 10.8863 14.4145 11.0343 13.7566C11.1196 13.3681 11.353 13.1175 11.7058 13.0235C11.8026 12.9985 11.905 12.9922 12.0018 12.9922C15.5759 12.9922 19.1557 12.9922 22.7298 12.9922C22.8607 12.9922 23.003 13.011 23.1282 13.0548C23.5322 13.2052 23.7827 13.6626 23.7257 14.12C23.6688 14.5836 23.3217 14.947 22.8948 14.9846C22.7981 14.9909 22.6956 14.9909 22.5989 14.9909C20.8517 14.9971 19.1045 14.9909 17.3572 14.9909Z" fill="white"/>
<path d="M15.5701 27.002C16.771 27.002 17.9718 27.002 19.167 27.002C19.5825 27.002 19.9182 27.2714 20.0435 27.6849C20.1687 28.0921 20.0548 28.5558 19.7247 28.7876C19.554 28.9067 19.332 28.9944 19.1329 28.9944C16.7425 29.0069 14.3465 29.0069 11.9562 29.0006C11.4098 29.0006 11.0001 28.5621 11.0001 28.0044C10.9944 27.4343 11.4098 27.002 11.9676 27.002C13.1684 27.002 14.3693 27.002 15.5701 27.002Z" fill="white"/>
<path d="M26.4574 21.9963C25.2565 21.9963 24.0613 22.0026 22.8605 21.9963C22.2231 21.9963 21.8019 21.4199 21.9442 20.762C22.0296 20.3485 22.3597 20.0415 22.7467 20.0102C22.7979 20.0039 22.8434 20.0039 22.8946 20.0039C25.2736 20.0039 27.6468 20.0039 30.0258 20.0039C30.538 20.0039 30.8965 20.3109 30.9819 20.8059C31.09 21.4074 30.6973 21.9713 30.1453 21.9901C29.6558 22.0089 29.1664 21.9963 28.6769 21.9963C27.9314 21.9963 27.1915 21.9963 26.4574 21.9963Z" fill="white"/>
</svg>
