<svg width="24" height="24" viewBox="0 0 24 24" fill="none" xmlns="http://www.w3.org/2000/svg">
<path d="M0 15.7299C0.0922317 15.5712 0.250343 15.5646 0.408454 15.5646C2.07521 15.5646 3.73538 15.5646 5.40214 15.5712C5.5866 15.5712 5.71836 15.5249 5.85671 15.3926C7.64205 13.5934 9.43398 11.7942 11.2259 10.0015C11.2786 9.94863 11.3313 9.8891 11.4038 9.80972C11.3116 9.77003 11.2391 9.73696 11.16 9.70388C8.17568 8.51984 5.18474 7.32918 2.20038 6.14513C1.9698 6.05252 1.76558 5.94007 1.67335 5.68871C1.52182 5.27198 1.75899 4.84202 2.1938 4.76264C2.31238 4.7428 2.44414 4.72957 2.56272 4.72957C7.10843 4.72957 11.6541 4.72957 16.1998 4.72957C16.3975 4.72957 16.5292 4.67665 16.6676 4.53774C17.6031 3.58521 18.5254 2.63268 19.4872 1.70661C20.3832 0.840078 21.4702 0.30428 22.6824 0.0330739C22.8273 0 22.9789 0 23.1238 0C23.697 0.00661478 24 0.31751 24 0.899611C24 1.42218 23.8353 1.90506 23.6377 2.37471C23.249 3.314 22.7153 4.14747 21.9775 4.85525C21.1145 5.6821 20.2844 6.54863 19.4345 7.39533C19.3094 7.51439 19.2698 7.64007 19.2698 7.80544C19.2764 12.3366 19.2698 16.8743 19.2698 21.4054C19.2698 21.4848 19.2698 21.5642 19.2698 21.6436C19.2698 22.1 19.0788 22.3844 18.723 22.4572C18.3409 22.5366 18.0445 22.3381 17.8666 21.8949C17.4713 20.8829 17.076 19.8642 16.6873 18.8521C15.9034 16.8412 15.126 14.8237 14.342 12.8128C14.3223 12.7533 14.2959 12.7004 14.263 12.6144C14.2037 12.6673 14.1444 12.707 14.0983 12.7533C12.2536 14.6054 10.409 16.4576 8.57096 18.3163C8.4919 18.3957 8.4392 18.5478 8.4392 18.6603C8.43261 20.3008 8.43261 21.9412 8.43261 23.5751C8.43261 23.6545 8.45237 23.7471 8.41943 23.8066C8.37991 23.886 8.30085 23.9852 8.2218 23.9984C8.14933 24.0117 8.04392 23.9389 7.97804 23.8794C7.92534 23.8331 7.91216 23.7404 7.88581 23.6677C7.35218 22.2984 6.81856 20.9226 6.28493 19.5533C6.15317 19.2159 5.94894 19.163 5.67884 19.4078C5.34944 19.7054 4.91463 19.7054 4.63135 19.4078C4.34806 19.1167 4.36124 18.6934 4.65111 18.3692C4.90146 18.098 4.84875 17.893 4.49959 17.7541C3.11611 17.205 1.72605 16.656 0.342575 16.1004C0.223991 16.0541 0.111996 15.9747 0 15.9085C0 15.8556 0 15.7961 0 15.7299Z" fill="#F5BB00"/>
</svg>
