<svg width="24" height="24" viewBox="0 0 24 24" fill="none" xmlns="http://www.w3.org/2000/svg">
<path d="M7.03125 24C6.87656 24 6.71719 24 6.5625 24C6.31406 23.8969 6.15 23.7141 6.01875 23.4844C5.37656 22.3969 4.725 21.3141 4.06875 20.2359C3.99375 20.1141 3.88125 20.0016 3.76406 19.9312C2.68594 19.275 1.60313 18.6234 0.515625 17.9813C0.285937 17.8453 0.0984375 17.6859 0 17.4375C0 17.2828 0 17.1234 0 16.9688C0.009375 16.9547 0.0234374 16.9453 0.0281249 16.9312C0.342187 15.6656 1.125 15.0609 2.42813 15.0609C3.19219 15.0609 3.95625 15.0656 4.725 15.0563C4.84219 15.0563 4.9875 15 5.06719 14.9203C6.44063 13.5563 7.80938 12.1875 9.17813 10.8188C9.225 10.7719 9.2625 10.7203 9.31406 10.6641C9.24844 10.6266 9.20156 10.5984 9.15469 10.5703C6.29063 9.02812 3.43125 7.48594 0.567187 5.95312C0.31875 5.81719 0.1125 5.6625 0.00468743 5.39531C0.00468743 5.2875 0.00468743 5.175 0.00468743 5.06719C0.135937 4.86563 0.248437 4.64531 0.403125 4.46719C1.67812 3.01875 3.26719 2.50313 5.14688 2.93906C8.29219 3.67031 11.4281 4.41563 14.5687 5.15625C14.7281 5.19375 14.8313 5.175 14.9578 5.04844C16.2234 3.77344 17.4937 2.50313 18.7641 1.2375C19.3359 0.670313 20.025 0.3 20.8078 0.1125C20.9812 0.0703129 21.1547 0.0375 21.3281 0C21.5766 0 21.8297 0 22.0781 0C22.1297 0.0140625 22.1812 0.0328125 22.2328 0.046875C23.0625 0.239062 23.6156 0.745313 23.8969 1.54219C23.9391 1.66406 23.9672 1.79531 24 1.92188C24 2.17031 24 2.42344 24 2.67188C23.9859 2.7 23.9672 2.72344 23.9625 2.75625C23.8313 3.79688 23.3578 4.65938 22.6172 5.39062C21.3891 6.60469 20.1797 7.83281 18.9516 9.04688C18.8297 9.16875 18.8062 9.27656 18.8438 9.43125C19.5469 12.3844 20.2359 15.3328 20.9391 18.2859C21.1453 19.1484 21.3281 20.0063 21.1359 20.8969C20.8453 22.2422 20.1516 23.3062 18.9375 24C18.8297 24 18.7172 24 18.6094 24C18.3422 23.8922 18.1828 23.6859 18.0516 23.4375C16.5281 20.5922 14.9953 17.7516 13.4625 14.9109C13.425 14.8406 13.3828 14.7703 13.3312 14.6859C13.2844 14.7281 13.2469 14.7609 13.2141 14.7891C11.8266 16.1719 10.4391 17.5594 9.06094 18.9469C8.99063 19.0172 8.94375 19.1484 8.94375 19.2516C8.93437 20.0719 8.93906 20.8922 8.93906 21.7078C8.93906 22.3266 8.74219 22.8703 8.31094 23.3203C7.95938 23.6953 7.51406 23.8828 7.03125 24ZM1.49531 16.9125C1.56094 16.9594 1.61719 16.9969 1.67813 17.0344C2.65313 17.6203 3.62812 18.2109 4.6125 18.7922C4.86094 18.9375 5.05312 19.125 5.20312 19.3734C5.775 20.3484 6.36562 21.3188 6.94687 22.2891C6.98906 22.3594 7.03594 22.4297 7.0875 22.5094C7.42031 22.3312 7.54219 22.0547 7.54219 21.7125C7.54219 20.8125 7.55625 19.9172 7.5375 19.0172C7.52813 18.6422 7.65469 18.3703 7.91719 18.1078C12.4688 13.5516 17.025 8.99063 21.5812 4.43438C21.6844 4.33125 21.7922 4.22344 21.8859 4.11094C22.3359 3.58125 22.575 2.9625 22.5891 2.26875C22.5984 1.74375 22.2516 1.39688 21.7266 1.40625C20.8781 1.425 20.1891 1.78594 19.5938 2.38125C15.0188 6.96563 10.4344 11.5406 5.85938 16.125C5.62031 16.3641 5.36719 16.4719 5.02969 16.4672C4.125 16.4531 3.21563 16.4625 2.31094 16.4625C1.95938 16.4625 1.67813 16.5797 1.49531 16.9125ZM1.81406 5.01094C1.89375 5.05781 1.95 5.09531 2.01094 5.12812C4.74375 6.6 7.47656 8.07188 10.2047 9.54844C10.3359 9.61875 10.4062 9.59531 10.5 9.49688C11.4891 8.49844 12.4875 7.50937 13.4813 6.51094C13.5188 6.47344 13.5469 6.43125 13.5938 6.37969C13.5234 6.35625 13.4766 6.3375 13.425 6.32812C10.7672 5.70469 8.11406 5.07656 5.45625 4.45312C4.81875 4.30312 4.19062 4.11094 3.52031 4.21875C2.88281 4.31719 2.32031 4.56094 1.81406 5.01094ZM17.6297 10.3875C17.5453 10.4672 17.4891 10.5141 17.4375 10.5703C16.4719 11.5359 15.5063 12.5063 14.5359 13.4672C14.4094 13.5938 14.3953 13.6828 14.4797 13.8375C15.9469 16.5469 17.4047 19.2609 18.8625 21.9703C18.9 22.0359 18.9375 22.1016 18.9938 22.1906C19.6734 21.3656 19.9781 20.4516 19.7484 19.4297C19.1766 16.8984 18.5719 14.3719 17.9766 11.8453C17.8641 11.3719 17.7516 10.8938 17.6297 10.3875Z" fill="#264B1D"/>
<path d="M23.9992 1.92112C23.9665 1.79461 23.9383 1.66341 23.8962 1.54159C23.615 0.740336 23.0621 0.238969 22.2328 0.0468567C22.1812 0.0327997 22.1297 0.0187427 22.0781 0C22.7201 0 23.3573 0 23.9992 0C23.9992 0.641937 23.9992 1.27919 23.9992 1.92112Z" fill="white"/>
</svg>
