<svg width="36" height="36" viewBox="0 0 36 36" fill="none" xmlns="http://www.w3.org/2000/svg">
<g filter="url(#filter0_d_3313_3451)">
<circle cx="18" cy="17" r="14" fill="#FFFBFB"/>
</g>
<path d="M16.8973 25.1837C17.287 24.822 17.664 24.5072 18.0027 24.1589C18.6097 23.5293 19.1273 22.826 19.351 21.9419C19.7407 20.4215 19.3765 19.0886 18.335 17.9768C17.2679 16.8381 15.9707 16.088 14.5266 15.5923C13.5873 15.2708 12.6288 15.0766 11.6384 15.0364C11.4275 15.0297 11.2039 14.9293 11.025 14.8087C10.7566 14.6212 10.5202 14.38 10.271 14.1523C10.2135 14.0987 10.1751 14.0317 10.0793 13.9112C10.2582 13.871 10.386 13.8375 10.5138 13.8241C11.4659 13.7036 12.3924 13.8777 13.2998 14.1657C14.2327 14.4604 15.1081 14.8824 15.894 15.4785C15.926 15.5053 15.9579 15.5254 15.9963 15.5388C16.0155 15.5455 16.041 15.5321 16.1113 15.5254C16.0602 15.445 16.0346 15.3646 15.9835 15.3311C14.4819 14.2662 12.8397 13.6366 11.0058 13.6098C10.8333 13.6098 10.648 13.5964 10.4818 13.6366C10.1943 13.7103 9.9962 13.5964 9.81728 13.3754C9.62559 13.1342 9.41472 12.9132 9.15913 12.6252C9.44028 12.5381 9.64476 12.4511 9.85562 12.4042C10.4307 12.2702 10.9994 12.3305 11.5681 12.4377C12.7822 12.6721 13.9068 13.161 15.025 13.6768C15.2678 13.7906 15.5043 13.9045 15.7471 14.0184C15.8046 14.0451 15.8685 14.0585 15.926 14.0786C15.9388 14.0585 15.9516 14.0317 15.9643 14.0117C15.9196 13.9648 15.8749 13.9112 15.8174 13.8777C14.4947 13.2146 13.172 12.5716 11.7215 12.2769C10.9547 12.1162 10.1815 12.0626 9.42111 12.3171C9.28692 12.364 9.21025 12.3305 9.14635 12.2099C8.97382 11.9018 8.79491 11.5937 8.61599 11.2856C8.50736 11.1048 8.55209 10.9842 8.75018 10.9775C9.33804 10.944 9.92591 10.8905 10.5138 10.9239C11.8812 11.0043 13.14 11.5268 14.3733 12.1095C14.7566 12.2903 15.1336 12.4979 15.5107 12.6922C15.5682 12.7257 15.6321 12.7458 15.696 12.7659C15.7151 12.7458 15.7279 12.719 15.7471 12.6989C15.6896 12.6386 15.6384 12.5582 15.5682 12.5247C13.9451 11.6205 12.2646 10.8704 10.3988 10.7297C9.89396 10.6895 9.37638 10.723 8.87159 10.7498C8.67989 10.7565 8.55848 10.7163 8.4818 10.5221C8.39234 10.2877 8.27733 10.0666 8.17509 9.8389C8.09841 9.67815 8.14314 9.58438 8.32205 9.57768C8.80768 9.56429 9.2997 9.5174 9.77894 9.55089C12.6991 9.77192 15.2614 10.9842 17.6449 12.6989C17.843 12.8395 17.9005 13.0204 17.8877 13.2548C17.8493 14.0853 17.9132 14.9092 18.1177 15.7196C18.6928 18.017 20.8142 19.0149 22.7695 18.4657C23.3766 18.2983 23.9389 18.017 24.4309 17.6017C24.4565 17.5816 24.4884 17.5749 24.5459 17.5414C24.597 17.6687 24.6545 17.7892 24.6865 17.9098C25.2041 19.7383 24.7312 21.2855 23.4341 22.5648C21.7152 24.246 19.6257 25.0229 17.3062 25.1904C17.1912 25.1904 17.057 25.1837 16.8973 25.1837Z" fill="#004668"/>
<path d="M24.8334 11.6599C25.0442 11.747 25.2359 11.8206 25.4212 11.9144C25.6705 12.0417 25.728 12.2158 25.6321 12.4971C25.4085 13.1334 25.6513 13.5621 26.2839 13.6693C26.3478 13.6826 26.4053 13.7362 26.4692 13.763C26.6034 13.8233 26.7439 13.9104 26.8781 13.9171C27.0443 13.9171 27.1082 14.0041 27.1082 14.1314C27.1082 14.1984 26.9995 14.3122 26.9293 14.3256C26.6034 14.3658 26.2711 14.3792 25.8941 14.406C25.9836 14.4797 26.0602 14.54 26.1369 14.6003C26.3286 14.7543 26.4947 14.9151 26.3989 15.2098C26.3797 15.2633 26.4308 15.3437 26.4117 15.404C26.3989 15.4576 26.335 15.5045 26.2967 15.5513C26.2647 15.5045 26.1944 15.4442 26.2072 15.4107C26.2583 15.2298 26.3414 15.0356 26.1944 14.8883C26.0283 14.7275 25.8366 14.5735 25.6321 14.4864C25.3829 14.3792 25.1018 14.3457 24.8398 14.2788C24.827 14.3122 24.8078 14.3457 24.795 14.3725C25.0059 14.5534 25.2359 14.7074 25.4149 14.9151C25.5938 15.1227 25.7216 15.3839 25.8749 15.6183C25.8558 15.6518 25.8366 15.6853 25.811 15.7188C25.466 15.5848 25.1081 15.4576 24.7695 15.3035C24.7056 15.2767 24.68 15.1361 24.6545 15.0356C24.4116 14.1917 24.1752 13.3545 23.9324 12.5105C23.9068 12.4235 23.843 12.3431 23.7982 12.256C23.7215 12.3163 23.6193 12.3632 23.5618 12.4435C22.8206 13.4415 23.0378 15.0356 24.0155 15.8795C24.1688 16.0135 24.3222 16.1408 24.4755 16.2814C25.1912 16.9244 25.4724 17.7616 25.5171 18.7261C25.6066 20.7221 24.7887 22.2626 23.3509 23.495C22.1752 24.493 20.8142 25.0623 19.3509 25.3905C17.4211 25.8191 15.4722 25.8928 13.5105 25.6986C13.4658 25.6919 13.4211 25.6785 13.3188 25.6584C13.7981 25.511 14.2134 25.3905 14.6288 25.2498C15.7853 24.848 16.8588 24.2853 17.6959 23.3275C18.6097 22.2827 19.0186 21.0704 18.763 19.6571C18.648 19.0342 18.3413 18.5051 17.9579 18.0229C17.9132 17.9626 17.862 17.9023 17.8429 17.8219C18.5841 18.5118 19.1592 19.3021 19.2678 20.3805C19.3828 21.5191 19.0761 22.5104 18.4052 23.4012C17.8748 24.1045 17.255 24.7006 16.5266 25.1695C16.4754 25.2029 16.4179 25.2431 16.3668 25.2833C16.354 25.29 16.3604 25.3101 16.3413 25.3771C16.4946 25.3905 16.6352 25.4039 16.7822 25.4039C18.3924 25.4173 19.9132 25.0288 21.3637 24.2987C22.3413 23.8031 23.2423 23.1802 23.958 22.3095C25.0698 20.9632 25.4021 19.4361 24.8398 17.7281C24.6672 17.199 24.6417 17.199 24.2263 17.5205C23.0762 18.4113 21.8174 18.6123 20.4563 18.1836C20.2327 18.1166 20.1304 17.9894 20.1241 17.7348C20.0857 16.2948 20.0538 14.8548 20.4372 13.4482C20.9611 11.5661 22.6097 10.2467 24.4755 10.2266C24.6225 10.2266 24.7759 10.2534 24.9931 10.2734C24.8653 10.4074 24.7823 10.4945 24.6992 10.5815C24.565 10.7222 24.4116 10.8562 24.3094 11.0169C24.0985 11.3518 24.2008 11.7135 24.5331 11.901C24.6161 11.9479 24.6864 12.0216 24.7631 12.0752C24.942 12.189 25.089 12.1221 25.1401 11.901C24.8078 11.8541 24.8078 11.8541 24.8334 11.6599Z" fill="#004668"/>
<path d="M19.2105 17.3458C18.8207 16.9707 18.5779 16.5152 18.4054 16.0196C18.0923 15.1221 18.0348 14.1911 18.0859 13.2467C18.1051 12.952 18.022 12.7243 17.7856 12.5568C15.2871 10.7685 12.6034 9.4892 9.52347 9.32846C9.17842 9.30836 8.83976 9.32846 8.49471 9.33515C8.36052 9.34185 8.25828 9.31506 8.21995 9.16101C8.14966 8.873 8.06659 8.585 8.00908 8.29029C7.97074 8.09605 8.05381 7.98219 8.25828 8.00228C9.02507 8.08266 9.80463 8.10945 10.565 8.2501C12.8143 8.67207 14.9101 9.54279 16.859 10.7819C17.4852 11.1838 18.0284 11.733 18.5907 12.2353C18.6738 12.309 18.7249 12.5233 18.6865 12.6305C18.252 13.7825 18.4309 14.9212 18.7377 16.0531C18.8463 16.4951 19.0444 16.897 19.2105 17.3458Z" fill="#004668"/>
<path d="M27.9199 9.37613C28.0157 9.42302 28.0349 9.52349 27.9263 9.64405C27.8688 9.71103 27.7985 9.77131 27.7218 9.81819C27.0445 10.3071 26.3671 10.7894 25.6898 11.285C25.562 11.3788 25.4662 11.4123 25.3448 11.2716C25.217 11.131 25.07 11.131 24.9358 11.2984C24.8336 11.419 24.7058 11.5194 24.5844 11.6333C24.3607 11.486 24.3224 11.2716 24.5077 11.0573C24.6994 10.8363 24.9102 10.6286 25.1211 10.421C25.2681 10.2669 25.4406 10.1397 25.5684 9.97224C26.0668 9.34934 26.7377 9.29576 27.447 9.28906C27.0892 9.45651 26.7314 9.59716 26.3991 9.7914C26.2202 9.89187 26.0732 10.0727 25.939 10.2402C25.8943 10.2937 25.9007 10.4545 25.9454 10.5148C25.9837 10.5683 26.1307 10.5817 26.1946 10.5483C26.6994 10.2803 27.2042 10.0124 27.6962 9.71772C27.7921 9.66414 27.8368 9.51009 27.9199 9.37613Z" fill="#004668"/>
<path d="M23.7601 12.5234C23.824 12.7512 23.8751 12.9387 23.9326 13.1262C24.1307 13.8027 24.3352 14.4859 24.5333 15.1624C24.6291 15.4906 24.5844 15.6178 24.3096 15.8456C23.0508 15.082 23.1275 13.1664 23.7601 12.5234Z" fill="#004668"/>
<path d="M25.9518 12.2832C25.7665 12.0554 25.6195 11.8746 25.4725 11.6938C25.7026 11.5196 25.9518 11.3187 26.2202 11.1445C26.2904 11.0977 26.4374 11.0977 26.5141 11.1445C27.1467 11.5464 27.4981 12.6114 27.2489 13.3347C27.1211 13.7031 26.8527 13.8371 26.5844 13.6294C26.9103 13.3883 27.1467 13.0936 26.9103 12.6716C26.6802 12.2698 26.3096 12.2095 25.9518 12.2832Z" fill="#004668"/>
<path d="M26.476 14.5723C26.674 14.5455 26.8913 14.512 27.1022 14.4785C27.1597 14.8402 26.8721 15.2823 26.6101 15.289C26.5718 15.0545 26.5271 14.8268 26.476 14.5723Z" fill="#004668"/>
<path d="M26.2968 13.4616C25.9645 13.4616 25.7089 13.1937 25.7153 12.8387C25.7153 12.5976 25.9262 12.4369 26.2265 12.4436C26.5396 12.4503 26.8144 12.6981 26.8208 12.9727C26.8272 13.254 26.6099 13.4616 26.2968 13.4616ZM26.1371 12.5105C26.0156 12.5976 25.8048 12.6713 25.792 12.7718C25.7792 12.9057 25.8879 13.0933 25.9901 13.2004C26.1562 13.3746 26.4629 13.3813 26.6035 13.2339C26.6674 13.1669 26.693 13.0263 26.6738 12.9325C26.6227 12.7048 26.399 12.5574 26.1371 12.5105Z" fill="#004668"/>
<path d="M24.7313 9.53711C24.725 9.69142 24.7186 9.83902 24.7058 10.0135C24.546 9.89269 24.546 9.71826 24.7313 9.53711Z" fill="#004668"/>
<path d="M20.8656 11.8757C20.757 11.7818 20.642 11.6879 20.5333 11.5939C20.5589 11.5604 20.5781 11.5335 20.6036 11.5C20.7186 11.5939 20.8273 11.6811 20.9423 11.7751C20.9167 11.8086 20.8912 11.8422 20.8656 11.8757Z" fill="#004668"/>
<path d="M27.5364 11.4259C27.4341 11.4731 27.3319 11.5203 27.2233 11.5675C27.2105 11.5338 27.1849 11.4663 27.1913 11.4663C27.2808 11.4057 27.383 11.3517 27.4789 11.291C27.498 11.3315 27.5172 11.3787 27.5364 11.4259Z" fill="#004668"/>
<path d="M21.0378 11.0176C21.1273 11.1249 21.2167 11.2323 21.3062 11.3463C21.2806 11.3732 21.2615 11.4 21.2359 11.4268C21.1337 11.3329 21.0314 11.2323 20.9292 11.1383C20.9675 11.0914 20.9995 11.0578 21.0378 11.0176Z" fill="#004668"/>
<path d="M20.431 12.6515C20.3096 12.5844 20.1818 12.5173 20.0604 12.4502C20.0732 12.4167 20.0924 12.3832 20.1052 12.3496C20.233 12.41 20.3544 12.4771 20.4822 12.5375C20.463 12.571 20.4438 12.6113 20.431 12.6515Z" fill="#004668"/>
<path d="M24.0156 10.0003C24.0156 9.85269 24.0156 9.69838 24.0156 9.55078C24.0412 9.55078 24.0604 9.55078 24.0859 9.55078C24.0859 9.69838 24.0859 9.85269 24.0859 10.0003C24.0604 10.0003 24.0348 10.0003 24.0156 10.0003Z" fill="#004668"/>
<path d="M23.1656 10.1808C23.14 10.0332 23.1081 9.88563 23.0825 9.74474C23.1209 9.73803 23.1528 9.73132 23.1911 9.72461C23.2167 9.87221 23.2423 10.0198 23.2678 10.1674C23.2359 10.1674 23.1975 10.1741 23.1656 10.1808Z" fill="#004668"/>
<path d="M23.7729 9.58398C23.7857 9.73829 23.8048 9.88589 23.8176 10.0402C23.7857 10.0469 23.7473 10.0469 23.7154 10.0536C23.7026 9.89931 23.6834 9.75171 23.6707 9.5974C23.7026 9.59069 23.7346 9.59069 23.7729 9.58398Z" fill="#004668"/>
<path d="M20.4116 11.7676C20.5266 11.8548 20.6416 11.942 20.7566 12.0359C20.7375 12.0695 20.7119 12.103 20.6928 12.1299C20.5777 12.0427 20.4627 11.9621 20.3413 11.8749C20.3669 11.8414 20.3924 11.8011 20.4116 11.7676Z" fill="#004668"/>
<path d="M19.4789 15.0742C19.6131 15.0878 19.7473 15.0945 19.8751 15.108C19.8751 15.1486 19.8687 15.1892 19.8687 15.2231C19.7345 15.2163 19.6003 15.2028 19.4725 15.196C19.4725 15.1554 19.4789 15.1148 19.4789 15.0742Z" fill="#004668"/>
<path d="M23.4341 10.1133C23.415 9.96572 23.3894 9.81812 23.3702 9.67052C23.4022 9.66381 23.4405 9.6571 23.4725 9.65039C23.498 9.79799 23.5172 9.94559 23.5428 10.0932C23.5044 10.0999 23.4661 10.1066 23.4341 10.1133Z" fill="#004668"/>
<path d="M19.9902 12.6035C20.1116 12.6706 20.2394 12.7444 20.3608 12.8115C20.3416 12.845 20.3224 12.8853 20.3033 12.9188C20.1755 12.8518 20.0541 12.778 19.9263 12.7109C19.9518 12.6773 19.971 12.6371 19.9902 12.6035Z" fill="#004668"/>
<path d="M24.3925 9.54297C24.3925 9.69057 24.3925 9.83817 24.3925 9.99248C24.3733 9.99248 24.3478 9.99248 24.3286 9.99248C24.3286 9.84488 24.3286 9.69057 24.3286 9.54297C24.3478 9.54297 24.3733 9.54297 24.3925 9.54297Z" fill="#004668"/>
<path d="M22.0923 10.6685C22.0348 10.541 21.9773 10.4136 21.9198 10.2861C21.9517 10.266 21.9837 10.2525 22.0156 10.2324C22.0795 10.3599 22.1434 10.4807 22.2073 10.6081C22.169 10.635 22.1307 10.6484 22.0923 10.6685Z" fill="#004668"/>
<path d="M22.6227 9.94531C22.6674 10.0728 22.7122 10.207 22.7569 10.3344C22.7249 10.3479 22.6866 10.3613 22.6547 10.3814C22.6035 10.2539 22.5588 10.1198 22.5077 9.99228C22.546 9.97886 22.5844 9.96544 22.6227 9.94531Z" fill="#004668"/>
<path d="M22.9102 10.2757C22.8718 10.1348 22.8335 10.0006 22.7952 9.85972C22.8271 9.8463 22.8655 9.83959 22.8974 9.82617C22.9357 9.96706 22.9741 10.1012 23.006 10.2421C22.9741 10.2556 22.9421 10.269 22.9102 10.2757Z" fill="#004668"/>
<path d="M19.8688 12.918C19.9966 12.9719 20.1244 13.0326 20.2522 13.0865C20.2394 13.1203 20.2267 13.154 20.2139 13.1877C20.0861 13.1338 19.9583 13.0798 19.8241 13.0191C19.8433 12.9854 19.856 12.9517 19.8688 12.918Z" fill="#004668"/>
<path d="M19.7281 13.5352C19.8495 13.5756 19.9773 13.6161 20.0987 13.6565C20.0859 13.6902 20.0795 13.724 20.0667 13.7577C19.9389 13.7172 19.8111 13.6835 19.6833 13.643C19.6961 13.6093 19.7089 13.5756 19.7281 13.5352Z" fill="#004668"/>
<path d="M19.5809 14.1504C19.7151 14.1706 19.8429 14.1908 19.9771 14.211C19.9707 14.2514 19.9643 14.285 19.9643 14.3254C19.8301 14.3052 19.696 14.2918 19.5618 14.2716C19.5682 14.2379 19.5745 14.1975 19.5809 14.1504Z" fill="#004668"/>
<path d="M24.8846 10.014C24.8974 9.86637 24.9038 9.71205 24.9166 9.56445C24.9549 9.56445 24.9933 9.57116 25.0316 9.57116C25.0188 9.71876 25.006 9.87307 24.9933 10.0207C24.9549 10.0207 24.9166 10.0207 24.8846 10.014Z" fill="#004668"/>
<path d="M19.8303 17.019C19.7025 17.019 19.5683 17.019 19.4405 17.019C19.4405 16.9918 19.4405 16.9646 19.4341 16.9374C19.5619 16.9306 19.6961 16.9238 19.8239 16.9102C19.8303 16.9442 19.8303 16.9782 19.8303 17.019Z" fill="#004668"/>
<path d="M22.3865 10.5084C22.329 10.3809 22.2715 10.2467 22.2203 10.1192C22.2523 10.1058 22.2906 10.0857 22.3226 10.0723C22.3801 10.1997 22.4376 10.3272 22.4951 10.4614C22.4504 10.4748 22.4184 10.4882 22.3865 10.5084Z" fill="#004668"/>
<path d="M21.428 11.2181C21.3513 11.1108 21.2682 11.0034 21.1915 10.8961C21.2235 10.8692 21.249 10.8491 21.281 10.8223C21.3641 10.9296 21.4407 11.037 21.5238 11.1376C21.4919 11.1644 21.4599 11.1913 21.428 11.2181Z" fill="#004668"/>
<path d="M20.5524 12.3698C20.4374 12.296 20.3159 12.2222 20.2009 12.1417C20.2201 12.1081 20.2393 12.0746 20.2584 12.041C20.3735 12.1148 20.4949 12.1953 20.6099 12.2691C20.5843 12.3027 20.5715 12.3362 20.5524 12.3698Z" fill="#004668"/>
<path d="M19.773 13.2266C19.9071 13.2738 20.0349 13.321 20.1691 13.3682C20.1563 13.4019 20.15 13.4356 20.1372 13.4761C20.003 13.4356 19.8688 13.3951 19.7346 13.3547C19.7474 13.3075 19.7602 13.267 19.773 13.2266Z" fill="#004668"/>
<path d="M19.4532 16.0273C19.581 16.0273 19.7088 16.0273 19.843 16.0273C19.843 16.0479 19.843 16.0753 19.843 16.0959C19.7152 16.0959 19.5874 16.0959 19.4532 16.0959C19.4532 16.0753 19.4532 16.0548 19.4532 16.0273Z" fill="#004668"/>
<path d="M19.8239 16.4024C19.6961 16.4024 19.5619 16.4024 19.4341 16.4024C19.4341 16.3754 19.4341 16.3551 19.4341 16.3281C19.5619 16.3281 19.6961 16.3281 19.8239 16.3281C19.8175 16.3484 19.8175 16.3754 19.8239 16.4024Z" fill="#004668"/>
<path d="M26.1371 12.5098C26.399 12.5567 26.6227 12.704 26.6738 12.9317C26.693 13.0255 26.6674 13.1729 26.6035 13.2331C26.4629 13.3805 26.1626 13.3738 25.9901 13.1996C25.8815 13.0925 25.7728 12.9049 25.792 12.771C25.8048 12.6705 26.0157 12.5968 26.1371 12.5098ZM26.3351 13.2465C26.4246 13.1327 26.5141 13.059 26.5077 13.0121C26.4757 12.8246 26.3479 12.7241 26.1626 12.7375C26.0923 12.7442 26.022 12.8246 25.9518 12.8715C26.0668 12.9853 26.1818 13.0925 26.3351 13.2465Z" fill="white"/>
<path d="M26.3351 13.2479C26.1818 13.1003 26.0731 12.9862 25.9581 12.8789C26.0284 12.8319 26.0923 12.7514 26.169 12.7447C26.3479 12.7246 26.4821 12.8252 26.514 13.0198C26.514 13.06 26.4246 13.1271 26.3351 13.2479Z" fill="#004668"/>
<defs>
<filter id="filter0_d_3313_3451" x="0" y="0" width="36" height="36" filterUnits="userSpaceOnUse" color-interpolation-filters="sRGB">
<feFlood flood-opacity="0" result="BackgroundImageFix"/>
<feColorMatrix in="SourceAlpha" type="matrix" values="0 0 0 0 0 0 0 0 0 0 0 0 0 0 0 0 0 0 127 0" result="hardAlpha"/>
<feOffset dy="1"/>
<feGaussianBlur stdDeviation="2"/>
<feComposite in2="hardAlpha" operator="out"/>
<feColorMatrix type="matrix" values="0 0 0 0 0 0 0 0 0 0 0 0 0 0 0 0 0 0 0.25 0"/>
<feBlend mode="normal" in2="BackgroundImageFix" result="effect1_dropShadow_3313_3451"/>
<feBlend mode="normal" in="SourceGraphic" in2="effect1_dropShadow_3313_3451" result="shape"/>
</filter>
</defs>
</svg>
