<svg width="375" height="218" viewBox="0 0 375 218" fill="none" xmlns="http://www.w3.org/2000/svg">
<g clip-path="url(#clip0_3911_3467)">
<path d="M0 0H375V203C375 211.284 368.284 218 360 218H15C6.71574 218 0 211.284 0 203V0Z" fill="#0CDA7B"/>
<path opacity="0.3" d="M-17 -17V167.665C70.4801 174.061 20.5973 86.4937 210.934 103.743C401.271 120.992 218.99 8.07438 339 -17H-17Z" fill="#1EF490" stroke="#DEF4EA"/>
<path opacity="0.3" d="M-51 -42V142.665C36.4801 149.061 -13.4027 61.4937 176.934 78.7426C367.271 95.9915 184.99 -16.9256 305 -42H-51Z" fill="#69F2B2" stroke="#F7FFFB"/>
<path opacity="0.3" d="M-1 3V187.665C86.4801 194.061 36.5973 106.494 226.934 123.743C417.271 140.992 234.99 28.0744 355 3H-1Z" fill="#27F494" stroke="#9BDFBF"/>
<path d="M301 103.096C240.476 65.5107 141.089 63.5062 64 103.096" stroke="white" stroke-width="2" stroke-dasharray="2 2"/>
<g filter="url(#filter0_f_3911_3467)">
<ellipse cx="311" cy="107.088" rx="6" ry="5.98868" fill="white" fill-opacity="0.9"/>
</g>
<ellipse cx="311" cy="107.086" rx="4.28571" ry="4.27763" fill="white"/>
<g filter="url(#filter1_f_3911_3467)">
<ellipse cx="61" cy="107.088" rx="6" ry="5.98868" fill="white" fill-opacity="0.9"/>
</g>
<ellipse cx="60.9998" cy="107.086" rx="4.28571" ry="4.27763" fill="white"/>
<path d="M196.252 79.7107C196.087 79.7608 195.982 79.6644 195.874 79.563C194.733 78.5012 193.592 77.4395 192.449 76.3756C192.411 76.3346 192.363 76.3026 192.311 76.2817C192.259 76.2608 192.202 76.2517 192.146 76.2549C189.734 76.3445 187.322 76.431 184.909 76.5144C184.888 76.5151 184.867 76.518 184.842 76.5206C184.811 76.6012 184.873 76.6558 184.9 76.7145C186.168 79.3825 187.437 82.0496 188.708 84.7158C188.928 85.1777 188.893 85.4815 188.592 85.704C188.291 85.9266 187.984 85.8631 187.612 85.5171C184.528 82.6471 181.444 79.7753 178.36 76.9016C178.311 76.8508 178.252 76.8113 178.186 76.7859C178.121 76.7605 178.05 76.7499 177.98 76.7548C176.752 76.8057 175.525 76.8604 174.296 76.8864C173.153 76.9107 172.091 76.5934 171.098 76.0382C170.954 75.9538 170.823 75.8504 170.708 75.7306C170.347 75.3752 170.338 74.9848 170.682 74.6061C171.009 74.2455 171.432 74.0221 171.865 73.8249C172.703 73.4302 173.615 73.2168 174.541 73.1988C175.647 73.184 176.752 73.1229 177.857 73.0906C177.927 73.0918 177.997 73.0774 178.062 73.0483C178.126 73.0193 178.183 72.9764 178.228 72.9227C181.12 69.8211 184.014 66.7216 186.911 63.6241C187.045 63.4801 187.179 63.343 187.39 63.3153C187.904 63.2468 188.259 63.7254 188.064 64.2432C187.898 64.6883 187.715 65.1262 187.538 65.567C186.594 67.9377 185.648 70.3085 184.701 72.6796C184.683 72.7245 184.67 72.7713 184.655 72.8179C184.73 72.862 184.802 72.8375 184.872 72.8347C187.27 72.7507 189.668 72.667 192.066 72.5836C192.129 72.5836 192.191 72.5697 192.249 72.5428C192.306 72.516 192.357 72.4769 192.397 72.4283C193.425 71.3222 194.459 70.2215 195.484 69.1133C195.633 68.9538 195.769 68.8802 195.975 68.97L196.006 68.9994C196.004 69.1484 195.97 69.2952 195.907 69.4301C195.401 70.6897 194.898 71.9499 194.398 73.2107C194.293 73.4744 194.418 73.6586 194.699 73.6564C195.125 73.6542 195.425 73.9168 195.443 74.3016C195.461 74.6865 195.178 74.9758 194.752 75.003C194.452 75.0214 194.348 75.2086 194.48 75.4901C195.075 76.7404 195.671 77.9905 196.268 79.2404C196.322 79.3473 196.358 79.4628 196.372 79.5818L196.252 79.7107Z" fill="white"/>
</g>
<defs>
<filter id="filter0_f_3911_3467" x="300" y="96.0996" width="22" height="21.9766" filterUnits="userSpaceOnUse" color-interpolation-filters="sRGB">
<feFlood flood-opacity="0" result="BackgroundImageFix"/>
<feBlend mode="normal" in="SourceGraphic" in2="BackgroundImageFix" result="shape"/>
<feGaussianBlur stdDeviation="2.5" result="effect1_foregroundBlur_3911_3467"/>
</filter>
<filter id="filter1_f_3911_3467" x="50" y="96.0996" width="22" height="21.9766" filterUnits="userSpaceOnUse" color-interpolation-filters="sRGB">
<feFlood flood-opacity="0" result="BackgroundImageFix"/>
<feBlend mode="normal" in="SourceGraphic" in2="BackgroundImageFix" result="shape"/>
<feGaussianBlur stdDeviation="2.5" result="effect1_foregroundBlur_3911_3467"/>
</filter>
<clipPath id="clip0_3911_3467">
<rect width="375" height="218" fill="white"/>
</clipPath>
</defs>
</svg>
