<svg width="375" height="218" viewBox="0 0 375 218" fill="none" xmlns="http://www.w3.org/2000/svg">
<path d="M0 0H375V203C375 211.284 368.284 218 360 218H15C6.71574 218 0 211.284 0 203V0Z" fill="#0CDA7B"/>
<path opacity="0.3" d="M-17 -17V167.665C70.4801 174.061 20.5973 86.4937 210.934 103.743C401.271 120.992 218.99 8.07438 339 -17H-17Z" fill="#1EF490" stroke="#DEF4EA"/>
<path opacity="0.3" d="M-51 -42V142.665C36.4801 149.061 -13.4027 61.4937 176.934 78.7426C367.271 95.9915 184.99 -16.9256 305 -42H-51Z" fill="#69F2B2" stroke="#F7FFFB"/>
<path opacity="0.3" d="M-1 3V187.665C86.4801 194.061 36.5973 106.494 226.934 123.743C417.271 140.992 234.99 28.0744 355 3H-1Z" fill="#27F494" stroke="#9BDFBF"/>
<path d="M301 103.096C240.476 65.5107 141.089 63.5062 64 103.096" stroke="white" stroke-width="2" stroke-dasharray="2 2"/>
<g filter="url(#filter0_f_3313_3407)">
<ellipse cx="311" cy="107.088" rx="6" ry="5.98868" fill="white" fill-opacity="0.9"/>
</g>
<ellipse cx="311" cy="107.086" rx="4.28571" ry="4.27763" fill="white"/>
<g filter="url(#filter1_f_3313_3407)">
<ellipse cx="61" cy="107.088" rx="6" ry="5.98868" fill="white" fill-opacity="0.9"/>
</g>
<ellipse cx="60.9998" cy="107.086" rx="4.28571" ry="4.27763" fill="white"/>
<path d="M196.252 79.7107C196.087 79.7608 195.982 79.6644 195.874 79.563C194.733 78.5012 193.592 77.4395 192.449 76.3756C192.411 76.3346 192.363 76.3026 192.311 76.2817C192.259 76.2608 192.202 76.2517 192.146 76.2549C189.734 76.3445 187.322 76.431 184.909 76.5144C184.888 76.5151 184.867 76.518 184.842 76.5206C184.811 76.6012 184.873 76.6558 184.9 76.7145C186.168 79.3825 187.437 82.0496 188.708 84.7158C188.928 85.1777 188.893 85.4815 188.592 85.704C188.291 85.9266 187.984 85.8631 187.612 85.5171C184.528 82.6471 181.444 79.7753 178.36 76.9016C178.311 76.8508 178.252 76.8113 178.186 76.7859C178.121 76.7605 178.05 76.7499 177.98 76.7548C176.752 76.8057 175.525 76.8604 174.296 76.8864C173.153 76.9107 172.091 76.5934 171.098 76.0382C170.954 75.9538 170.823 75.8504 170.708 75.7306C170.347 75.3752 170.338 74.9848 170.682 74.6061C171.009 74.2455 171.432 74.0221 171.865 73.8249C172.703 73.4302 173.615 73.2168 174.541 73.1988C175.647 73.184 176.752 73.1229 177.857 73.0906C177.927 73.0918 177.997 73.0774 178.062 73.0483C178.126 73.0193 178.183 72.9764 178.228 72.9227C181.12 69.8211 184.014 66.7216 186.911 63.6241C187.045 63.4801 187.179 63.343 187.39 63.3153C187.904 63.2468 188.259 63.7254 188.064 64.2432C187.898 64.6883 187.715 65.1262 187.538 65.567C186.594 67.9377 185.648 70.3085 184.701 72.6796C184.683 72.7245 184.67 72.7713 184.655 72.8179C184.73 72.862 184.802 72.8375 184.872 72.8347C187.27 72.7507 189.668 72.667 192.066 72.5836C192.129 72.5836 192.191 72.5697 192.249 72.5428C192.306 72.516 192.357 72.4769 192.397 72.4283C193.425 71.3222 194.459 70.2215 195.484 69.1133C195.633 68.9538 195.769 68.8802 195.975 68.97L196.006 68.9994C196.004 69.1484 195.97 69.2952 195.907 69.4301C195.401 70.6897 194.898 71.9499 194.398 73.2107C194.293 73.4744 194.418 73.6586 194.699 73.6564C195.125 73.6542 195.425 73.9168 195.443 74.3016C195.461 74.6865 195.178 74.9758 194.752 75.003C194.452 75.0214 194.348 75.2086 194.48 75.4901C195.075 76.7404 195.671 77.9905 196.268 79.2404C196.322 79.3473 196.358 79.4628 196.372 79.5818L196.252 79.7107Z" fill="white"/>
<path d="M302.236 119.83C302.386 121.242 302.474 122.508 302.502 123.628C302.52 124.554 302.521 125.388 302.508 126.133C302.497 126.877 302.468 127.538 302.419 128.115L301.391 128.058C301.447 127.279 301.483 126.567 301.501 125.924C301.518 125.277 301.516 124.689 301.495 124.161C301.426 122.474 301.332 121.082 301.214 119.987L302.236 119.83ZM309.915 127.046V128.068H309.811C309.585 128.068 309.383 128.051 309.206 128.016C309.032 127.978 308.877 127.927 308.741 127.865C308.609 127.802 308.493 127.729 308.392 127.646C308.291 127.559 308.204 127.468 308.131 127.374C307.985 127.489 307.837 127.59 307.687 127.677C307.541 127.764 307.383 127.837 307.213 127.896C307.046 127.952 306.863 127.995 306.665 128.027C306.467 128.054 306.244 128.068 305.997 128.068C305.587 128.068 305.206 127.985 304.854 127.818C304.507 127.647 304.185 127.409 303.889 127.103L304.479 126.274C304.687 126.468 304.898 126.623 305.11 126.738C305.322 126.853 305.531 126.933 305.736 126.978C305.945 127.023 306.148 127.037 306.347 127.02C306.548 126.999 306.743 126.952 306.931 126.879C307.108 126.809 307.253 126.734 307.364 126.654C307.479 126.571 307.566 126.5 307.625 126.441L305.976 122.475L306.926 122.079C307.093 122.486 307.244 122.856 307.38 123.19C307.519 123.524 307.649 123.841 307.771 124.14C307.896 124.439 308.018 124.734 308.136 125.027C308.258 125.315 308.387 125.618 308.522 125.934C308.592 126.101 308.658 126.254 308.72 126.394C308.787 126.529 308.865 126.646 308.955 126.743C309.046 126.837 309.159 126.912 309.294 126.967C309.43 127.02 309.602 127.046 309.811 127.046H309.915ZM313.595 127.046V128.068H313.491C313.139 128.068 312.847 128.009 312.614 127.891C312.381 127.769 312.19 127.613 312.04 127.421C311.821 127.641 311.538 127.804 311.19 127.912C310.842 128.016 310.413 128.068 309.901 128.068H309.708V127.046H309.901C310.486 127.046 310.91 126.941 311.174 126.733C311.439 126.521 311.571 126.207 311.571 125.794C311.571 125.595 311.555 125.394 311.524 125.188C311.496 124.983 311.444 124.748 311.367 124.484L312.348 124.207C312.383 124.329 312.413 124.447 312.437 124.562C312.461 124.674 312.482 124.792 312.499 124.917C312.517 125.042 312.533 125.178 312.546 125.324C312.564 125.47 312.579 125.635 312.593 125.82C312.604 125.948 312.623 126.084 312.651 126.227C312.679 126.369 312.724 126.501 312.786 126.623C312.853 126.745 312.941 126.846 313.053 126.926C313.167 127.006 313.313 127.046 313.491 127.046H313.595ZM312.416 129.936L311.566 130.787L310.71 129.931L311.56 129.081L312.416 129.936ZM313.492 127.046C313.802 127.046 314.059 126.999 314.264 126.905C314.47 126.807 314.643 126.681 314.786 126.524C314.932 126.364 315.057 126.183 315.162 125.981C315.27 125.776 315.377 125.566 315.485 125.35C315.579 125.155 315.678 124.964 315.783 124.776C315.89 124.585 316.01 124.416 316.143 124.27C316.278 124.121 316.431 124.001 316.602 123.91C316.776 123.816 316.977 123.769 317.207 123.769C317.482 123.769 317.723 123.825 317.932 123.936C318.144 124.044 318.325 124.187 318.475 124.364C318.624 124.541 318.743 124.743 318.83 124.969C318.92 125.195 318.983 125.425 319.017 125.658C319.049 125.884 319.05 126.121 319.023 126.367C318.995 126.611 318.936 126.842 318.845 127.061C318.755 127.277 318.631 127.467 318.475 127.63C318.318 127.79 318.127 127.901 317.901 127.964C317.689 128.02 317.475 128.035 317.259 128.011C317.043 127.983 316.833 127.931 316.628 127.854C316.426 127.774 316.231 127.679 316.043 127.567C315.856 127.453 315.682 127.336 315.522 127.218C315.386 127.402 315.243 127.55 315.094 127.661C314.948 127.773 314.791 127.858 314.624 127.917C314.457 127.976 314.28 128.016 314.092 128.037C313.904 128.058 313.704 128.068 313.492 128.068H313.388V127.046H313.492ZM316.122 126.373C316.438 126.606 316.725 126.774 316.983 126.879C317.243 126.983 317.463 127.011 317.64 126.962C317.699 126.948 317.757 126.908 317.812 126.842C317.868 126.776 317.915 126.691 317.953 126.587C317.995 126.482 318.023 126.362 318.037 126.227C318.054 126.091 318.052 125.945 318.031 125.788C318.028 125.764 318.019 125.722 318.005 125.663C317.991 125.604 317.97 125.538 317.943 125.465C317.918 125.392 317.885 125.317 317.843 125.241C317.802 125.161 317.751 125.089 317.692 125.027C317.633 124.961 317.563 124.907 317.483 124.865C317.403 124.823 317.311 124.802 317.207 124.802C317.137 124.802 317.071 124.823 317.009 124.865C316.95 124.903 316.889 124.964 316.826 125.047C316.767 125.131 316.703 125.235 316.633 125.361C316.567 125.486 316.49 125.634 316.403 125.804L316.122 126.373Z" fill="white"/>
<path d="M51.6965 127.046V128.068H51.5922C51.3661 128.068 51.1643 128.051 50.9869 128.016C50.813 127.978 50.6582 127.927 50.5226 127.865C50.3904 127.802 50.2739 127.729 50.173 127.646C50.0722 127.559 49.9852 127.468 49.9122 127.374C49.7661 127.489 49.6182 127.59 49.4687 127.677C49.3226 127.764 49.1643 127.837 48.9939 127.896C48.8269 127.952 48.6443 127.995 48.4461 128.027C48.2478 128.054 48.0252 128.068 47.7782 128.068C47.3678 128.068 46.9869 127.985 46.6356 127.818C46.2878 127.647 45.9661 127.409 45.6704 127.103L46.26 126.274C46.4687 126.468 46.6791 126.623 46.8913 126.738C47.1035 126.853 47.3122 126.933 47.5174 126.978C47.7261 127.023 47.9296 127.037 48.1278 127.02C48.3296 126.999 48.5243 126.952 48.7122 126.879C48.8896 126.809 49.0339 126.734 49.1452 126.654C49.26 126.571 49.3469 126.5 49.4061 126.441L47.7574 122.475L48.7069 122.079C48.8739 122.486 49.0252 122.856 49.1609 123.19C49.3 123.524 49.4304 123.841 49.5522 124.14C49.6774 124.439 49.7991 124.734 49.9174 125.027C50.0391 125.315 50.1678 125.618 50.3035 125.934C50.373 126.101 50.4391 126.254 50.5017 126.394C50.5678 126.529 50.6461 126.646 50.7365 126.743C50.8269 126.837 50.94 126.912 51.0756 126.967C51.2113 127.02 51.3835 127.046 51.5922 127.046H51.6965ZM51.4894 127.046H51.6094C51.8146 127.046 51.9903 127.03 52.1364 126.999C52.2824 126.964 52.4059 126.922 52.5068 126.874C52.6077 126.825 52.6877 126.773 52.7468 126.717C52.8094 126.658 52.8598 126.602 52.8981 126.55C53.0198 126.383 53.1103 126.187 53.1694 125.961C53.2285 125.734 53.2859 125.489 53.3416 125.225C53.3694 125.075 53.399 124.931 53.4303 124.792C53.4616 124.653 53.4998 124.515 53.5451 124.38L54.5311 124.677C54.4894 124.82 54.4511 124.976 54.4164 125.147C54.3816 125.317 54.3624 125.493 54.359 125.674C54.359 125.854 54.3798 126.035 54.4216 126.216C54.4668 126.397 54.5468 126.571 54.6616 126.738C54.8424 126.355 55.0511 125.992 55.2877 125.647C55.5242 125.3 55.7903 124.987 56.0859 124.708C56.3816 124.427 56.7085 124.185 57.0668 123.983C57.4285 123.781 57.8251 123.632 58.2564 123.534C58.4929 123.482 58.7277 123.463 58.9607 123.477C59.1938 123.487 59.4146 123.527 59.6233 123.597C59.8355 123.667 60.0303 123.764 60.2077 123.889C60.3851 124.014 60.5364 124.164 60.6616 124.338C60.7903 124.508 60.8877 124.701 60.9538 124.917C61.0233 125.133 61.0546 125.367 61.0477 125.621C61.0372 125.927 60.9798 126.197 60.8755 126.43C60.7711 126.663 60.639 126.868 60.479 127.046H61.7833V128.068H58.2355C57.9642 128.11 57.6964 128.138 57.432 128.152C57.1711 128.166 56.9224 128.173 56.6859 128.173C56.3346 128.173 56.0164 128.166 55.7311 128.152C55.4494 128.141 55.1903 128.105 54.9538 128.042C54.7172 127.98 54.4981 127.882 54.2964 127.75C54.0946 127.614 53.8981 127.423 53.7068 127.176C53.4877 127.482 53.2077 127.707 52.8668 127.849C52.5294 127.992 52.1207 128.065 51.6407 128.068H51.4894V127.046ZM55.6477 127.087C55.8772 127.101 56.1451 127.112 56.4511 127.119C56.7607 127.126 57.0772 127.119 57.4007 127.098C57.7277 127.077 58.0477 127.037 58.3607 126.978C58.6772 126.919 58.959 126.83 59.2059 126.712C59.4529 126.594 59.6511 126.441 59.8007 126.253C59.9503 126.065 60.0233 125.832 60.0198 125.554C60.0198 125.401 59.992 125.267 59.9364 125.152C59.8842 125.034 59.8146 124.934 59.7277 124.854C59.6442 124.771 59.5468 124.705 59.4355 124.656C59.3242 124.604 59.2094 124.566 59.0911 124.541C58.9764 124.517 58.8616 124.507 58.7468 124.51C58.632 124.51 58.5277 124.521 58.4337 124.541C58.1346 124.607 57.8564 124.714 57.599 124.86C57.3416 125.002 57.0998 125.181 56.8737 125.397C56.6511 125.609 56.439 125.858 56.2372 126.143C56.0355 126.425 55.839 126.74 55.6477 127.087ZM64.2975 124.202C64.2036 124.202 64.101 124.237 63.9897 124.307C63.8819 124.373 63.781 124.468 63.6871 124.594C63.5932 124.715 63.5149 124.865 63.4523 125.042C63.3932 125.216 63.3636 125.409 63.3636 125.621C63.3636 125.705 63.3862 125.794 63.4314 125.887C63.4801 125.981 63.5462 126.074 63.6297 126.164C63.7166 126.251 63.821 126.333 63.9427 126.409C64.0645 126.482 64.1984 126.538 64.3445 126.576C64.5462 126.482 64.701 126.359 64.8088 126.206C64.9201 126.053 64.9932 125.889 65.0279 125.715C65.0627 125.538 65.0662 125.361 65.0384 125.183C65.0106 125.002 64.9601 124.841 64.8871 124.698C64.8175 124.552 64.7306 124.434 64.6262 124.343C64.5219 124.249 64.4123 124.202 64.2975 124.202ZM61.5792 127.046H61.6836C61.9445 127.046 62.1932 127.037 62.4297 127.02C62.6662 127.002 62.8627 126.985 63.0192 126.967C62.5671 126.571 62.341 126.122 62.341 125.621C62.341 125.294 62.3897 124.987 62.4871 124.698C62.5879 124.409 62.7323 124.145 62.9201 123.905C63.1079 123.665 63.3219 123.481 63.5619 123.352C63.8053 123.223 64.054 123.164 64.3079 123.174C64.6175 123.188 64.8888 123.261 65.1219 123.394C65.3549 123.526 65.5479 123.696 65.701 123.905C65.8575 124.114 65.9723 124.35 66.0453 124.614C66.1184 124.875 66.1479 125.143 66.134 125.418C66.1236 125.689 66.0679 125.957 65.9671 126.221C65.8697 126.482 65.7271 126.715 65.5392 126.921C65.6332 126.941 65.7358 126.959 65.8471 126.973C65.9619 126.987 66.0784 126.999 66.1966 127.009C66.3184 127.02 66.4401 127.028 66.5619 127.035C66.6836 127.042 66.8001 127.046 66.9114 127.046H67.0106V128.068H66.9062C66.4714 128.068 66.0419 128.041 65.6175 127.985C65.1932 127.926 64.781 127.83 64.381 127.698C64.054 127.823 63.6558 127.917 63.1862 127.98C62.7166 128.039 62.2158 128.068 61.6836 128.068H61.5792V127.046ZM64.0419 121.364L63.1966 122.209L62.341 121.359L63.1862 120.508L64.0419 121.364ZM66.181 121.369L65.3358 122.22L64.4801 121.364L65.3253 120.519L66.181 121.369ZM66.9102 127.046C67.2197 127.046 67.4771 126.999 67.6823 126.905C67.8875 126.807 68.0615 126.681 68.2041 126.524C68.3502 126.364 68.4754 126.183 68.5797 125.981C68.6875 125.776 68.7954 125.566 68.9032 125.35C68.9971 125.155 69.0962 124.964 69.2006 124.776C69.3084 124.585 69.4284 124.416 69.5606 124.27C69.6962 124.121 69.8493 124.001 70.0197 123.91C70.1936 123.816 70.3954 123.769 70.6249 123.769C70.8997 123.769 71.1415 123.825 71.3502 123.936C71.5623 124.044 71.7432 124.187 71.8928 124.364C72.0423 124.541 72.1606 124.743 72.2475 124.969C72.338 125.195 72.4006 125.425 72.4354 125.658C72.4667 125.884 72.4684 126.121 72.4406 126.367C72.4128 126.611 72.3536 126.842 72.2632 127.061C72.1728 127.277 72.0493 127.467 71.8928 127.63C71.7362 127.79 71.5449 127.901 71.3189 127.964C71.1067 128.02 70.8928 128.035 70.6771 128.011C70.4615 127.983 70.251 127.931 70.0458 127.854C69.8441 127.774 69.6493 127.679 69.4615 127.567C69.2736 127.453 69.0997 127.336 68.9397 127.218C68.8041 127.402 68.6615 127.55 68.5119 127.661C68.3658 127.773 68.2093 127.858 68.0423 127.917C67.8754 127.976 67.698 128.016 67.5102 128.037C67.3223 128.058 67.1223 128.068 66.9102 128.068H66.8058V127.046H66.9102ZM69.5397 126.373C69.8562 126.606 70.1432 126.774 70.4006 126.879C70.6615 126.983 70.8806 127.011 71.058 126.962C71.1171 126.948 71.1745 126.908 71.2302 126.842C71.2858 126.776 71.3328 126.691 71.371 126.587C71.4128 126.482 71.4406 126.362 71.4545 126.227C71.4719 126.091 71.4702 125.945 71.4493 125.788C71.4458 125.764 71.4371 125.722 71.4232 125.663C71.4093 125.604 71.3884 125.538 71.3606 125.465C71.3362 125.392 71.3032 125.317 71.2615 125.241C71.2197 125.161 71.1693 125.089 71.1102 125.027C71.051 124.961 70.9815 124.907 70.9015 124.865C70.8215 124.823 70.7293 124.802 70.6249 124.802C70.5554 124.802 70.4893 124.823 70.4267 124.865C70.3675 124.903 70.3067 124.964 70.2441 125.047C70.1849 125.131 70.1206 125.235 70.051 125.361C69.9849 125.486 69.9084 125.634 69.8215 125.804L69.5397 126.373Z" fill="white"/>
<defs>
<filter id="filter0_f_3313_3407" x="300" y="96.0996" width="22" height="21.9766" filterUnits="userSpaceOnUse" color-interpolation-filters="sRGB">
<feFlood flood-opacity="0" result="BackgroundImageFix"/>
<feBlend mode="normal" in="SourceGraphic" in2="BackgroundImageFix" result="shape"/>
<feGaussianBlur stdDeviation="2.5" result="effect1_foregroundBlur_3313_3407"/>
</filter>
<filter id="filter1_f_3313_3407" x="50" y="96.0996" width="22" height="21.9766" filterUnits="userSpaceOnUse" color-interpolation-filters="sRGB">
<feFlood flood-opacity="0" result="BackgroundImageFix"/>
<feBlend mode="normal" in="SourceGraphic" in2="BackgroundImageFix" result="shape"/>
<feGaussianBlur stdDeviation="2.5" result="effect1_foregroundBlur_3313_3407"/>
</filter>
</defs>
</svg>
