<svg width="22" height="24" viewBox="0 0 22 24" fill="none" xmlns="http://www.w3.org/2000/svg">
<path d="M10.5601 24C10.3709 23.9625 10.1765 23.9297 9.99243 23.8828C8.46842 23.4844 7.4814 22.5844 7.0467 21.1875C6.99555 21.0328 6.92907 20.9953 6.77053 21C5.19538 21.0047 3.61512 21.0047 2.03997 21C0.996692 20.9953 0.198889 20.3344 0.101721 19.3875C0.0403512 18.7781 0.306286 18.2766 0.812583 17.8781C1.53367 17.3109 2.11157 16.6406 2.54627 15.8672C3.10882 14.8687 3.36964 13.8094 3.36453 12.6891C3.35942 11.6203 3.30827 10.5422 3.40544 9.48281C3.65603 6.7875 5.16981 4.85156 7.80359 3.65156C8.54002 3.31406 9.33782 3.14063 10.1868 3.0375C10.1868 2.94375 10.1868 2.85469 10.1868 2.76094C10.1868 2.15156 10.2072 1.54219 10.1817 0.932813C10.1612 0.478125 10.3453 0.164062 10.8158 0C10.9539 0 11.0869 0 11.2249 0C11.6954 0.201563 11.8489 0.54375 11.8335 1.00313C11.8079 1.67344 11.8284 2.34375 11.8284 3.00938C12.2733 3.10313 12.7131 3.16875 13.1325 3.28125C16.1396 4.07812 18.3387 6.48281 18.5893 9.34219C18.6864 10.4578 18.6353 11.5875 18.6404 12.7125C18.6455 14.3344 19.1825 15.7828 20.3076 17.0344C20.6145 17.3766 20.9827 17.6766 21.3253 17.9859C21.9134 18.5156 22.0924 19.2984 21.7396 19.9688C21.3918 20.6344 20.7986 20.9906 19.9905 20.9953C18.4307 21.0047 16.8709 21 15.3111 21C15.2191 21 15.127 21 15.0196 21C14.994 21.0891 14.9736 21.1734 14.9429 21.2531C14.4161 22.7578 13.3166 23.6672 11.6187 23.9578C11.5727 23.9672 11.5267 23.9859 11.4806 24C11.1738 24 10.8669 24 10.5601 24ZM10.9999 19.5C13.9508 19.5 16.8965 19.5 19.8473 19.5C20.0161 19.5 20.2156 19.5094 20.2411 19.3312C20.2565 19.2234 20.1746 19.0641 20.0775 18.9844C18.0063 17.2734 16.9937 15.1406 17.0039 12.5953C17.009 11.7422 17.0192 10.8938 16.9988 10.0406C16.9885 9.65156 16.963 9.25781 16.8709 8.87812C16.1652 5.91094 13.153 4.07344 9.8748 4.59844C7.29729 5.01563 5.19027 7.12969 5.03685 9.52031C4.97036 10.5703 4.99593 11.6297 4.99593 12.6844C5.00105 14.5172 4.44361 16.1859 3.2469 17.6484C2.84289 18.1359 2.34682 18.5625 1.88655 19.0078C1.70244 19.1859 1.67176 19.3641 1.86098 19.4531C1.95303 19.4953 2.07066 19.5 2.18317 19.5C5.12379 19.5 8.05929 19.5 10.9999 19.5ZM8.72413 21.0094C8.94915 21.8438 9.99243 22.5047 11.0306 22.4953C12.0483 22.4859 13.0916 21.8016 13.2757 21.0094C11.767 21.0094 10.2533 21.0094 8.72413 21.0094Z" fill="#B40000"/>
</svg>
