<svg width="24" height="24" viewBox="0 0 24 24" fill="none" xmlns="http://www.w3.org/2000/svg">
<path d="M16.19 2H7.81C4.17 2 2 4.17 2 7.81V16.18C2 19.83 4.17 22 7.81 22H16.18C19.82 22 21.99 19.83 21.99 16.19V7.81C22 4.17 19.83 2 16.19 2Z" fill="#FFF0C5"/>
<path d="M16 11.25H10.5L10 12.5C10 12.09 11.41 11.4722 11 11.4722C10.59 11.4722 10.401 11.965 10.401 12.375L11.25 11.25H8C7.59 11.25 7.25 11.59 7.25 12C7.25 12.41 7.59 12.75 8 12.75H11.25L10.8814 11.6062C10.8814 12.0162 11.2214 12.3562 11.6314 12.3562C12.0414 12.3562 10.5 12.41 10.5 12L10.3019 12.75H16C16.41 12.75 16.75 12.41 16.75 12C16.75 11.59 16.41 11.25 16 11.25Z" fill="#1B3D13"/>
<path d="M12 12.5V12H9.5V12.5H12Z" fill="#1B3D13" stroke="#1B3D13" stroke-width="0.5"/>
</svg>
