<svg width="18" height="24" viewBox="0 0 18 24" fill="none" xmlns="http://www.w3.org/2000/svg">
<g clip-path="url(#clip0_2189_2271)">
<path d="M0.5 20.1935C0.5 18.9043 1.37982 17.5771 2.94582 16.5456C4.49897 15.5225 6.65265 14.8477 9.00262 14.8477C11.3393 14.8477 13.492 15.5211 15.0477 16.5421C16.6168 17.572 17.5 18.8954 17.5 20.1777C17.5 20.81 17.2892 21.3071 16.9103 21.7157C16.5207 22.1359 15.9332 22.4829 15.1566 22.7552C13.5972 23.302 11.418 23.4993 9.00262 23.4993C6.58609 23.4993 4.40549 23.3084 2.84457 22.7666C2.06728 22.4968 1.47959 22.1518 1.09001 21.733C0.71126 21.3257 0.5 20.8286 0.5 20.1935Z" stroke="#03693A"/>
<path d="M12.7266 9.50981C11.7566 10.4777 10.4496 11.026 9.0842 11.0388H9.05321C7.69499 10.9906 6.40785 10.4137 5.46399 9.42867C4.51812 8.4416 3.99145 7.12241 3.99643 5.75074C4.00142 4.37907 4.53767 3.0638 5.49067 2.08371C6.44208 1.10527 7.73408 0.537694 9.09327 0.5H9.26451C10.6258 0.559922 11.9109 1.15078 12.847 2.14826C13.7854 3.14833 14.2985 4.47798 14.276 5.85371C14.2535 7.22944 13.6972 8.54136 12.7266 9.50981Z" stroke="#03693A"/>
</g>
<defs>
<clipPath id="clip0_2189_2271">
<rect width="18" height="24" fill="white"/>
</clipPath>
</defs>
</svg>
