<svg width="24" height="24" viewBox="0 0 24 24" fill="none" xmlns="http://www.w3.org/2000/svg">
<g clip-path="url(#clip0_2189_2216)">
<path d="M3.5 20.1935C3.5 18.9043 4.37982 17.5771 5.94582 16.5456C7.49897 15.5225 9.65265 14.8477 12.0026 14.8477C14.3393 14.8477 16.492 15.5211 18.0477 16.5421C19.6168 17.572 20.5 18.8954 20.5 20.1777C20.5 20.81 20.2892 21.3071 19.9103 21.7157C19.5207 22.1359 18.9332 22.4829 18.1566 22.7552C16.5972 23.302 14.418 23.4993 12.0026 23.4993C9.58609 23.4993 7.40549 23.3084 5.84457 22.7666C5.06728 22.4968 4.47959 22.1518 4.09001 21.733C3.71126 21.3257 3.5 20.8286 3.5 20.1935Z" stroke="#8D8D8D"/>
<path d="M15.7266 9.50981C14.7567 10.4777 13.4497 11.026 12.0843 11.0388H12.0533C10.695 10.9906 9.40791 10.4137 8.46405 9.42867C7.51819 8.4416 6.99151 7.12241 6.9965 5.75074C7.00148 4.37907 7.53773 3.0638 8.49073 2.08371C9.44214 1.10527 10.7341 0.537694 12.0933 0.5H12.2646C13.6258 0.559922 14.911 1.15078 15.847 2.14826C16.7855 3.14833 17.2985 4.47798 17.276 5.85371C17.2535 7.22944 16.6972 8.54136 15.7266 9.50981Z" stroke="#8D8D8D"/>
</g>
<defs>
<clipPath id="clip0_2189_2216">
<rect width="18" height="24" fill="white" transform="translate(3)"/>
</clipPath>
</defs>
</svg>
