<svg width="10" height="10" viewBox="0 0 10 10" fill="none" xmlns="http://www.w3.org/2000/svg">
<path d="M0 4.9042C0.0490658 4.81771 0.0887857 4.72187 0.15187 4.6494C0.257011 4.52785 0.404209 4.4998 0.560752 4.4998C1.82712 4.4998 3.09114 4.4998 4.35751 4.4998C4.39957 4.4998 4.44162 4.4998 4.4977 4.4998C4.4977 4.45071 4.4977 4.41097 4.4977 4.3689C4.4977 3.12298 4.50237 1.87472 4.49536 0.628803C4.49302 0.317908 4.59583 0.100515 4.90191 0C4.96733 0 5.03275 0 5.09817 0C5.18462 0.0490887 5.28041 0.0888272 5.35284 0.151941C5.47434 0.257131 5.50238 0.404398 5.50238 0.561014C5.50238 1.82797 5.50238 3.09259 5.50238 4.35955C5.50238 4.40162 5.50238 4.4437 5.50238 4.4998C5.55144 4.4998 5.59116 4.4998 5.63322 4.4998C6.90659 4.4998 8.17763 4.4998 9.451 4.4998C9.73605 4.4998 9.93232 4.64707 9.98839 4.89952C10.0491 5.166 9.86456 5.44417 9.59586 5.48859C9.53512 5.49794 9.47203 5.50027 9.41129 5.50027C8.15427 5.50027 6.89958 5.50027 5.64257 5.50027C5.60051 5.50027 5.55845 5.50027 5.50238 5.50027C5.50238 5.54936 5.50238 5.5891 5.50238 5.63118C5.50238 6.90515 5.50238 8.17678 5.50238 9.45075C5.50238 9.73827 5.35518 9.93229 5.10284 9.98839C4.83648 10.0492 4.55844 9.8645 4.51171 9.59568C4.50237 9.5349 4.50003 9.47179 4.50003 9.41101C4.50003 8.1534 4.50003 6.89813 4.50003 5.64053C4.50003 5.59845 4.50003 5.55638 4.50003 5.50027C4.45097 5.50027 4.41125 5.50027 4.36919 5.50027C3.12385 5.50027 1.87618 5.4956 0.630846 5.50261C0.320096 5.50495 0.102804 5.4021 0.0023359 5.09588C-5.70461e-07 5.0351 0 4.96965 0 4.9042Z" fill="#03693A"/>
</svg>
