<svg width="16" height="16" viewBox="0 0 16 16" fill="none" xmlns="http://www.w3.org/2000/svg">
<path d="M8.00232 0.437504C12.4315 0.44198 16.0093 3.89277 16 8.1492C15.9907 12.4056 12.4036 15.843 7.98837 15.8296C3.56384 15.8161 -0.00928687 12.3743 1.81326e-05 8.12682C0.00932314 3.86592 3.58245 0.433029 8.00232 0.437504ZM8.00232 14.7509C11.8127 14.7464 14.8927 11.779 14.8834 8.12234C14.8741 4.46119 11.8127 1.51616 8.00698 1.5072C4.20588 1.50273 1.12127 4.46119 1.12127 8.12682C1.11197 11.7924 4.19658 14.7554 8.00232 14.7509Z" fill="#F8C206"/>
<path d="M8.55605 7.0578C8.55605 7.89029 8.55605 8.72278 8.55605 9.55526C8.55605 9.80143 8.39787 10.0073 8.16524 10.0745C7.92796 10.1461 7.66743 10.0655 7.54181 9.85961C7.48598 9.7701 7.4441 9.65373 7.4441 9.54631C7.43945 7.88581 7.43945 6.22532 7.43945 4.56482C7.43945 4.24704 7.68138 4.0143 7.9931 4.00983C8.30482 4.00535 8.55605 4.24704 8.55605 4.57377C8.55605 5.40178 8.55605 6.22979 8.55605 7.0578Z" fill="#F8C206"/>
<path d="M7.25786 11.7173C7.25321 11.319 7.57889 10.9967 7.99296 10.9922C8.40238 10.9878 8.73736 11.3055 8.74201 11.7039C8.74666 12.1022 8.41634 12.4245 8.00692 12.4245C7.59284 12.4334 7.26251 12.1156 7.25786 11.7173Z" fill="#F8C206"/>
</svg>
