<svg width="110" height="170" viewBox="0 0 110 170" fill="none" xmlns="http://www.w3.org/2000/svg">
<path d="M72.2057 1.28917C71.4172 0.489683 70.3194 0 69.1119 0C68.9921 0 68.8723 0.00999353 68.7526 0.0199871C68.6827 0.0199871 68.6129 0 68.543 0H40.519C38.4332 0 36.7466 1.68891 36.7466 3.77756V4.99677C36.7466 5.12668 36.7765 5.2466 36.7865 5.36653C36.7865 5.48645 36.7466 5.59638 36.7466 5.7163V12.8017H45.5091V8.77432H64.7206V12.8017H73.4731V4.38716C73.4731 3.17794 72.9841 2.07866 72.1957 1.28917H72.2057Z" fill="#F5BB00"/>
<path d="M19.3154 166.826C19.3154 166.947 19.2588 167.008 19.1455 167.008H17.0713C16.958 167.008 16.9014 166.939 16.9014 166.803C16.9014 166.408 16.915 165.816 16.9424 165.027C16.9736 164.238 16.9893 163.646 16.9893 163.252C16.9893 163.139 16.9717 163.078 16.9365 163.07C16.8936 163.094 16.6318 163.697 16.1514 164.881C15.8701 165.576 15.5889 166.27 15.3076 166.961C15.2686 167.051 15.2197 167.104 15.1611 167.119C15.1416 167.123 15.0635 167.125 14.9268 167.125C14.7236 167.125 14.6025 167.086 14.5635 167.008C14.3525 166.578 14.0752 165.953 13.7314 165.133C13.3643 164.266 13.0889 163.639 12.9053 163.252C12.8975 163.232 12.8799 163.211 12.8525 163.188C12.8252 163.223 12.8115 163.279 12.8115 163.357C12.8115 163.74 12.8213 164.314 12.8408 165.08C12.8604 165.846 12.8701 166.42 12.8701 166.803C12.8701 166.939 12.8154 167.008 12.7061 167.008H10.749C10.6709 167.008 10.6221 166.996 10.6025 166.973C10.5869 166.945 10.5791 166.9 10.5791 166.838C10.5791 166.412 10.5986 165.773 10.6377 164.922C10.6807 164.066 10.7021 163.426 10.7021 163C10.7021 162.547 10.6826 161.697 10.6436 160.451C10.6396 160.127 10.6221 159.645 10.5908 159.004L10.585 158.904C10.5811 158.826 10.6631 158.787 10.8311 158.787C11.0459 158.787 11.3682 158.781 11.7979 158.77C12.2275 158.754 12.5498 158.746 12.7646 158.746C12.8076 158.746 12.8682 158.828 12.9463 158.992L14.6572 162.748C14.7783 163.002 14.8799 163.129 14.9619 163.129C15.0049 163.129 15.0967 162.982 15.2373 162.689C15.6318 161.869 16.2158 160.633 16.9893 158.98C17.0557 158.828 17.1279 158.752 17.2061 158.752C17.3193 158.752 17.4893 158.758 17.7158 158.77C17.9463 158.781 18.1201 158.787 18.2373 158.787C18.335 158.787 18.4834 158.777 18.6826 158.758C18.8857 158.738 19.0361 158.729 19.1338 158.729C19.251 158.729 19.3096 158.775 19.3096 158.869C19.3096 159.33 19.292 160.02 19.2568 160.938C19.2256 161.852 19.21 162.539 19.21 163C19.21 163.426 19.2275 164.064 19.2627 164.916C19.2979 165.768 19.3154 166.404 19.3154 166.826ZM23.7979 162.268C23.7979 162.307 23.7686 162.359 23.71 162.426C23.6006 162.398 23.4912 162.385 23.3818 162.385C23.1514 162.385 22.958 162.436 22.8018 162.537C22.6143 162.654 22.5205 162.82 22.5205 163.035C22.5205 163.172 22.6201 163.346 22.8193 163.557C23.1201 163.873 23.3057 164.086 23.376 164.195C23.5752 164.492 23.6748 164.811 23.6748 165.15C23.6748 165.35 23.6357 165.561 23.5576 165.783C23.4678 166.029 23.3545 166.209 23.2178 166.322C22.9287 166.572 22.5908 166.783 22.2041 166.955C21.7861 167.135 21.4014 167.225 21.0498 167.225C20.9717 167.225 20.7959 167.014 20.5225 166.592C20.2529 166.166 20.1182 165.906 20.1182 165.812C20.1182 165.777 20.1396 165.756 20.1826 165.748C20.4561 165.697 20.7314 165.646 21.0088 165.596C21.3525 165.486 21.5244 165.307 21.5244 165.057C21.5244 164.885 21.4248 164.686 21.2256 164.459C20.8701 164.064 20.6846 163.855 20.6689 163.832C20.4697 163.551 20.3701 163.254 20.3701 162.941C20.3701 162.355 20.667 161.857 21.2607 161.447C21.792 161.084 22.3604 160.902 22.9658 160.902C23.0283 160.902 23.1826 161.113 23.4287 161.535C23.6748 161.953 23.7979 162.197 23.7979 162.268ZM30.5361 164.078C30.5361 164.379 30.5537 164.826 30.5889 165.42C30.624 166.014 30.6416 166.459 30.6416 166.756C30.6416 166.912 30.5732 166.996 30.4365 167.008C29.9521 167.043 29.3975 167.061 28.7725 167.061C28.6982 167.061 28.6475 166.949 28.6201 166.727C28.5967 166.5 28.5674 166.385 28.5322 166.381C28.501 166.396 28.46 166.43 28.4092 166.48C27.9717 166.922 27.5029 167.143 27.0029 167.143C26.2412 167.143 25.6104 166.842 25.1104 166.24C24.6377 165.678 24.4014 165.006 24.4014 164.225C24.4014 163.322 24.6455 162.596 25.1338 162.045C25.6416 161.475 26.3369 161.189 27.2197 161.189C27.833 161.189 28.3174 161.404 28.6729 161.834C28.6885 161.854 28.7021 161.863 28.7139 161.863C28.749 161.863 28.7881 161.77 28.8311 161.582C28.8779 161.391 28.9326 161.295 28.9951 161.295C29.1396 161.295 29.415 161.336 29.8213 161.418C30.208 161.496 30.4854 161.562 30.6533 161.617C30.7119 161.641 30.7412 161.672 30.7412 161.711C30.7412 161.727 30.7354 161.768 30.7236 161.834C30.5986 162.541 30.5361 163.289 30.5361 164.078ZM28.6494 164.113C28.6494 163.781 28.5439 163.508 28.333 163.293C28.126 163.074 27.8545 162.965 27.5186 162.965C27.1826 162.965 26.9111 163.072 26.7041 163.287C26.4971 163.502 26.3936 163.777 26.3936 164.113C26.3936 164.43 26.5029 164.701 26.7217 164.928C26.9404 165.154 27.2061 165.268 27.5186 165.268C27.8506 165.268 28.1221 165.16 28.333 164.945C28.5439 164.727 28.6494 164.449 28.6494 164.113ZM35.3057 163.229C35.3057 163.322 35.2549 163.369 35.1533 163.369C34.7314 163.369 34.3994 163.357 34.1572 163.334C34.1689 163.627 34.1807 164.035 34.1924 164.559C34.1963 164.781 34.2139 165.168 34.2451 165.719C34.2725 166.215 34.2861 166.602 34.2861 166.879C34.2861 166.961 34.2314 167.008 34.1221 167.02C33.9893 167.035 33.6572 167.043 33.126 167.043C32.6846 167.043 32.3975 167.031 32.2646 167.008C32.1318 166.984 32.0654 166.904 32.0654 166.768V163.539C32.0654 163.426 31.9873 163.369 31.8311 163.369C31.8037 163.369 31.7588 163.371 31.6963 163.375C31.6377 163.379 31.5947 163.381 31.5674 163.381C31.458 163.381 31.4014 163.35 31.3975 163.287C31.3623 162.947 31.3447 162.453 31.3447 161.805C31.3447 161.66 31.4189 161.572 31.5674 161.541C31.7002 161.529 31.835 161.52 31.9717 161.512C31.9521 161.199 31.9424 160.955 31.9424 160.779C31.9424 160.107 32.0732 159.619 32.335 159.314C32.8545 158.709 33.6943 158.406 34.8545 158.406C34.9326 158.406 34.9795 158.43 34.9951 158.477C35.0264 158.652 35.0713 158.912 35.1299 159.256C35.1338 159.287 35.1592 159.396 35.2061 159.584C35.2412 159.729 35.2588 159.84 35.2588 159.918C35.2588 160.012 35.1201 160.072 34.8428 160.1C34.5225 160.135 34.3252 160.193 34.251 160.275C34.1221 160.416 34.0576 160.691 34.0576 161.102C34.0576 161.23 34.0674 161.352 34.0869 161.465C34.1963 161.465 34.3662 161.461 34.5967 161.453C34.8271 161.445 35.001 161.441 35.1182 161.441C35.2354 161.441 35.2939 161.484 35.2939 161.57C35.2939 161.754 35.2959 162.031 35.2998 162.402C35.3037 162.77 35.3057 163.045 35.3057 163.229ZM41.833 164.078C41.833 164.379 41.8506 164.826 41.8857 165.42C41.9209 166.014 41.9385 166.459 41.9385 166.756C41.9385 166.912 41.8701 166.996 41.7334 167.008C41.249 167.043 40.6943 167.061 40.0693 167.061C39.9951 167.061 39.9443 166.949 39.917 166.727C39.8936 166.5 39.8643 166.385 39.8291 166.381C39.7979 166.396 39.7568 166.43 39.7061 166.48C39.2686 166.922 38.7998 167.143 38.2998 167.143C37.5381 167.143 36.9072 166.842 36.4072 166.24C35.9346 165.678 35.6982 165.006 35.6982 164.225C35.6982 163.322 35.9424 162.596 36.4307 162.045C36.9385 161.475 37.6338 161.189 38.5166 161.189C39.1299 161.189 39.6143 161.404 39.9697 161.834C39.9854 161.854 39.999 161.863 40.0107 161.863C40.0459 161.863 40.085 161.77 40.1279 161.582C40.1748 161.391 40.2295 161.295 40.292 161.295C40.4365 161.295 40.7119 161.336 41.1182 161.418C41.5049 161.496 41.7822 161.562 41.9502 161.617C42.0088 161.641 42.0381 161.672 42.0381 161.711C42.0381 161.727 42.0322 161.768 42.0205 161.834C41.8955 162.541 41.833 163.289 41.833 164.078ZM39.9463 164.113C39.9463 163.781 39.8408 163.508 39.6299 163.293C39.4229 163.074 39.1514 162.965 38.8154 162.965C38.4795 162.965 38.208 163.072 38.001 163.287C37.7939 163.502 37.6904 163.777 37.6904 164.113C37.6904 164.43 37.7998 164.701 38.0186 164.928C38.2373 165.154 38.5029 165.268 38.8154 165.268C39.1475 165.268 39.4189 165.16 39.6299 164.945C39.8408 164.727 39.9463 164.449 39.9463 164.113ZM46.8838 163.357C46.8838 163.51 46.7998 163.586 46.6318 163.586C46.5576 163.586 46.4482 163.582 46.3037 163.574C46.1631 163.562 46.0576 163.557 45.9873 163.557C45.6631 163.557 45.4424 163.607 45.3252 163.709C45.208 163.811 45.1494 164.016 45.1494 164.324C45.1494 164.492 45.1514 164.748 45.1553 165.092C45.1631 165.432 45.167 165.686 45.167 165.854C45.167 165.967 45.1748 166.137 45.1904 166.363C45.2061 166.586 45.2139 166.752 45.2139 166.861C45.2139 166.955 45.1494 167.008 45.0205 167.02C44.833 167.035 44.5459 167.043 44.1592 167.043C43.7881 167.043 43.4912 167.031 43.2686 167.008C43.1396 166.992 43.0752 166.928 43.0752 166.814C43.0752 166.502 43.0771 166.035 43.0811 165.414C43.085 164.789 43.0869 164.32 43.0869 164.008C43.0869 163.09 43.0029 162.334 42.835 161.74C42.8271 161.705 42.8232 161.676 42.8232 161.652C42.8232 161.594 42.8525 161.555 42.9111 161.535C43.126 161.512 43.4404 161.469 43.8545 161.406C44.4717 161.285 44.79 161.225 44.8096 161.225C44.8799 161.225 44.9248 161.348 44.9443 161.594C44.9639 161.84 44.999 161.963 45.0498 161.963C44.9951 161.963 45.1553 161.861 45.5303 161.658C45.9053 161.451 46.2666 161.348 46.6143 161.348C46.833 161.348 46.9424 161.395 46.9424 161.488C46.9424 161.602 46.9307 161.762 46.9072 161.969C46.8838 162.191 46.8701 162.352 46.8662 162.449C46.8662 162.562 46.8682 162.713 46.8721 162.9C46.8799 163.131 46.8838 163.283 46.8838 163.357ZM52.667 167.564C52.6709 167.623 52.6455 167.662 52.5908 167.682C51.8096 167.779 51.3857 167.828 51.3193 167.828C51.2764 167.828 51.249 167.783 51.2373 167.693C51.2412 167.721 51.2432 167.477 51.2432 166.961L51.249 162.807C51.249 162.385 51.2334 161.754 51.2021 160.914C51.1748 160.074 51.1611 159.445 51.1611 159.027C51.1611 158.922 51.1865 158.854 51.2373 158.822C51.4053 158.721 51.6689 158.67 52.0283 158.67C52.3916 158.67 52.5791 158.729 52.5908 158.846C52.6025 158.967 52.6025 159.211 52.5908 159.578C52.5752 160.051 52.5674 160.309 52.5674 160.352C52.5674 160.652 52.5693 161.105 52.5732 161.711C52.5771 162.316 52.5791 162.77 52.5791 163.07C52.5791 164.922 52.6064 166.402 52.6611 167.512L52.667 167.564Z" fill="#029551"/>
<path d="M64.4116 162.332V161.043H65.5835V162.42C65.6265 162.592 65.7241 162.691 65.8765 162.719H66.0698L66.0581 163.891H65.5718C65.2437 165.07 64.4331 165.537 63.1401 165.291V164.137C63.5503 164.301 63.9136 164.221 64.23 163.896C64.3589 163.471 64.4194 162.949 64.4116 162.332ZM66.0698 162.473C66.0386 161.676 66.4097 161.051 67.1831 160.598C67.2534 160.895 67.4683 161.088 67.8276 161.178C68.2026 161.127 68.4214 160.943 68.4839 160.627C68.9565 160.904 69.2729 161.309 69.4331 161.84C69.4956 162.184 69.4722 162.475 69.3628 162.713L69.6323 162.719V163.891H65.9351V162.707H67.6929C67.8413 162.695 67.9565 162.652 68.0386 162.578C68.144 162.465 68.1851 162.312 68.1616 162.121C68.0757 161.945 67.9214 161.854 67.6987 161.846C67.3862 161.924 67.2339 162.133 67.2417 162.473H66.0698ZM67.8452 159.953C67.7554 159.953 67.6655 159.979 67.5757 160.029C67.4897 160.076 67.4233 160.145 67.3765 160.234C67.3296 160.32 67.3062 160.41 67.3062 160.504C67.3062 160.602 67.3296 160.693 67.3765 160.779C67.4233 160.861 67.4897 160.928 67.5757 160.979C67.6616 161.025 67.7515 161.049 67.8452 161.049C67.9429 161.049 68.0347 161.025 68.1206 160.979C68.2065 160.928 68.2729 160.861 68.3198 160.779C68.3667 160.693 68.3901 160.602 68.3901 160.504C68.3901 160.41 68.3667 160.32 68.3198 160.234C68.2729 160.145 68.2046 160.076 68.1147 160.029C68.0288 159.979 67.939 159.953 67.8452 159.953ZM69.8667 162.543V161.072L71.0503 161.078V162.496C71.2339 162.672 71.4155 162.668 71.5952 162.484V161.078L72.7729 161.084L72.7788 162.467C72.9897 162.658 73.1616 162.643 73.2944 162.42V161.072H74.4722V162.93C73.9409 163.969 73.1812 164.137 72.1929 163.434C71.7124 163.879 71.1343 163.963 70.4585 163.686C70.2046 163.822 69.9253 163.891 69.6206 163.891V162.719C69.73 162.727 69.812 162.668 69.8667 162.543ZM69.6499 163.896H69.4917V162.713H69.6499V163.896ZM78.6265 160.562C78.9233 160.496 79.187 160.508 79.4175 160.598C79.687 160.676 79.9194 160.82 80.1147 161.031C80.2944 161.234 80.4253 161.48 80.5073 161.77C80.5815 162.152 80.5815 162.514 80.5073 162.854C80.4839 162.994 80.4253 163.141 80.3315 163.293C80.2026 163.484 80.0347 163.633 79.8276 163.738C79.5503 163.816 79.3687 163.861 79.2827 163.873C79.2007 163.885 78.7827 163.891 78.0288 163.891H77.6304C77.4897 163.895 77.4155 164.043 77.4077 164.336V165.689H76.2358V163.387C76.2358 162.945 76.4858 162.725 76.9858 162.725H79.0249C79.3569 162.682 79.4976 162.443 79.4468 162.01C79.4038 161.748 79.2749 161.602 79.0601 161.57C78.6733 161.609 78.562 161.938 78.7261 162.555H77.5659C77.4839 162.25 77.478 161.945 77.5483 161.641C77.6499 161.332 77.8022 161.09 78.0054 160.914C78.2202 160.715 78.4272 160.598 78.6265 160.562ZM80.8882 158.84C81.1226 159.348 81.5112 159.641 82.0542 159.719V163.891H80.8882V158.84Z" fill="#029551"/>
<path d="M110 49.6589V76.1617H109.93L109.89 146.336C109.89 150.853 106.766 154.591 102.705 155.241C102.645 155.241 102.595 155.261 102.535 155.261C105.599 153.342 107.625 149.934 107.625 146.047C107.625 140.04 102.764 135.164 96.7565 135.164C95.4391 135.164 94.1816 135.393 93.014 135.823L93.0539 76.1617V59.9023L93.0339 59.3826V49.6589C93.0339 38.706 84.7505 29.7917 74.5808 29.7917H68.6727C70.1297 31.1708 71.1677 33.2895 71.4271 36.2875H71.507V37.3269C71.5469 37.9864 71.5669 38.646 71.5669 39.3056C71.5669 39.8852 71.5369 40.4548 71.507 41.0145V139.561C71.4671 140.15 71.3972 140.73 71.2974 141.3C69.7705 150.224 61.7465 157.049 52.1058 157.049C43.1237 157.049 35.5289 151.113 33.3234 143.058C32.8842 141.509 32.6547 139.871 32.6547 138.192L33.2236 44.1724C33.2036 40.8246 35.988 38.1064 39.4411 38.1064C41.1477 38.1064 42.6946 38.7759 43.8124 39.8552C44.9401 40.9345 45.6387 42.4336 45.6487 44.0925L45.0798 138.192C45.0798 141.949 48.2335 144.997 52.1058 144.997C54.8303 144.997 57.1856 143.498 58.3533 141.3C58.8623 140.37 59.1417 139.311 59.1417 138.192C59.1417 134.834 56.6367 132.056 53.3433 131.476V46.1611C53.1038 45.8613 52.9641 45.0019 52.9641 43.4229C52.9641 30.931 39.2216 29.7917 39.2216 29.7917H35.4591C25.2794 29.7917 17.006 38.706 17.006 49.6589V76.1617H16.986V151.663H17.0459V154.781H13.483C6.03792 154.781 0 148.365 0 140.46V62.9303H0.0399202V49.6589C0.0399202 29.342 15.9281 12.8027 35.4591 12.8027H74.5808C94.1118 12.8027 110 29.342 110 49.6589Z" fill="#029551"/>
<path d="M93.0339 58.4922V59.3822L92.9839 58.5122L93.0339 58.4922Z" fill="#999999"/>
<path d="M107.625 146.045C107.625 149.933 105.599 153.34 102.535 155.259C102.176 155.319 101.816 155.339 101.447 155.339C99.1217 155.339 97.0059 154.33 95.479 152.701C93.952 151.072 93.0039 148.813 93.0039 146.325V136.691L93.0139 135.822C94.1815 135.392 95.439 135.162 96.7564 135.162C102.764 135.162 107.625 140.039 107.625 146.045Z" fill="#999999"/>
<path d="M107.625 146.045C107.625 149.933 105.599 153.34 102.535 155.259C100.858 156.318 98.8822 156.928 96.7564 156.928C90.7584 156.928 85.8882 152.061 85.8882 146.045C85.8882 141.348 88.8622 137.351 93.0139 135.822C94.1816 135.392 95.4391 135.162 96.7564 135.162C102.764 135.162 107.625 140.039 107.625 146.045Z" fill="#F5BB00" stroke="white" stroke-width="3" stroke-miterlimit="10"/>
</svg>
