<svg width="24" height="24" viewBox="0 0 24 24" fill="none" xmlns="http://www.w3.org/2000/svg">
<path d="M0.0154041 14.7715C0.0154041 12.507 0.023107 10.2425 0.00770265 7.97805C0.00770265 7.31111 0.269577 6.84581 0.839539 6.50459C4.29012 4.42623 7.74069 2.34012 11.1836 0.254011C11.7304 -0.0794565 12.2619 -0.0872097 12.8087 0.246258C16.2747 2.34012 19.7407 4.43399 23.2067 6.52785C23.7458 6.85357 24 7.30336 24 7.93927C23.9923 12.476 24 17.0127 23.9923 21.5572C23.9923 23.0074 23.0064 23.9922 21.5661 24C19.9487 24 18.3389 24 16.7214 24C15.8049 24 15.2349 23.4184 15.2272 22.4955C15.2272 20.58 15.2272 18.6645 15.2272 16.749C15.2272 16.2527 15.0809 16.1054 14.5956 16.1054C12.8626 16.1054 11.1374 16.1054 9.40436 16.1054C8.91142 16.1054 8.76508 16.2449 8.76508 16.7413C8.76508 18.649 8.76508 20.5568 8.76508 22.4567C8.76508 23.4416 8.20283 24 7.22465 24C5.6303 24 4.03594 24 2.44159 24C0.985879 24 0 23.0151 0 21.5416C0.0154044 19.2849 0.0154041 17.0282 0.0154041 14.7715ZM0.939666 14.7947C0.939666 17.0515 0.939666 19.3004 0.939666 21.5572C0.939666 22.5033 1.50963 23.0694 2.44929 23.0694C4.03594 23.0694 5.62259 23.0694 7.20924 23.0694C7.71759 23.0694 7.85623 22.9298 7.85623 22.418C7.85623 20.5102 7.85623 18.6025 7.85623 16.7025C7.85623 15.7409 8.41849 15.1747 9.38126 15.1747C11.1143 15.1747 12.8395 15.1747 14.5725 15.1747C15.6123 15.1747 16.1592 15.7176 16.1592 16.7568C16.1592 18.6568 16.1592 20.549 16.1592 22.449C16.1592 22.922 16.3055 23.0694 16.7831 23.0694C18.3697 23.0694 19.9564 23.0694 21.543 23.0694C22.5212 23.0694 23.0834 22.511 23.0834 21.5261C23.0834 17.0204 23.0834 12.507 23.0911 8.00132C23.0911 7.66785 22.9833 7.46622 22.6983 7.29561C19.2632 5.225 15.828 3.1544 12.4005 1.07605C12.1309 0.913191 11.8999 0.913191 11.6303 1.07605C8.20283 3.1544 4.76765 5.23276 1.33248 7.29561C1.0552 7.46622 0.939666 7.66785 0.939666 8.00132C0.939666 10.2658 0.939666 12.5303 0.939666 14.7947Z" fill="white"/>
</svg>
