<svg width="24" height="24" viewBox="0 0 24 24" fill="none" xmlns="http://www.w3.org/2000/svg">
<path d="M0 7.14744C0.0763651 6.65448 0.123359 6.15512 0.234969 5.66857C0.751902 3.44706 1.85626 1.6929 3.77126 0.655771C5.5864 -0.32374 7.37804 -0.1957 9.09332 0.988677C10.1448 1.71211 11.0142 2.6468 11.7955 3.69034C11.8483 3.76076 11.9012 3.83758 11.9599 3.90801C11.9717 3.92081 11.9834 3.92721 12.0128 3.94002C12.2595 3.62632 12.5004 3.30621 12.753 3.00532C13.499 2.11544 14.3214 1.32158 15.3024 0.745399C17.1939 -0.362153 19.0619 -0.208503 20.83 1.02709C22.6511 2.30109 23.6086 4.2025 23.914 6.50723C24.1842 8.56869 23.82 10.4893 22.7862 12.2435C22.5747 12.602 22.3397 12.9477 22.0695 13.2486C18.8915 16.7249 15.7018 20.1884 12.518 23.6583C12.1009 24.1128 11.8895 24.1128 11.4783 23.6647C8.49415 20.4189 5.51591 17.1794 2.5318 13.9336C1.79752 13.1333 1.12785 12.2883 0.699034 11.2447C0.34658 10.3549 0.117485 9.43936 0.0352453 8.47266C0.0293711 8.38943 0.0117485 8.3062 0 8.22298C0 7.86446 0 7.50595 0 7.14744ZM12.0422 22.7172C12.1186 22.6084 12.1714 22.5123 12.2419 22.4355C15.2554 19.1513 18.2689 15.8734 21.2765 12.5892C21.5232 12.3203 21.7464 12.013 21.9344 11.6929C22.9859 9.90671 23.262 7.9669 22.8038 5.91824C22.3926 4.06165 21.4703 2.58919 19.8902 1.6865C18.7799 1.0527 17.6051 0.90545 16.4067 1.40481C15.4492 1.80174 14.6386 2.46114 13.9396 3.2614C13.4109 3.87599 12.9351 4.54181 12.4475 5.19482C12.189 5.53412 11.819 5.54052 11.5781 5.20122C11.4548 5.02836 11.3432 4.8427 11.2139 4.66985C10.415 3.55589 9.52801 2.54437 8.40016 1.82094C7.32517 1.12952 6.19145 0.924656 4.98135 1.32158C3.57154 1.78253 2.56117 2.77484 1.85038 4.14488C1.21009 5.37407 0.957501 6.70569 1.02212 8.12054C1.08673 9.40735 1.39807 10.6109 2.07948 11.6609C2.45543 12.2435 2.90187 12.7748 3.36006 13.2806C6.17382 16.36 8.99933 19.4201 11.819 22.4867C11.8718 22.5379 11.9306 22.5956 12.0422 22.7172Z" fill="#294922"/>
</svg>
