<svg width="24" height="20" viewBox="0 0 24 20" fill="none" xmlns="http://www.w3.org/2000/svg">
<path d="M0.0125156 8.16723C0.131416 7.67217 0.306637 7.20218 0.663337 6.81992C1.10139 6.34993 1.63957 6.08047 2.27787 6.00527C2.42181 5.98647 2.56574 5.94261 2.70341 5.88621C7.8474 3.96239 12.9977 2.03856 18.1416 0.114737C19.0365 -0.217389 19.8939 0.189934 20.2005 1.09858C20.7324 2.67148 21.2643 4.24438 21.7963 5.82354C21.8463 5.96141 21.9089 6.03034 22.0591 6.06794C23.1667 6.3186 23.974 7.30245 23.9928 8.44295C24.0053 9.10721 23.999 9.77146 23.9928 10.4357C23.9928 10.8054 23.805 10.9934 23.4233 10.9934C22.979 10.9934 22.5347 10.9934 22.1217 11.2002C21.3457 11.5825 20.8826 12.441 21.014 13.2682C21.1642 14.1956 21.8463 14.8724 22.7475 14.9789C22.9915 15.0103 23.2481 14.9977 23.4921 15.0103C23.7675 15.0228 23.9803 15.192 23.9803 15.4489C23.9803 16.2761 24.0178 17.1096 23.9302 17.9305C23.8113 19.0647 22.7725 19.9483 21.6335 19.9922C21.3207 20.0047 21.0078 19.9984 20.6949 19.9984C16.7899 19.9984 12.885 19.9984 8.98634 19.9984C6.90246 19.9984 4.81858 19.9984 2.7347 19.9984C1.25158 19.9984 0.375473 19.3091 0.0250312 17.8678C0.0187733 17.8553 0.0062579 17.8427 0 17.8302C0 17.003 0 16.1696 0 15.3424C0.15019 15.0729 0.375473 14.9789 0.675852 14.9977C0.869847 15.0103 1.06384 14.9977 1.25784 14.9727C2.13394 14.8661 2.80979 14.2019 2.96624 13.2995C3.11017 12.4723 2.66586 11.6076 1.9024 11.2128C1.51441 11.0122 1.10139 10.9684 0.675852 10.9934C0.375473 11.0122 0.15019 10.9182 0 10.6488C0.0125158 9.82786 0.0125156 8.99441 0.0125156 8.16723ZM1.00752 16.0192C1.00752 16.4829 1.00752 16.9341 1.00752 17.3853C1.01378 18.3817 1.63957 19.0083 2.63457 19.0083C4.33672 19.0083 6.03887 19.0083 7.74102 19.0083C7.82237 19.0083 7.90998 19.0083 8.01011 19.0083C8.01011 18.8454 8.01011 18.7138 8.01011 18.5822C8.01637 18.2187 8.2041 18.0057 8.517 18.0119C8.81112 18.0182 9.00511 18.2313 9.00511 18.5759C9.00511 18.7138 9.00511 18.8517 9.00511 19.0021C9.12401 19.0021 9.21788 19.0021 9.31175 19.0021C12.9601 19.0021 16.6022 19.0021 20.2506 19.0021C20.6698 19.0021 21.0954 19.0083 21.5146 19.0021C22.2656 18.9895 22.8976 18.4569 22.9727 17.7049C23.0228 17.1534 22.9915 16.5957 22.9915 16.0443C22.9915 16.0317 22.9727 16.0192 22.9602 16.0129C21.1392 15.9252 20.1379 14.5591 20.0128 13.3246C19.9439 12.5789 20.1004 11.8958 20.5384 11.2817C21.1392 10.4482 21.9652 10.0284 22.9978 9.98452C22.9978 9.51453 22.9978 9.06961 22.9978 8.63095C22.9915 7.61577 22.372 6.99538 21.3582 6.99538C17.3281 6.99538 13.3043 6.99538 9.2742 6.99538C9.19285 6.99538 9.10524 6.99538 8.99885 6.99538C8.99885 7.17711 9.00511 7.34004 8.99885 7.50297C8.98008 7.79123 8.77357 7.99176 8.49822 7.9855C8.22288 7.9855 8.02262 7.79123 8.01011 7.49671C8.00385 7.33378 8.01011 7.17085 8.01011 7.01419C7.96004 7.00165 7.93501 6.98912 7.91624 6.98912C6.08267 6.98912 4.24911 6.97658 2.40929 6.99538C1.75847 7.00165 1.13268 7.51551 1.05758 8.15469C0.988747 8.75628 1.04507 9.36413 1.04507 9.97199C2.94121 10.0535 4.03634 11.6264 4.00505 13.0551C3.98628 14.3774 2.96624 15.9189 1.00752 16.0192ZM20.7887 5.98021C20.7637 5.87994 20.7449 5.79848 20.7199 5.71701C20.2506 4.31958 19.775 2.92214 19.2994 1.52471C19.1179 0.985784 18.9114 0.88552 18.3857 1.08605C14.1303 2.67775 9.87496 4.26944 5.61959 5.86114C5.55075 5.88621 5.48192 5.91754 5.41934 5.94261C5.4256 5.95514 5.4256 5.96141 5.43185 5.97394C10.5383 5.98021 15.651 5.98021 20.7887 5.98021Z" fill="#1B3D13"/>
<path d="M9.00516 10.9057C9.00516 11.1689 9.01142 11.4384 9.00516 11.7016C8.9989 12.0149 8.78613 12.2342 8.49827 12.2279C8.21667 12.2217 8.01641 12.0149 8.01641 11.7078C8.01015 11.1626 8.01015 10.6112 8.01641 10.066C8.02267 9.75266 8.2417 9.52706 8.51704 9.53333C8.79865 9.5396 8.9989 9.75893 9.00516 10.0785C9.01142 10.3542 9.00516 10.63 9.00516 10.9057Z" fill="#1B3D13"/>
<path d="M8.01621 15.1231C8.01621 14.8411 8.00995 14.5591 8.01621 14.2771C8.02247 13.9763 8.23524 13.7695 8.51684 13.7695C8.79845 13.7758 9.00496 13.9826 9.01122 14.2897C9.01747 14.8348 9.01747 15.38 9.01122 15.9315C9.00496 16.2448 8.79219 16.4704 8.51058 16.4641C8.23524 16.4641 8.02873 16.2448 8.02247 15.944C8.00995 15.6746 8.01621 15.3988 8.01621 15.1231Z" fill="#1B3D13"/>
</svg>
