<svg width="24" height="24" viewBox="0 0 24 24" fill="none" xmlns="http://www.w3.org/2000/svg">
<path d="M21.6622 10.4019C21.6622 10.5798 21.6622 10.6907 21.6622 10.8009C21.6622 13.8814 21.6644 16.9619 21.6607 20.0424C21.6592 21.4613 20.8141 22.581 19.4957 22.9107C19.2572 22.9703 19.0047 22.9956 18.7589 22.9956C14.2582 23.0008 9.7575 23.0008 5.25681 22.9986C3.5777 22.9978 2.34468 21.7569 2.341 20.0573C2.33585 16.9582 2.33953 13.8591 2.33953 10.7599C2.33953 10.6609 2.33953 10.5627 2.33953 10.4056C2.2085 10.5158 2.11943 10.5887 2.03256 10.6646C1.70793 10.9513 1.36195 10.9639 1.13449 10.6952C0.914385 10.4361 0.966652 10.0944 1.27509 9.81673C2.47719 8.73282 3.68076 7.65114 4.88359 6.56798C6.67091 4.95924 8.45897 3.35198 10.2433 1.74026C11.3321 0.756853 12.6623 0.752388 13.7495 1.73208C16.7036 4.3942 19.6599 7.0541 22.6147 9.71548C22.7038 9.79588 22.7973 9.87405 22.8724 9.96636C23.0505 10.186 23.0395 10.5038 22.8562 10.7078C22.6729 10.9118 22.3593 10.9565 22.1281 10.7934C21.9802 10.6892 21.8492 10.5604 21.6622 10.4019ZM15.1504 21.8529C15.2851 21.8529 15.3852 21.8529 15.4846 21.8529C16.5431 21.8529 17.6009 21.8536 18.6595 21.8529C19.8432 21.8514 20.5234 21.1643 20.5234 19.9635C20.5248 16.5204 20.5226 13.0781 20.5278 9.63508C20.5278 9.44227 20.4741 9.31125 20.329 9.18097C17.8785 6.98338 15.4331 4.77908 12.9869 2.57702C12.3384 1.99338 11.6626 1.99412 11.0133 2.57925C8.56055 4.78801 6.10556 6.99529 3.65867 9.2115C3.56003 9.30083 3.48495 9.47503 3.48495 9.61052C3.47538 13.0811 3.47538 16.5517 3.47906 20.0223C3.4798 21.1472 4.17838 21.8499 5.28993 21.8529C6.37572 21.8559 7.46151 21.8544 8.5473 21.8529C8.64374 21.8529 8.74017 21.8425 8.85132 21.8358C8.85132 21.6943 8.85132 21.5841 8.85132 21.4732C8.85132 19.0076 8.87561 16.5413 8.83954 14.0764C8.82556 13.0953 9.50942 12.2659 10.5945 12.3166C11.5404 12.3605 12.4907 12.3575 13.4374 12.3173C14.4901 12.2726 15.1732 13.0938 15.1614 14.0504C15.1298 16.5249 15.1511 19.0002 15.1511 21.4755C15.1504 21.5849 15.1504 21.6958 15.1504 21.8529ZM14.0028 21.838C14.0123 21.7695 14.0226 21.7338 14.0226 21.6973C14.0234 19.12 14.0256 16.5435 14.0219 13.9663C14.0212 13.6104 13.8629 13.4608 13.5066 13.46C12.5408 13.4563 11.5743 13.4585 10.6085 13.4585C10.0961 13.4585 9.9776 13.5791 9.9776 14.1025C9.97686 16.577 9.9776 19.0523 9.9776 21.5268C9.9776 21.6258 9.9776 21.7248 9.9776 21.838C11.3387 21.838 12.6601 21.838 14.0028 21.838Z" fill="#294922"/>
</svg>
