<svg width="20" height="24" viewBox="0 0 20 24" fill="none" xmlns="http://www.w3.org/2000/svg">
<path d="M1.10911 23.9937C1.00247 23.9562 0.895822 23.9249 0.796286 23.8811C0.362595 23.687 0.0924257 23.3865 0.0284384 22.9609C0.00710927 22.8357 0 22.7105 0 22.5853C0 15.5243 4.33836e-07 8.46322 0.00711014 1.40845C0.00711014 1.17684 0.0355481 0.932707 0.135084 0.726134C0.334156 0.294209 0.739409 0.0625976 1.26553 0.0125194C1.37217 -1.9122e-07 1.47882 0.00625921 1.58546 0.00625921C5.97926 0.00625921 10.3659 0.00625978 14.7597 0C15.0583 0 15.2788 0.0751172 15.492 0.262911C16.8998 1.50861 18.3075 2.7543 19.7223 3.99374C19.9214 4.16901 20.0067 4.35681 19.9996 4.59468C19.9996 10.6103 19.9925 16.6197 19.9996 22.6354C19.9996 23.3365 19.6299 23.7809 18.8905 24C12.9681 23.9937 7.03861 23.9937 1.10911 23.9937ZM14.5393 0.794992C14.4256 0.794992 14.3545 0.794992 14.2834 0.794992C10.0318 0.794992 5.7873 0.794992 1.5357 0.794992C1.05935 0.794992 0.910042 0.932707 0.910042 1.36463C0.910042 8.44444 0.910042 15.5305 0.910042 22.6103C0.910042 23.0673 1.05935 23.1925 1.57835 23.1925C7.19502 23.1925 12.8117 23.1925 18.4212 23.1925C18.9402 23.1925 19.0824 23.0673 19.0824 22.6041C19.0824 16.7574 19.0824 10.9045 19.0824 5.0579C19.0824 4.97653 19.0753 4.89515 19.0682 4.78873C18.9331 4.78873 18.8336 4.78873 18.727 4.78873C17.7529 4.78873 16.7718 4.79499 15.7978 4.77621C15.1366 4.75743 14.6175 4.32551 14.5607 3.74335C14.518 3.25509 14.5322 2.76056 14.5322 2.2723C14.5393 1.7903 14.5393 1.30829 14.5393 0.794992ZM18.343 3.98748C17.3761 3.13615 16.4163 2.29734 15.4636 1.45853C15.4636 2.16588 15.4565 2.90454 15.4707 3.64319C15.4778 3.85602 15.6485 3.98748 15.8902 3.98748C16.7149 3.99374 17.5396 3.98748 18.343 3.98748Z" fill="#294922"/>
<path d="M7.73535 12.3813C7.73535 12.1121 7.73535 11.8742 7.73535 11.6113C10.757 11.6113 13.7644 11.6113 16.7931 11.6113C16.7931 11.8617 16.7931 12.1121 16.7931 12.3813C13.7857 12.3813 10.7712 12.3813 7.73535 12.3813Z" fill="#294922"/>
<path d="M16.8003 7.61133C16.8003 7.8805 16.8003 8.12463 16.8003 8.38128C13.7787 8.38128 10.7642 8.38128 7.74255 8.38128C7.74255 8.11837 7.74255 7.87424 7.74255 7.61133C10.7642 7.61133 13.7716 7.61133 16.8003 7.61133Z" fill="#294922"/>
<path d="M7.74255 16.3832C7.74255 16.1203 7.74255 15.8762 7.74255 15.6133C10.7713 15.6133 13.7787 15.6133 16.8003 15.6133C16.8003 15.8699 16.8003 16.1141 16.8003 16.3832C13.7929 16.3832 10.7784 16.3832 7.74255 16.3832Z" fill="#294922"/>
<path d="M16.8003 19.6055C16.8003 19.8746 16.8003 20.1188 16.8003 20.3754C13.7787 20.3754 10.7642 20.3754 7.74255 20.3754C7.74255 20.1125 7.74255 19.8684 7.74255 19.6055C10.7642 19.6055 13.7716 19.6055 16.8003 19.6055Z" fill="#294922"/>
<path d="M5.90811 11.9988C5.90811 12.6561 5.30378 13.1882 4.55726 13.1944C3.81785 13.1944 3.19931 12.6623 3.1922 12.0051C3.18509 11.3415 3.81074 10.7907 4.56437 10.7969C5.31089 10.8032 5.90811 11.3415 5.90811 11.9988ZM4.99806 11.9863C4.99095 11.7672 4.78477 11.5919 4.52882 11.6044C4.28709 11.6107 4.09513 11.7922 4.10224 11.9988C4.10935 12.2179 4.32264 12.3932 4.57148 12.3807C4.81321 12.3744 5.00517 12.1991 4.99806 11.9863Z" fill="#294922"/>
<path d="M5.90811 7.99249C5.90811 8.65603 5.31089 9.18811 4.56437 9.19437C3.80363 9.20063 3.18509 8.66229 3.1922 7.99249C3.19931 7.34147 3.81785 6.79688 4.55015 6.79688C5.28956 6.79688 5.90811 7.33521 5.90811 7.99249ZM4.55726 8.38686C4.79899 8.38686 4.99095 8.21158 4.99806 7.99875C5.00517 7.77966 4.78477 7.59187 4.54304 7.59187C4.31553 7.59813 4.10224 7.77966 4.09513 7.98623C4.09513 8.20533 4.30842 8.39312 4.55726 8.38686Z" fill="#294922"/>
<path d="M5.90811 15.9944C5.90811 16.6517 5.30378 17.1901 4.55726 17.1963C3.81785 17.2026 3.19931 16.658 3.1922 16.007C3.18509 15.3434 3.80363 14.7988 4.55726 14.7988C5.30378 14.8051 5.90811 15.3309 5.90811 15.9944ZM4.99806 15.9944C4.99806 15.7816 4.8061 15.6063 4.56437 15.6001C4.31553 15.5938 4.10224 15.7754 4.10224 15.9944C4.10224 16.1948 4.30842 16.3826 4.54304 16.3951C4.77766 16.4013 4.99806 16.2135 4.99806 15.9944Z" fill="#294922"/>
<path d="M5.90811 20.0008C5.90811 20.6643 5.30378 21.1901 4.55726 21.1901C3.79653 21.1901 3.18509 20.6455 3.1922 19.982C3.19931 19.331 3.82496 18.7926 4.56437 18.7989C5.30378 18.8051 5.90811 19.3435 5.90811 20.0008ZM4.99807 19.9945C4.99807 19.7879 4.79899 19.6064 4.56437 19.6001C4.32264 19.5939 4.10224 19.7879 4.10224 19.9945C4.10224 20.2011 4.30131 20.3826 4.54304 20.3889C4.78477 20.3951 4.99807 20.2136 4.99807 19.9945Z" fill="#294922"/>
<path d="M4.99806 11.9879C5.00517 12.2008 4.81321 12.3761 4.57148 12.3823C4.32264 12.3948 4.10224 12.2196 4.10224 12.0005C4.09513 11.7939 4.28709 11.6124 4.52882 11.6061C4.78477 11.5936 4.99096 11.7689 4.99806 11.9879Z" fill="white"/>
<path d="M4.55725 8.38889C4.30841 8.38889 4.09511 8.20736 4.10222 7.98826C4.10933 7.78795 4.31551 7.60016 4.55014 7.5939C4.79186 7.58764 5.00516 7.78169 5.00516 8.00078C4.99094 8.21362 4.79898 8.38889 4.55725 8.38889Z" fill="white"/>
<path d="M4.99815 15.9926C4.99815 16.2117 4.77775 16.3995 4.53602 16.3869C4.3014 16.3807 4.09521 16.1929 4.09521 15.9863C4.09521 15.7735 4.31562 15.5857 4.55735 15.5919C4.80619 15.6107 4.99815 15.786 4.99815 15.9926Z" fill="white"/>
<path d="M4.99815 19.9926C4.99815 20.2117 4.78486 20.3932 4.53602 20.387C4.3014 20.3807 4.09521 20.1992 4.09521 19.9926C4.09521 19.7798 4.32273 19.5857 4.55735 19.5982C4.79908 19.6045 4.99815 19.786 4.99815 19.9926Z" fill="white"/>
</svg>
