<svg width="375" height="218" viewBox="0 0 375 218" fill="none" xmlns="http://www.w3.org/2000/svg">
<g clip-path="url(#clip0_3508_3565)">
<path d="M0 0H375V198C375 209.046 366.046 218 355 218H20C8.95431 218 0 209.046 0 198V0Z" fill="white"/>
<path d="M0 0H375V203C375 211.284 368.284 218 360 218H15C6.71574 218 0 211.284 0 203V0Z" fill="#0CDA7B"/>
<path opacity="0.3" d="M-17 -17V167.665C70.4801 174.061 20.5973 86.4937 210.934 103.743C401.271 120.992 218.99 8.07438 339 -17H-17Z" fill="#1EF490" stroke="#DEF4EA"/>
<path opacity="0.3" d="M-51 -42V142.665C36.4801 149.061 -13.4027 61.4937 176.934 78.7426C367.271 95.9915 184.99 -16.9256 305 -42H-51Z" fill="#69F2B2" stroke="#F7FFFB"/>
<path opacity="0.3" d="M-1 3V187.665C86.4801 194.061 36.5973 106.494 226.934 123.743C417.271 140.992 234.99 28.0744 355 3H-1Z" fill="#27F494" stroke="#9BDFBF"/>
<path d="M120.553 115.804C119.437 115.804 118.423 115.638 117.51 115.304C116.597 114.971 115.814 114.493 115.162 113.87C114.517 113.246 114.017 112.486 113.662 111.587C113.307 110.696 113.129 109.688 113.129 108.565C113.129 107.413 113.296 106.272 113.629 105.141C113.97 104.011 114.477 102.938 115.151 101.924L117.292 103.478C117.162 103.659 116.999 103.928 116.803 104.283C116.615 104.638 116.434 105.047 116.26 105.511C116.086 105.975 115.934 106.475 115.803 107.011C115.68 107.547 115.619 108.087 115.619 108.63C115.619 109.275 115.753 109.862 116.021 110.391C116.296 110.92 116.666 111.373 117.129 111.75C117.593 112.134 118.129 112.431 118.738 112.641C119.354 112.859 120.003 112.975 120.684 112.989C120.72 112.989 120.756 112.989 120.792 112.989C121.3 112.989 121.796 112.938 122.282 112.837C122.774 112.743 123.242 112.594 123.684 112.391C124.126 112.196 124.528 111.957 124.89 111.674C125.253 111.391 125.561 111.076 125.814 110.728C126.068 110.38 126.263 110.004 126.401 109.598C126.51 109.25 126.564 108.888 126.564 108.511C126.564 108.453 126.564 108.391 126.564 108.326C126.55 107.993 126.492 107.623 126.39 107.217C126.296 106.804 126.18 106.388 126.042 105.967C125.905 105.547 125.756 105.138 125.597 104.739C125.445 104.333 125.3 103.975 125.162 103.663C125.024 103.351 124.908 103.101 124.814 102.913C124.72 102.725 124.669 102.63 124.662 102.63L127.216 101.207C127.238 101.236 127.296 101.355 127.39 101.565C127.485 101.775 127.597 102.051 127.727 102.391C127.858 102.732 127.999 103.123 128.151 103.565C128.303 104 128.445 104.464 128.575 104.957C128.713 105.442 128.829 105.938 128.923 106.446C129.024 106.953 129.086 107.438 129.108 107.902C129.115 108.062 129.119 108.217 129.119 108.37C129.119 108.87 129.068 109.402 128.966 109.967C128.865 110.54 128.673 111.12 128.39 111.707C128.115 112.293 127.749 112.837 127.292 113.337C126.836 113.837 126.285 114.268 125.64 114.63C125.003 115 124.26 115.286 123.412 115.489C122.564 115.699 121.611 115.804 120.553 115.804ZM123.292 100.967L121.206 103.054L119.129 100.967L121.206 98.8913L123.292 100.967ZM134.156 91.0326C134.337 92.4167 134.464 93.7391 134.536 95C134.609 96.2536 134.652 97.4819 134.667 98.6848C134.681 99.7065 134.685 100.652 134.678 101.522C134.678 102.391 134.67 103.203 134.656 103.957C134.641 104.703 134.62 105.402 134.591 106.054C134.562 106.699 134.533 107.304 134.504 107.87L131.656 108.304C131.808 105.913 131.884 103.801 131.884 101.967C131.884 101.228 131.873 100.536 131.852 99.8913C131.794 98.4058 131.728 97.0109 131.656 95.7065C131.583 94.3949 131.486 93.1413 131.362 91.9457L134.156 91.0326ZM144.806 108.326H144.469C144.281 108.326 144.042 108.304 143.752 108.261C143.469 108.217 143.158 108.087 142.817 107.87C142.723 108.783 142.444 109.656 141.98 110.489C141.516 111.33 140.933 112.116 140.23 112.848C139.534 113.58 138.748 114.25 137.871 114.859C137.002 115.467 136.107 116 135.187 116.457L133.969 113.946C134.476 113.685 134.987 113.402 135.502 113.098C136.009 112.793 136.494 112.467 136.958 112.12C137.422 111.772 137.853 111.409 138.252 111.033C138.658 110.656 139.005 110.261 139.295 109.848C139.592 109.435 139.824 109.011 139.991 108.576C140.165 108.141 140.252 107.696 140.252 107.239C140.252 106.913 140.205 106.554 140.11 106.163C140.016 105.764 139.897 105.351 139.752 104.924C139.607 104.496 139.451 104.065 139.284 103.63C139.118 103.188 138.965 102.761 138.828 102.348L141.437 101.261C141.719 102.109 141.976 102.812 142.208 103.37C142.447 103.92 142.679 104.359 142.904 104.685C143.136 105.004 143.375 105.228 143.621 105.359C143.875 105.482 144.161 105.543 144.48 105.543H144.817L144.806 108.326ZM144.636 105.543C145.397 105.543 146.129 105.522 146.831 105.478C147.534 105.428 148.176 105.359 148.755 105.272C149.335 105.185 149.835 105.08 150.255 104.957C150.676 104.833 150.991 104.696 151.201 104.543H150.092C149.455 104.543 148.846 104.464 148.266 104.304C147.694 104.138 147.19 103.891 146.755 103.565C146.321 103.239 145.973 102.833 145.712 102.348C145.458 101.855 145.331 101.283 145.331 100.63C145.331 100.246 145.371 99.8514 145.451 99.4457C145.531 99.0399 145.65 98.6449 145.81 98.2609C145.969 97.8768 146.161 97.5145 146.386 97.1739C146.61 96.8333 146.868 96.5362 147.158 96.2826C147.447 96.0217 147.766 95.8188 148.114 95.6739C148.462 95.5217 148.839 95.4457 149.244 95.4457C149.744 95.4457 150.212 95.5507 150.647 95.7609C151.081 95.971 151.476 96.2572 151.831 96.6196C152.186 96.9746 152.502 97.3877 152.777 97.8587C153.052 98.3297 153.284 98.8261 153.473 99.3478C153.661 99.8696 153.802 100.402 153.897 100.946C153.998 101.482 154.049 101.993 154.049 102.478C154.049 103.304 153.933 104.022 153.701 104.63C153.476 105.239 153.158 105.761 152.744 106.196C152.339 106.63 151.85 106.986 151.277 107.261C150.712 107.536 150.085 107.754 149.397 107.913C148.708 108.072 147.969 108.181 147.179 108.239C146.397 108.297 145.585 108.326 144.744 108.326H144.375V105.543H144.636ZM149.244 98.25C149.208 98.2428 149.172 98.2391 149.136 98.2391C148.991 98.2391 148.824 98.2971 148.636 98.413C148.447 98.529 148.266 98.6957 148.092 98.913C147.918 99.1304 147.777 99.3768 147.668 99.6522C147.56 99.9203 147.505 100.185 147.505 100.446C147.505 100.46 147.505 100.475 147.505 100.489C147.505 100.75 147.563 100.964 147.679 101.13C147.795 101.29 147.951 101.413 148.147 101.5C148.35 101.587 148.581 101.649 148.842 101.685C149.11 101.721 149.393 101.746 149.69 101.761C149.886 101.768 150.089 101.772 150.299 101.772C150.4 101.772 150.556 101.772 150.766 101.772C150.984 101.764 151.205 101.754 151.429 101.739C151.364 101.478 151.27 101.156 151.147 100.772C151.031 100.38 150.882 100.004 150.701 99.6413C150.527 99.2717 150.317 98.9529 150.071 98.6848C149.831 98.4167 149.556 98.2717 149.244 98.25ZM151.244 91.913L149.158 94L147.081 91.913L149.158 89.837L151.244 91.913ZM161.846 108.326H161.411C159.94 108.326 158.824 107.957 158.064 107.217C157.303 106.478 156.919 105.362 156.911 103.87C156.911 103.638 156.919 103.257 156.933 102.728C156.948 102.192 156.955 101.54 156.955 100.772C156.955 100.315 156.951 99.8261 156.944 99.3043C156.937 98.7754 156.926 98.2391 156.911 97.6957C156.897 97.1449 156.875 96.5978 156.846 96.0543C156.824 95.5036 156.795 94.9746 156.759 94.4674C156.723 93.9529 156.68 93.4746 156.629 93.0326C156.578 92.5833 156.52 92.1884 156.455 91.8478L159.183 91.0326C159.263 91.4529 159.335 91.9674 159.401 92.5761C159.466 93.1775 159.524 93.8225 159.574 94.5109C159.625 95.1993 159.661 95.9022 159.683 96.6196C159.712 97.3297 159.727 98 159.727 98.6304C159.727 99.0145 159.73 99.4239 159.737 99.8587C159.745 100.286 159.748 100.663 159.748 100.989C159.748 101.264 159.745 101.525 159.737 101.772C159.737 102.011 159.734 102.243 159.727 102.467C159.727 102.692 159.723 102.913 159.716 103.13C159.716 103.348 159.716 103.569 159.716 103.793C159.716 103.851 159.716 103.909 159.716 103.967C159.716 104.228 159.741 104.46 159.792 104.663C159.85 104.866 159.948 105.036 160.085 105.174C160.223 105.304 160.397 105.399 160.607 105.457C160.824 105.514 161.074 105.543 161.357 105.543H161.846V108.326ZM161.872 105.543C162.242 105.543 162.59 105.471 162.916 105.326C163.249 105.174 163.564 104.906 163.862 104.522C164.166 104.13 164.449 103.598 164.709 102.924C164.978 102.25 165.231 101.388 165.47 100.337L168.133 101.087C167.959 101.688 167.804 102.268 167.666 102.826C167.528 103.377 167.452 103.851 167.438 104.25C167.438 104.286 167.438 104.319 167.438 104.348C167.438 104.478 167.449 104.616 167.47 104.761C167.499 104.906 167.546 105.04 167.612 105.163C167.677 105.286 167.764 105.384 167.872 105.457C167.974 105.522 168.086 105.554 168.209 105.554C168.224 105.554 168.238 105.554 168.253 105.554C168.521 105.547 168.775 105.449 169.014 105.261C169.253 105.072 169.474 104.83 169.677 104.533C169.887 104.236 170.075 103.899 170.242 103.522C170.416 103.145 170.568 102.764 170.699 102.38C170.836 101.989 170.952 101.609 171.046 101.239C171.141 100.87 171.213 100.543 171.264 100.261L173.829 100.783C173.735 101.217 173.659 101.62 173.601 101.989C173.543 102.351 173.506 102.717 173.492 103.087C173.485 103.181 173.481 103.275 173.481 103.37C173.481 103.551 173.492 103.764 173.514 104.011C173.543 104.25 173.604 104.486 173.699 104.717C173.793 104.949 173.923 105.141 174.09 105.293C174.264 105.438 174.488 105.511 174.764 105.511C175.075 105.511 175.325 105.391 175.514 105.152C175.709 104.906 175.858 104.594 175.959 104.217C176.061 103.841 176.126 103.424 176.155 102.967C176.191 102.504 176.209 102.054 176.209 101.62C176.209 101.482 176.206 101.373 176.199 101.293C176.199 101.207 176.199 101.127 176.199 101.054C176.199 100.982 176.195 100.902 176.188 100.815C176.188 100.721 176.188 100.594 176.188 100.435L178.938 100.217C178.959 100.457 178.981 100.692 179.003 100.924C179.025 101.149 179.046 101.384 179.068 101.63C179.09 101.87 179.115 102.127 179.144 102.402C179.18 102.67 179.22 102.964 179.264 103.283C179.314 103.659 179.42 103.989 179.579 104.272C179.746 104.554 179.938 104.79 180.155 104.978C180.372 105.167 180.604 105.308 180.851 105.402C181.104 105.496 181.343 105.543 181.568 105.543H181.97V108.326H181.622C181.267 108.326 180.916 108.29 180.568 108.217C180.228 108.145 179.901 108.033 179.59 107.88C179.278 107.728 178.985 107.536 178.709 107.304C178.441 107.065 178.206 106.783 178.003 106.457C177.655 107.022 177.199 107.475 176.633 107.815C176.068 108.156 175.445 108.326 174.764 108.326C174.083 108.326 173.463 108.163 172.905 107.837C172.354 107.511 171.916 107.076 171.59 106.533C171.38 106.801 171.151 107.047 170.905 107.272C170.666 107.489 170.405 107.681 170.122 107.848C169.847 108.007 169.554 108.13 169.242 108.217C168.93 108.312 168.604 108.359 168.264 108.359C167.938 108.359 167.622 108.315 167.318 108.228C167.014 108.149 166.731 108.029 166.47 107.87C166.209 107.71 165.974 107.518 165.764 107.293C165.554 107.062 165.38 106.804 165.242 106.522C164.88 107.159 164.434 107.62 163.905 107.902C163.376 108.185 162.702 108.326 161.883 108.326H161.416V105.543H161.872ZM181.75 105.543C182.279 105.543 182.74 105.446 183.131 105.25C183.522 105.047 183.866 104.786 184.164 104.467C184.468 104.149 184.732 103.79 184.957 103.391C185.189 102.993 185.406 102.594 185.609 102.196C185.812 101.775 186.033 101.359 186.272 100.946C186.511 100.533 186.783 100.163 187.087 99.837C187.392 99.5036 187.74 99.2355 188.131 99.0326C188.522 98.8225 188.975 98.7174 189.49 98.7174C189.953 98.7174 190.377 98.7899 190.761 98.9348C191.153 99.0725 191.5 99.2681 191.805 99.5217C192.116 99.7681 192.388 100.058 192.62 100.391C192.852 100.717 193.044 101.072 193.196 101.457C193.348 101.833 193.461 102.225 193.533 102.63C193.613 103.036 193.653 103.438 193.653 103.837C193.653 104.207 193.62 104.565 193.555 104.913C193.497 105.261 193.406 105.598 193.283 105.924C193.145 106.272 192.964 106.587 192.74 106.87C192.522 107.152 192.272 107.395 191.99 107.598C191.707 107.793 191.403 107.946 191.077 108.054C190.75 108.163 190.41 108.217 190.055 108.217C189.75 108.217 189.428 108.178 189.087 108.098C188.754 108.025 188.414 107.924 188.066 107.793C187.914 107.728 187.743 107.652 187.555 107.565C187.366 107.471 187.174 107.37 186.979 107.261C186.783 107.152 186.587 107.04 186.392 106.924C186.203 106.801 186.026 106.681 185.859 106.565C185.287 107.13 184.671 107.565 184.011 107.87C183.359 108.174 182.606 108.326 181.75 108.326H181.533V105.543H181.75ZM187.49 104.272C187.685 104.402 187.928 104.547 188.218 104.707C188.515 104.866 188.823 105.011 189.142 105.141C189.461 105.272 189.776 105.37 190.087 105.435C190.261 105.478 190.421 105.5 190.566 105.5C190.682 105.5 190.787 105.486 190.881 105.457C190.953 105.442 191.029 105.399 191.109 105.326C191.196 105.246 191.272 105.141 191.337 105.011C191.41 104.88 191.468 104.728 191.511 104.554C191.54 104.409 191.555 104.25 191.555 104.076C191.555 104.04 191.555 104.004 191.555 103.967C191.555 103.641 191.497 103.315 191.381 102.989C191.272 102.656 191.12 102.362 190.924 102.109C190.729 101.855 190.497 101.659 190.229 101.522C190.048 101.435 189.852 101.391 189.642 101.391C189.54 101.391 189.435 101.402 189.327 101.424C189.225 101.446 189.124 101.504 189.022 101.598C188.928 101.685 188.812 101.837 188.674 102.054C188.537 102.264 188.374 102.551 188.185 102.913C187.997 103.268 187.765 103.721 187.49 104.272ZM226.968 108.326C226.367 108.326 225.819 108.275 225.327 108.174C224.841 108.072 224.399 107.913 224.001 107.696C223.602 107.471 223.247 107.188 222.935 106.848C222.624 106.5 222.348 106.083 222.109 105.598C220.117 107.438 217.135 108.359 213.164 108.359C210.896 108.344 209.019 108.065 207.533 107.522C206.055 106.971 204.964 106.127 204.261 104.989C203.957 104.446 203.747 103.88 203.631 103.293C203.544 102.866 203.501 102.438 203.501 102.011C203.501 101.844 203.511 101.572 203.533 101.196C203.562 100.819 203.667 100.348 203.848 99.7826C204.03 99.2101 204.269 98.6703 204.566 98.163L206.664 99.4783C206.454 99.8261 206.28 100.174 206.142 100.522C206.004 100.87 205.917 101.217 205.881 101.565C205.867 101.696 205.859 101.826 205.859 101.957C205.859 102.174 205.885 102.424 205.935 102.707C205.993 102.989 206.131 103.301 206.348 103.641C206.551 103.982 206.859 104.272 207.272 104.511C207.685 104.75 208.185 104.946 208.772 105.098C209.367 105.25 210.033 105.362 210.772 105.435C211.511 105.507 212.309 105.543 213.164 105.543C213.939 105.543 214.675 105.514 215.37 105.457C216.066 105.399 216.711 105.308 217.305 105.185C217.906 105.054 218.45 104.891 218.935 104.696C219.421 104.493 219.838 104.246 220.185 103.957C220.504 103.71 220.761 103.424 220.957 103.098C221.153 102.772 221.316 102.431 221.446 102.076C221.577 101.714 221.685 101.344 221.772 100.967C221.859 100.591 221.954 100.228 222.055 99.8804L224.555 100.554C224.417 100.938 224.309 101.33 224.229 101.728C224.156 102.091 224.12 102.442 224.12 102.783C224.12 102.819 224.12 102.938 224.12 103.141C224.12 103.337 224.171 103.598 224.272 103.924C224.374 104.243 224.537 104.525 224.761 104.772C224.986 105.011 225.28 105.199 225.642 105.337C226.011 105.475 226.461 105.543 226.99 105.543H227.381V108.326H226.968ZM213.87 97.2826L212.022 99.1304L210.153 97.2717L212.001 95.413L213.87 97.2826ZM217.979 97.2935L216.131 99.1522L214.261 97.2826L216.109 95.4348L217.979 97.2935ZM227.4 105.543C227.769 105.543 228.117 105.471 228.443 105.326C228.777 105.174 229.092 104.906 229.389 104.522C229.693 104.13 229.976 103.598 230.237 102.924C230.505 102.25 230.758 101.388 230.998 100.337L233.661 101.087C233.487 101.688 233.331 102.268 233.193 102.826C233.056 103.377 232.979 103.851 232.965 104.25C232.965 104.286 232.965 104.319 232.965 104.348C232.965 104.478 232.976 104.616 232.998 104.761C233.027 104.906 233.074 105.04 233.139 105.163C233.204 105.286 233.291 105.384 233.4 105.457C233.501 105.522 233.614 105.554 233.737 105.554C233.751 105.554 233.766 105.554 233.78 105.554C234.048 105.547 234.302 105.449 234.541 105.261C234.78 105.072 235.001 104.83 235.204 104.533C235.414 104.236 235.603 103.899 235.769 103.522C235.943 103.145 236.095 102.764 236.226 102.38C236.364 101.989 236.479 101.609 236.574 101.239C236.668 100.87 236.74 100.543 236.791 100.261L239.356 100.783C239.262 101.217 239.186 101.62 239.128 101.989C239.07 102.351 239.034 102.717 239.019 103.087C239.012 103.181 239.008 103.275 239.008 103.37C239.008 103.551 239.019 103.764 239.041 104.011C239.07 104.25 239.132 104.486 239.226 104.717C239.32 104.949 239.45 105.141 239.617 105.293C239.791 105.438 240.016 105.511 240.291 105.511C240.603 105.511 240.853 105.391 241.041 105.152C241.237 104.906 241.385 104.594 241.487 104.217C241.588 103.841 241.653 103.424 241.682 102.967C241.719 102.504 241.737 102.054 241.737 101.62C241.737 101.482 241.733 101.373 241.726 101.293C241.726 101.207 241.726 101.127 241.726 101.054C241.726 100.982 241.722 100.902 241.715 100.815C241.715 100.721 241.715 100.594 241.715 100.435L244.465 100.217C244.487 100.457 244.508 100.692 244.53 100.924C244.552 101.149 244.574 101.384 244.595 101.63C244.617 101.87 244.643 102.127 244.672 102.402C244.708 102.67 244.748 102.964 244.791 103.283C244.842 103.659 244.947 103.989 245.106 104.272C245.273 104.554 245.465 104.79 245.682 104.978C245.9 105.167 246.132 105.308 246.378 105.402C246.632 105.496 246.871 105.543 247.095 105.543H247.498V108.326H247.15C246.795 108.326 246.443 108.29 246.095 108.217C245.755 108.145 245.429 108.033 245.117 107.88C244.806 107.728 244.512 107.536 244.237 107.304C243.969 107.065 243.733 106.783 243.53 106.457C243.182 107.022 242.726 107.475 242.161 107.815C241.595 108.156 240.972 108.326 240.291 108.326C239.61 108.326 238.99 108.163 238.432 107.837C237.882 107.511 237.443 107.076 237.117 106.533C236.907 106.801 236.679 107.047 236.432 107.272C236.193 107.489 235.932 107.681 235.65 107.848C235.374 108.007 235.081 108.13 234.769 108.217C234.458 108.312 234.132 108.359 233.791 108.359C233.465 108.359 233.15 108.315 232.845 108.228C232.541 108.149 232.258 108.029 231.998 107.87C231.737 107.71 231.501 107.518 231.291 107.293C231.081 107.062 230.907 106.804 230.769 106.522C230.407 107.159 229.961 107.62 229.432 107.902C228.903 108.185 228.229 108.326 227.411 108.326H226.943V105.543H227.4ZM256.756 105.543V108.326H256.539C255.836 108.326 255.242 108.214 254.756 107.989C254.271 107.764 253.858 107.475 253.517 107.12C253.278 107.424 252.923 107.659 252.452 107.826C251.988 107.986 251.47 108.101 250.897 108.174C250.325 108.254 249.734 108.297 249.126 108.304C248.524 108.319 247.97 108.326 247.463 108.326H247.06V105.543H247.463C248.31 105.543 249.024 105.496 249.604 105.402C250.184 105.301 250.651 105.156 251.006 104.967C251.368 104.779 251.629 104.543 251.789 104.261C251.948 103.971 252.028 103.638 252.028 103.261C252.028 103.014 251.981 102.688 251.887 102.283C251.792 101.87 251.651 101.341 251.463 100.696L254.137 99.9457C254.231 100.264 254.303 100.547 254.354 100.793C254.412 101.033 254.455 101.275 254.484 101.522C254.521 101.761 254.55 102.022 254.571 102.304C254.6 102.58 254.629 102.909 254.658 103.293C254.68 103.525 254.734 103.775 254.821 104.043C254.908 104.304 255.028 104.547 255.18 104.772C255.339 104.989 255.531 105.174 255.756 105.326C255.981 105.471 256.242 105.543 256.539 105.543H256.756ZM251.104 111.543L249.256 113.391L247.387 111.533L249.234 109.674L251.104 111.543ZM255.213 111.554L253.365 113.413L251.495 111.543L253.343 109.696L255.213 111.554ZM256.313 105.543H257.139C257.538 105.543 257.868 105.5 258.129 105.413C258.389 105.319 258.592 105.174 258.737 104.978C258.882 104.783 258.98 104.533 259.031 104.228C259.089 103.917 259.118 103.543 259.118 103.109C259.118 102.942 259.118 102.743 259.118 102.511C259.125 102.279 259.125 101.967 259.118 101.576C259.118 101.178 259.103 100.678 259.074 100.076C259.045 99.4674 258.998 98.7065 258.933 97.7935C258.904 97.0181 258.871 96.2754 258.835 95.5652C258.799 94.8551 258.763 94.221 258.726 93.663C258.697 93.1051 258.668 92.6449 258.639 92.2826C258.618 91.9203 258.603 91.6993 258.596 91.6196L261.335 91.0326C261.415 91.8877 261.487 92.8841 261.553 94.0217C261.625 95.1594 261.69 96.3841 261.748 97.6957C261.777 98.6812 261.803 99.4928 261.824 100.13C261.846 100.761 261.864 101.286 261.879 101.707C261.9 102.12 261.915 102.46 261.922 102.728C261.929 102.989 261.933 103.243 261.933 103.489C261.933 104.236 261.839 104.909 261.65 105.511C261.462 106.105 261.172 106.612 260.781 107.033C260.389 107.446 259.893 107.764 259.292 107.989C258.69 108.214 257.973 108.326 257.139 108.326H256.313V105.543Z" fill="white"/>
</g>
<defs>
<clipPath id="clip0_3508_3565">
<path d="M0 0H375V198C375 209.046 366.046 218 355 218H20C8.95431 218 0 209.046 0 198V0Z" fill="white"/>
</clipPath>
</defs>
</svg>
