<svg width="20" height="24" viewBox="0 0 20 24" fill="none" xmlns="http://www.w3.org/2000/svg">
<path d="M0.5 20.1935C0.5 18.9299 1.46282 17.6013 3.2225 16.5581C4.96045 15.5278 7.37143 14.8477 10.0029 14.8477C12.6196 14.8477 15.0295 15.5264 16.7702 16.5546C18.5335 17.5962 19.5 18.921 19.5 20.1777C19.5 20.793 19.2734 21.2844 18.8483 21.6969C18.4098 22.1226 17.7471 22.4747 16.874 22.7503C15.1253 23.3021 12.6897 23.4993 10.0029 23.4993C7.31511 23.4993 4.87793 23.3086 3.12755 22.7617C2.25367 22.4887 1.5907 22.1387 1.15202 21.7142C0.727145 21.303 0.5 20.8117 0.5 20.1935Z" stroke="white"/>
<path d="M14.199 9.49174C13.1139 10.4662 11.6416 11.0258 10.094 11.0388H10.0573C8.51738 10.9901 7.06774 10.4015 6.01228 9.41015C4.95667 8.41871 4.37946 7.10513 4.38493 5.75094C4.3904 4.39672 4.97824 3.08676 6.04208 2.10209C7.10612 1.11724 8.56133 0.538112 10.1022 0.5H10.2962C11.8397 0.560598 13.287 1.16332 14.3334 2.16697C15.3804 3.17111 15.9424 4.49466 15.9177 5.8528C15.893 7.2111 15.283 8.51827 14.199 9.49174Z" stroke="white"/>
</svg>
