<svg width="24" height="24" viewBox="0 0 24 24" fill="none" xmlns="http://www.w3.org/2000/svg">
<path d="M0 12.7041C0 12.2346 0 11.7652 0 11.2957C0.0117364 11.2311 0.0352092 11.1607 0.0410774 11.0903C0.158442 9.41786 0.592691 7.82757 1.41424 6.36639C3.62656 2.43467 6.99492 0.298641 11.4959 0.0228341C13.6495 -0.112135 15.7151 0.351455 17.6047 1.40774C21.554 3.60832 23.6959 6.98255 23.9776 11.4952C24.1125 13.6606 23.6372 15.7203 22.5868 17.6275C20.7266 21.0135 17.8863 23.0791 14.0896 23.8067C13.6319 23.8948 13.1624 23.9359 12.7047 23.9945C12.2352 23.9945 11.7658 23.9945 11.2963 23.9945C11.2377 23.9828 11.179 23.9593 11.1144 23.9535C9.43024 23.842 7.83995 23.396 6.36702 22.5803C2.98693 20.7142 0.921311 17.8798 0.187783 14.0831C0.0997596 13.6312 0.0645505 13.1618 0 12.7041ZM5.17577 19.9455C9.43024 23.6248 15.7973 23.2903 19.6644 19.1474C23.6372 14.887 23.1149 8.70194 19.9402 5.18687C15.0168 10.0986 10.0992 15.0161 5.17577 19.9455ZM18.8311 4.06604C14.6119 0.404268 7.86929 0.592052 3.94345 5.29837C0.105628 9.89906 1.2734 15.8318 4.07842 18.8129C8.99012 13.9012 13.9077 8.98948 18.8311 4.06604Z" fill="#294922"/>
</svg>
