<svg width="375" height="218" viewBox="0 0 375 218" fill="none" xmlns="http://www.w3.org/2000/svg">
<g clip-path="url(#clip0_3508_3374)">
<path d="M0 0H375V198C375 209.046 366.046 218 355 218H20C8.95431 218 0 209.046 0 198V0Z" fill="white"/>
<path d="M0 0H375V203C375 211.284 368.284 218 360 218H15C6.71574 218 0 211.284 0 203V0Z" fill="#0CDA7B"/>
<path opacity="0.3" d="M-17 -17V167.665C70.4801 174.061 20.5973 86.4937 210.934 103.743C401.271 120.992 218.99 8.07438 339 -17H-17Z" fill="#1EF490" stroke="#DEF4EA"/>
<path opacity="0.3" d="M-51 -42V142.665C36.4801 149.061 -13.4027 61.4937 176.934 78.7426C367.271 95.9915 184.99 -16.9256 305 -42H-51Z" fill="#69F2B2" stroke="#F7FFFB"/>
<path opacity="0.3" d="M-1 3V187.665C86.4801 194.061 36.5973 106.494 226.934 123.743C417.271 140.992 234.99 28.0744 355 3H-1Z" fill="#27F494" stroke="#9BDFBF"/>
<path d="M164.264 108.326H163.927C163.739 108.326 163.5 108.304 163.21 108.261C162.927 108.217 162.616 108.087 162.275 107.87C162.181 108.783 161.902 109.656 161.438 110.489C160.974 111.33 160.391 112.116 159.688 112.848C158.992 113.58 158.206 114.25 157.329 114.859C156.46 115.467 155.565 116 154.645 116.457L153.427 113.946C153.934 113.685 154.445 113.402 154.96 113.098C155.467 112.793 155.952 112.467 156.416 112.12C156.88 111.772 157.311 111.409 157.71 111.033C158.116 110.656 158.463 110.261 158.753 109.848C159.05 109.435 159.282 109.011 159.449 108.576C159.623 108.141 159.71 107.696 159.71 107.239C159.71 106.913 159.663 106.554 159.568 106.163C159.474 105.764 159.355 105.351 159.21 104.924C159.065 104.496 158.909 104.065 158.742 103.63C158.576 103.188 158.423 102.761 158.286 102.348L160.895 101.261C161.177 102.109 161.434 102.812 161.666 103.37C161.905 103.92 162.137 104.359 162.362 104.685C162.594 105.004 162.833 105.228 163.079 105.359C163.333 105.482 163.619 105.543 163.938 105.543H164.275L164.264 108.326ZM163.833 105.543H164.05C164.521 105.543 164.989 105.543 165.452 105.543C165.923 105.543 166.322 105.525 166.648 105.489C166.503 105.395 166.344 105.261 166.17 105.087C165.996 104.906 165.833 104.696 165.681 104.457C165.536 104.21 165.409 103.935 165.3 103.63C165.199 103.319 165.144 102.978 165.137 102.609C165.13 102.514 165.126 102.42 165.126 102.326C165.126 102.029 165.166 101.699 165.246 101.337C165.333 100.967 165.471 100.591 165.659 100.207C165.855 99.8225 166.09 99.4638 166.366 99.1304C166.641 98.7899 166.945 98.4964 167.279 98.25C167.612 97.9964 167.971 97.8007 168.355 97.663C168.695 97.5399 169.047 97.4783 169.409 97.4783C169.452 97.4783 169.492 97.4783 169.529 97.4783C170.116 97.5 170.659 97.6522 171.159 97.9348C171.666 98.2101 172.105 98.5688 172.474 99.0109C172.844 99.4529 173.134 99.9565 173.344 100.522C173.554 101.08 173.659 101.652 173.659 102.239C173.659 102.804 173.554 103.351 173.344 103.88C173.141 104.402 172.876 104.891 172.55 105.348C172.898 105.406 173.275 105.453 173.681 105.489C174.094 105.525 174.485 105.543 174.855 105.543H175.148V108.326H174.931C174.373 108.326 173.833 108.315 173.311 108.293C172.797 108.279 172.311 108.239 171.855 108.174C171.398 108.109 170.971 108.018 170.572 107.902C170.181 107.779 169.833 107.612 169.529 107.402C169.311 107.562 169 107.699 168.594 107.815C168.195 107.931 167.746 108.025 167.246 108.098C166.746 108.178 166.217 108.236 165.659 108.272C165.108 108.308 164.572 108.326 164.05 108.326H163.833V105.543ZM169.496 100.228C169.308 100.264 169.09 100.341 168.844 100.457C168.605 100.565 168.376 100.721 168.159 100.924C167.949 101.12 167.768 101.362 167.616 101.652C167.471 101.942 167.398 102.286 167.398 102.685C167.398 102.815 167.46 102.986 167.583 103.196C167.706 103.399 167.869 103.605 168.072 103.815C168.275 104.018 168.507 104.21 168.768 104.391C169.029 104.565 169.297 104.688 169.572 104.761C169.789 104.652 170 104.511 170.202 104.337C170.413 104.163 170.597 103.975 170.757 103.772C170.916 103.562 171.043 103.348 171.137 103.13C171.239 102.906 171.289 102.692 171.289 102.489C171.289 102.207 171.228 101.938 171.105 101.685C170.989 101.424 170.84 101.192 170.659 100.989C170.478 100.786 170.282 100.62 170.072 100.489C169.869 100.351 169.677 100.264 169.496 100.228ZM171.496 93.5435L169.409 95.6304L167.333 93.5435L169.409 91.4674L171.496 93.5435ZM175.156 105.543C175.555 105.543 175.91 105.457 176.222 105.283C176.54 105.109 176.819 104.877 177.059 104.587C177.305 104.297 177.519 103.967 177.7 103.598C177.888 103.228 178.051 102.848 178.189 102.457C178.327 102.065 178.446 101.681 178.548 101.304C178.649 100.92 178.74 100.576 178.819 100.272L181.537 100.87C181.472 101.072 181.385 101.333 181.276 101.652C181.167 101.964 181.062 102.297 180.961 102.652C180.867 103 180.787 103.351 180.722 103.707C180.671 103.975 180.645 104.225 180.645 104.457C180.645 104.529 180.653 104.656 180.667 104.837C180.682 105.018 180.754 105.199 180.885 105.38C181.022 105.554 181.243 105.641 181.548 105.641C181.874 105.641 182.167 105.551 182.428 105.37C182.689 105.181 182.921 104.938 183.124 104.641C183.334 104.337 183.515 103.993 183.667 103.609C183.827 103.225 183.961 102.833 184.069 102.435C184.185 102.029 184.28 101.634 184.352 101.25C184.432 100.866 184.493 100.522 184.537 100.217L187.08 100.707C187.059 100.88 187.026 101.087 186.982 101.326C186.946 101.565 186.906 101.826 186.863 102.109C186.819 102.384 186.776 102.674 186.732 102.978C186.696 103.283 186.667 103.587 186.645 103.891C186.645 103.949 186.645 104.007 186.645 104.065C186.645 104.239 186.664 104.42 186.7 104.609C186.736 104.79 186.812 104.964 186.928 105.13C187.044 105.29 187.196 105.42 187.385 105.522C187.573 105.616 187.805 105.667 188.08 105.674C188.595 105.674 189.015 105.543 189.341 105.283C189.667 105.022 189.83 104.623 189.83 104.087C189.83 103.696 189.776 103.272 189.667 102.815C189.566 102.359 189.439 101.913 189.287 101.478C189.142 101.043 188.986 100.634 188.819 100.25C188.653 99.8659 188.508 99.5471 188.385 99.2935L190.722 97.9891C190.765 98.0688 190.834 98.2138 190.928 98.4239C191.03 98.6341 191.142 98.8949 191.265 99.2065C191.395 99.5109 191.526 99.8551 191.656 100.239C191.787 100.623 191.906 101.029 192.015 101.457C192.131 101.877 192.222 102.308 192.287 102.75C192.359 103.192 192.395 103.627 192.395 104.054C192.395 104.728 192.29 105.337 192.08 105.88C191.877 106.424 191.573 106.888 191.167 107.272C190.769 107.656 190.276 107.949 189.689 108.152C189.124 108.355 188.475 108.457 187.743 108.457C187.722 108.457 187.696 108.457 187.667 108.457C187.638 108.457 187.613 108.457 187.591 108.457C187.251 108.457 186.939 108.409 186.656 108.315C186.374 108.228 186.113 108.105 185.874 107.946C185.642 107.779 185.432 107.591 185.243 107.38C185.062 107.17 184.899 106.957 184.754 106.739C184.588 106.978 184.406 107.203 184.211 107.413C184.015 107.616 183.787 107.793 183.526 107.946C183.272 108.098 182.982 108.217 182.656 108.304C182.338 108.399 181.968 108.449 181.548 108.457C181.526 108.457 181.501 108.457 181.472 108.457C181.145 108.457 180.841 108.413 180.559 108.326C180.283 108.239 180.026 108.12 179.787 107.967C179.555 107.808 179.341 107.623 179.145 107.413C178.957 107.203 178.783 106.982 178.624 106.75C178.486 106.953 178.319 107.149 178.124 107.337C177.935 107.525 177.7 107.696 177.417 107.848C177.142 107.993 176.816 108.109 176.439 108.196C176.062 108.283 175.62 108.326 175.113 108.326H174.722V105.543H175.156ZM201.666 116.272L201.253 105.88C201.253 105.83 201.257 105.717 201.264 105.543C201.271 105.362 201.304 105.156 201.362 104.924C201.427 104.692 201.529 104.449 201.666 104.196C201.804 103.942 202.003 103.717 202.264 103.522C202.358 103.428 202.489 103.344 202.655 103.272C202.822 103.199 203.003 103.145 203.199 103.109C203.394 103.072 203.594 103.054 203.797 103.054C204 103.047 204.184 103.065 204.351 103.109C204.481 102.761 204.63 102.406 204.797 102.043C204.971 101.674 205.163 101.319 205.373 100.978C205.59 100.638 205.826 100.319 206.079 100.022C206.34 99.7174 206.623 99.4529 206.927 99.2283C207.231 99.0036 207.558 98.8297 207.905 98.7065C208.231 98.5906 208.583 98.5326 208.96 98.5326C208.981 98.5326 209.003 98.5326 209.025 98.5326C209.699 98.5326 210.289 98.6775 210.797 98.9674C211.311 99.25 211.735 99.6232 212.068 100.087C212.409 100.551 212.663 101.08 212.829 101.674C213.003 102.268 213.09 102.873 213.09 103.489C213.083 103.931 213.032 104.399 212.938 104.891C212.851 105.377 212.702 105.833 212.492 106.261C212.289 106.688 212.021 107.062 211.688 107.38C211.355 107.692 210.945 107.891 210.46 107.978C210.358 108.014 210.235 108.033 210.09 108.033C209.989 108.033 209.833 108.018 209.623 107.989C209.413 107.96 209.115 107.888 208.731 107.772C208.355 107.656 207.949 107.518 207.514 107.359C207.079 107.192 206.644 107.025 206.21 106.859C205.775 106.692 205.355 106.529 204.949 106.37C204.543 106.21 204.181 106.08 203.862 105.978L204.416 115.837L201.666 116.272ZM207.134 102.815C207.039 102.996 206.952 103.178 206.873 103.359C206.8 103.54 206.728 103.714 206.655 103.88C206.894 103.982 207.173 104.101 207.492 104.239C207.818 104.37 208.155 104.5 208.503 104.63C208.851 104.761 209.192 104.884 209.525 105C209.858 105.109 210.152 105.192 210.405 105.25C210.456 105.163 210.503 105.047 210.547 104.902C210.597 104.757 210.637 104.609 210.666 104.457C210.702 104.297 210.728 104.141 210.742 103.989C210.764 103.83 210.775 103.688 210.775 103.565C210.775 103.246 210.721 102.949 210.612 102.674C210.503 102.391 210.362 102.149 210.188 101.946C210.014 101.743 209.818 101.583 209.601 101.467C209.405 101.373 209.206 101.326 209.003 101.326C208.981 101.326 208.956 101.326 208.927 101.326C208.833 101.333 208.71 101.366 208.558 101.424C208.413 101.482 208.257 101.569 208.09 101.685C207.923 101.801 207.753 101.953 207.579 102.141C207.413 102.322 207.264 102.547 207.134 102.815ZM218.238 91.0326C218.419 92.4167 218.546 93.7391 218.618 95C218.691 96.2536 218.734 97.4819 218.749 98.6848C218.763 99.7065 218.767 100.652 218.76 101.522C218.76 102.391 218.752 103.203 218.738 103.957C218.723 104.703 218.702 105.402 218.673 106.054C218.644 106.699 218.615 107.304 218.586 107.87L215.738 108.304C215.89 105.913 215.966 103.801 215.966 101.967C215.966 101.228 215.955 100.536 215.934 99.8913C215.876 98.4058 215.81 97.0109 215.738 95.7065C215.665 94.3949 215.568 93.1413 215.444 91.9457L218.238 91.0326Z" fill="white"/>
</g>
<defs>
<clipPath id="clip0_3508_3374">
<path d="M0 0H375V198C375 209.046 366.046 218 355 218H20C8.95431 218 0 209.046 0 198V0Z" fill="white"/>
</clipPath>
</defs>
</svg>
