<svg width="14" height="17" viewBox="0 0 14 17" fill="none" xmlns="http://www.w3.org/2000/svg">
<path d="M7.64257 16.952C7.44163 16.952 7.24069 16.952 7.03975 16.952C7.01028 16.9075 6.98393 16.8609 6.95089 16.8185C5.33266 14.7427 3.70549 12.6728 2.09753 10.59C0.89547 9.03314 0.475284 7.28457 0.957092 5.40465C1.58804 2.94201 3.23619 1.37954 5.78946 0.709119C6.15204 0.613711 6.53338 0.583763 6.90579 0.523438C7.19603 0.523438 7.48628 0.523438 7.77653 0.523438C8.1275 0.577773 8.48249 0.616279 8.82945 0.689439C11.6511 1.28371 13.8087 3.77758 13.9007 6.54312C13.9507 8.04398 13.5158 9.40023 12.5776 10.605C11.2233 12.3429 9.86719 14.0795 8.51286 15.8174C8.21948 16.1934 7.93236 16.5738 7.64257 16.952ZM5.16431 6.80667C5.16208 7.952 6.13552 8.89281 7.32687 8.89795C8.53072 8.90308 9.51577 7.96783 9.518 6.8178C9.52023 5.67205 8.54769 4.73166 7.35545 4.72695C6.1516 4.72182 5.16655 5.65707 5.16431 6.80667Z" fill="#FF7A01"/>
</svg>
