<svg width="24" height="24" viewBox="0 0 24 24" fill="none" xmlns="http://www.w3.org/2000/svg">
<path d="M22.0436 23.9953C21.1374 23.9953 20.2311 23.9953 19.3311 23.9953C19.0186 23.8516 18.8624 23.5953 18.7686 23.2766C18.5749 22.6453 18.3499 22.0203 18.1499 21.3953C18.1061 21.2516 18.0436 21.1891 17.8749 21.1891C13.9499 21.1953 10.0186 21.1953 6.0936 21.1891C5.92485 21.1891 5.8686 21.2516 5.8186 21.3953C5.6186 22.0266 5.3936 22.6453 5.19985 23.2766C5.09985 23.5953 4.94985 23.8578 4.63735 23.9953C3.7311 23.9953 2.82485 23.9953 1.92485 23.9953C1.52485 23.8078 1.37485 23.4953 1.4061 23.0578C1.4311 22.7516 1.41235 22.4391 1.41235 22.1266C1.41235 21.8203 1.41235 21.5141 1.41235 21.1891C0.868604 21.1703 0.281104 21.3203 0.00610352 20.6703C0.00610352 18.6266 0.00610352 16.5828 0.00610352 14.5391C0.0186035 14.4953 0.0373538 14.4516 0.0498538 14.4078C0.237354 13.4891 0.762354 12.8453 1.62485 12.4891C1.82485 12.4078 1.88735 12.3203 1.88735 12.1078C1.8811 8.34531 1.8811 4.57656 1.8811 0.814063C1.8811 0.357813 2.1686 0.0390629 2.57485 0.0390629C2.98735 0.0328129 3.2811 0.351563 3.2811 0.801563C3.2811 1.05156 3.2811 1.29531 3.2811 1.56406C9.08735 -0.479687 14.8811 -0.479687 20.6936 1.56406C20.6936 1.26406 20.6874 0.982812 20.6936 0.701562C20.7061 0.357812 20.9749 0.0828129 21.3061 0.0390629C21.6374 -0.00468708 21.9624 0.207813 22.0561 0.539063C22.0874 0.657813 22.0936 0.782813 22.0936 0.907813C22.0936 4.65156 22.0936 8.39531 22.0936 12.1328C22.0936 12.3078 22.1311 12.4016 22.3124 12.4703C23.2999 12.8391 23.9624 13.7703 23.9624 14.8266C23.9686 16.6953 23.9686 18.5703 23.9624 20.4391C23.9624 20.8766 23.6686 21.1703 23.2311 21.1766C23.0124 21.1828 22.7999 21.1766 22.5624 21.1766C22.5624 21.8141 22.5436 22.4266 22.5686 23.0391C22.5811 23.4891 22.4436 23.8078 22.0436 23.9953ZM4.72485 12.2953C4.72485 11.9266 4.72485 11.5766 4.72485 11.2266C4.7311 9.67031 5.83735 8.55781 7.3936 8.55781C8.2061 8.55781 9.0186 8.57656 9.82485 8.55156C10.6436 8.52656 11.3624 8.75156 11.9561 9.33281C11.9624 9.33906 11.9874 9.33906 12.0061 9.33906C12.5811 8.75781 13.2874 8.53281 14.0999 8.55156C14.9249 8.57031 15.7499 8.55156 16.5811 8.55781C16.8061 8.55781 17.0374 8.57656 17.2499 8.63281C18.4249 8.91406 19.2124 9.91406 19.2311 11.1266C19.2374 11.5141 19.2311 11.9016 19.2311 12.2828C19.7311 12.2828 20.1999 12.2828 20.6749 12.2828C20.6749 9.20781 20.6749 6.15781 20.6749 3.08906C20.5999 3.05781 20.5311 3.02656 20.4624 2.99531C17.0999 1.72656 13.6249 1.23906 10.0436 1.52031C7.7936 1.70156 5.61235 2.18906 3.49985 2.98906C3.3311 3.05156 3.26235 3.12656 3.26235 3.32031C3.2686 6.22656 3.2686 9.13906 3.2686 12.0453C3.2686 12.1266 3.2686 12.2078 3.2686 12.2953C3.77485 12.2953 4.2311 12.2953 4.72485 12.2953ZM22.5436 16.9641C22.5499 16.9141 22.5561 16.8891 22.5561 16.8703C22.5561 16.2141 22.5624 15.5578 22.5561 14.9078C22.5499 14.2016 22.0499 13.7016 21.3436 13.7016C15.1061 13.7016 8.8686 13.7016 2.6311 13.7016C1.9061 13.7016 1.41235 14.2016 1.4061 14.9203C1.4061 15.5453 1.4061 16.1703 1.4061 16.7891C1.4061 16.8453 1.4186 16.9078 1.42485 16.9641C8.4686 16.9641 15.4999 16.9641 22.5436 16.9641ZM22.5436 18.3953C15.4874 18.3953 8.44985 18.3953 1.4186 18.3953C1.4186 18.8641 1.4186 19.3203 1.4186 19.7703C8.4686 19.7703 15.4999 19.7703 22.5436 19.7703C22.5436 19.3141 22.5436 18.8641 22.5436 18.3953ZM11.2749 12.2891C11.2749 11.8516 11.2936 11.4391 11.2686 11.0266C11.2374 10.4266 10.7311 9.96406 10.1124 9.95781C9.1686 9.95156 8.22485 9.95156 7.2811 9.95781C6.7311 9.96406 6.2436 10.3266 6.1686 10.8703C6.1061 11.3328 6.1561 11.8078 6.1561 12.2891C7.8561 12.2891 9.5561 12.2891 11.2749 12.2891ZM17.8249 12.2891C17.8249 11.8578 17.8374 11.4516 17.8186 11.0516C17.7936 10.4578 17.2999 9.97656 16.7061 9.96406C15.7311 9.95156 14.7561 9.95156 13.7874 9.96406C13.2936 9.97031 12.8186 10.3203 12.7374 10.8078C12.6561 11.2891 12.6811 11.7891 12.6561 12.2891C14.4124 12.2891 16.1061 12.2891 17.8249 12.2891ZM2.8186 22.5891C3.1686 22.5891 3.49985 22.5953 3.83735 22.5828C3.8811 22.5828 3.9561 22.5328 3.9686 22.4891C4.1186 22.0641 4.2561 21.6391 4.39985 21.1953C3.86235 21.1953 3.3436 21.1953 2.8186 21.1953C2.8186 21.6578 2.8186 22.1078 2.8186 22.5891ZM19.5561 21.1953C19.7061 21.6391 19.8436 22.0766 19.9936 22.5078C20.0061 22.5453 20.0686 22.5891 20.1124 22.5891C20.4499 22.5953 20.7936 22.5953 21.1311 22.5953C21.1311 22.1141 21.1311 21.6578 21.1311 21.2016C20.6124 21.1953 20.1124 21.1953 19.5561 21.1953Z" fill="#264B1D"/>
<path d="M22.0438 23.9938C22.45 23.8063 22.5812 23.4875 22.5625 23.05C22.5375 22.4375 22.5562 21.825 22.5562 21.1875C22.7937 21.1875 23.0125 21.1875 23.225 21.1875C23.6625 21.1812 23.9562 20.8875 23.9562 20.45C23.9562 18.5813 23.9625 16.7062 23.9562 14.8375C23.95 13.7812 23.2937 12.8438 22.3062 12.4813C22.125 12.4125 22.0875 12.325 22.0875 12.1437C22.0938 8.4 22.0938 4.65625 22.0875 0.91875C22.0875 0.79375 22.0875 0.66875 22.05 0.55C21.9562 0.2125 21.6312 0.00625019 21.3 0.0500002C20.9625 0.0937502 20.7 0.36875 20.6875 0.7125C20.675 0.99375 20.6875 1.275 20.6875 1.575C14.8813 -0.4625 9.0875 -0.4625 3.275 1.575C3.275 1.30625 3.275 1.0625 3.275 0.8125C3.26875 0.3625 2.975 0.0437502 2.56875 0.0500002C2.1625 0.0562502 1.875 0.36875 1.875 0.825C1.875 4.5875 1.875 8.35625 1.88125 12.1187C1.88125 12.3312 1.81875 12.4187 1.61875 12.5C0.75625 12.8562 0.23125 13.5 0.0437498 14.4188C0.0374998 14.4625 0.0125 14.5062 0 14.55C0 9.7 0 4.85 0 0C8 0 15.9937 0 24 0C24 8 24 16 24 24C23.35 23.9937 22.6938 23.9938 22.0438 23.9938Z" fill="white"/>
<path d="M4.63135 23.9938C4.94385 23.85 5.1001 23.5938 5.19385 23.275C5.3876 22.6438 5.6126 22.0187 5.8126 21.3937C5.85635 21.25 5.91885 21.1875 6.0876 21.1875C10.0126 21.1938 13.9438 21.1938 17.8688 21.1875C18.0376 21.1875 18.0938 21.25 18.1438 21.3937C18.3438 22.025 18.5688 22.6438 18.7626 23.275C18.8626 23.5938 19.0126 23.8563 19.3251 23.9938C14.4313 23.9938 9.53135 23.9938 4.63135 23.9938Z" fill="white"/>
<path d="M0 20.6699C0.275 21.3199 0.8625 21.1699 1.40625 21.1887C1.40625 21.5074 1.40625 21.8199 1.40625 22.1262C1.40625 22.4387 1.425 22.7512 1.4 23.0574C1.36875 23.4949 1.51875 23.8074 1.91875 23.9949C1.28125 23.9949 0.6375 23.9949 0 23.9949C0 22.8887 0 21.7824 0 20.6699Z" fill="white"/>
<path d="M4.7248 12.2944C4.23105 12.2944 3.76855 12.2944 3.2748 12.2944C3.2748 12.2069 3.2748 12.1256 3.2748 12.0444C3.2748 9.13811 3.2748 6.22561 3.26855 3.31936C3.26855 3.12561 3.33105 3.05686 3.50605 2.98811C5.61855 2.18811 7.7998 1.70061 10.0498 1.51936C13.6311 1.23186 17.1061 1.71936 20.4686 2.99436C20.5436 3.01936 20.6123 3.05686 20.6811 3.08811C20.6811 6.15061 20.6811 9.20686 20.6811 12.2819C20.2061 12.2819 19.7373 12.2819 19.2373 12.2819C19.2373 11.8944 19.2436 11.5069 19.2373 11.1256C19.2186 9.91936 18.4311 8.91311 17.2561 8.63186C17.0373 8.58186 16.8123 8.56311 16.5873 8.55686C15.7623 8.55061 14.9311 8.56936 14.1061 8.55061C13.2936 8.53186 12.5873 8.75686 12.0123 9.33811C11.9873 9.33811 11.9686 9.33811 11.9623 9.33186C11.3686 8.75061 10.6561 8.52561 9.83105 8.55061C9.01855 8.57561 8.2123 8.55686 7.3998 8.55686C5.84355 8.56311 4.7373 9.66936 4.73105 11.2256C4.7248 11.5756 4.7248 11.9194 4.7248 12.2944Z" fill="white"/>
<path d="M22.5437 16.9617C15.5 16.9617 8.46874 16.9617 1.41874 16.9617C1.41249 16.9055 1.39999 16.843 1.39999 16.7867C1.39999 16.1617 1.39374 15.5367 1.39999 14.918C1.40624 14.1992 1.89999 13.6992 2.62499 13.6992C8.8625 13.6992 15.1 13.6992 21.3375 13.6992C22.0437 13.6992 22.5437 14.1992 22.55 14.9055C22.5562 15.5617 22.55 16.218 22.55 16.868C22.5562 16.893 22.55 16.9117 22.5437 16.9617Z" fill="white"/>
<path d="M22.5439 18.3945C22.5439 18.8633 22.5439 19.307 22.5439 19.7695C15.5002 19.7695 8.46895 19.7695 1.41895 19.7695C1.41895 19.3195 1.41895 18.8633 1.41895 18.3945C8.45645 18.3945 15.4939 18.3945 22.5439 18.3945Z" fill="white"/>
<path d="M11.275 12.2871C9.55624 12.2871 7.85624 12.2871 6.16249 12.2871C6.16249 11.8121 6.11249 11.3309 6.17499 10.8684C6.24999 10.3246 6.73749 9.96211 7.28749 9.95586C8.23124 9.94961 9.17499 9.94961 10.1187 9.95586C10.7312 9.96211 11.2375 10.4246 11.275 11.0246C11.2937 11.4371 11.275 11.8496 11.275 12.2871Z" fill="white"/>
<path d="M17.8249 12.2875C16.1061 12.2875 14.4124 12.2875 12.6624 12.2875C12.6874 11.7938 12.6624 11.2938 12.7436 10.8062C12.8249 10.3187 13.2936 9.96875 13.7936 9.9625C14.7686 9.95 15.7436 9.95 16.7124 9.9625C17.3061 9.96875 17.7999 10.4562 17.8249 11.05C17.8436 11.45 17.8249 11.8563 17.8249 12.2875Z" fill="white"/>
<path d="M2.8186 22.5891C2.8186 22.1078 2.8186 21.6578 2.8186 21.1953C3.3436 21.1953 3.86235 21.1953 4.39985 21.1953C4.2561 21.6391 4.11235 22.0641 3.9686 22.4891C3.9561 22.5328 3.8811 22.5828 3.83735 22.5828C3.49985 22.5953 3.1686 22.5891 2.8186 22.5891Z" fill="white"/>
<path d="M19.5562 21.1953C20.1062 21.1953 20.6124 21.1953 21.1374 21.1953C21.1374 21.6578 21.1374 22.1078 21.1374 22.5891C20.7937 22.5891 20.4562 22.5891 20.1187 22.5828C20.0749 22.5828 20.0124 22.5391 19.9999 22.5016C19.8437 22.0766 19.7062 21.6391 19.5562 21.1953Z" fill="white"/>
</svg>
