<svg width="24" height="24" viewBox="0 0 24 24" fill="none" xmlns="http://www.w3.org/2000/svg">
<path d="M17.5781 11.1685C17.667 11.1685 17.7374 11.1685 17.8079 11.1685C18.9059 11.1685 20.0033 11.1679 21.1013 11.1685C21.4668 11.1685 21.5988 11.3015 21.5993 11.6686C21.5998 14.5815 21.6009 17.4943 21.5988 20.4077C21.5983 21.4406 20.8752 22.1831 19.843 22.1842C15.1823 22.1894 10.5211 22.1836 5.86046 22.1915C5.46554 22.1921 5.29885 21.8544 5.43977 21.612C5.53495 21.4485 5.6864 21.4132 5.86099 21.4132C6.7155 21.4153 7.57001 21.4143 8.42505 21.4143C8.49604 21.4143 8.56704 21.4143 8.65012 21.4143C8.65012 17.0778 8.65012 12.7603 8.65012 8.42704C7.71042 8.42704 6.76808 8.42704 5.79262 8.42704C5.79262 8.49856 5.79262 8.57481 5.79262 8.65054C5.79262 9.99207 5.79262 11.3336 5.7921 12.6746C5.7921 12.7535 5.79473 12.8329 5.78421 12.9107C5.75897 13.1037 5.59595 13.2415 5.40244 13.2394C5.2084 13.2373 5.05117 13.0979 5.02803 12.9023C5.02014 12.8371 5.02224 12.7708 5.02224 12.7051C5.02172 11.1927 5.02172 9.68022 5.02224 8.16778C5.02224 7.74602 5.13635 7.63401 5.56282 7.63401C6.50936 7.63348 7.4559 7.63401 8.40297 7.63401C8.4808 7.63401 8.55915 7.63401 8.66221 7.63401C8.66221 7.54198 8.66221 7.4652 8.66221 7.38842C8.66221 5.89596 8.66221 4.40298 8.66221 2.91052C8.66221 2.52294 8.78316 2.39883 9.16493 2.39883C11.801 2.39831 14.4372 2.39831 17.0733 2.39883C17.4593 2.39883 17.5786 2.51978 17.5786 2.90631C17.5791 5.57622 17.5786 8.24561 17.5786 10.9155C17.5781 10.9928 17.5781 11.0701 17.5781 11.1685ZM16.7898 21.4032C16.7898 15.3161 16.7898 9.25005 16.7898 3.17241C14.3367 3.17241 11.8946 3.17241 9.43943 3.17241C9.43943 9.249 9.43943 15.3203 9.43943 21.4001C10.0799 21.4001 10.7062 21.4001 11.3467 21.4001C11.3467 21.3144 11.3467 21.2423 11.3467 21.1708C11.3467 20.1385 11.3467 19.1062 11.3467 18.0739C11.3467 17.6679 11.4698 17.5438 11.8752 17.5432C12.6971 17.5422 13.5185 17.5422 14.3404 17.5432C14.759 17.5438 14.8778 17.6637 14.8778 18.0849C14.8784 19.1104 14.8778 20.1364 14.8778 21.1618C14.8778 21.2386 14.8778 21.3154 14.8778 21.4027C15.5267 21.4032 16.1483 21.4032 16.7898 21.4032ZM17.5965 11.9584C17.5965 15.1263 17.5965 18.2705 17.5965 21.4243C18.3295 21.4243 19.0458 21.4248 19.762 21.4243C20.4466 21.4232 20.8184 21.0498 20.8189 20.3615C20.8195 17.6332 20.8189 14.9044 20.8189 12.1761C20.8189 12.1061 20.8189 12.0367 20.8189 11.9589C19.7304 11.9584 18.6682 11.9584 17.5965 11.9584ZM12.1434 18.3273C12.1434 19.3575 12.1434 20.3778 12.1434 21.3974C12.8033 21.3974 13.4491 21.3974 14.0906 21.3974C14.0906 20.3646 14.0906 19.3486 14.0906 18.3273C13.4354 18.3273 12.7939 18.3273 12.1434 18.3273Z" fill="black"/>
<path d="M3.76761 19.6831C3.54518 19.5837 3.32327 19.5122 3.13028 19.3933C2.34675 18.9105 1.97918 18.1674 1.83352 17.2848C1.69785 16.4649 1.98496 15.7885 2.50819 15.1853C2.90784 14.7246 3.37901 14.3496 3.89487 14.0277C4.06209 13.923 4.22038 13.9078 4.3918 14.014C4.94869 14.359 5.44299 14.773 5.87471 15.2694C6.8791 16.4249 6.52362 17.8476 5.91415 18.7143C5.60758 19.1503 5.20688 19.4733 4.68418 19.6169C4.55903 19.6516 4.54272 19.7199 4.54377 19.8293C4.54746 20.4273 4.54535 21.0258 4.54535 21.6238C4.54535 21.6827 4.54798 21.7422 4.54325 21.8011C4.52379 22.0477 4.36236 22.2071 4.14202 22.1997C3.92379 22.1924 3.76972 22.0235 3.76866 21.7764C3.76603 21.1452 3.76761 20.5141 3.76761 19.883C3.76761 19.812 3.76761 19.7399 3.76761 19.6831ZM3.76814 18.84C3.76814 18.5208 3.76288 18.2321 3.76972 17.9438C3.7755 17.6793 3.97638 17.5152 4.22721 17.5573C4.41862 17.5894 4.53852 17.7382 4.54377 17.9717C4.55008 18.252 4.54535 18.5329 4.54535 18.8448C4.63317 18.8069 4.69259 18.7848 4.74833 18.7564C5.54816 18.3525 6.05351 16.852 5.47454 16.0321C5.13904 15.5566 4.72414 15.1737 4.24877 14.8503C4.20302 14.8192 4.09154 14.8261 4.04842 14.8613C3.74395 15.1096 3.43422 15.3546 3.15499 15.6297C2.26682 16.5043 2.54132 17.5915 3.06034 18.3162C3.22914 18.5529 3.45157 18.7343 3.76814 18.84Z" fill="black"/>
<path d="M7.21884 10.6886C7.15995 10.6886 7.10052 10.6939 7.04268 10.6875C6.82392 10.6655 6.67826 10.5093 6.67774 10.3005C6.67721 10.0917 6.82287 9.93189 7.0411 9.91348C7.15784 9.90349 7.27668 9.90454 7.39395 9.91243C7.61534 9.92768 7.76468 10.0823 7.76994 10.2895C7.7752 10.504 7.6227 10.6681 7.395 10.6886C7.33663 10.6939 7.27721 10.6891 7.21884 10.6886Z" fill="black"/>
<path d="M7.20047 15.1145C6.84552 15.1181 6.66778 14.9804 6.67777 14.7138C6.68776 14.4529 6.86602 14.3378 7.25516 14.3399C7.58592 14.342 7.76261 14.4719 7.76997 14.7195C7.77575 14.9188 7.63535 15.0887 7.435 15.1129C7.35823 15.1223 7.27882 15.1145 7.20047 15.1145Z" fill="black"/>
<path d="M7.20933 12.9031C7.13729 12.9031 7.06367 12.912 6.99321 12.9015C6.80916 12.8747 6.6798 12.7179 6.67717 12.5302C6.67454 12.3404 6.79601 12.1774 6.98164 12.1521C7.11731 12.1337 7.25718 12.1337 7.39391 12.1421C7.62791 12.1563 7.77778 12.3209 7.77042 12.5376C7.76306 12.7458 7.61003 12.8946 7.38654 12.9078C7.32765 12.9115 7.26823 12.9083 7.20933 12.9083C7.20933 12.9067 7.20933 12.9052 7.20933 12.9031Z" fill="black"/>
<path d="M3.76818 18.8377C3.45161 18.732 3.2297 18.5505 3.05985 18.3138C2.54083 17.5891 2.26581 16.502 3.15451 15.6273C3.43373 15.3523 3.74399 15.1072 4.04793 14.8589C4.09105 14.8237 4.20306 14.8169 4.24828 14.8479C4.72366 15.1714 5.13803 15.5542 5.47405 16.0297C6.05355 16.8496 5.5482 18.3501 4.74785 18.7541C4.69158 18.7825 4.63216 18.8045 4.54487 18.8424C4.54487 18.5305 4.5496 18.2502 4.54329 17.9694C4.53803 17.7358 4.41814 17.587 4.22673 17.5549C3.97589 17.5128 3.77554 17.6775 3.76923 17.9415C3.76292 18.2297 3.76818 18.5184 3.76818 18.8377Z" fill="#F5BB00"/>
<path d="M12.1288 10.4232C12.1288 10.7061 12.1304 10.9885 12.1283 11.2714C12.1262 11.5638 11.9774 11.7363 11.7339 11.7337C11.4978 11.731 11.3495 11.5622 11.3479 11.2825C11.3453 10.7103 11.3453 10.1382 11.3479 9.56607C11.349 9.28684 11.4978 9.11594 11.7328 9.11331C11.9784 9.11068 12.1262 9.28106 12.1283 9.57449C12.1304 9.8574 12.1288 10.1403 12.1288 10.4232Z" fill="black"/>
<path d="M11.3473 14.5514C11.3473 14.2622 11.3447 13.9724 11.3479 13.6832C11.351 13.4124 11.5119 13.2347 11.7433 13.2383C11.9684 13.242 12.1261 13.4145 12.1272 13.6743C12.1303 14.2596 12.1309 14.8448 12.1272 15.4301C12.1256 15.6915 11.9689 15.8613 11.7423 15.8639C11.5088 15.8666 11.351 15.6925 11.3479 15.4191C11.3447 15.1298 11.3473 14.8406 11.3473 14.5514Z" fill="black"/>
<path d="M14.8784 14.554C14.8784 14.8432 14.8826 15.1324 14.8774 15.4216C14.8721 15.6977 14.7144 15.8686 14.4814 15.8649C14.2469 15.8607 14.1028 15.6909 14.1023 15.4085C14.1007 14.8364 14.1007 14.2648 14.1023 13.6926C14.1028 13.4171 14.2542 13.2404 14.4851 13.2383C14.718 13.2367 14.8726 13.4076 14.8774 13.6858C14.8826 13.975 14.8784 14.2648 14.8784 14.554Z" fill="black"/>
<path d="M12.1288 6.30059C12.1288 6.58929 12.1314 6.87746 12.1278 7.16615C12.1246 7.42487 11.97 7.59945 11.7476 7.60576C11.5188 7.61208 11.35 7.43276 11.3484 7.16562C11.3453 6.58192 11.3448 5.99822 11.349 5.41505C11.3505 5.16106 11.5183 4.98438 11.7386 4.98438C11.96 4.9849 12.1236 5.16106 12.1278 5.41558C12.1325 5.71006 12.1288 6.00559 12.1288 6.30059Z" fill="black"/>
<path d="M14.1022 10.4385C14.1022 10.1362 14.0996 9.83381 14.1033 9.53144C14.1064 9.28008 14.2553 9.11865 14.4787 9.11339C14.7028 9.10865 14.8716 9.26378 14.8752 9.51199C14.8831 10.123 14.8842 10.7346 14.8742 11.3456C14.87 11.5938 14.6959 11.7437 14.4687 11.7332C14.2526 11.7232 14.107 11.5655 14.1038 11.3257C14.0991 11.0301 14.1022 10.7346 14.1022 10.4385Z" fill="black"/>
<path d="M14.1022 6.28324C14.1022 5.99455 14.1001 5.70638 14.1027 5.41768C14.1054 5.16317 14.2652 4.98543 14.4861 4.98438C14.7027 4.98333 14.8715 5.14634 14.8747 5.39402C14.8826 5.99718 14.8826 6.60033 14.8747 7.20349C14.8715 7.44959 14.698 7.61155 14.4808 7.60682C14.2652 7.60209 14.1059 7.42961 14.1033 7.18824C14.0991 6.8864 14.1022 6.58456 14.1022 6.28324Z" fill="black"/>
<path d="M19.2125 15.1171C18.8465 15.1181 18.664 14.9935 18.6582 14.7395C18.6519 14.476 18.8423 14.3388 19.2151 14.3398C19.2803 14.3398 19.3466 14.3393 19.4107 14.3488C19.6326 14.3814 19.7652 14.5386 19.7552 14.7521C19.7452 14.9604 19.5937 15.105 19.3697 15.1171C19.3171 15.1197 19.2651 15.1171 19.2125 15.1171Z" fill="black"/>
<path d="M19.1894 19.5423C19.1373 19.5423 19.0847 19.5455 19.0327 19.5418C18.816 19.5271 18.6614 19.3704 18.6583 19.1648C18.6551 18.9602 18.8086 18.794 19.0227 18.7793C19.1331 18.7714 19.2451 18.7725 19.3561 18.7767C19.6022 18.7856 19.7589 18.9397 19.7562 19.1648C19.7536 19.3893 19.5969 19.535 19.3466 19.5439C19.2945 19.5455 19.242 19.5439 19.1899 19.5439C19.1894 19.5429 19.1894 19.5428 19.1894 19.5423Z" fill="black"/>
<path d="M19.2106 17.3327C19.1385 17.3327 19.0659 17.3401 18.9955 17.3311C18.792 17.3054 18.6521 17.1387 18.6589 16.9399C18.6658 16.7416 18.8162 16.5855 19.0212 16.5713C19.1254 16.5639 19.2305 16.5665 19.3352 16.5686C19.596 16.5739 19.758 16.7243 19.7564 16.9562C19.7548 17.1813 19.6007 17.3259 19.3483 17.3385C19.3026 17.3406 19.2568 17.339 19.2111 17.339C19.2106 17.3369 19.2106 17.3348 19.2106 17.3327Z" fill="black"/>
</svg>
