<svg width="20" height="20" viewBox="0 0 20 20" fill="none" xmlns="http://www.w3.org/2000/svg">
<path d="M19.9995 12.8908C19.8865 13.0393 19.7333 13.0669 19.5547 13.0664C15.7668 13.0632 11.9783 13.0637 8.18989 13.0637C8.10708 13.0637 8.02427 13.0637 7.91698 13.0637C7.97792 13.4471 8.03365 13.8055 8.09198 14.1628C8.15292 14.5352 8.21385 14.9072 8.28104 15.278C8.29145 15.3353 8.32114 15.4082 8.36593 15.4379C9.00237 15.8651 9.62215 16.3229 10.2878 16.7C11.2773 17.2605 12.3346 17.2725 13.4043 16.9303C13.6023 16.8667 13.7991 16.8 13.997 16.7365C14.2064 16.6698 14.3564 16.7276 14.4179 16.8964C14.4793 17.0657 14.4012 17.2131 14.1965 17.2855C13.5767 17.5058 12.9481 17.6928 12.2856 17.7345C11.2846 17.798 10.381 17.4912 9.55288 16.9652C8.90029 16.5505 8.27687 16.0896 7.64564 15.6421C7.04513 15.2166 6.44098 14.7967 5.74829 14.5316C3.93375 13.8378 1.79943 14.4305 0.593215 15.9557C0.382283 16.2224 0.221869 16.2281 0 15.976C0 15.9109 0 15.8458 0 15.7807C1.20986 14.1774 2.83378 13.5169 4.81081 13.6971C5.71391 13.7794 6.50296 14.18 7.2545 14.6623C7.36804 14.7353 7.48158 14.8087 7.62376 14.9004C7.53001 14.3357 7.43054 13.8065 7.35918 13.2726C7.33471 13.0882 7.26075 13.0591 7.09877 13.0596C4.87904 13.0643 2.65931 13.0611 0.439572 13.0653C0.249994 13.0658 0.091144 13.0361 0.000521329 12.8507C0.000521329 12.7986 0.000521329 12.7465 0.000521329 12.6944C0.0874982 12.5194 0.234369 12.4793 0.419781 12.4798C2.60045 12.484 4.78165 12.4824 6.96232 12.4824C7.04409 12.4824 7.12534 12.4824 7.22585 12.4824C7.02586 11.2688 6.83159 10.0869 6.63681 8.90502C6.61337 8.89408 6.59046 8.88314 6.56702 8.8722C6.43629 9.0342 6.26546 9.17848 6.18526 9.36236C6.09828 9.5629 6.10557 9.80198 6.05193 10.0197C6.02797 10.1171 5.97537 10.2489 5.90037 10.2802C5.82277 10.3124 5.6785 10.2692 5.60715 10.2077C5.52538 10.1379 5.47798 10.0166 5.43892 9.90928C5.31653 9.57279 5.09258 9.35142 4.74519 9.25609C4.12177 9.08472 3.26606 9.54154 3.39054 10.4083C3.42022 10.6156 3.327 10.7417 3.15409 10.7708C2.98794 10.7989 2.86347 10.7026 2.81035 10.5036C2.65879 9.9348 2.13588 9.56758 1.60256 9.65457C1.03591 9.74729 0.674984 10.24 0.720816 10.8661C0.733316 11.0333 0.670816 11.1453 0.514049 11.1985C0.304159 11.2693 0.128643 11.1578 0.0911435 10.9266C0.0557277 10.7094 0.0302081 10.4906 0.000521329 10.2729C0.000521329 9.97335 0.000521329 9.67384 0.000521329 9.37434C0.0630197 8.99722 0.108851 8.61645 0.191661 8.2435C0.832791 5.36302 3.27908 3.15708 6.21026 2.80653C9.96328 2.35753 13.3366 4.82547 14.0496 8.54249C14.0569 8.58051 14.0627 8.61958 14.0637 8.65864C14.0684 8.83991 13.9642 8.97117 13.8002 8.98784C13.6163 9.00659 13.5174 8.90867 13.4861 8.73938C13.3434 7.96743 12.5398 7.74554 11.9486 8.04348C11.5622 8.23829 11.3742 8.55707 11.3945 8.99305C11.3971 9.05139 11.4044 9.10973 11.406 9.16859C11.4096 9.32381 11.3226 9.41444 11.1799 9.44257C11.0398 9.47018 10.9221 9.42226 10.8539 9.28787C10.8367 9.25401 10.8289 9.21443 10.819 9.17692C10.6388 8.46383 9.91902 8.13359 9.25914 8.46435C8.87477 8.65708 8.70707 8.97951 8.71592 9.40194C8.71696 9.44726 8.72686 9.49206 8.73103 9.53737C8.74769 9.72176 8.65811 9.85094 8.49197 9.88272C8.31749 9.91605 8.20448 9.84105 8.1576 9.64363C8.06177 9.23943 7.83261 8.95554 7.43366 8.82012C7.37377 8.7998 7.30971 8.79095 7.20867 8.76803C7.41387 10.0176 7.61387 11.2391 7.81803 12.483C7.9149 12.483 8.00396 12.483 8.09302 12.483C11.9138 12.483 15.734 12.484 19.5547 12.4804C19.7333 12.4804 19.887 12.5064 19.9995 12.6559C19.9995 12.7345 19.9995 12.8127 19.9995 12.8908ZM5.27018 3.70297C4.76967 4.00039 4.41082 4.40043 4.14312 4.87547C3.96188 5.19686 3.8249 5.54272 3.66866 5.87817C3.59105 6.04485 3.44835 6.10788 3.28533 6.04642C3.13429 5.98912 3.06971 5.85057 3.12179 5.68076C3.15044 5.58752 3.18117 5.49376 3.22388 5.40729C3.42023 5.0109 3.62178 4.61712 3.81188 4.24052C1.98745 5.2104 0.659877 7.39915 0.610399 9.5181C1.24528 9.00607 1.9213 8.90658 2.64993 9.3035C2.64993 9.22015 2.64733 9.1613 2.65045 9.10296C2.67962 8.47946 2.70358 7.85596 2.74316 7.23351C2.75774 7.0012 2.89263 6.89181 3.07857 6.91785C3.26189 6.94338 3.34366 7.06474 3.32283 7.29081C3.30512 7.47832 3.26554 7.66532 3.26137 7.85336C3.252 8.26486 3.25825 8.67635 3.25825 9.10608C3.88636 8.55291 4.56759 8.48363 5.30716 8.85085C5.12383 7.13142 4.953 5.43542 5.27018 3.70297ZM7.93 8.38778C7.68001 7.19913 7.4071 6.04902 6.96545 4.94892C6.78993 4.51138 6.55504 4.09675 6.33265 3.67901C6.2764 3.57327 6.16651 3.4967 6.05245 3.3769C5.98526 3.52431 5.9186 3.61858 5.89985 3.72172C5.82589 4.12332 5.71548 4.52752 5.7134 4.93121C5.70871 5.89953 5.75298 6.86785 5.78891 7.83617C5.79933 8.11588 5.84985 8.39456 5.88579 8.705C6.51285 8.13932 7.17638 8.044 7.93 8.38778ZM10.4831 7.89034C10.4758 7.84242 10.4753 7.8169 10.4685 7.79346C10.1503 6.75899 9.70027 5.79066 9.01852 4.94215C8.57374 4.38897 8.06177 3.91236 7.40241 3.62067C7.2571 3.55608 7.10346 3.50972 6.90816 3.43836C7.76647 4.99059 8.1425 6.64335 8.52009 8.31538C9.08154 7.74606 9.72319 7.59813 10.4831 7.89034ZM13.1236 7.43509C12.7007 6.38291 12.0742 5.52814 11.232 4.83172C10.3945 4.13999 8.87477 3.43419 8.37478 3.50034C9.83829 4.63535 10.6127 6.19852 11.131 7.94399C11.6804 7.3455 12.3236 7.15954 13.1236 7.43509Z" fill="black"/>
<path d="M19.9995 17.227C19.8391 17.4681 19.6828 17.5166 19.4901 17.3582C18.4902 16.5368 17.3548 16.3764 16.1267 16.6545C16.0887 16.6628 16.0512 16.6748 16.0126 16.679C15.8392 16.6983 15.7038 16.6123 15.6683 16.4628C15.6308 16.3034 15.7183 16.1451 15.8959 16.1112C16.2402 16.0451 16.5866 15.9742 16.9355 15.9513C18.0131 15.8805 18.9776 16.1894 19.8167 16.8748C19.8854 16.9311 19.9391 17.0056 20 17.0712C19.9995 17.1228 19.9995 17.1749 19.9995 17.227Z" fill="black"/>
<path d="M19.9995 3.36078C19.8933 3.51601 19.7412 3.55768 19.561 3.54778C19.399 3.53945 19.2365 3.54934 19.074 3.54518C18.8532 3.53945 18.7147 3.41808 18.7199 3.2415C18.7251 3.07013 18.8553 2.96387 19.0709 2.96127C19.2527 2.95866 19.435 2.96908 19.6162 2.95814C19.7922 2.94772 19.9183 3.01023 19.999 3.16545C19.9995 3.23056 19.9995 3.29567 19.9995 3.36078Z" fill="black"/>
<path d="M16.8354 0C16.9994 0.0849038 17.0552 0.220854 17.0453 0.4016C17.0349 0.589639 17.0468 0.778719 17.0406 0.966758C17.0349 1.15219 16.9203 1.27512 16.7619 1.28085C16.5984 1.28658 16.4677 1.15844 16.4604 0.966236C16.4526 0.752154 16.438 0.534425 16.4661 0.323989C16.4812 0.210437 16.5791 0.107823 16.6396 0C16.7052 0 16.7703 0 16.8354 0Z" fill="black"/>
<path d="M14.0622 19.9999C14.007 19.9244 13.9283 19.8556 13.9018 19.7707C13.8601 19.6363 13.9033 19.5098 14.0419 19.4441C14.1752 19.3811 14.3013 19.4045 14.3893 19.5249C14.4804 19.6488 14.4736 19.7817 14.3757 19.902C14.344 19.941 14.2971 19.9676 14.257 19.9999C14.1924 19.9999 14.1273 19.9999 14.0622 19.9999Z" fill="black"/>
<path d="M16.7516 1.63281C17.6553 1.63229 18.3761 2.3558 18.3709 3.25849C18.3657 4.1492 17.6407 4.87426 16.7542 4.87426C15.8626 4.87426 15.123 4.13096 15.1298 3.24234C15.1371 2.35059 15.86 1.63333 16.7516 1.63281ZM16.7501 2.21828C16.1803 2.21985 15.7209 2.67458 15.7157 3.24286C15.7105 3.81062 16.1876 4.29035 16.7558 4.28827C17.3292 4.28619 17.7917 3.81427 17.7855 3.23765C17.7792 2.6652 17.3235 2.21672 16.7501 2.21828Z" fill="black"/>
<path d="M18.8786 0.851562C18.9416 0.901046 19.0547 0.947926 19.0864 1.02762C19.1213 1.11461 19.1208 1.26358 19.0672 1.32973C18.9036 1.52975 18.7135 1.70998 18.5208 1.88343C18.412 1.98136 18.2771 1.96886 18.1646 1.87249C18.0526 1.77665 18.0052 1.63289 18.0969 1.52506C18.2849 1.30369 18.5021 1.10732 18.712 0.905213C18.7417 0.877607 18.7969 0.876565 18.8786 0.851562Z" fill="black"/>
<path d="M19.1496 5.38148C19.0996 5.44139 19.0496 5.55233 18.9694 5.58202C18.8819 5.61432 18.7355 5.60911 18.6683 5.55494C18.473 5.39607 18.2986 5.20959 18.1277 5.02364C18.0283 4.91582 18.0335 4.78403 18.1236 4.66683C18.2152 4.54755 18.3668 4.50119 18.4684 4.58714C18.6986 4.78195 18.8996 5.01166 19.1084 5.23095C19.1319 5.25491 19.1298 5.30335 19.1496 5.38148Z" fill="black"/>
<path d="M14.1506 2.96412C14.2736 2.96412 14.3975 2.95735 14.5199 2.96568C14.6788 2.97714 14.7683 3.07507 14.7788 3.22977C14.7892 3.38499 14.7121 3.51313 14.5579 3.52511C14.2881 3.54647 14.0142 3.54751 13.7444 3.52771C13.5819 3.51573 13.4991 3.3876 13.5142 3.22144C13.5288 3.06517 13.6231 2.97402 13.7809 2.96464C13.9038 2.95735 14.0272 2.96308 14.1501 2.96308C14.1506 2.9636 14.1506 2.96412 14.1506 2.96412Z" fill="black"/>
<path d="M17.0396 5.85388C17.0396 5.9768 17.0469 6.10077 17.038 6.22318C17.0255 6.38934 16.9276 6.48362 16.7605 6.48883C16.5922 6.49352 16.4802 6.39976 16.4698 6.23777C16.4537 5.98618 16.4537 5.73251 16.4683 5.48092C16.4782 5.31112 16.6146 5.20902 16.775 5.22413C16.9417 5.24028 17.0323 5.3382 17.0406 5.50436C17.0464 5.62052 17.0417 5.73772 17.0417 5.8544C17.0406 5.85388 17.0401 5.85388 17.0396 5.85388Z" fill="black"/>
<path d="M15.4627 1.69332C15.4112 1.75634 15.3622 1.86833 15.283 1.8975C15.195 1.9298 15.0487 1.92355 14.9815 1.86833C14.782 1.70426 14.6013 1.51465 14.4299 1.32089C14.3336 1.2115 14.3518 1.07451 14.4502 0.965124C14.5482 0.85678 14.6898 0.813026 14.7997 0.906785C15.0153 1.0917 15.2091 1.30213 15.406 1.50788C15.4367 1.54122 15.4367 1.60425 15.4627 1.69332Z" fill="black"/>
<path d="M14.6882 5.62445C14.4398 5.62132 14.282 5.36765 14.419 5.19576C14.5913 4.9796 14.796 4.78583 15.0049 4.60352C15.1111 4.5108 15.2736 4.52487 15.3523 4.64363C15.4101 4.73114 15.4512 4.9124 15.4023 4.97335C15.221 5.19837 15.0007 5.39214 14.7903 5.59268C14.7611 5.62028 14.7059 5.61976 14.6882 5.62445Z" fill="black"/>
<path d="M15.5439 14.4767C14.7575 14.4767 13.9711 14.4772 13.1841 14.4756C13.1065 14.4756 13.0055 14.4913 12.957 14.4501C12.8727 14.3777 12.7675 14.2657 12.7706 14.1735C12.7737 14.0819 12.8862 13.9777 12.9753 13.911C13.0268 13.8719 13.1258 13.8917 13.2039 13.8917C14.7768 13.8912 16.3502 13.8912 17.923 13.8912C18.2413 13.8912 18.3756 13.9829 18.3694 14.1928C18.3637 14.3918 18.2314 14.4762 17.923 14.4767C17.1298 14.4767 16.3366 14.4767 15.5439 14.4767Z" fill="black"/>
<path d="M12.5007 15.6727C12.1434 15.6727 11.7861 15.6743 11.4288 15.6722C11.2012 15.6712 11.0684 15.5602 11.07 15.38C11.0715 15.2081 11.2049 15.0888 11.4147 15.0883C12.1293 15.0852 12.8439 15.0852 13.5584 15.0883C13.7819 15.0893 13.9126 15.2112 13.9053 15.3951C13.898 15.5701 13.7725 15.6712 13.5527 15.6722C13.2022 15.6743 12.8517 15.6727 12.5007 15.6727Z" fill="black"/>
<path d="M17.9245 18.0816C17.9204 18.2452 17.8001 18.3634 17.6386 18.3619C17.4699 18.3608 17.3501 18.2291 17.3605 18.0561C17.3704 17.8926 17.4969 17.7738 17.6548 17.7816C17.811 17.7894 17.9287 17.9202 17.9245 18.0816Z" fill="black"/>
<path d="M6.68325 16.3295C6.68689 16.4972 6.577 16.6227 6.41919 16.6311C6.25409 16.6399 6.12753 16.5123 6.12805 16.3373C6.12805 16.1649 6.23534 16.0529 6.40148 16.0508C6.56815 16.0492 6.67908 16.1591 6.68325 16.3295Z" fill="black"/>
<path d="M1.62283 16.9284C1.61814 17.093 1.49679 17.2133 1.33742 17.2107C1.17284 17.2081 1.04889 17.0711 1.05878 16.9018C1.06868 16.7372 1.18951 16.6273 1.35461 16.633C1.51554 16.6393 1.62751 16.7627 1.62283 16.9284Z" fill="black"/>
<path d="M5.38272 18.2656C5.54625 18.2641 5.66084 18.3776 5.665 18.5459C5.66917 18.7245 5.55354 18.8443 5.38011 18.8417C5.21501 18.8391 5.10825 18.7256 5.10877 18.5532C5.10981 18.3823 5.21918 18.2677 5.38272 18.2656Z" fill="black"/>
<path d="M16.7501 2.21875C17.3235 2.21719 17.7793 2.66567 17.785 3.23812C17.7912 3.81474 17.3288 4.28666 16.7553 4.28874C16.1871 4.29082 15.71 3.81161 15.7153 3.24333C15.721 2.67505 16.1803 2.22032 16.7501 2.21875Z" fill="#F5BB00"/>
</svg>
