<svg width="24" height="24" viewBox="0 0 24 24" fill="none" xmlns="http://www.w3.org/2000/svg">
<path d="M22.1991 15.1131C22.0266 15.3575 21.8585 15.6049 21.6803 15.8448C21.5112 16.073 21.3034 16.1035 21.0763 15.9339C20.8273 15.748 20.5861 15.5517 20.3197 15.3432C20.3197 17.2366 20.3197 19.1073 20.3197 21.0056C20.5435 21.0056 20.7726 21.0036 21.0022 21.0066C21.0787 21.0076 21.1586 21.0095 21.2308 21.0322C21.3713 21.0764 21.4604 21.193 21.4163 21.3302C21.3843 21.43 21.2792 21.5166 21.1882 21.5815C21.1397 21.6159 21.0506 21.5938 20.9799 21.5938C15.0177 21.5943 9.05545 21.5913 3.09324 21.6002C2.67765 21.6007 2.43691 21.3454 2.46985 20.9692C2.48874 20.7484 2.46113 20.5237 2.47809 20.3024C2.48777 20.1715 2.54299 20.0437 2.5769 19.9148C2.59143 19.8598 2.61613 19.8042 2.61565 19.7496C2.60983 19.2509 2.82199 18.886 3.25018 18.6426C3.30928 18.6092 3.36304 18.5378 3.38629 18.4724C3.535 18.0485 3.80044 17.7264 4.17389 17.4864C4.23105 17.45 4.28966 17.361 4.28966 17.2961C4.29499 14.1811 4.2945 11.0662 4.29402 7.95125C4.29402 7.93257 4.2882 7.91339 4.27997 7.86126C4.05037 8.04125 3.83434 8.21091 3.61783 8.37959C3.27295 8.6486 3.11456 8.62745 2.84815 8.27632C2.74207 8.13666 2.63454 7.99748 2.53088 7.85585C2.33325 7.58586 2.35699 7.39111 2.61904 7.18358C3.19351 6.72918 3.76847 6.27575 4.34778 5.82823C4.4495 5.74954 4.49552 5.67135 4.49407 5.53759C4.4868 4.87024 4.48971 4.2024 4.49213 3.53505C4.49261 3.4303 4.48292 3.35949 4.36474 3.3108C4.19084 3.23949 4.10172 3.08409 4.09785 2.89032C4.09349 2.68771 4.09058 2.4846 4.09736 2.28199C4.10608 2.01741 4.30468 1.80742 4.56672 1.80545C5.35287 1.79906 6.1395 1.79955 6.92565 1.80496C7.17558 1.80644 7.37854 1.9884 7.39501 2.23675C7.41147 2.47674 7.41632 2.72312 7.38193 2.95967C7.36449 3.07868 7.27149 3.23949 7.17122 3.28178C6.94647 3.3767 7.00702 3.53259 7.01041 3.72734C7.17607 3.59898 7.31799 3.48981 7.45894 3.37916C7.85177 3.0713 8.24267 2.76099 8.63695 2.45559C8.99927 2.17478 9.33155 2.17478 9.69483 2.45952C11.6987 4.03126 13.7016 5.60447 15.704 7.17866C15.9782 7.39406 15.9976 7.55684 15.7907 7.84454C15.6653 8.01912 15.5408 8.1937 15.4105 8.36435C15.2361 8.59303 15.0356 8.6245 14.8074 8.45336C14.5594 8.26747 14.3182 8.07223 14.0353 7.85093C14.0353 8.03289 14.0378 8.17797 14.0349 8.32353C14.0305 8.55615 13.9239 8.68893 13.7452 8.68942C13.5636 8.6904 13.458 8.56155 13.456 8.32796C13.4536 8.05945 13.4614 7.79093 13.4512 7.5234C13.4488 7.45652 13.4139 7.368 13.364 7.32866C11.9811 6.23592 10.5938 5.1481 9.20707 4.05978C9.19738 4.05191 9.1843 4.04896 9.16008 4.03814C9.11939 4.06667 9.07096 4.09667 9.02639 4.13158C7.68612 5.18449 6.34681 6.23887 5.0046 7.28932C4.91596 7.35866 4.87091 7.42554 4.8714 7.54553C4.87479 10.7195 4.8743 13.8935 4.8743 17.0674C4.8743 17.1186 4.8743 17.1692 4.8743 17.2243C5.04287 17.239 5.19593 17.2435 5.34657 17.2666C5.84354 17.3428 6.23928 17.5951 6.52652 18.0102C6.60353 18.1213 6.67958 18.1528 6.79874 18.1228C6.84233 18.112 6.89319 18.0943 6.93194 18.1075C7.24097 18.2143 7.43812 18.0441 7.67304 17.8671C8.79002 17.0261 10.3826 17.7476 10.526 19.1472C10.5444 19.3262 10.5284 19.5086 10.5284 19.7117C10.603 19.7117 10.6718 19.7103 10.7411 19.7122C11.0695 19.7211 11.2676 19.9163 11.2768 20.2517C11.2836 20.4932 11.2783 20.7351 11.2783 20.9918C12.0136 20.9918 12.7372 20.9918 13.4832 20.9918C13.4832 20.9097 13.4832 20.833 13.4832 20.7558C13.4832 19.3552 13.4827 17.9551 13.4832 16.5545C13.4832 16.0814 13.6575 15.9048 14.123 15.9048C15.006 15.9044 15.8891 15.9044 16.7721 15.9048C17.1993 15.9053 17.3858 16.0917 17.3868 16.523C17.3882 17.3281 17.3877 18.1331 17.3863 18.9377C17.3863 19.0026 17.3829 19.069 17.3703 19.1324C17.3403 19.2809 17.2434 19.3572 17.0966 19.3572C16.9494 19.3572 16.852 19.2795 16.8225 19.1324C16.8074 19.0562 16.8079 18.9765 16.8074 18.8983C16.8065 18.1784 16.807 17.4584 16.807 16.7389C16.807 16.6627 16.807 16.586 16.807 16.5019C15.8857 16.5019 14.9915 16.5019 14.0804 16.5019C14.0804 18.0008 14.0804 19.4934 14.0804 20.9968C14.9847 20.9968 15.8837 20.9968 16.8079 20.9968C16.8079 20.8286 16.8031 20.6663 16.8089 20.5045C16.8166 20.2896 16.9145 20.177 17.086 20.1715C17.2657 20.1656 17.3751 20.2827 17.3848 20.5035C17.3916 20.6599 17.3863 20.8168 17.3863 20.9904C18.1656 20.9904 18.9339 20.9904 19.7142 20.9904C19.7171 20.9328 19.7229 20.8758 19.7229 20.8187C19.7234 18.8949 19.7249 16.9705 19.7186 15.0467C19.7181 14.9587 19.6696 14.8401 19.6033 14.7875C18.2373 13.7041 16.8656 12.6281 15.4953 11.5511C15.4802 11.5393 15.4623 11.5309 15.4318 11.5127C15.3805 11.5511 15.3233 11.5914 15.2681 11.6347C13.4686 13.0476 11.6696 14.4605 9.87066 15.8734C9.55194 16.1237 9.37757 16.0996 9.12908 15.7716C9.03075 15.6417 8.93242 15.5124 8.83458 15.3826C8.58803 15.0565 8.61031 14.8824 8.9363 14.6267C10.2102 13.6254 11.4846 12.6252 12.758 11.6239C12.9872 11.4439 13.302 11.3032 13.4153 11.0652C13.5321 10.8198 13.4512 10.477 13.4555 10.1771C13.4575 10.0595 13.4536 9.94149 13.4565 9.82347C13.4623 9.61544 13.5626 9.49643 13.7331 9.49053C13.9113 9.48463 14.0286 9.60659 14.0339 9.82199C14.0402 10.0703 14.0353 10.3187 14.0353 10.5951C14.093 10.5606 14.1356 10.5405 14.1719 10.512C14.4224 10.3167 14.6699 10.1176 14.9218 9.92428C15.2603 9.66413 15.6033 9.65626 15.9346 9.91543C17.954 11.499 19.9714 13.085 21.9874 14.6734C22.0702 14.7388 22.1298 14.8352 22.2 14.9169C22.1991 14.9823 22.1991 15.0477 22.1991 15.1131ZM3.06321 20.9918C5.61346 20.9918 8.14725 20.9918 10.6854 20.9918C10.6854 20.7577 10.6854 20.5384 10.6854 20.3004C10.604 20.3004 10.5347 20.3004 10.4655 20.3004C9.3766 20.3004 8.2882 20.3009 7.19932 20.2999C6.96294 20.2999 6.83943 20.2011 6.83458 20.0176C6.82925 19.8268 6.96052 19.7166 7.20125 19.7122C7.31072 19.7103 7.42116 19.7044 7.52966 19.7137C7.65076 19.7245 7.68273 19.6645 7.69532 19.5568C7.75732 19.0163 7.24243 18.5821 6.71106 18.7296C6.33858 18.8334 6.32114 18.8255 6.14047 18.4813C5.91087 18.0436 5.41729 17.7761 4.95229 17.8366C4.43885 17.9034 4.02374 18.26 3.9162 18.7567C3.87116 18.9657 3.77719 19.0896 3.57617 19.1575C3.32429 19.2421 3.21385 19.4221 3.21143 19.7117C3.2807 19.7117 3.34997 19.7117 3.41923 19.7117C4.12158 19.7117 4.82344 19.7112 5.52579 19.7127C5.6154 19.7127 5.70792 19.7112 5.79365 19.7329C5.94478 19.7712 6.01743 19.8819 6.00242 20.0402C5.98837 20.1902 5.89925 20.2753 5.75393 20.296C5.69678 20.3043 5.63817 20.3009 5.58004 20.3009C4.81327 20.3014 4.04699 20.3009 3.28022 20.3009C3.21095 20.3009 3.14217 20.3009 3.06321 20.3009C3.06321 20.5399 3.06321 20.7592 3.06321 20.9918ZM3.28942 7.88978C3.3737 7.82487 3.4449 7.77077 3.51562 7.71569C5.30395 6.31067 7.09227 4.90565 8.88108 3.50112C9.12182 3.31178 9.20513 3.31178 9.44247 3.49768C10.2121 4.10158 10.9813 4.70647 11.751 5.31038C12.8414 6.16658 13.9317 7.02277 15.0332 7.88781C15.1097 7.78552 15.1819 7.68864 15.2599 7.58389C15.2032 7.53521 15.161 7.49636 15.116 7.46144C13.2056 5.96003 11.2938 4.46059 9.38677 2.95426C9.2153 2.81853 9.0942 2.83328 8.93048 2.96311C7.51271 4.08486 6.08912 5.19924 4.66796 6.31608C4.13369 6.73606 3.59942 7.15604 3.05595 7.58389C3.13732 7.6911 3.21095 7.787 3.28942 7.88978ZM21.5277 15.0629C21.472 15.0152 21.4342 14.9803 21.394 14.9483C19.473 13.439 17.5505 11.9308 15.6323 10.418C15.4802 10.298 15.3698 10.3128 15.2245 10.4274C13.8716 11.496 12.5144 12.5588 11.1586 13.6235C10.5527 14.0995 9.9472 14.5756 9.32816 15.0624C9.40808 15.1682 9.48026 15.2641 9.55872 15.3678C9.62315 15.3196 9.67497 15.2822 9.72487 15.2429C11.5292 13.8261 13.3335 12.4093 15.1378 10.9924C15.4018 10.7849 15.4652 10.7844 15.7282 10.991C17.4967 12.3802 19.2652 13.769 21.0336 15.1583C21.1194 15.2257 21.2056 15.2916 21.3059 15.3693C21.3809 15.2645 21.4488 15.1716 21.5277 15.0629ZM8.26689 19.7107C8.71784 19.7107 9.14168 19.7107 9.56551 19.7107C9.9627 19.7107 10.0111 19.6547 9.96124 19.2504C9.95543 19.2052 9.95204 19.159 9.94235 19.1142C9.83385 18.617 9.54032 18.2856 9.0603 18.1454C8.60256 18.0116 8.20198 18.1395 7.84887 18.4744C8.18164 18.8157 8.31823 19.217 8.26689 19.7107ZM6.42238 3.38309C5.96076 3.38309 5.52579 3.38309 5.08937 3.38309C5.08937 3.99929 5.08937 4.60517 5.08937 5.24153C5.52724 4.89729 5.93993 4.57468 6.34826 4.24715C6.38653 4.21617 6.41753 4.15175 6.41898 4.10158C6.42625 3.8675 6.42238 3.63292 6.42238 3.38309ZM6.81666 2.40346C6.09784 2.40346 5.3921 2.40346 4.68927 2.40346C4.68927 2.53575 4.68927 2.65525 4.68927 2.77525C5.4047 2.77525 6.10511 2.77525 6.81666 2.77525C6.81666 2.65132 6.81666 2.53624 6.81666 2.40346Z" fill="black"/>
<path d="M11.1112 9.11376C11.1112 9.89226 11.1121 10.6712 11.1107 11.4497C11.1097 11.8574 10.9218 12.0472 10.5197 12.0477C9.61734 12.0487 8.71495 12.0487 7.81303 12.0477C7.40325 12.0472 7.21386 11.8554 7.21386 11.4345C7.21241 9.89029 7.21241 8.34609 7.21386 6.8019C7.21434 6.38634 7.39744 6.19996 7.79899 6.19996C8.71398 6.19897 9.62945 6.19897 10.5444 6.19996C10.9247 6.20045 11.1097 6.38782 11.1107 6.7778C11.1121 7.55678 11.1107 8.33527 11.1112 9.11376ZM9.46234 7.9748C9.83047 7.9748 10.1734 7.9748 10.5212 7.9748C10.5212 7.57596 10.5212 7.19336 10.5212 6.80337C10.1632 6.80337 9.81546 6.80337 9.46234 6.80337C9.46234 7.19975 9.46234 7.58186 9.46234 7.9748ZM9.47009 10.2572C9.47009 10.6658 9.47009 11.0578 9.47009 11.4433C9.83192 11.4433 10.1753 11.4433 10.5159 11.4433C10.5159 11.0396 10.5159 10.6521 10.5159 10.2572C10.1628 10.2572 9.82369 10.2572 9.47009 10.2572ZM7.80335 7.97431C8.17099 7.97431 8.51296 7.97431 8.86171 7.97431C8.86171 7.57547 8.86171 7.19336 8.86171 6.8019C8.50376 6.8019 8.15501 6.8019 7.80335 6.8019C7.80335 7.19778 7.80335 7.58039 7.80335 7.97431ZM8.86365 10.264C8.49649 10.264 8.15259 10.264 7.80916 10.264C7.80916 10.6668 7.80916 11.0548 7.80916 11.4448C8.16905 11.4448 8.51248 11.4448 8.86365 11.4448C8.86365 11.045 8.86365 10.6609 8.86365 10.264ZM10.5193 9.65374C10.5193 9.29081 10.5193 8.94754 10.5193 8.59198C10.1637 8.59198 9.81933 8.59198 9.46622 8.59198C9.46622 8.95148 9.46622 9.29966 9.46622 9.65374C9.82127 9.65374 10.1613 9.65374 10.5193 9.65374ZM8.85929 9.65325C8.85929 9.2913 8.85929 8.94803 8.85929 8.59248C8.50424 8.59248 8.16082 8.59248 7.80819 8.59248C7.80819 8.95197 7.80819 9.29867 7.80819 9.65325C8.16276 9.65325 8.50182 9.65325 8.85929 9.65325Z" fill="black"/>
<path d="M14.8104 18.5915C14.8104 18.709 14.8167 18.827 14.8089 18.9441C14.7963 19.129 14.6772 19.2436 14.5144 19.2396C14.3594 19.2362 14.2417 19.1236 14.2354 18.949C14.2272 18.7144 14.2267 18.4784 14.2359 18.2438C14.2427 18.0722 14.3677 17.9546 14.5188 17.9531C14.668 17.9517 14.7876 18.0692 14.8089 18.2389C14.8104 18.2517 14.8109 18.2649 14.8109 18.2782C14.8109 18.383 14.8109 18.4872 14.8109 18.592C14.8109 18.5915 14.8104 18.5915 14.8104 18.5915Z" fill="black"/>
<path d="M3.06311 20.9885C3.06311 20.7564 3.06311 20.537 3.06311 20.297C3.14206 20.297 3.21085 20.297 3.28011 20.297C4.04688 20.297 4.81317 20.297 5.57994 20.297C5.63807 20.297 5.69668 20.3 5.75383 20.2921C5.89866 20.2715 5.98779 20.1864 6.00232 20.0364C6.01733 19.878 5.94468 19.7674 5.79355 19.729C5.70781 19.7074 5.6153 19.7089 5.52569 19.7089C4.82334 19.7074 4.12148 19.7079 3.41913 19.7079C3.34986 19.7079 3.2806 19.7079 3.21133 19.7079C3.21375 19.4177 3.32419 19.2382 3.57607 19.1536C3.77757 19.0858 3.87106 18.9618 3.9161 18.7528C4.02315 18.2561 4.43874 17.8996 4.95219 17.8327C5.41719 17.7722 5.91077 18.0398 6.14037 18.4774C6.32104 18.8217 6.33848 18.8296 6.71096 18.7258C7.24281 18.5778 7.75722 19.0125 7.69522 19.553C7.68262 19.6612 7.65066 19.7207 7.52956 19.7098C7.42106 19.7 7.31062 19.7064 7.20115 19.7084C6.96042 19.7128 6.82915 19.823 6.83448 20.0138C6.83932 20.1972 6.96332 20.296 7.19922 20.296C8.2881 20.297 9.3765 20.2965 10.4654 20.2965C10.5346 20.2965 10.6039 20.2965 10.6853 20.2965C10.6853 20.5351 10.6853 20.7544 10.6853 20.988C8.14715 20.9885 5.61336 20.9885 3.06311 20.9885Z" fill="#F5BB00"/>
<path d="M8.26677 19.7113C8.31763 19.2176 8.18104 18.8163 7.84875 18.475C8.20235 18.1401 8.60293 18.0122 9.06018 18.146C9.5402 18.2862 9.83422 18.6181 9.94224 19.1148C9.95192 19.1596 9.95531 19.2053 9.96113 19.251C10.011 19.6553 9.96258 19.7113 9.56539 19.7113C9.14156 19.7113 8.71773 19.7113 8.26677 19.7113Z" fill="#F5BB00"/>
</svg>
