<svg width="30" height="30" viewBox="0 0 30 30" fill="none" xmlns="http://www.w3.org/2000/svg">
<path d="M6.57607 9.2833C6.71492 9.29325 6.85892 9.28405 6.99187 9.31756C7.30675 9.39749 7.61832 9.49104 7.92658 9.5938C8.05548 9.63652 8.14203 9.6229 8.23373 9.52015C8.36299 9.37468 8.50331 9.23732 8.6473 9.10584C9.00637 8.77771 9.49103 8.735 9.88805 8.9906C10.2733 9.2381 10.4298 9.69662 10.2851 10.1544C10.2737 10.1908 10.2615 10.2273 10.2446 10.2803C10.5996 10.3857 10.9458 10.4925 11.2953 10.5872C11.3421 10.6 11.4187 10.5662 11.4585 10.5293C11.6113 10.3883 11.7542 10.2366 11.9026 10.0904C12.2653 9.73349 12.7743 9.66574 13.1699 9.91987C13.5857 10.1876 13.7359 10.6649 13.5592 11.1525C13.5481 11.1827 13.5385 11.2137 13.5246 11.2564C14.1142 11.4313 14.6976 11.6089 15.285 11.772C15.3424 11.7882 15.4411 11.733 15.4923 11.6825C16.3103 10.872 17.1245 10.057 17.938 9.24198C18.5855 8.59382 19.343 8.11617 20.1783 7.74643C20.7642 7.48681 21.3332 7.40912 21.9055 7.76489C22.016 7.87538 22.1265 7.98587 22.237 8.09636C22.6749 8.84804 22.3847 9.53672 22.0529 10.2214C21.7005 10.948 21.2361 11.5936 20.663 12.1629C19.883 12.9385 19.1082 13.72 18.3267 14.4941C18.2321 14.588 18.2033 14.6683 18.245 14.7998C18.4177 15.3518 18.5786 15.9076 18.747 16.4729C18.8118 16.4515 18.8711 16.4313 18.9304 16.4125C19.3719 16.2737 19.8419 16.4468 20.0868 16.839C20.3181 17.2088 20.2739 17.7074 19.9719 18.0345C19.8132 18.2065 19.6394 18.3648 19.4792 18.5361C19.4412 18.5769 19.4018 18.6524 19.414 18.6977C19.5083 19.0483 19.6155 19.3956 19.7127 19.7227C19.9167 19.7035 20.1049 19.6575 20.2872 19.6741C20.6831 19.7105 20.9656 19.9304 21.107 20.3031C21.2544 20.692 21.1704 21.0471 20.8953 21.3538C20.7609 21.5037 20.6173 21.6466 20.4677 21.7821C20.3764 21.8646 20.365 21.9438 20.4011 22.0565C20.5024 22.3721 20.6018 22.6889 20.6843 23.01C20.7186 23.143 20.7079 23.287 20.7175 23.4262C20.2019 23.9418 19.6863 24.4573 19.1707 24.9729C18.8477 25.019 18.7785 24.9799 18.6363 24.6691C18.6253 24.6455 18.6139 24.6223 18.6032 24.5984C17.5528 22.287 16.5027 19.9752 15.452 17.6642C15.4243 17.6035 15.3901 17.5456 15.3514 17.4731C14.7073 18.1172 14.0823 18.7429 13.4563 19.3675C13.3874 19.4364 13.3182 19.5071 13.2382 19.5619C12.8313 19.8415 12.4244 20.121 12.0093 20.3887C11.8756 20.4752 11.8329 20.5541 11.8756 20.7183C12.157 21.807 12.4233 22.8997 12.701 23.9891C12.7548 24.1997 12.7217 24.3633 12.5585 24.5161C12.2926 24.765 12.0356 25.0236 11.7859 25.2887C11.6467 25.4368 11.4949 25.4964 11.299 25.4427C11.2438 25.3874 11.1885 25.3322 11.1333 25.2769C11.1123 25.2375 11.0953 25.1955 11.0703 25.1594C10.8151 24.7996 10.5587 24.4409 10.3028 24.0818C9.92268 23.5485 9.54407 23.0138 9.1592 22.4838C9.11979 22.4297 9.03324 22.3601 8.98426 22.3707C8.65317 22.4425 8.35597 22.3604 8.06723 22.2109C7.97515 22.1188 7.88308 22.0267 7.79101 21.9347C7.66689 21.6824 7.55529 21.4198 7.62379 21.1347C7.66503 20.9638 7.591 20.8906 7.47131 20.8062C6.97301 20.456 6.4806 20.0969 5.98267 19.7448C5.5654 19.4498 5.14407 19.1603 4.72459 18.8682C4.66934 18.813 4.6141 18.7577 4.55885 18.7025C4.50618 18.5077 4.56437 18.3552 4.71278 18.2156C4.97352 17.9711 5.22874 17.7196 5.47107 17.4566C5.63311 17.2806 5.80399 17.2474 6.03085 17.3056C7.10699 17.5826 8.18754 17.8419 9.26257 18.1229C9.44524 18.1708 9.52295 18.1167 9.62239 17.9782C10.022 17.4203 10.3405 16.8041 10.8495 16.3232C11.3695 15.8319 11.8644 15.3148 12.3704 14.8088C12.4191 14.7602 12.4677 14.7116 12.5329 14.6464C12.433 14.5989 12.3586 14.5613 12.2832 14.5271C9.96661 13.473 7.64971 12.4193 5.3328 11.3648C5.02086 11.223 4.98255 11.1538 5.02895 10.8304C5.5449 10.3145 6.06049 9.79889 6.57607 9.2833ZM14.8578 13.2628C13.6156 14.505 12.3727 15.7472 11.1316 16.9905C11.0631 17.059 10.9975 17.1327 10.9434 17.2126C10.1111 18.4382 9.2814 19.6657 8.44947 20.8917C8.24103 21.1988 8.22189 21.4161 8.39719 21.5966C8.57803 21.7826 8.79863 21.7645 9.11572 21.5491C10.0025 20.9466 10.8923 20.3485 11.7791 19.7453C12.171 19.4787 12.6081 19.2559 12.9403 18.9274C15.425 16.4706 17.8925 13.9965 20.3559 11.5184C21.0022 10.8684 21.4496 10.0851 21.745 9.2174C21.8488 8.9132 21.8242 8.61894 21.5818 8.38618C21.3417 8.15489 21.0566 8.13647 20.7476 8.24658C19.8196 8.57801 19.0153 9.09875 18.3211 9.79663C17.1698 10.9552 16.0127 12.1079 14.8578 13.2628ZM5.91504 10.8923C5.97323 10.9218 6.00086 10.9376 6.02995 10.9505C8.31887 11.991 10.6082 13.0303 12.8949 14.0752C13.0168 14.1308 13.0786 14.0984 13.1608 14.0156C13.6734 13.497 14.1901 12.9833 14.7053 12.4673C14.7392 12.4335 14.7686 12.3944 14.8151 12.3399C14.7116 12.3071 14.6327 12.2799 14.5532 12.2563C13.8115 12.036 13.0697 11.8173 12.3284 11.5966C10.5588 11.0703 8.78987 10.5418 7.01951 10.0199C6.94512 9.99778 6.82505 9.99631 6.77755 10.0401C6.48771 10.3093 6.21224 10.5951 5.91504 10.8923ZM17.6627 15.1691C17.0915 15.7403 16.5535 16.2872 16.0029 16.8216C15.885 16.9358 15.888 17.0212 15.9495 17.1564C16.857 19.1422 17.7597 21.1306 18.6639 23.1182C18.8083 23.4357 18.9545 23.7528 19.1085 24.0887C19.3891 23.8081 19.6461 23.5414 19.915 23.2873C20.0148 23.1927 20.0284 23.1083 19.9901 22.9809C19.3805 20.9439 18.7761 18.9062 18.1699 16.8681C18.006 16.3145 17.8395 15.7614 17.6627 15.1691ZM8.00089 20.3694C8.36989 19.8237 8.72159 19.3033 9.07255 18.7836C9.04677 18.7638 9.03794 18.752 9.02725 18.7494C8.01925 18.4956 7.01088 18.2422 6.00214 17.9921C5.95942 17.9818 5.89277 17.9895 5.86367 18.0172C5.7031 18.1667 5.55101 18.3247 5.37939 18.4963C6.26034 19.1261 7.11993 19.7404 8.00089 20.3694ZM11.5082 24.6214C11.6606 24.4689 11.7877 24.3301 11.9276 24.2063C12.019 24.1253 12.0289 24.0461 11.9998 23.9331C11.7578 22.9825 11.5217 22.0298 11.2831 21.0781C11.2713 21.031 11.2518 20.9857 11.2289 20.9209C10.6909 21.2858 10.1683 21.6405 9.63648 22.0014C10.2659 22.8819 10.8769 23.7375 11.5082 24.6214ZM12.1059 10.8321C12.3088 10.8936 12.4867 10.9485 12.665 11.0008C12.8561 11.0571 12.9924 10.9628 12.9618 10.7651C12.9456 10.659 12.8638 10.522 12.774 10.4793C12.6837 10.4369 12.5287 10.4631 12.434 10.5165C12.3158 10.5831 12.2296 10.7083 12.1059 10.8321ZM19.1731 17.8978C19.2641 17.8068 19.3318 17.7398 19.3989 17.6721C19.4309 17.64 19.4655 17.6091 19.4924 17.5726C19.6007 17.4283 19.5907 17.2504 19.467 17.1303C19.3432 17.011 19.2003 16.9948 19.0589 17.0868C19.0162 17.1148 18.9705 17.1959 18.9809 17.2393C19.0313 17.4511 19.1009 17.6592 19.1731 17.8978ZM8.84767 9.86304C9.0447 9.92234 9.21669 9.97501 9.38905 10.0266C9.59051 10.0873 9.70246 9.9857 9.66894 9.7732C9.63064 9.5316 9.36878 9.41043 9.16328 9.55332C9.05353 9.62918 8.9692 9.74151 8.84767 9.86304ZM20.148 21.1781C20.2744 21.0349 20.3801 20.9366 20.4592 20.8206C20.5517 20.6861 20.5226 20.5414 20.4136 20.4287C20.3042 20.3149 20.162 20.2928 20.0221 20.3716C19.9838 20.393 19.9407 20.4655 19.9495 20.5016C20.0029 20.7134 20.0711 20.9207 20.148 21.1781Z" fill="#404040"/>
<path d="M8.00093 20.3698C7.11997 19.7408 6.26038 19.1264 5.37869 18.4967C5.55031 18.325 5.70277 18.1667 5.86297 18.0175C5.89243 17.9903 5.95909 17.9818 6.00145 17.9925C7.01055 18.2422 8.01856 18.496 9.02656 18.7498C9.03761 18.7527 9.04645 18.7645 9.07186 18.784C8.72163 19.3037 8.36956 19.8244 8.00093 20.3698Z" fill="#F8C206"/>
<path d="M11.5082 24.6209C10.877 23.737 10.266 22.8815 9.63692 22.0005C10.1687 21.6396 10.6913 21.285 11.2294 20.92C11.2518 20.9852 11.2717 21.0301 11.2835 21.0773C11.5222 22.0289 11.7583 22.981 12.0003 23.9322C12.029 24.0449 12.0194 24.1245 11.9281 24.2055C11.7878 24.3296 11.6607 24.4685 11.5082 24.6209Z" fill="#F8C206"/>
</svg>
