<svg width="35" height="35" viewBox="0 0 35 35" fill="none" xmlns="http://www.w3.org/2000/svg">
<circle cx="17.5" cy="17.5" r="16.75" stroke="white" stroke-width="1.5"/>
<path d="M14.1406 10.4906C14.22 10.4907 14.2998 10.4963 14.3758 10.5192C14.6609 10.6051 14.8784 10.7886 15.0906 10.9904C17.2615 13.0573 19.4359 15.1208 21.6107 17.1839C21.9531 17.5086 22.0968 17.8866 21.9313 18.3281C21.8717 18.4874 21.7609 18.6441 21.6344 18.7647C19.4 20.8956 17.1599 23.0211 14.9198 25.1461C14.58 25.4683 14.1728 25.5777 13.7187 25.4168C13.2923 25.2654 13.0506 24.9557 13.0055 24.5237C12.9691 24.1749 13.1167 23.888 13.3741 23.6443C13.9136 23.135 14.4504 22.6232 14.9885 22.1122C16.3919 20.78 17.7948 19.4474 19.199 18.1157C19.21 18.1052 19.2218 18.0954 19.2345 18.0847C19.3084 18.0222 19.2709 17.9288 19.2003 17.8625C17.265 16.0276 15.3318 14.1903 13.3965 12.3554C13.0606 12.0369 12.91 11.6706 13.0558 11.2266C13.1692 10.8819 13.4135 10.6536 13.7774 10.5435C13.8928 10.5086 14.0125 10.4905 14.133 10.4906C14.1355 10.4906 14.1381 10.4906 14.1406 10.4906Z" fill="white"/>
</svg>
