<svg width="35" height="35" viewBox="0 0 35 35" fill="none" xmlns="http://www.w3.org/2000/svg">
<circle cx="17.5" cy="17.5" r="16.75" stroke="white" stroke-width="1.5"/>
<path d="M16.2567 13.7747C16.1793 12.3066 16.0943 10.8385 16.0275 9.37039C15.9944 8.64376 16.6697 8.06701 17.5137 8.0723C18.3627 8.07813 19.008 8.67024 18.9705 9.41541C18.9024 10.758 18.8324 12.1006 18.76 13.4431C18.6725 15.0632 18.5844 16.6833 18.4889 18.3034C18.4639 18.7277 18.0715 19.0534 17.5893 19.082C17.0795 19.1122 16.6191 18.8442 16.5304 18.4348C16.4798 18.2023 16.4829 17.9602 16.4704 17.7225C16.3992 16.4064 16.3298 15.0903 16.2599 13.7747C16.2586 13.7747 16.258 13.7747 16.2567 13.7747Z" fill="white"/>
<path d="M19.0043 22.0589C19.0049 22.7707 18.3446 23.3316 17.5056 23.3321C16.6684 23.3326 16.0006 22.7691 16 22.0615C15.9994 21.3561 16.6709 20.7857 17.5024 20.7852C18.3389 20.7852 19.0036 21.3487 19.0043 22.0589Z" fill="white"/>
</svg>
